<?xml version="1.0" encoding="UTF-8"?>
<svg width="614px" height="454px" viewBox="0 0 614 454" version="1.1" xmlns="http://www.w3.org/2000/svg" xmlns:xlink="http://www.w3.org/1999/xlink">
    <!-- Generator: Sketch 44.1 (41455) - http://www.bohemiancoding.com/sketch -->
    <title>Dark Macbook</title>
    <desc>Created with Sketch.</desc>
    <defs>
        <filter x="-72.1%" y="-45.8%" width="243.8%" height="304.4%" filterUnits="objectBoundingBox" id="filter-1">
            <feOffset dx="0" dy="90" in="SourceAlpha" result="shadowOffsetOuter1"></feOffset>
            <feGaussianBlur stdDeviation="57" in="shadowOffsetOuter1" result="shadowBlurOuter1"></feGaussianBlur>
            <feColorMatrix values="0 0 0 0 0   0 0 0 0 0   0 0 0 0 0  0 0 0 0.200000003 0" type="matrix" in="shadowBlurOuter1" result="shadowMatrixOuter1"></feColorMatrix>
            <feMerge>
                <feMergeNode in="shadowMatrixOuter1"></feMergeNode>
                <feMergeNode in="SourceGraphic"></feMergeNode>
            </feMerge>
        </filter>
        <path d="M475.222629,266.665806 C475.222629,266.665806 459.53076,273.115307 420.304077,273.115307 C420.304077,273.115307 288.935358,274.271248 237.611314,274.271248 C186.28727,274.271248 54.9185517,273.115307 54.9185517,273.115307 C15.6918689,273.115307 1.13686838e-13,266.665806 1.13686838e-13,266.665806 L475.222629,266.665806 Z" id="path-2"></path>
        <filter x="-26.8%" y="-1637.0%" width="153.7%" height="3452.9%" filterUnits="objectBoundingBox" id="filter-3">
            <feGaussianBlur stdDeviation="37.5 0" in="SourceGraphic"></feGaussianBlur>
        </filter>
        <filter x="-28.7%" y="-1755.3%" width="157.4%" height="3689.5%" filterUnits="objectBoundingBox" id="filter-4">
            <feOffset dx="0" dy="3" in="SourceAlpha" result="shadowOffsetOuter1"></feOffset>
            <feGaussianBlur stdDeviation="7.5" in="shadowOffsetOuter1" result="shadowBlurOuter1"></feGaussianBlur>
            <feColorMatrix values="0 0 0 0 0   0 0 0 0 0   0 0 0 0 0  0 0 0 1 0" type="matrix" in="shadowBlurOuter1"></feColorMatrix>
        </filter>
        <linearGradient x1="50%" y1="100%" x2="50%" y2="95.3611898%" id="linearGradient-5">
            <stop stop-color="#000000" offset="0%"></stop>
            <stop stop-color="#000000" stop-opacity="0" offset="100%"></stop>
        </linearGradient>
        <path d="M56.6465373,0 L417.815735,0 C425.254019,0 431.502147,6.25311643 431.502147,13.6897954 L431.502147,254.782303 C431.502147,262.218982 431.456514,268.472098 423.898585,268.472098 L51.3240439,268.472098 C43.6703113,268.472098 42.9601256,262.218982 42.9601256,254.782303 L42.9601256,13.6897954 C42.9601256,6.25311643 49.2082535,0 56.6465373,0 L56.6465373,0 Z" id="path-6"></path>
        <linearGradient x1="0%" y1="100%" x2="97.393176%" y2="8.90083246%" id="linearGradient-7">
            <stop stop-color="#30353B" offset="0%"></stop>
            <stop stop-color="#32343B" offset="100%"></stop>
        </linearGradient>
        <rect id="path-8" x="57.4068935" y="19.7741489" width="359.648485" height="224.360535"></rect>
        <rect id="path-10" x="57.4068935" y="19.7741489" width="359.648485" height="224.360535"></rect>
        <linearGradient x1="60.9582782%" y1="662.598634%" x2="60.9582803%" y2="-116.229277%" id="linearGradient-12">
            <stop stop-color="#3F4148" offset="0%"></stop>
            <stop stop-color="#1A191F" offset="100%"></stop>
        </linearGradient>
        <linearGradient x1="100%" y1="59.0212107%" x2="0%" y2="59.0212107%" id="linearGradient-13">
            <stop stop-color="#000000" offset="0%"></stop>
            <stop stop-color="#FFFFFF" stop-opacity="0.5" offset="49.648972%"></stop>
            <stop stop-color="#000000" offset="100%"></stop>
        </linearGradient>
        <rect id="path-14" x="0.126726034" y="0" width="475.222629" height="1.52108837"></rect>
        <filter x="-0.3%" y="-98.6%" width="100.6%" height="297.2%" filterUnits="objectBoundingBox" id="filter-15">
            <feOffset dx="0" dy="3" in="SourceAlpha" result="shadowOffsetInner1"></feOffset>
            <feComposite in="shadowOffsetInner1" in2="SourceAlpha" operator="arithmetic" k2="-1" k3="1" result="shadowInnerInner1"></feComposite>
            <feColorMatrix values="0 0 0 0 0.168627451   0 0 0 0 0.168627451   0 0 0 0 0.168627451  0 0 0 1 0" type="matrix" in="shadowInnerInner1"></feColorMatrix>
        </filter>
        <linearGradient x1="-8.80888625%" y1="17.4308911%" x2="104.659172%" y2="84.2633009%" id="linearGradient-16">
            <stop stop-color="#5E5E5E" stop-opacity="0.5" offset="0%"></stop>
            <stop stop-color="#2C2F36" offset="10.162229%"></stop>
            <stop stop-color="#1D1F24" offset="89.9673151%"></stop>
            <stop stop-color="#525252" offset="100%"></stop>
        </linearGradient>
        <linearGradient x1="50%" y1="2.0567602%" x2="50%" y2="100%" id="linearGradient-17">
            <stop stop-color="#3E3E3E" offset="0%"></stop>
            <stop stop-color="#9A9A9A" offset="100%"></stop>
        </linearGradient>
        <linearGradient x1="50%" y1="50%" x2="50%" y2="0%" id="linearGradient-18">
            <stop stop-color="#000000" stop-opacity="0" offset="0%"></stop>
            <stop stop-color="#000000" offset="100%"></stop>
        </linearGradient>
        <linearGradient x1="50%" y1="20.7927981%" x2="50%" y2="100%" id="linearGradient-19">
            <stop stop-color="#FFFFFF" stop-opacity="-0.0636196476" offset="0%"></stop>
            <stop stop-color="#FFFFFF" stop-opacity="0" offset="0%"></stop>
            <stop stop-color="#FFFFFF" offset="100%"></stop>
        </linearGradient>
        <path d="M237.357862,3.80272094 C220.08375,3.80272094 196.251105,3.38019648 191.73649,2.53514729 L191.73649,0 L282.979235,0 L282.979235,2.53514729 C278.46462,3.38019648 254.631974,3.80272094 237.357862,3.80272094 Z" id="path-20"></path>
        <path d="M374.982335,0 C382.420619,0 388.668747,6.25311643 388.668747,13.6897954 L388.668747,254.782303 C388.668747,258.023146 388.024784,263.410933 388.024784,263.410933 L1.12853182,263.647449 C1.12853182,263.647449 0.126726034,258.131873 0.126726034,254.782303 L0.126726034,13.6897954 C0.126726034,6.25311643 6.37485388,0 13.8131377,0 L374.982335,0 Z" id="path-21"></path>
        <radialGradient cx="75.7661106%" cy="30.1453034%" fx="75.7661106%" fy="30.1453034%" r="106.395557%" gradientTransform="translate(0.757661,0.301453),scale(1.000000,0.999753),rotate(110.757055),translate(-0.757661,-0.301453)" id="radialGradient-23">
            <stop stop-color="#FFFFFF" stop-opacity="0.263700181" offset="0%"></stop>
            <stop stop-color="#000000" stop-opacity="0" offset="100%"></stop>
        </radialGradient>
    </defs>
    <g id="Page-1" stroke="none" stroke-width="1" fill="none" fill-rule="evenodd">
        <g id="work-details" transform="translate(0.000000, -227.000000)">
            <g id="Dark-Macbook" filter="url(#filter-1)" transform="translate(58.000000, 236.000000)">
                <g id="shadow" opacity="0.1" filter="url(#filter-3)" fill-opacity="1" fill="black">
                    <use filter="url(#filter-4)" xlink:href="#path-2"></use>
                </g>
                <g id="top">
                    <use fill="#212329" fill-rule="evenodd" xlink:href="#path-6"></use>
                    <use fill-opacity="0.1" fill="url(#linearGradient-5)" fill-rule="evenodd" style="mix-blend-mode: multiply;" xlink:href="#path-6"></use>
                    <path stroke-opacity="0.25" stroke="#BEBEBE" stroke-width="11.25" d="M56.6465373,5.625 C52.3165658,5.625 48.5851256,9.35800731 48.5851256,13.6897954 L48.5851256,254.782303 C48.5851256,258.657593 48.8371994,260.867341 49.3918618,262.086368 C49.6811982,262.722267 49.8843052,262.847098 51.3240439,262.847098 L423.898585,262.847098 C424.379267,262.847098 424.743405,262.80537 425.0001,262.739649 C425.123214,262.708128 425.173024,262.686558 425.182381,262.680399 C425.159526,262.695443 425.180893,262.666868 425.282656,262.401552 C425.738267,261.213686 425.877147,259.361499 425.877147,254.782303 L425.877147,13.6897954 C425.877147,9.35800731 422.145707,5.625 417.815735,5.625 L56.6465373,5.625 Z"></path>
                </g>
                <mask id="mask-9" fill="white">
                    <use xlink:href="#path-8"></use>
                </mask>
                <use id="screen" fill="url(#linearGradient-7)" xlink:href="#path-8"></use>
                <mask id="mask-11" fill="white">
                    <use xlink:href="#path-10"></use>
                </mask>
                <rect stroke="#000000" stroke-width="3.75" x="59.2818935" y="21.6491489" width="355.898485" height="220.610535"></rect>
                <g id="Foot" transform="translate(0.253452, 263.908833)">
                    <path d="M475.349355,1.52108837 C475.349355,1.52108837 459.657486,9.26048974 420.603708,8.82231257 C420.430803,9.26048974 289.062084,10.6476186 238.118218,10.6476186 C186.413996,10.6476186 55.0452777,9.26048974 54.8723728,8.82231257 C15.8185949,9.26048974 0.126726034,1.52108837 0.126726034,1.52108837 L475.349355,1.52108837 Z" id="bottom" fill="url(#linearGradient-12)"></path>
                    <g id="bottomfront">
                        <use fill="#303644" fill-rule="evenodd" xlink:href="#path-14"></use>
                        <use fill-opacity="0.02" fill="url(#linearGradient-13)" fill-rule="evenodd" style="mix-blend-mode: multiply;" xlink:href="#path-14"></use>
                        <use fill="black" fill-opacity="1" filter="url(#filter-15)" xlink:href="#path-14"></use>
                    </g>
                    <g id="shadows">
                        <use fill="url(#linearGradient-16)" xlink:href="#path-20"></use>
                        <use fill-opacity="0.03" fill="url(#linearGradient-17)" style="mix-blend-mode: multiply;" xlink:href="#path-20"></use>
                        <use fill-opacity="0.04" fill="url(#linearGradient-18)" style="mix-blend-mode: multiply;" xlink:href="#path-20"></use>
                        <use fill-opacity="0.3" fill="url(#linearGradient-19)" style="mix-blend-mode: soft-light;" xlink:href="#path-20"></use>
                    </g>
                </g>
                <g id="Light-Effect" transform="translate(42.833400, 0.000000)">
                    <mask id="mask-22" fill="white">
                        <use xlink:href="#path-21"></use>
                    </mask>
                    <g id="Mask"></g>
                    <ellipse id="Oval-3" fill="url(#radialGradient-23)" mask="url(#mask-22)" cx="282.725782" cy="76.9417203" rx="253.07189" ry="253.134457"></ellipse>
                </g>
            </g>
        </g>
    </g>
</svg>