<?xml version="1.0" encoding="UTF-8"?>
<svg width="15px" height="14px" viewBox="0 0 15 14" version="1.1" xmlns="http://www.w3.org/2000/svg" xmlns:xlink="http://www.w3.org/1999/xlink">
    <!-- Generator: Sketch 44.1 (41455) - http://www.bohemiancoding.com/sketch -->
    <title>LinkedIn</title>
    <desc>Created with Sketch.</desc>
    <defs></defs>
    <g id="Page-1" stroke="none" stroke-width="1" fill="none" fill-rule="evenodd">
        <g id="skills" transform="translate(-492.000000, -662.000000)" fill="#2E0444">
            <g id="footer" transform="translate(0.000000, 644.000000)">
                <g id="Group" transform="translate(492.000000, 18.000000)">
                    <path d="M15,13.6363636 L11.6847954,13.6363636 L11.6847954,8.84263652 C11.6847954,7.587885 11.1662159,6.73130097 10.0258702,6.73130097 C9.15363358,6.73130097 8.66856773,7.30934238 8.44279163,7.86642761 C8.35812559,8.06638453 8.37135466,8.34492715 8.37135466,8.62346976 L8.37135466,13.6363636 L5.08701787,13.6363636 C5.08701787,13.6363636 5.12935089,5.1447432 5.08701787,4.37285708 L8.37135466,4.37285708 L8.37135466,5.82669236 C8.565381,5.19102144 9.61488711,4.2837933 11.2896872,4.2837933 C13.3675329,4.2837933 15,5.61625734 15,8.48550822 L15,13.6363636 L15,13.6363636 Z M1.7656397,3.21415474 L1.74447319,3.21415474 C0.686147695,3.21415474 0,2.50601035 0,1.60838713 C0,0.693300424 0.706432267,0 1.78592427,0 C2.86453434,0 3.52775165,0.691554076 3.54891816,1.60576761 C3.54891816,2.50339083 2.86453434,3.21415474 1.7656397,3.21415474 L1.7656397,3.21415474 L1.7656397,3.21415474 Z M0.378351364,4.37285708 L3.30197554,4.37285708 L3.30197554,13.6363636 L0.378351364,13.6363636 L0.378351364,4.37285708 L0.378351364,4.37285708 Z" id="LinkedIn"></path>
                </g>
            </g>
        </g>
    </g>
</svg>