<?xml version="1.0" encoding="UTF-8"?>
<svg width="80px" height="78px" viewBox="0 0 80 78" version="1.1" xmlns="http://www.w3.org/2000/svg" xmlns:xlink="http://www.w3.org/1999/xlink">
    <!-- Generator: Sketch 44.1 (41455) - http://www.bohemiancoding.com/sketch -->
    <title>adobe-illustrator-cc</title>
    <desc>Created with Sketch.</desc>
    <defs>
        <filter x="-9.8%" y="-7.1%" width="120.1%" height="120.0%" filterUnits="objectBoundingBox" id="filter-1">
            <feOffset dx="0" dy="2" in="SourceAlpha" result="shadowOffsetOuter1"></feOffset>
            <feGaussianBlur stdDeviation="2" in="shadowOffsetOuter1" result="shadowBlurOuter1"></feGaussianBlur>
            <feColorMatrix values="0 0 0 0 0   0 0 0 0 0   0 0 0 0 0  0 0 0 0.5 0" type="matrix" in="shadowBlurOuter1" result="shadowMatrixOuter1"></feColorMatrix>
            <feMerge>
                <feMergeNode in="shadowMatrixOuter1"></feMergeNode>
                <feMergeNode in="SourceGraphic"></feMergeNode>
            </feMerge>
        </filter>
        <radialGradient cx="32.9351254%" cy="22.4100935%" fx="32.9351254%" fy="22.4100935%" r="0.139277297%" gradientTransform="translate(0.329351,0.224101),scale(0.973891,1.000000),translate(-0.329351,-0.224101)" id="radialGradient-2">
            <stop stop-color="#423325" stop-opacity="0.98" offset="0%"></stop>
            <stop stop-color="#1C0A00" offset="100%"></stop>
        </radialGradient>
    </defs>
    <g id="Page-1" stroke="none" stroke-width="1" fill="none" fill-rule="evenodd">
        <g id="tech" transform="translate(-827.000000, -205.000000)" fill-rule="nonzero">
            <g transform="translate(112.000000, 191.000000)" id="tech-logos">
                <g transform="translate(312.000000, 16.000000)">
                    <g id="adobe-illustrator-cc" filter="url(#filter-1)" transform="translate(407.000000, 0.000000)">
                        <polygon id="Shape" fill="url(#radialGradient-2)" points="2.97961325 3.07290378 68.5320658 3.07290378 68.5320658 66.913866 2.97961325 66.913866"></polygon>
                        <path d="M2.97961325,3.07290378 L68.5320658,3.07290378 L68.5320658,66.913866 L2.97961325,66.913866 L2.97961325,3.07290378 Z M0,69.8971649 L71.5116791,69.8971649 L71.5116791,0.0897250859 L0,0.0897250859 L0,69.8971649 Z M46.8401017,24.9697938 C46.8401017,24.7311684 46.9294793,24.6117354 47.1977322,24.6117354 L51.8757599,24.6117354 C52.11398,24.6117354 52.2332702,24.7012199 52.2332702,24.9697938 L52.2332702,48.5074742 C52.2332702,48.7459794 52.1736851,48.8654124 51.8757599,48.8654124 L47.2573173,48.8654124 C46.959392,48.8654124 46.8698943,48.7162715 46.8698943,48.477646 L46.8698943,24.9697938 L46.8401017,24.9697938 Z M46.5123839,18.1978351 C46.5123839,16.2885911 47.8531678,15.155 49.5517024,15.155 C51.3692869,15.155 52.5909007,16.3780756 52.5909007,18.1978351 C52.5909007,20.1667354 51.3097018,21.2406701 49.4921173,21.2406701 C47.7637903,21.2407904 46.5123839,20.1667354 46.5123839,18.1978351 Z M33.1039441,34.7845876 C32.2697533,31.4731787 30.3032062,24.2537973 29.5581527,20.7634192 L29.4985676,20.7634192 C28.8728044,24.2537973 27.2936802,30.1604983 26.0422739,34.7845876 L33.1039441,34.7845876 L33.1039441,34.7845876 Z M24.82054,39.6174742 L22.4665698,48.5671306 C22.4069848,48.8056357 22.3176072,48.8652921 22.0196819,48.8652921 L17.6395795,48.8652921 C17.3416543,48.8652921 17.2819491,48.7758076 17.3416543,48.4178694 L25.8038136,18.7645704 C25.9527762,18.2276632 26.0421538,17.7502921 26.1017388,16.2885911 C26.1017388,16.0797938 26.1911164,15.9903093 26.3400791,15.9903093 L32.597351,15.9903093 C32.8058987,15.9903093 32.8952763,16.0499656 32.9549815,16.2885911 L42.4302069,48.4775258 C42.4897919,48.7160309 42.4302069,48.8652921 42.1918666,48.8652921 L37.2455861,48.8652921 C37.0072459,48.8652921 36.8581631,48.8056357 36.7986982,48.5969588 L34.3553504,39.6174742 L24.82054,39.6174742 L24.82054,39.6174742 Z" id="Shape" fill="#FF7F18"></path>
                    </g>
                </g>
            </g>
        </g>
    </g>
</svg>