<?xml version="1.0" encoding="UTF-8"?>
<svg width="78px" height="78px" viewBox="0 0 78 78" version="1.1" xmlns="http://www.w3.org/2000/svg" xmlns:xlink="http://www.w3.org/1999/xlink">
    <!-- Generator: Sketch 44.1 (41455) - http://www.bohemiancoding.com/sketch -->
    <title>bootstrap-4</title>
    <desc>Created with Sketch.</desc>
    <defs>
        <filter x="-10.0%" y="-7.1%" width="120.0%" height="120.0%" filterUnits="objectBoundingBox" id="filter-1">
            <feOffset dx="0" dy="2" in="SourceAlpha" result="shadowOffsetOuter1"></feOffset>
            <feGaussianBlur stdDeviation="2" in="shadowOffsetOuter1" result="shadowBlurOuter1"></feGaussianBlur>
            <feColorMatrix values="0 0 0 0 0   0 0 0 0 0   0 0 0 0 0  0 0 0 0.5 0" type="matrix" in="shadowBlurOuter1" result="shadowMatrixOuter1"></feColorMatrix>
            <feMerge>
                <feMergeNode in="shadowMatrixOuter1"></feMergeNode>
                <feMergeNode in="SourceGraphic"></feMergeNode>
            </feMerge>
        </filter>
    </defs>
    <g id="Page-1" stroke="none" stroke-width="1" fill="none" fill-rule="evenodd">
        <g id="tech" transform="translate(-629.000000, -304.000000)" fill-rule="nonzero" fill="#563D7C">
            <g transform="translate(112.000000, 191.000000)" id="tech-logos">
                <g transform="translate(312.000000, 16.000000)">
                    <g id="bootstrap-4" filter="url(#filter-1)" transform="translate(209.000000, 99.000000)">
                        <path d="M0,60.9741016 L0,60.9738281 L0,9.02589844 C0,4.04113281 4.04058594,0 9.02617187,0 L60.9741016,0 C65.9588672,0 70,4.04058594 70,9.02617187 L70,60.9741016 C70,65.9588672 65.9594141,70 60.9738281,70 L9.02589844,70 C4.04113281,70 0,65.9594141 0,60.9741016 Z M29.0275781,30.9635156 L29.0275781,21.0505859 L37.7532422,21.0505859 C38.5844922,21.0505859 39.3856641,21.1197656 40.1573047,21.2583984 C40.9289453,21.3967578 41.6117187,21.6439453 42.2053516,22.0002344 C42.7987109,22.3565234 43.2736719,22.8511719 43.6299609,23.4841797 C43.9859766,24.1174609 44.1642578,24.92875 44.1642578,25.9177734 C44.1642578,27.6986719 43.6299609,28.9849219 42.5613672,29.77625 C41.4930469,30.5678516 40.1277734,30.9635156 38.4655469,30.9635156 L29.0275781,30.9635156 L29.0275781,30.9635156 Z M19.7080078,13.8085938 L19.7080078,56.1914062 L40.2464453,56.1914062 C42.1460156,56.1914062 43.9960938,55.9540625 45.7966797,55.4791016 C47.5972656,55.0041406 49.1998828,54.2721484 50.6048047,53.2828516 C52.0094531,52.2935547 53.1275391,51.0171484 53.9585156,49.4541797 C54.7897656,47.8909375 55.2051172,46.0408594 55.2051172,43.9039453 C55.2051172,41.2524219 54.5619922,38.9869922 53.2760156,37.1073828 C51.9897656,35.2275 50.0407031,33.9117188 47.4288281,33.1597656 C49.3283984,32.2497656 50.763125,31.0821875 51.7327344,29.6575781 C52.7020703,28.2329688 53.186875,26.4523438 53.186875,24.3151563 C53.186875,22.3365625 52.8603906,20.6746094 52.2074219,19.3290234 C51.5544531,17.9837109 50.6343359,16.9052734 49.4470703,16.0939844 C48.2600781,15.2826953 46.8354688,14.6989063 45.1732422,14.3428906 C43.5112891,13.9866016 41.6710547,13.8085938 39.6528125,13.8085938 L19.7080078,13.8085938 Z M29.0275781,48.9494141 L29.0275781,37.3149219 L39.1778516,37.3149219 C41.1960937,37.3149219 42.8186719,37.7797656 44.0455859,38.71 C45.2722266,39.6399609 45.8858203,41.1930859 45.8858203,43.3696484 C45.8858203,44.4778906 45.6976953,45.3878906 45.3217187,46.1001953 C44.9457422,46.8125 44.44125,47.3766016 43.8079687,47.7919531 C43.1749609,48.2075781 42.4426953,48.5042578 41.6117187,48.6825391 C40.7804687,48.8602734 39.9101172,48.9494141 38.9998437,48.9494141 L29.0275781,48.9494141 L29.0275781,48.9494141 Z" id="Combined-Shape"></path>
                    </g>
                </g>
            </g>
        </g>
    </g>
</svg>