<?xml version="1.0" encoding="UTF-8" standalone="no"?>
<svg
   xmlns:dc="http://purl.org/dc/elements/1.1/"
   xmlns:cc="http://creativecommons.org/ns#"
   xmlns:rdf="http://www.w3.org/1999/02/22-rdf-syntax-ns#"
   xmlns:svg="http://www.w3.org/2000/svg"
   xmlns="http://www.w3.org/2000/svg"
   xmlns:xlink="http://www.w3.org/1999/xlink"
   xmlns:sodipodi="http://sodipodi.sourceforge.net/DTD/sodipodi-0.dtd"
   xmlns:inkscape="http://www.inkscape.org/namespaces/inkscape"
   width="66.288063"
   height="90.999939"
   viewBox="0 0 9.3086912 12.776391"
   preserveAspectRatio="xMidYMid"
   version="1.1"
   id="svg44"
   sodipodi:docname="firebase.svg"
   inkscape:version="0.92.1 r15371">
  <metadata
     id="metadata48">
    <rdf:RDF>
      <cc:Work
         rdf:about="">
        <dc:format>image/svg+xml</dc:format>
        <dc:type
           rdf:resource="http://purl.org/dc/dcmitype/StillImage" />
      </cc:Work>
    </rdf:RDF>
  </metadata>
  <sodipodi:namedview
     pagecolor="#ffffff"
     bordercolor="#666666"
     borderopacity="1"
     objecttolerance="10"
     gridtolerance="10"
     guidetolerance="10"
     inkscape:pageopacity="0"
     inkscape:pageshadow="2"
     inkscape:window-width="1280"
     inkscape:window-height="776"
     id="namedview46"
     showgrid="false"
     inkscape:zoom="0.0944"
     inkscape:cx="395.39022"
     inkscape:cy="1246.9519"
     inkscape:window-x="0"
     inkscape:window-y="24"
     inkscape:window-maximized="1"
     inkscape:current-layer="svg44" />
  <defs
     id="defs22">
    <path
       d="M 1.253,280.732 2.858,277.601 102.211,89.083 58.061,5.608 C 54.392,-1.283 45.074,0.474 43.87,8.188 Z"
       id="a"
       inkscape:connector-curvature="0" />
    <filter
       x="-0.5"
       y="-0.5"
       width="2"
       height="2"
       filterUnits="objectBoundingBox"
       id="b">
      <feGaussianBlur
         stdDeviation="17.5"
         in="SourceAlpha"
         result="shadowBlurInner1"
         id="feGaussianBlur3" />
      <feOffset
         in="shadowBlurInner1"
         result="shadowOffsetInner1"
         id="feOffset5" />
      <feComposite
         in="shadowOffsetInner1"
         in2="SourceAlpha"
         operator="arithmetic"
         k2="-1"
         k3="1"
         result="shadowInnerInner1"
         id="feComposite7"
         k1="0"
         k4="0" />
      <feColorMatrix
         values="0 0 0 0 0 0 0 0 0 0 0 0 0 0 0 0 0 0 0.06 0"
         in="shadowInnerInner1"
         id="feColorMatrix9" />
    </filter>
    <path
       d="m 134.417,148.974 32.039,-32.812 -32.039,-61.007 c -3.042,-5.791 -10.433,-6.398 -13.443,-0.59 l -17.705,34.109 -0.53,1.744 z"
       id="c"
       inkscape:connector-curvature="0" />
    <filter
       x="-0.5"
       y="-0.5"
       width="2"
       height="2"
       filterUnits="objectBoundingBox"
       id="d">
      <feGaussianBlur
         stdDeviation="3.5"
         in="SourceAlpha"
         result="shadowBlurInner1"
         id="feGaussianBlur13" />
      <feOffset
         dx="1"
         dy="-9"
         in="shadowBlurInner1"
         result="shadowOffsetInner1"
         id="feOffset15" />
      <feComposite
         in="shadowOffsetInner1"
         in2="SourceAlpha"
         operator="arithmetic"
         k2="-1"
         k3="1"
         result="shadowInnerInner1"
         id="feComposite17"
         k1="0"
         k4="0" />
      <feColorMatrix
         values="0 0 0 0 0 0 0 0 0 0 0 0 0 0 0 0 0 0 0.09 0"
         in="shadowInnerInner1"
         id="feColorMatrix19" />
    </filter>
  </defs>
  <path
     d="m 0,10.279886 0.07737926,-0.10833 3.65953214,-6.94387 0.00773,-0.0735 -1.6131552,-3.03018004 c -0.1352223,-0.25383 -0.5157402,-0.18964 -0.560061,0.0945 z"
     id="path24"
     inkscape:connector-curvature="0"
     style="fill:#ffc24a;stroke-width:0.03644807" />
  <use
     xlink:href="#a"
     id="use26"
     transform="matrix(0.03644807,0,0,0.03644807,0,-0.03484404)"
     style="fill:#ffa712;fill-rule:evenodd"
     x="0"
     y="0"
     width="100%"
     height="100%" />
  <use
     xlink:href="#a"
     id="use28"
     style="filter:url(#b)"
     x="0"
     y="0"
     width="100%"
     height="100%"
     transform="translate(0,-337.86269)" />
  <path
     d="M 4.9206719,5.446216 6.1218181,4.216086 4.9203074,1.922416 c -0.114046,-0.21712 -0.4324928,-0.21778 -0.545336,0 l -0.6419599,1.22418 v 0.10424 l 1.1876239,2.19538 z"
     id="path30"
     inkscape:connector-curvature="0"
     style="fill:#f4bd62;stroke-width:0.03644807" />
  <use
     xlink:href="#c"
     id="use32"
     transform="matrix(0.03644807,0,0,0.03644807,0,-0.03484404)"
     style="fill:#ffa50e;fill-rule:evenodd"
     x="0"
     y="0"
     width="100%"
     height="100%" />
  <use
     xlink:href="#c"
     id="use34"
     transform="matrix(0.03644807,0,0,0.03644807,0,-0.03484404)"
     style="filter:url(#d)"
     x="0"
     y="0"
     width="100%"
     height="100%" />
  <path
     d="m 0,10.279886 0.03506304,-0.0353 0.12742246,-0.0517 4.6827389,-4.66535 0.059337,-0.16151 -1.1681606,-2.22603 z"
     id="path36"
     inkscape:connector-curvature="0"
     style="fill:#f6820c;stroke-width:0.03644807" />
  <path
     d="M 5.0706922,12.632716 9.3086917,10.269166 8.0984699,2.815716 C 8.0606009,2.582526 7.7745194,2.490346 7.6075873,2.657536 L 0,10.279886 l 4.2136886,2.35265 a 0.87934617,0.87934617 0 0 0 0.8570036,1.8e-4"
     id="path38"
     inkscape:connector-curvature="0"
     style="fill:#fde068;stroke-width:0.03644807" />
  <path
     d="M 9.2707128,10.249336 8.0696759,2.852496 c -0.037541,-0.23145 -0.2754745,-0.3272 -0.441131,-0.16125 l -7.58152689,7.57413 4.16743609,2.32932 a 0.87267618,0.87267618 0 0 0 0.8504793,2.2e-4 l 4.2058158,-2.34561 z"
     id="path40"
     inkscape:connector-curvature="0"
     style="fill:#fcca3f;stroke-width:0.03644807" />
  <path
     d="m 5.0706557,12.563066 a 0.87934617,0.87934617 0 0 1 -0.8569671,-1.9e-4 L 0.03393315,10.244056 3.6448071e-5,10.279886 4.2136886,12.632536 a 0.87934617,0.87934617 0 0 0 0.8570036,1.8e-4 l 4.2379995,-2.36355 -0.010388,-0.0639 -4.2276118,2.35779 z"
     id="path42"
     inkscape:connector-curvature="0"
     style="fill:#eeab37;stroke-width:0.03644807" />
</svg>
