<?xml version="1.0" encoding="UTF-8"?>
<svg width="78px" height="78px" viewBox="0 0 78 78" version="1.1" xmlns="http://www.w3.org/2000/svg" xmlns:xlink="http://www.w3.org/1999/xlink">
    <!-- Generator: Sketch 44.1 (41455) - http://www.bohemiancoding.com/sketch -->
    <title>Git-Icon-Black</title>
    <desc>Created with Sketch.</desc>
    <defs>
        <path d="M68.5961957,31.9298913 L38.0708696,1.40532609 C36.3132609,-0.353043478 33.4622826,-0.353043478 31.7031522,1.40532609 L25.3643478,7.7448913 L33.4052174,15.7857609 C35.273913,15.1542391 37.4165217,15.5780435 38.9055435,17.0670652 C40.4036957,18.5659783 40.8236957,20.7268478 40.1761957,22.6023913 L47.926413,30.3518478 C49.8019565,29.7051087 51.963587,30.1228261 53.4617391,31.6232609 C55.5541304,33.7148913 55.5541304,37.106087 53.4617391,39.1992391 C51.3678261,41.2931522 47.9773913,41.2931522 45.8827174,39.1992391 C44.3092391,37.6242391 43.9196739,35.3111957 44.7178261,33.3725 L37.4895652,26.145 L37.4895652,45.1636957 C37.9993478,45.4163043 38.4809783,45.7533696 38.9055435,46.1771739 C40.9979348,48.2695652 40.9979348,51.66 38.9055435,53.7554348 C36.8131522,55.8470652 33.4204348,55.8470652 31.3295652,53.7554348 C29.2371739,51.66 29.2371739,48.2695652 31.3295652,46.1771739 C31.8469565,45.6605435 32.4457609,45.2694565 33.0848913,45.0077174 L33.0848913,25.8125 C32.4457609,25.5515217 31.8484783,25.1634783 31.3295652,24.6438043 C29.7446739,23.0596739 29.3634783,20.7329348 30.1768478,18.7866304 L22.2501087,10.8583696 L1.31858696,31.7883696 C-0.439782609,33.5482609 -0.439782609,36.3992391 1.31858696,38.1576087 L31.8454348,68.6821739 C33.6030435,70.4397826 36.4532609,70.4397826 38.2131522,68.6821739 L68.5961957,38.2991304 C70.3545652,36.5407609 70.3545652,33.6875 68.5961957,31.9298913" id="path-1"></path>
        <filter x="-10.0%" y="-7.2%" width="120.0%" height="120.0%" filterUnits="objectBoundingBox" id="filter-2">
            <feOffset dx="0" dy="2" in="SourceAlpha" result="shadowOffsetOuter1"></feOffset>
            <feGaussianBlur stdDeviation="2" in="shadowOffsetOuter1" result="shadowBlurOuter1"></feGaussianBlur>
            <feColorMatrix values="0 0 0 0 0   0 0 0 0 0   0 0 0 0 0  0 0 0 0.5 0" type="matrix" in="shadowBlurOuter1"></feColorMatrix>
        </filter>
    </defs>
    <g id="Page-1" stroke="none" stroke-width="1" fill="none" fill-rule="evenodd">
        <g id="tech" transform="translate(-731.000000, -205.000000)">
            <g transform="translate(112.000000, 191.000000)" id="tech-logos">
                <g transform="translate(312.000000, 16.000000)">
                    <g id="Git-Icon-Black" transform="translate(310.893149, 0.000000)">
                        <g id="Fill-1">
                            <use fill="black" fill-opacity="1" filter="url(#filter-2)" xlink:href="#path-1"></use>
                            <use fill="#75DBCD" fill-rule="evenodd" xlink:href="#path-1"></use>
                        </g>
                    </g>
                </g>
            </g>
        </g>
    </g>
</svg>