<?xml version="1.0" encoding="UTF-8"?>
<svg width="78px" height="78px" viewBox="0 0 78 78" version="1.1" xmlns="http://www.w3.org/2000/svg" xmlns:xlink="http://www.w3.org/1999/xlink">
    <!-- Generator: Sketch 44.1 (41455) - http://www.bohemiancoding.com/sketch -->
    <title>github-icon</title>
    <desc>Created with Sketch.</desc>
    <defs>
        <path d="M0,34.999965 C0,25.3385163 3.41796533,17.0898267 10.253966,10.253896 C17.0898267,3.41796533 25.3385163,0 35.000035,0 C44.6614137,0 52.9101033,3.41796533 59.746104,10.253896 C66.5819647,17.0898267 70,25.3385163 70,34.999965 C70,44.6614137 66.5820347,52.9101033 59.746104,59.746034 C52.9101733,66.5819647 44.6614837,70 35.000035,70 C25.3385163,70 17.0898267,66.5820347 10.253966,59.746034 C3.41796533,52.9101733 0,44.6613437 0,34.999965 Z M3.82812117,34.999965 C3.82812117,43.5677348 6.88150353,50.904897 12.9882683,57.0117317 C19.095033,63.1184265 26.4322652,66.1718788 35.000035,66.1718788 C43.5677348,66.1718788 50.904967,63.1184965 57.0117317,57.0117317 C63.1184965,50.904967 66.1718788,43.5677348 66.1718788,34.999965 C66.1718788,26.4322652 63.1185665,19.095033 57.0117317,12.9882683 C50.904967,6.88150353 43.5676648,3.82812117 35.000035,3.82812117 C26.4322652,3.82812117 19.095103,6.88150353 12.9882683,12.9882683 C6.88150353,19.095033 3.82812117,26.4322652 3.82812117,34.999965 Z M13.6719313,42.5194887 C13.4896398,42.3371972 13.4896398,42.1549058 13.6719313,41.9726143 C14.0364443,41.6080313 14.492243,41.4713127 15.0390475,41.5624584 C15.5859219,41.6536042 15.904932,41.7447499 15.9960778,41.8358957 C16.6340979,42.1093329 17.3405125,42.7245316 18.1151813,43.6816319 C18.8898501,44.6386622 19.5051188,45.2994339 19.9609175,45.6640168 C22.1484154,47.4869317 24.381416,47.6236503 26.6600596,46.0741727 C26.8423511,45.4361525 27.1386097,44.889278 27.5486956,44.4334793 C27.9587814,43.9777506 28.3462558,43.6588105 28.7108388,43.476449 C29.0754918,43.2941575 29.713512,43.0207203 30.6249694,42.6561373 C27.6170899,42.3827001 25.1789763,41.8585771 23.3104886,41.0838383 C21.4420008,40.3090995 19.9608475,39.3293177 18.8670986,38.1444231 C17.4087668,36.5037997 16.5200608,34.3618748 16.2010507,31.7186483 C15.8819706,29.0754218 16.0870835,26.6600596 16.8163194,24.4725618 C17.3631939,23.1053756 18.1379327,21.8749781 19.1404658,20.7811592 C18.4112999,18.5025157 18.5480185,15.904862 19.5506217,12.9881983 C22.4672854,13.1704897 25.110512,14.1730929 27.4803013,15.9960077 C32.0375884,14.8111131 36.777167,14.7655402 41.698967,15.8592891 C42.3369872,15.4035604 43.316839,14.8339345 44.6383822,14.1502715 C45.9599955,13.4666784 47.6234403,13.079274 49.6286466,12.9881283 C49.9932296,13.9907314 50.2439154,15.1756261 50.380634,16.5428122 C50.5173526,17.9099983 50.4490283,19.1860387 50.1755911,20.3709334 C52.2718731,22.5584312 53.365622,25.4750949 53.4567678,29.1209246 C53.4567678,32.0375884 52.9555362,34.4529505 51.952933,36.3670111 C50.9503299,38.2810717 49.1729879,39.8761222 46.6209071,41.1520926 C44.889138,41.9724743 42.6104945,42.4737058 39.7849765,42.6559973 C41.0610868,43.2940175 41.9952957,43.9548592 42.587743,44.6384522 C43.1802604,45.3220453 43.5675948,46.3929728 43.7499562,47.8513046 L43.7499562,52.158046 L43.8866049,56.3279287 C44.1600421,56.7837274 44.4791222,57.1710618 44.8437052,57.4901419 C45.2082881,57.809152 45.5272982,58.0370163 45.8007354,58.1737349 C46.0741027,58.3104536 46.1653184,58.5155665 46.0741027,58.7890037 C45.9829569,59.0624409 45.618374,59.1991595 44.9804238,59.1991595 C43.4308761,59.1991595 42.2004786,58.6522851 41.2890212,57.5584662 C41.015584,57.1027375 40.8788654,56.555933 40.8788654,55.9178428 L40.8788654,49.3553494 C40.8788654,48.6261834 40.6965739,48.1020604 40.3319909,47.7830503 C39.9674079,47.4639702 39.602825,47.2589273 39.238242,47.1677816 L39.238242,55.7810542 C39.238242,57.3305318 39.4205335,58.333135 39.7851165,58.7888637 C40.1496994,59.2445924 40.3775638,59.7003911 40.4687795,60.1560498 C40.5599253,60.2471956 40.491531,60.3155199 40.2636666,60.3610927 C40.0358723,60.4065956 39.6484679,60.3383413 39.1015234,60.1560498 C37.9166287,59.8826126 37.0963171,59.2673438 36.6405884,58.3103135 C36.1848596,57.3532833 35.9569953,56.3278587 35.9569953,55.2341097 L35.9569953,46.7577657 L34.1796533,46.7577657 L34.1796533,55.2343198 C34.1796533,56.3280687 33.951719,57.3763147 33.4959902,58.3788479 C32.8580401,59.6549583 31.6730754,60.3384813 29.9413763,60.4296271 C29.6679391,60.3384813 29.5312205,60.2473356 29.5312205,60.1562598 C29.6223662,60.0650441 29.8958034,59.6093854 30.3515321,58.7890737 C30.4426779,58.6067822 30.5566451,58.2421993 30.6933637,57.6953248 C30.8301523,57.1484504 30.8984766,56.5104302 30.8984766,55.7812642 L30.8984766,47.1679216 C30.5338936,47.2590673 30.1920621,47.4641102 29.873052,47.7831903 C29.5540419,48.1022704 29.3945019,48.6263235 29.3945019,49.3554894 L29.3945019,55.9179828 C29.3945019,56.555933 29.2577832,57.1028775 28.984346,57.5586062 C28.1640343,58.6523551 26.9335668,59.1992996 25.2930135,59.1992996 C24.6549933,59.1992996 24.2904103,59.0625809 24.1992646,58.7891437 C24.1080488,58.6068522 24.1308702,58.4473122 24.2676589,58.3105936 C24.4044475,58.173875 24.6094904,58.0143349 24.8829276,57.8320434 C25.1563649,57.6497519 25.3386563,57.5129633 25.4298021,57.4218876 C25.794385,57.1484504 26.0677523,56.7838674 26.2501138,56.3281387 C26.523551,55.9635557 26.5918753,55.0065254 26.4551567,53.4570478 C26.3184381,51.9075702 26.2956166,50.904967 26.3867624,50.4492383 C24.0169031,51.26955 21.6016109,50.8593241 19.1406059,49.2187708 C18.4114399,48.4896048 17.682274,47.4413588 16.953108,46.0742427 C16.4062336,45.0715695 15.3124847,43.8866749 13.6719313,42.5194887 Z" id="path-1"></path>
        <filter x="-10.0%" y="-7.1%" width="120.0%" height="120.0%" filterUnits="objectBoundingBox" id="filter-2">
            <feOffset dx="0" dy="2" in="SourceAlpha" result="shadowOffsetOuter1"></feOffset>
            <feGaussianBlur stdDeviation="2" in="shadowOffsetOuter1" result="shadowBlurOuter1"></feGaussianBlur>
            <feColorMatrix values="0 0 0 0 0   0 0 0 0 0   0 0 0 0 0  0 0 0 0.5 0" type="matrix" in="shadowBlurOuter1"></feColorMatrix>
        </filter>
    </defs>
    <g id="Page-1" stroke="none" stroke-width="1" fill="none" fill-rule="evenodd">
        <g id="tech" transform="translate(-733.000000, -402.000000)" fill-rule="nonzero">
            <g transform="translate(112.000000, 191.000000)" id="tech-logos">
                <g transform="translate(312.000000, 16.000000)">
                    <g id="github-icon" transform="translate(313.000000, 197.000000)">
                        <g id="Shape">
                            <use fill="black" fill-opacity="1" filter="url(#filter-2)" xlink:href="#path-1"></use>
                            <use fill="#303030" fill-rule="evenodd" xlink:href="#path-1"></use>
                        </g>
                    </g>
                </g>
            </g>
        </g>
    </g>
</svg>