<?xml version="1.0" encoding="UTF-8" standalone="no"?>
<svg
   xmlns:dc="http://purl.org/dc/elements/1.1/"
   xmlns:cc="http://creativecommons.org/ns#"
   xmlns:rdf="http://www.w3.org/1999/02/22-rdf-syntax-ns#"
   xmlns:svg="http://www.w3.org/2000/svg"
   xmlns="http://www.w3.org/2000/svg"
   xmlns:sodipodi="http://sodipodi.sourceforge.net/DTD/sodipodi-0.dtd"
   xmlns:inkscape="http://www.inkscape.org/namespaces/inkscape"
   width="78.400002"
   height="80"
   viewBox="0 0 8.215473 8.384"
   preserveAspectRatio="xMidYMid"
   version="1.1"
   id="svg10"
   sodipodi:docname="google.svg"
   inkscape:version="0.92.1 r15371">
  <metadata
     id="metadata16">
    <rdf:RDF>
      <cc:Work
         rdf:about="">
        <dc:format>image/svg+xml</dc:format>
        <dc:type
           rdf:resource="http://purl.org/dc/dcmitype/StillImage" />
      </cc:Work>
    </rdf:RDF>
  </metadata>
  <defs
     id="defs14" />
  <sodipodi:namedview
     pagecolor="#ffffff"
     bordercolor="#666666"
     borderopacity="1"
     objecttolerance="10"
     gridtolerance="10"
     guidetolerance="10"
     inkscape:pageopacity="0"
     inkscape:pageshadow="2"
     inkscape:window-width="1280"
     inkscape:window-height="776"
     id="namedview12"
     showgrid="false"
     inkscape:zoom="0.0944"
     inkscape:cx="-12.614414"
     inkscape:cy="452.32538"
     inkscape:window-x="0"
     inkscape:window-y="24"
     inkscape:window-maximized="1"
     inkscape:current-layer="svg10" />
  <path
     d="m 8.2158754,4.2851524 c 0,-0.3446762 -0.027969,-0.5961905 -0.088496,-0.8570286 H 4.1915552 V 4.9838095 H 6.5017951 C 6.4552351,5.370419 6.2037153,5.9526381 5.6447711,6.3438762 l -0.00784,0.052095 1.2444347,0.9640476 0.086216,0.00857 C 7.7593921,6.6373048 8.2158722,5.5613524 8.2158722,4.2851333"
     id="path2"
     inkscape:connector-curvature="0"
     style="fill:#4285f4;stroke-width:0.03211031" />
  <path
     d="m 4.1915552,8.384 c 1.131824,0 2.0820001,-0.3726381 2.7760319,-1.0153905 L 5.6447711,6.3438762 c -0.353984,0.2468571 -0.829088,0.4192 -1.4532159,0.4192 -1.1085439,0 -2.0494079,-0.7312476 -2.3848001,-1.7419905 l -0.049161,0.00381 -1.29398098,1.0014286 -0.0169221,0.047048 C 1.1360351,7.4431048 2.5520032,8.384 4.1915552,8.384"
     id="path4"
     inkscape:connector-curvature="0"
     style="fill:#34a853;stroke-width:0.03211031" />
  <path
     d="M 1.8067551,5.0210857 C 1.7182589,4.7602571 1.6670432,4.4807714 1.6670432,4.192 c 0,-0.2888 0.051216,-0.5682571 0.1350559,-0.8290857 L 1.7997562,3.3073905 0.48955956,2.2898762 0.44669232,2.3102571 C 0.16257923,2.8784952 -4.4478401e-4,3.5166286 -4.4478401e-4,4.192 c 0,0.6753714 0.16302401401,1.3134762 0.44713596401,1.8817238 L 1.8067551,5.0210857"
     id="path6"
     inkscape:connector-curvature="0"
     style="fill:#fbbc05;stroke-width:0.03211031" />
  <path
     d="m 4.1915552,1.6208952 c 0.787152,0 1.3181278,0.3400191 1.6208962,0.6241619 L 6.995523,1.0899238 C 6.2689315,0.41454286 5.3233792,0 4.1915552,0 2.5520032,0 1.1360351,0.9408667 0.44669118,2.3102381 L 1.8020991,3.3629143 C 2.1421473,2.3521714 3.0830113,1.6208952 4.1915552,1.6208952"
     id="path8"
     inkscape:connector-curvature="0"
     style="fill:#eb4335;stroke-width:0.03211031" />
</svg>
