<?xml version="1.0" encoding="UTF-8"?>
<svg width="88px" height="93px" viewBox="0 0 88 93" version="1.1" xmlns="http://www.w3.org/2000/svg" xmlns:xlink="http://www.w3.org/1999/xlink">
    <!-- Generator: Sketch 44.1 (41455) - http://www.bohemiancoding.com/sketch -->
    <title>mongodb</title>
    <desc>Created with Sketch.</desc>
    <defs>
        <filter x="-8.6%" y="-5.9%" width="117.3%" height="116.5%" filterUnits="objectBoundingBox" id="filter-1">
            <feOffset dx="0" dy="2" in="SourceAlpha" result="shadowOffsetOuter1"></feOffset>
            <feGaussianBlur stdDeviation="2" in="shadowOffsetOuter1" result="shadowBlurOuter1"></feGaussianBlur>
            <feColorMatrix values="0 0 0 0 0   0 0 0 0 0   0 0 0 0 0  0 0 0 0.5 0" type="matrix" in="shadowBlurOuter1" result="shadowMatrixOuter1"></feColorMatrix>
            <feMerge>
                <feMergeNode in="shadowMatrixOuter1"></feMergeNode>
                <feMergeNode in="SourceGraphic"></feMergeNode>
            </feMerge>
        </filter>
    </defs>
    <g id="Page-1" stroke="none" stroke-width="1" fill="none" fill-rule="evenodd">
        <g id="tech" transform="translate(-821.000000, -299.000000)" fill-rule="nonzero">
            <g transform="translate(112.000000, 191.000000)" id="tech-logos">
                <g transform="translate(312.000000, 16.000000)">
                    <g id="mongodb" filter="url(#filter-1)" transform="translate(401.000000, 94.000000)">
                        <path d="M73.6041327,68.9423495 C73.5187346,68.9594291 73.4329652,69.1478618 73.4329652,69.2505252 C73.4158856,69.9359378 73.3988059,71.7519469 73.3988059,72.9853925 C73.3988059,73.0197374 73.4500448,73.0882415 73.5014693,73.0882415 C73.7584062,73.1053211 74.375129,73.1224008 74.906268,73.1224008 C75.6429195,73.1224008 76.0712095,73.0197374 76.3112524,72.917074 C76.9277896,72.608527 77.2190713,71.9403797 77.2190713,71.2035426 C77.2190713,69.5419926 76.0541299,68.9080046 74.3237045,68.9080046 C74.2037759,68.890925 73.8614409,68.890925 73.6041327,68.9423495 L73.6041327,68.9423495 Z M78.0244126,76.6003312 C78.0244126,74.9042507 76.7737017,73.9619012 74.5123229,73.9619012 C74.4094739,73.9619012 73.6899021,73.9448216 73.5185489,73.9789808 C73.4671244,73.9962461 73.3988059,74.030591 73.3988059,74.0820155 C73.3988059,75.2981958 73.3815407,77.2343192 73.4329652,77.9880503 C73.4671244,78.3134913 73.7071673,78.7761262 73.9984491,78.9131345 C74.3066249,79.0844876 75.0091171,79.1186469 75.4888316,79.1186469 C76.8422058,79.1186469 78.0244126,78.3649158 78.0244126,76.6003312 L78.0244126,76.6003312 Z M70.1094939,68.0001856 C70.2806614,68.0001856 70.7945352,68.0514245 72.1137502,68.0514245 C73.3644611,68.0514245 74.3580494,68.0172653 75.5744153,68.0172653 C77.0647978,68.0172653 79.1206642,68.5482187 79.1206642,70.7754382 C79.1206642,71.8718756 78.3496679,72.7457209 77.339,73.1740109 C77.2877611,73.1910905 77.2877611,73.2252498 77.339,73.2423294 C78.777958,73.602301 80.0459341,74.4930403 80.0459341,76.1718555 C80.0459341,77.8166972 79.0180009,78.86171 77.5274327,79.5127777 C76.6194282,79.9067228 75.4888316,80.0437311 74.3409698,80.0437311 C73.4671244,80.0437311 71.1201619,79.9410677 69.8182122,79.9754126 C69.6812039,79.9238024 69.9381408,79.3070796 70.0578838,79.2044163 C70.3664308,79.187151 70.6061024,79.1700714 70.9317291,79.0672224 C71.394364,78.9474794 71.4456029,78.8102855 71.514107,78.1079789 C71.5484519,77.5083358 71.5484519,75.3837796 71.5484519,73.8763175 C71.5484519,71.8033714 71.5657172,70.3985727 71.5484519,69.7133458 C71.5313723,69.1823924 71.3429395,69.0108536 70.966074,68.9080046 C70.6746066,68.8567657 70.1950777,68.7880759 69.8009469,68.7368371 C69.7151775,68.6510677 70.0064593,68.0685041 70.1094939,68.0001856 Z M60.224107,78.6561976 C60.6355031,78.981453 61.4406586,79.1184612 62.1602304,79.1184612 C63.0853146,79.1184612 64.0103988,78.9474794 64.9013238,78.1419525 C65.8093283,77.319903 66.4431308,76.0521125 66.4431308,74.030591 C66.4431308,72.0944676 65.7064793,70.5183157 64.1988316,69.5934171 C63.3422515,69.0620924 62.2458142,68.8396861 60.9780237,68.8396861 C60.6011582,68.8396861 60.2413723,68.8567657 60.0187803,68.9594291 C59.9671701,68.993774 59.8474271,69.1478618 59.8474271,69.2334456 C59.8130822,69.5761519 59.8130822,72.2143962 59.8130822,73.7563888 C59.8130822,75.3496203 59.8130822,77.5768399 59.8474271,77.8337768 C59.8474271,78.0908993 59.9671701,78.4848445 60.2242927,78.6561976 L60.224107,78.6561976 Z M56.3351518,68 C56.6607785,68 57.9113037,68.0514245 58.5109469,68.0514245 C59.5904902,68.0514245 60.3613009,68.0001856 62.3999021,68.0001856 C64.1130622,68.0001856 65.5522058,68.4626349 66.580139,69.3362946 C67.8306642,70.4156523 68.4819176,71.9062204 68.4819176,73.7220439 C68.4819176,76.3090494 67.2997108,77.7996175 66.1175041,78.6561976 C64.9356687,79.5298573 63.393676,80.0437311 61.2008014,80.0437311 C60.0358599,80.0437311 58.031418,80.0095718 56.3694967,79.9923066 L56.3524171,79.9923066 C56.2668333,79.8382187 56.4894254,79.2385755 56.6264336,79.2214959 C57.0719889,79.1700714 57.1919175,79.1528061 57.4146952,79.067408 C57.7742954,78.9302141 57.8429852,78.7417813 57.8944097,78.1079789 C57.9456486,76.9257722 57.928569,75.5038938 57.928569,73.8933971 C57.928569,72.7457209 57.9456486,70.5012361 57.9113037,69.7816643 C57.8600648,69.1822067 57.603128,69.0279332 57.0890685,68.9250842 C56.8321316,68.8738453 56.4894254,68.8051556 56.0098965,68.7539167 C55.9412067,68.6338024 56.2495681,68.102849 56.3351518,68.0001856 L56.3351518,68 Z" id="Shape" fill="#FF9899"></path>
                        <path d="M35.1565344,79.3494347 C34.7282443,79.2980102 34.4198829,79.2296917 34.0430174,79.0583385 C33.9915929,79.0239937 33.9058235,78.8528262 33.9058235,78.7841364 C33.8716643,78.1844932 33.8716643,76.4713331 33.8716643,75.3236569 C33.8716643,74.3983871 33.7175764,73.5932315 33.3234456,73.0279332 C32.8608107,72.3766799 32.192849,72 31.3360833,72 C30.5823523,72 29.5714987,72.5138738 28.7319982,73.2334456 C28.7149186,73.2505252 28.5779104,73.3706395 28.59499,73.1820211 C28.59499,72.9935883 28.6293349,72.6167228 28.6464145,72.3596003 C28.6636798,72.119743 28.5264859,72 28.5264859,72 C27.9782672,72.2740165 26.4364602,72.6338024 25.8709763,72.6850413 C25.4599515,72.7709963 25.3571025,73.1649415 25.7855782,73.3019497 L25.8026578,73.3019497 C26.2649214,73.438958 26.5734685,73.5932315 26.8131401,73.747505 C26.9844932,73.8845133 26.9674136,74.072946 26.9674136,74.2272196 C26.9844932,75.511904 26.9844932,77.4821867 26.9332544,78.5615444 C26.9161747,78.9898344 26.7962461,79.1439223 26.4876991,79.2124264 L26.522044,79.1953468 C26.2821867,79.2467713 26.0937539,79.2980102 25.8024721,79.3323551 C25.6996231,79.4352041 25.6996231,79.9834227 25.8024721,80.1033514 C25.9909049,80.1033514 26.9844932,80.0519269 27.8070997,80.0519269 C28.9376963,80.0519269 29.5202598,80.1033514 29.811356,80.1033514 C29.9312846,79.9663431 29.9656295,79.4522837 29.8971254,79.3323551 C29.5714987,79.3152754 29.3316414,79.2811162 29.1090494,79.2124264 C28.800688,79.1437366 28.7149186,78.9898344 28.6976534,78.6300485 C28.6636798,77.7218583 28.6636798,75.8031858 28.6636798,74.5012361 C28.6636798,74.1414502 28.7663431,73.970097 28.8690065,73.867248 C29.2631373,73.5247274 29.8971254,73.2848701 30.4624236,73.2848701 C31.0106423,73.2848701 31.3702426,73.4562232 31.6444447,73.6790009 C32.0213102,73.9871766 32.1412389,74.4327319 32.1926634,74.758173 C32.2782471,75.4948244 32.2440879,76.9510476 32.2440879,78.2188381 C32.2440879,78.904065 32.1926634,79.0754182 31.9359121,79.1610019 C31.8157979,79.2124264 31.5074365,79.2811162 31.1476506,79.3150898 C31.0277219,79.4352041 31.0620668,79.9663431 31.1476506,80.0862718 C31.6444447,80.0862718 32.2270083,80.0348472 33.0835883,80.0348472 C34.1456808,80.0348472 34.8310934,80.0862718 35.1052955,80.0862718 C35.1906936,79.9834227 35.2250385,79.4866286 35.1565344,79.3494347 L35.1565344,79.3494347 Z M39.9020696,72.8053412 C38.9942507,72.8053412 38.4287668,73.5076477 38.4287668,74.6038994 C38.4287668,75.717602 38.9255609,77.0024721 40.3303597,77.0024721 C40.5702169,77.0024721 41.0157722,76.8996231 41.221099,76.6597658 C41.5467256,76.3515901 41.7695033,75.7346817 41.7695033,75.083614 C41.7695033,73.6617356 41.0670111,72.8051556 39.9020696,72.8051556 L39.9020696,72.8053412 Z M39.782141,80.3773679 C39.4396204,80.3773679 39.1995774,80.4802169 39.0454896,80.5659863 C38.3259177,81.0282499 38.0004767,81.4738052 38.0004767,82.0051299 C38.0004767,82.5017384 38.1889095,82.8956836 38.6001199,83.2383899 C39.0969141,83.6666799 39.782141,83.8723779 40.6558007,83.8723779 C42.4033057,83.8723779 43.174302,82.9300285 43.174302,82.0051299 C43.174302,81.3538766 42.8486753,80.9255866 42.1807137,80.6859149 C41.7009991,80.4802169 40.8273395,80.3773679 39.782141,80.3773679 L39.782141,80.3773679 Z M39.9020696,84.831807 C38.8570568,84.831807 38.1031401,84.6090294 37.4522581,84.1122352 C36.81827,83.6325207 36.5442535,82.9129488 36.5442535,82.4161547 C36.5442535,82.2791464 36.5785984,81.9020953 36.8869598,81.5595746 C37.0752069,81.3538766 37.486603,80.9599314 38.4631117,80.2917841 C38.4972709,80.2747045 38.5143505,80.2576249 38.5143505,80.2230944 C38.5143505,80.1889351 38.4800056,80.1545902 38.4458464,80.1376963 C37.6406908,79.8293349 37.4008336,79.3323551 37.3321438,79.0583385 L37.3321438,79.0239937 C37.3152498,78.9211446 37.2809049,78.8184813 37.4351784,78.7156323 C37.5551071,78.6300485 37.7264602,78.5271995 37.9147073,78.4074565 C38.2059891,78.2359177 38.5143505,78.047485 38.7027833,77.8932114 C38.7371282,77.8590522 38.7371282,77.824893 38.7371282,77.7905481 C38.7371282,77.7562032 38.7027833,77.7218583 38.6684384,77.7049643 C37.4695233,77.3108335 36.8698802,76.4199086 36.8698802,75.083614 C36.8698802,74.2099543 37.2638253,73.4218784 37.9661318,72.9250842 C38.4458464,72.5482187 39.6451327,72.0855837 40.4332087,72.0855837 L40.4846332,72.0855837 C41.2897887,72.1026634 41.7351584,72.2740165 42.3689608,72.4967942 C42.7116671,72.6167228 43.0372938,72.6679617 43.4828491,72.6679617 C44.1508107,72.6679617 44.4420925,72.4624493 44.6817641,72.2227777 C44.6990294,72.2569369 44.7333743,72.3427063 44.7504539,72.5652983 C44.7675335,72.7880759 44.6990294,73.113517 44.5276762,73.3533742 C44.390668,73.541807 44.0823066,73.6790009 43.7739452,73.6790009 L43.6881758,73.6790009 C43.3798144,73.644656 43.2426205,73.6103111 43.2426205,73.6103111 L43.174302,73.644656 C43.1572224,73.6790009 43.174302,73.7131601 43.1913816,73.7645846 L43.2086469,73.7989295 C43.2428061,73.9530174 43.3113103,74.4154667 43.3113103,74.535581 C43.3113103,75.9403797 42.746012,76.5569168 42.1463688,77.0195518 C41.5638052,77.4478418 40.8958436,77.7218583 40.1419269,77.7905481 C40.1248473,77.7905481 40.0565288,77.7905481 39.9020696,77.8076277 C39.8164859,77.8076277 39.6965572,77.824893 39.679292,77.824893 L39.6622124,77.824893 C39.5252041,77.8590522 39.1826835,78.0304053 39.1826835,78.3215015 C39.1826835,78.5784384 39.3367713,78.8869854 40.0734228,78.9384099 C40.2275106,78.9554895 40.3815985,78.9554895 40.5531373,78.9727548 C41.529646,79.0410733 42.746012,79.1268427 43.3113103,79.3152754 C44.0993862,79.6063716 44.5961804,80.3088638 44.5961804,81.1483642 C44.5961804,82.4163403 43.6883614,83.5983614 42.1807137,84.3348272 C41.4440623,84.6604539 40.7072252,84.831807 39.9020696,84.831807 L39.9020696,84.831807 Z M49.6671566,72.890925 C49.3075564,72.890925 48.9819297,72.9763231 48.7420724,73.1476762 C48.0741108,73.5588866 47.7314045,74.3813074 47.7314045,75.5804081 C47.7314045,77.824893 48.8620011,79.4010448 50.4724978,79.4010448 C50.9522124,79.4010448 51.3290779,79.2638509 51.6545189,78.9898344 C52.1513131,78.5784384 52.4084356,77.7562032 52.4084356,76.6083413 C52.4084356,74.3813074 51.294733,72.8907393 49.6673423,72.8907393 L49.6671566,72.890925 Z M49.9757037,80.22328 C47.0632572,80.22328 46.0182444,78.0818298 46.0182444,76.0773879 C46.0182444,74.6725892 46.5835426,73.5932315 47.7141392,72.8222352 C48.5194804,72.325441 49.4789095,72.0514245 50.3354896,72.0514245 C52.5625235,72.0514245 54.1215957,73.644656 54.1215957,75.9403797 C54.1215957,77.4992663 53.5048729,78.7327119 52.3226662,79.4866286 C51.7573679,79.8634941 50.7808592,80.22328 49.975518,80.22328 L49.9757037,80.22328 L49.9757037,80.22328 Z M19.4466258,72.8907393 C19.0868399,72.8907393 18.7613989,72.9763231 18.5213559,73.1476762 C17.8533943,73.5588866 17.510688,74.3813074 17.510688,75.5804081 C17.510688,77.824893 18.6412846,79.4010448 20.2517813,79.4010448 C20.7314959,79.4010448 21.1083614,79.2638509 21.4339881,78.9898344 C21.9305966,78.5784384 22.1877191,77.7562032 22.1877191,76.6083413 C22.1877191,74.3813074 21.0912818,72.8907393 19.4466258,72.8907393 Z M19.7549872,80.22328 C16.8425407,80.22328 15.7975279,78.0818298 15.7975279,76.0773879 C15.7975279,74.6725892 16.3628262,73.5932315 17.4934227,72.8222352 C18.2987639,72.325441 19.258193,72.0514245 20.1147731,72.0514245 C22.3419926,72.0514245 23.9008793,73.644656 23.9008793,75.9403797 C23.9008793,77.4992663 23.2841565,78.7327119 22.1019497,79.4866286 C21.5537311,79.8634941 20.5772224,80.22328 19.7549872,80.22328 Z M0.173203028,80.0519269 C0.138858141,80.000688 0.104513253,79.8464145 0.121778521,79.6579817 C0.121778521,79.5207878 0.156123409,79.4352041 0.173203028,79.4010448 C0.532988933,79.3494347 0.721421696,79.2980102 0.926934078,79.2467713 C1.26964036,79.1610019 1.40664862,78.9727548 1.42372824,78.5444648 C1.47533839,77.5165316 1.47533839,75.5633285 1.45807313,74.2099543 L1.45807313,74.1756094 C1.45807313,74.0215215 1.45807313,73.8329031 1.26964036,73.6958949 C0.995438206,73.5247274 0.669997188,73.3706395 0.241707156,73.2503396 C0.0876192811,73.1992864 -0.015229734,73.113517 0.00184988581,73.0108536 C0.00184988581,72.9080046 0.104698901,72.7880759 0.327476551,72.753731 C0.892774838,72.7023065 2.36589205,72.3427063 2.94845561,72.0855837 C2.98280049,72.119743 3.034225,72.2227777 3.034225,72.3597859 L3.01714538,72.548033 C2.99988011,72.7366514 2.98280049,72.9594291 2.98280049,73.1820211 C2.98280049,73.2505252 3.05149027,73.3019497 3.11980875,73.3019497 C3.15415364,73.3019497 3.18849852,73.2848701 3.22265776,73.2676048 C4.3190951,72.4110248 5.31268342,72.1026634 5.8265572,72.1026634 C6.66624329,72.1026634 7.31731097,72.4967942 7.81410513,73.3190293 C7.84826437,73.3706395 7.88260926,73.3877191 7.93403377,73.3877191 C7.96819301,73.3877191 8.01943187,73.3706395 8.03669714,73.3362946 C9.04755072,72.5652983 10.0584043,72.1026634 10.726366,72.1026634 C12.3195975,72.1026634 13.2619469,73.2848701 13.2619469,75.289312 C13.2619469,75.8546103 13.2619469,76.5912617 13.2448673,77.2595947 C13.2448673,77.8590522 13.2277877,78.4072709 13.2277877,78.8014017 C13.2277877,78.8867998 13.3475307,79.1610019 13.5359634,79.2124264 C13.7758207,79.3323551 14.1014474,79.3837796 14.5297374,79.4522837 L14.546817,79.4522837 C14.5811619,79.5722123 14.5126578,80.017582 14.4441537,80.1033514 C14.3413046,80.1033514 14.1870311,80.1033514 14.0158636,80.0862718 C13.5821854,80.0636441 13.1479963,80.052192 12.7137283,80.0519269 C11.6516358,80.0519269 11.1034171,80.0690065 10.5720924,80.1033514 C10.5381189,79.9663431 10.5208536,79.5551327 10.5720924,79.4522837 C10.8806395,79.4010448 11.0347274,79.3494347 11.2233458,79.2981958 C11.5660521,79.1953468 11.6516358,79.0410733 11.6689011,78.5957036 C11.6689011,78.2702626 11.7372196,75.4948244 11.6343705,74.8266771 C11.5317072,74.1414502 11.0176477,73.3362946 9.88686552,73.3362946 C9.45857549,73.3362946 8.79061383,73.5076477 8.13954615,74.0042563 C8.10538691,74.0386011 8.07085637,74.1241849 8.07085637,74.1756094 L8.07085637,74.1928747 C8.13954615,74.5524749 8.13954615,74.963871 8.13954615,75.5976734 L8.13954615,76.7111904 C8.13954615,77.4821867 8.12228088,78.2017585 8.13954615,78.7497915 C8.13954615,79.1268427 8.3623238,79.2124264 8.55075656,79.2811162 C8.65360558,79.2980102 8.72192406,79.3152754 8.80769345,79.3323551 C8.96178133,79.3666999 9.11605485,79.4010448 9.35591212,79.4522837 C9.39025701,79.5209735 9.39025701,79.7435655 9.3388325,79.9319982 C9.32156723,80.0348472 9.28722234,80.0860861 9.27014272,80.1033514 C8.68776482,80.0862718 8.08812164,80.0690065 7.21446196,80.0690065 C6.95752507,80.0690065 6.51196977,80.0862718 6.13510424,80.0862718 C5.8265572,80.0862718 5.53546107,80.1033514 5.36429357,80.1033514 C5.34702831,80.0690065 5.31268342,79.9492635 5.31268342,79.7606451 C5.31268342,79.6065572 5.34702831,79.4866286 5.38137319,79.4522837 C5.46695694,79.4352041 5.53546107,79.4181245 5.62123046,79.4181245 C5.8265572,79.3837796 5.99809599,79.3494347 6.16926348,79.3152754 C6.46073091,79.2296917 6.56339428,79.0754182 6.5804739,78.6985526 C6.6318984,77.8419726 6.68332291,75.392161 6.56339428,74.7752526 C6.35788189,73.7816643 5.79258361,73.2848701 4.88439339,73.2848701 C4.35343999,73.2848701 3.68510704,73.541807 3.13707402,73.953203 C3.05130462,74.0215215 2.98280049,74.192689 2.98280049,74.3469625 L2.98280049,75.3578161 C2.98280049,76.5912617 2.98280049,78.1332544 2.99988011,78.8014017 C3.01714538,79.0067284 3.08546386,79.2467713 3.47959465,79.3323551 C3.56536405,79.3494347 3.7023723,79.3837796 3.87372545,79.4010448 L4.1819012,79.4522837 C4.21643173,79.5551327 4.19916646,79.9663431 4.13066234,80.1033514 C3.95930919,80.1033514 3.75379681,80.0862718 3.51375389,80.0862718 C3.15415364,80.0690065 2.69151872,80.0519269 2.17764494,80.0519269 C1.57800176,80.0519269 1.14971173,80.0690065 0.807005443,80.0862718 C0.567148173,80.0519269 0.378715411,80.0519269 0.173203028,80.0519269 L0.173203028,80.0519269 Z" id="Shape" fill="#F7F6C5"></path>
                        <path d="M41.1641696,64.874 L39.3831802,64.2844155 C39.3831802,64.2844155 39.600684,55.4903507 36.3418923,54.8592719 C34.1701492,52.4184014 36.6902751,-48.6545222 44.510057,54.5223014 C44.510057,54.5223014 41.8162104,55.8264093 41.338361,58.0570722 C40.8167284,60.2453288 41.1641696,64.874 41.1641696,64.874 L41.1641696,64.874 Z" id="Shape" fill="#FFFFFF"></path>
                        <path d="M41.1641696,64.874 L39.3831802,64.2844155 C39.3831802,64.2844155 39.600684,55.4903507 36.3418923,54.8592719 C34.1701492,52.4184014 36.6902751,-48.6545222 44.510057,54.5223014 C44.510057,54.5223014 41.8162104,55.8264093 41.338361,58.0570722 C40.8167284,60.2453288 41.1641696,64.874 41.1641696,64.874 L41.1641696,64.874 Z" id="Shape" fill="#A6A385"></path>
                        <path d="M42.0987898,56.1327263 C42.0987898,56.1327263 57.6959826,46.2018989 54.0459664,25.540908 C50.5273,10.5194999 42.2291979,5.59626451 41.3168116,3.70257214 C40.3178003,2.35605791 39.3616307,0 39.3616307,0 L40.0136715,41.7834354 C40.0136715,41.8258417 38.6667483,54.5755485 42.0992606,56.1331823" id="Shape" fill="#FFFFFF"></path>
                        <path d="M42.0987898,56.1327263 C42.0987898,56.1327263 57.6959826,46.2018989 54.0459664,25.540908 C50.5273,10.5194999 42.2291979,5.59626451 41.3168116,3.70257214 C40.3178003,2.35605791 39.3616307,0 39.3616307,0 L40.0136715,41.7834354 C40.0136715,41.8258417 38.6667483,54.5755485 42.0992606,56.1331823" id="Shape" fill="#499D4A"></path>
                        <path d="M38.5768486,56.8481618 C38.5768486,56.8481618 23.9353546,47.1699483 24.8044285,30.1285408 C25.6297191,13.0866774 35.969627,4.71302778 37.9681203,3.19825628 C39.2717311,1.85174205 39.3150436,1.34651423 39.4021393,0 C40.3145256,1.89369238 40.140805,28.3192051 40.2707424,31.4326487 C40.6614961,43.4249698 39.5758599,54.5764605 38.5768486,56.8481618 Z" id="Shape" fill="#FFFFFF"></path>
                        <path d="M38.5768486,56.8481618 C38.5768486,56.8481618 23.9353546,47.1699483 24.8044285,30.1285408 C25.6297191,13.0866774 35.969627,4.71302778 37.9681203,3.19825628 C39.2717311,1.85174205 39.3150436,1.34651423 39.4021393,0 C40.3145256,1.89369238 40.140805,28.3192051 40.2707424,31.4326487 C40.6614961,43.4249698 39.5758599,54.5764605 38.5768486,56.8481618 Z" id="Shape" fill="#58AA50"></path>
                    </g>
                </g>
            </g>
        </g>
    </g>
</svg>