<?xml version="1.0" encoding="UTF-8"?>
<svg width="78px" height="87px" viewBox="0 0 78 87" version="1.1" xmlns="http://www.w3.org/2000/svg" xmlns:xlink="http://www.w3.org/1999/xlink">
    <!-- Generator: Sketch 44.1 (41455) - http://www.bohemiancoding.com/sketch -->
    <title>Node</title>
    <desc>Created with Sketch.</desc>
    <defs>
        <path d="M35.0426829,0.520632988 C33.9807317,0.520632988 32.9478049,0.739622642 32.0335366,1.25599513 L3.1047561,17.9315886 C1.23268293,19.0086427 0.0947560976,21.0417529 0.0947560976,23.2052343 L0.0947560976,56.4959221 C0.0947560976,58.6576993 1.23268293,60.6882532 3.1047561,61.7678637 L10.6596341,66.1212416 C14.3303659,67.9268411 15.6834146,67.8987219 17.3540244,67.8987219 C22.7884146,67.8987219 25.8914634,64.6070603 25.8914634,58.8869142 L25.8914634,26.0248326 C25.8914634,25.5604382 25.4885366,25.2281193 25.0318293,25.2281193 L21.4080488,25.2281193 C20.9436585,25.2281193 20.5484146,25.5604382 20.5484146,26.0248326 L20.5484146,58.8869142 C20.5484146,61.4219111 17.9020732,63.9722459 13.6081707,61.8292149 L5.74597561,57.2312842 C5.46768293,57.0804626 5.25426829,56.8137553 5.25426829,56.4959221 L5.25426829,23.2043822 C5.25426829,22.8891053 5.46512195,22.5678637 5.74597561,22.4076689 L34.6132927,5.79427876 C34.8788328,5.63940065 35.2073867,5.63940065 35.4729268,5.79427876 L64.3410976,22.408521 C64.6159756,22.5738284 64.8328049,22.8797322 64.8328049,23.2060864 L64.8328049,56.4967742 C64.8328049,56.8146074 64.6723171,57.1401096 64.402561,57.2934875 L35.4729268,73.9077298 C35.2253659,74.055143 34.8839024,74.055143 34.6132927,73.9077298 L27.1813415,69.4938527 C26.951584,69.3694551 26.6743916,69.3694551 26.4446341,69.4938527 C24.3932927,70.6544127 24.007439,70.7890444 22.0832927,71.4553865 C21.6095122,71.6206939 20.889878,71.8771759 22.3291463,72.6824102 L32.0335366,78.382958 C32.9485322,78.9098881 33.98719,79.1851033 35.0435366,79.1805234 C36.0997571,79.1870974 37.1385815,78.9120542 38.0526829,78.3838101 L66.9823171,61.7687158 C68.8543902,60.6822885 69.9914634,58.6585514 69.9914634,56.4967742 L69.9914634,23.2052343 C69.9914634,21.042605 68.8543902,19.0129032 66.9823171,17.9332928 L38.0526829,1.25769933 C37.1460976,0.740474741 36.1063415,0.521485088 35.0435366,0.521485088 L35.0426829,0.520632988 Z" id="path-1"></path>
        <filter x="-10.0%" y="-6.4%" width="120.0%" height="117.8%" filterUnits="objectBoundingBox" id="filter-2">
            <feOffset dx="0" dy="2" in="SourceAlpha" result="shadowOffsetOuter1"></feOffset>
            <feGaussianBlur stdDeviation="2" in="shadowOffsetOuter1" result="shadowBlurOuter1"></feGaussianBlur>
            <feColorMatrix values="0 0 0 0 0   0 0 0 0 0   0 0 0 0 0  0 0 0 0.5 0" type="matrix" in="shadowBlurOuter1"></feColorMatrix>
        </filter>
        <path d="M42.7819512,24.3087036 C34.5441463,24.3087036 29.6381707,27.8082775 29.6381707,33.6281193 C29.6381707,39.9404747 34.507439,41.67535 42.4140244,42.4558734 C51.872561,43.3804017 52.6092683,44.7667681 52.6092683,46.6251978 C52.6092683,49.8486914 50.0346341,51.2231284 43.9497561,51.2231284 C36.3035366,51.2231284 34.6235366,49.3178332 34.0609756,45.5217285 C33.9943902,45.1144248 33.6793902,44.7855143 33.2619512,44.7855143 L29.5152439,44.7855143 C29.0542683,44.7855143 28.6556098,45.1825928 28.6556098,45.6444309 C28.6556098,50.5039562 31.3036585,56.2505173 43.9497561,56.2505173 C53.1035366,56.2505173 58.3834146,52.6640292 58.3834146,46.3797931 C58.3834146,40.1509434 54.1185366,38.4782715 45.2387805,37.3066342 C36.2668293,36.1213634 35.4114634,35.5410834 35.4114634,33.4440657 C35.4114634,31.7125989 36.1370732,29.3965916 42.7819512,29.3965916 C48.7182927,29.3965916 50.9121951,30.6747413 51.8110976,34.6702374 C51.8896341,35.0451613 52.2208537,35.3442483 52.6092683,35.3442483 L56.3568293,35.3442483 C56.5873171,35.3442483 56.8109756,35.2027998 56.9706098,35.0374924 C57.1276829,34.8611077 57.2386585,34.6625685 57.2164634,34.4248326 C56.6359756,27.5449787 52.039878,24.3087036 42.7819512,24.3087036 L42.7819512,24.3087036 Z" id="path-3"></path>
        <filter x="-23.5%" y="-15.7%" width="147.1%" height="143.8%" filterUnits="objectBoundingBox" id="filter-4">
            <feOffset dx="0" dy="2" in="SourceAlpha" result="shadowOffsetOuter1"></feOffset>
            <feGaussianBlur stdDeviation="2" in="shadowOffsetOuter1" result="shadowBlurOuter1"></feGaussianBlur>
            <feColorMatrix values="0 0 0 0 0   0 0 0 0 0   0 0 0 0 0  0 0 0 0.5 0" type="matrix" in="shadowBlurOuter1"></feColorMatrix>
        </filter>
    </defs>
    <g id="Page-1" stroke="none" stroke-width="1" fill="none" fill-rule="evenodd">
        <g id="tech" transform="translate(-528.000000, -301.000000)" fill-rule="nonzero">
            <g transform="translate(112.000000, 191.000000)" id="tech-logos">
                <g transform="translate(312.000000, 16.000000)">
                    <g id="Node" transform="translate(108.000000, 96.000000)">
                        <g id="Shape">
                            <use fill="black" fill-opacity="1" filter="url(#filter-2)" xlink:href="#path-1"></use>
                            <use fill="#83CD29" fill-rule="evenodd" xlink:href="#path-1"></use>
                        </g>
                        <g id="Shape">
                            <use fill="black" fill-opacity="1" filter="url(#filter-4)" xlink:href="#path-3"></use>
                            <use fill="#83CD29" fill-rule="evenodd" xlink:href="#path-3"></use>
                        </g>
                    </g>
                </g>
            </g>
        </g>
    </g>
</svg>