<?xml version="1.0" encoding="UTF-8"?>
<svg width="80px" height="78px" viewBox="0 0 80 78" version="1.1" xmlns="http://www.w3.org/2000/svg" xmlns:xlink="http://www.w3.org/1999/xlink">
    <!-- Generator: Sketch 44.1 (41455) - http://www.bohemiancoding.com/sketch -->
    <title>photoshop-cc</title>
    <desc>Created with Sketch.</desc>
    <defs>
        <filter x="-9.7%" y="-7.1%" width="119.7%" height="120.0%" filterUnits="objectBoundingBox" id="filter-1">
            <feOffset dx="0" dy="2" in="SourceAlpha" result="shadowOffsetOuter1"></feOffset>
            <feGaussianBlur stdDeviation="2" in="shadowOffsetOuter1" result="shadowBlurOuter1"></feGaussianBlur>
            <feColorMatrix values="0 0 0 0 0   0 0 0 0 0   0 0 0 0 0  0 0 0 0.5 0" type="matrix" in="shadowBlurOuter1" result="shadowMatrixOuter1"></feColorMatrix>
            <feMerge>
                <feMergeNode in="shadowMatrixOuter1"></feMergeNode>
                <feMergeNode in="SourceGraphic"></feMergeNode>
            </feMerge>
        </filter>
        <radialGradient cx="32.9351254%" cy="22.4100935%" fx="32.9351254%" fy="22.4100935%" r="0.139277297%" gradientTransform="translate(0.329351,0.224101),scale(0.970420,1.000000),translate(-0.329351,-0.224101)" id="radialGradient-2">
            <stop stop-color="#34364E" stop-opacity="0.98" offset="0%"></stop>
            <stop stop-color="#0C0824" offset="100%"></stop>
        </radialGradient>
    </defs>
    <g id="Page-1" stroke="none" stroke-width="1" fill="none" fill-rule="evenodd">
        <g id="tech" transform="translate(-826.000000, -404.000000)" fill-rule="nonzero">
            <g transform="translate(112.000000, 191.000000)" id="tech-logos">
                <g transform="translate(312.000000, 16.000000)">
                    <g id="photoshop-cc" filter="url(#filter-1)" transform="translate(406.000000, 199.000000)">
                        <polygon id="Shape" fill="url(#radialGradient-2)" points="2.99027235 3.07290378 68.7772284 3.07290378 68.7772284 66.913866 2.99027235 66.913866"></polygon>
                        <path d="M2.99027235,3.07290378 L68.7772284,3.07290378 L68.7772284,66.913866 L2.99027235,66.913866 L2.99027235,3.07290378 Z M0,69.8971649 L71.7675008,69.8971649 L71.7675008,0.0897250859 L0,0.0897250859 L0,69.8971649 Z M48.3832648,28.7286254 C46.0208737,28.7286254 45.2135978,29.9218729 45.2135978,30.906323 C45.2135978,31.9802577 45.7517817,32.7260825 48.9215693,34.3668729 C53.6163318,36.6341753 55.0816292,38.8118729 55.0816292,42.0039691 C55.0816292,46.777079 51.4334559,49.3426632 46.49938,49.3426632 C43.897796,49.3426632 41.6550013,48.8056357 40.3692192,48.0599313 C40.1599254,47.9704467 40.1300263,47.8213058 40.1300263,47.5825601 L40.1300263,43.1972165 C40.1300263,42.8989347 40.2795219,42.8093299 40.4889362,42.9585911 C42.372821,44.1817869 44.5257978,44.7186942 46.49938,44.7186942 C48.8617711,44.7186942 49.8485622,43.734244 49.8485622,42.3917354 C49.8485622,41.3178007 49.1607621,40.3631787 46.1404701,38.8118729 C41.8941942,36.7833162 40.1300263,34.7249313 40.1300263,31.2942096 C40.1300263,27.4457732 43.1503183,24.2537973 48.3832648,24.2537973 C50.9549497,24.2537973 52.7491372,24.6416838 53.7359283,25.0891065 C53.9751211,25.2382474 54.0349193,25.4768729 54.0349193,25.6856701 L54.0349193,29.7726117 C54.0349193,30.0112371 53.8854238,30.1604983 53.5863122,30.0708935 C52.2706309,29.2358247 50.3269479,28.7286254 48.3832648,28.7286254 L48.3832648,28.7286254 Z M22.6665368,32.2786598 C23.3543369,32.3383162 23.8926413,32.3383162 25.0887262,32.3383162 C28.5875244,32.3383162 31.8767879,31.1152405 31.8767879,26.3719588 C31.8767879,22.583299 29.5143968,20.6739347 25.5373333,20.6739347 C24.3412485,20.6739347 23.2048413,20.7335911 22.6665368,20.7634192 L22.6665368,32.2786598 Z M17.3438931,16.437732 C17.3438931,16.2289347 17.7626011,16.0796735 18.0016734,16.0796735 C19.9155779,15.990189 22.7563547,15.9305326 25.716728,15.9305326 C33.9998655,15.9305326 37.2293307,20.4650172 37.2293307,26.2525258 C37.2293307,33.8298454 31.7271718,37.0815979 24.9691297,37.0815979 C23.8328431,37.0815979 23.4441547,37.0219416 22.6366377,37.0219416 L22.6366377,48.4775258 C22.6366377,48.7161512 22.5469404,48.8354639 22.2778485,48.8354639 L17.7026823,48.8354639 C17.4634895,48.8354639 17.3437725,48.7459794 17.3437725,48.4775258 L17.3437725,16.437732 L17.3438931,16.437732 Z" id="Shape" fill="#31C5F0"></path>
                    </g>
                </g>
            </g>
        </g>
    </g>
</svg>