<?xml version="1.0" encoding="UTF-8"?>
<svg width="72px" height="74px" viewBox="0 0 72 74" version="1.1" xmlns="http://www.w3.org/2000/svg" xmlns:xlink="http://www.w3.org/1999/xlink">
    <!-- Generator: Sketch 44.1 (41455) - http://www.bohemiancoding.com/sketch -->
    <title>postgresql</title>
    <desc>Created with Sketch.</desc>
    <defs>
        <filter x="-10.8%" y="-7.4%" width="121.5%" height="120.6%" filterUnits="objectBoundingBox" id="filter-1">
            <feOffset dx="0" dy="2" in="SourceAlpha" result="shadowOffsetOuter1"></feOffset>
            <feGaussianBlur stdDeviation="2" in="shadowOffsetOuter1" result="shadowBlurOuter1"></feGaussianBlur>
            <feColorMatrix values="0 0 0 0 0   0 0 0 0 0   0 0 0 0 0  0 0 0 0.5 0" type="matrix" in="shadowBlurOuter1" result="shadowMatrixOuter1"></feColorMatrix>
            <feMerge>
                <feMergeNode in="shadowMatrixOuter1"></feMergeNode>
                <feMergeNode in="SourceGraphic"></feMergeNode>
            </feMerge>
        </filter>
    </defs>
    <g id="Page-1" stroke="none" stroke-width="1" fill="none" fill-rule="evenodd">
        <g id="tech" transform="translate(-632.000000, -407.000000)" fill-rule="nonzero">
            <g transform="translate(112.000000, 191.000000)" id="tech-logos">
                <g transform="translate(312.000000, 16.000000)">
                    <g id="postgresql" filter="url(#filter-1)" transform="translate(211.000000, 201.000000)">
                        <path d="M62.1576911,41.6156818 C54.2625152,43.2423864 53.7196223,40.5725758 53.7196223,40.5725758 C62.0554839,28.2183712 65.5403519,12.5365152 62.5333359,8.69844697 C54.329149,-1.77106061 40.1276547,3.18037879 39.8905871,3.30871212 L39.8143962,3.3225 C38.2544751,2.99901515 36.5089882,2.80651515 34.546875,2.77443182 C30.9746663,2.71609848 28.2647148,3.70988636 26.2083586,5.26738636 C26.2083586,5.26738636 0.874241505,-5.1567803 2.05267749,18.3775379 C2.30328428,23.3841288 9.23744691,56.2605303 17.5080021,46.3303409 C20.5309466,42.6990909 23.4519493,39.6289015 23.4519493,39.6289015 C24.9024954,40.5914015 26.6392218,41.0824621 28.4598377,40.9061364 L28.601335,40.7862879 C28.5572664,41.2370455 28.5774424,41.6779924 28.6578808,42.2000758 C26.5271921,44.5776894 27.1534436,44.9950379 22.8941899,45.8708333 C18.5842309,46.7580303 21.1160498,48.3372727 22.769152,48.7503788 C24.77321,49.2507197 29.4094357,49.9597348 32.5420206,45.579697 L32.4172482,46.0795076 C33.2518962,46.7474242 33.8380613,50.4234848 33.7398362,53.7561742 C33.641611,57.0885985 33.5760391,59.3765909 34.2336165,61.1637121 C34.8917248,62.9508333 35.5471784,66.9718561 41.1465413,65.7736364 C45.8249772,64.7721591 48.2495449,62.1771212 48.5869615,57.8482576 C48.8261529,54.7709091 49.3679839,55.2259091 49.4019645,52.4744318 L49.8365443,51.1720076 C50.3374924,47.0003788 49.9161863,45.6544697 52.7984299,46.2804924 L53.4992794,46.3420076 C55.6204111,46.4382576 58.3972618,46.0010227 60.0270024,45.2445455 C63.5360285,43.6181061 65.6173392,40.9021591 62.1571602,41.6156818 L62.1576911,41.6156818" id="Shape" fill="#336791"></path>
                        <path d="M27.6912925,20.6164773 C26.979824,20.5175758 26.3355203,20.609053 26.0095191,20.8556439 C25.8263425,20.9943182 25.7695312,21.155 25.7541338,21.2655682 C25.7132509,21.5585606 25.9187272,21.8825758 26.0450925,22.0496212 C26.4024196,22.5226515 26.9243401,22.8477273 27.4409512,22.9193182 C27.5158146,22.9299242 27.5904126,22.934697 27.6644797,22.934697 C28.5259405,22.934697 29.3093522,22.2646591 29.3783753,21.7701515 C29.4646541,21.1507576 28.5644342,20.7379167 27.6912925,20.6167424 M51.261074,20.6360985 C51.1931129,20.1506061 50.3282008,20.012197 49.5073574,20.1262121 C48.6875758,20.2402273 47.8927488,20.6098485 47.9591171,21.0964015 C48.0122118,21.4747727 48.6963365,22.1206818 49.50603,22.1206818 C49.5745221,22.1206818 49.6435452,22.1161742 49.7130992,22.1063636 C50.2536029,22.0315909 50.65022,21.68875 50.838706,21.4912121 C51.1254172,21.19 51.2916035,20.8543182 51.261074,20.6360985" id="Shape" fill="#FFFFFF"></path>
                        <path d="M64.7848149,41.4308712 C64.4837682,40.5216667 63.5147907,40.2292045 61.9049606,40.5611742 C57.1251138,41.5464773 55.4133419,40.8639773 54.851335,40.4506061 C58.5666338,34.7975758 61.6230279,27.9640909 63.2718826,21.5885227 C64.052905,18.568447 64.4842992,15.7636742 64.5196071,13.4775379 C64.5586317,10.9684091 64.1306887,9.12454545 63.2482555,7.99818182 C59.6903823,3.45746212 54.4685225,1.0217803 48.1476032,0.954962121 C43.8020707,0.906174242 40.1305749,2.01689394 39.418841,2.32924242 C37.9199788,1.9569697 36.2859906,1.72840909 34.507054,1.69924242 C31.2449181,1.64647727 28.4250607,2.42655303 26.0904885,4.01666667 C25.0763805,3.63962121 22.455628,2.74102273 19.2505689,2.22530303 C13.7096101,1.33439394 9.30646996,2.0094697 6.16432797,4.23276515 C2.41504854,6.88587121 0.684162621,11.6283712 1.0194554,18.3282197 C1.13228155,20.5822727 2.41823422,27.5165152 4.44751214,34.1572348 C7.11870449,42.8976894 10.0224515,47.8456818 13.0775182,48.8635985 C13.4351107,48.9826515 13.8473908,49.0659091 14.3021465,49.0659091 C15.4166035,49.0659091 16.7829945,48.5642424 18.2046041,46.857197 C19.9385598,44.7796162 21.7322256,42.7524834 23.5833586,40.7783333 C24.7843598,41.4221212 26.1037621,41.7816667 27.4531629,41.8177273 C27.4558177,41.8529924 27.4592688,41.8882576 27.4624545,41.9232576 C27.2301721,42.1999119 27.0027157,42.4805729 26.7801881,42.7651136 C25.8451911,43.9506061 25.6505992,44.1974621 22.6409284,44.8163258 C21.784777,44.9929167 19.5109982,45.4609091 19.4775485,47.0528788 C19.4414442,48.7922727 22.1654657,49.5227652 22.475804,49.6001894 C23.5573422,49.8706439 24.5993249,50.0040152 25.5929915,50.0040152 C28.009595,50.0040152 30.1363016,49.2106818 31.8358617,47.6757197 C31.7835634,53.876553 32.0423999,59.9867045 32.7878489,61.8483333 C33.3984375,63.3724242 34.8898665,67.0970076 39.6009557,67.0967424 C40.2922482,67.0967424 41.0530947,67.0164015 41.890132,66.8371591 C46.806963,65.7845076 48.9421647,63.6139773 49.7680522,58.8287879 C50.2100652,56.2714015 50.9685225,50.164697 51.3253186,46.8890152 C52.0782008,47.1236742 53.0474439,47.2310606 54.095267,47.2307955 C56.2806432,47.2307955 58.8023741,46.7670455 60.3837985,46.0339015 C62.1603459,45.2098106 65.3662015,43.1877652 64.7848149,41.4308712 L64.7848149,41.4308712 Z M53.0758495,19.2960227 C53.0596556,20.2630303 52.926388,21.140947 52.7851563,22.0573106 C52.63304,23.0428788 52.4758799,24.0618561 52.4363243,25.2987879 C52.3972998,26.5025758 52.5478231,27.7540909 52.6933025,28.9645076 C52.9874469,31.4092045 53.28929,33.9260227 52.1209421,36.4094318 C51.9268649,36.0659647 51.753985,35.7109722 51.6032691,35.3464394 C51.4580552,34.9948485 51.1426729,34.4300758 50.7059694,33.6484091 C49.0072057,30.6055303 45.0290883,23.4798485 47.065534,20.572197 C47.6721405,19.7067424 49.2116201,18.8168939 53.0758495,19.2960227 L53.0758495,19.2960227 Z M48.3918386,2.91310606 C54.055446,3.03799242 58.5355734,5.15416667 61.7074484,9.2025 C64.1402458,12.3076894 61.4613547,26.4368182 53.7060831,38.6260985 C53.6280916,38.5270483 53.5496878,38.4283227 53.4708738,38.3299242 L53.3726487,38.2074242 C55.3767066,34.9017803 54.984868,31.6311364 54.6360361,28.7314394 C54.4926805,27.5414394 54.3572891,26.4174621 54.3918007,25.3616288 C54.4273741,24.2426894 54.5755082,23.2828409 54.7188638,22.3548106 C54.8948726,21.2112121 55.0740671,20.0278409 55.024689,18.6328788 C55.0615898,18.4865152 55.0764563,18.3136364 55.0570768,18.1084091 C54.9309769,16.7707197 53.4018507,12.767197 50.2851942,9.14363636 C48.5803246,7.16162879 46.0941672,4.94363636 42.6995601,3.44765152 C44.1596632,3.14537879 46.1562879,2.86352273 48.3918386,2.91310606 Z M16.7001669,45.607803 C15.1338744,47.4887879 14.0523362,47.1281818 13.6966019,47.0099242 C11.37902,46.237803 8.68977549,41.3452273 6.31883343,33.5868939 C4.26725576,26.8737879 3.06837834,20.1232955 2.9733389,18.2303788 C2.67388501,12.2437879 4.12682039,8.07162879 7.29205856,5.82950758 C12.4433025,2.18102273 20.9124317,4.36481061 24.315534,5.47234848 C24.2666869,5.52060606 24.215716,5.56568182 24.1673999,5.61473485 C18.5829035,11.2476136 18.7153747,20.871553 18.7291793,21.4599242 C18.7286484,21.6868939 18.7477624,22.0082576 18.7737788,22.4502652 C18.8698802,24.0690152 19.0488092,27.0816667 18.5709572,30.4933712 C18.1270859,33.6637879 19.1056204,36.7668561 21.2551578,39.0071212 C21.4757613,39.2365937 21.7076275,39.4549935 21.9499014,39.6615152 C20.9931356,40.685 18.9136833,42.9483333 16.7001669,45.607803 Z M22.6677412,37.6551136 C20.9352624,35.8494318 20.1483996,33.3379167 20.5086468,30.7638258 C21.0130461,27.1598864 20.8269493,24.0210227 20.7268659,22.3346591 C20.7127958,22.0986742 20.7003186,21.8918561 20.6931508,21.7287879 C21.5089502,21.00625 25.2895555,18.9831439 27.9857024,19.6001515 C29.2159056,19.8814773 29.9656022,20.7182955 30.2772679,22.1575379 C31.8902837,29.6090909 30.4907084,32.7148106 29.3661635,35.2106818 C29.1344053,35.7248106 28.9153899,36.2108333 28.7284967,36.7135606 L28.5835482,37.1022727 C28.2166641,38.0849242 27.8752655,38.9986364 27.6636833,39.8662121 C25.8218295,39.8609091 24.0301502,39.075 22.6677412,37.6548485 L22.6677412,37.6551136 Z M22.9504703,47.7043561 C22.4126214,47.5701894 21.928929,47.3371212 21.645138,47.1438258 C21.8822057,47.0324621 22.3040428,46.8807955 23.0356872,46.7301894 C26.5763046,46.0023485 27.1231796,45.4884848 28.3172785,43.9742045 C28.5909815,43.6268561 28.9013198,43.2333712 29.3311211,42.7539773 L29.331652,42.753447 C29.9717081,42.0375379 30.2645252,42.1589773 30.7954718,42.379053 C31.225804,42.5567045 31.6449863,43.0954924 31.8148893,43.6883712 C31.8953277,43.9683712 31.9855886,44.4997348 31.6901168,44.9133712 C29.1957297,48.4017045 25.5608692,48.3568939 22.9504703,47.7043561 L22.9504703,47.7043561 Z M41.4802412,64.9264773 C37.1487788,65.853447 35.6151396,63.6460606 34.6044827,61.1226136 C33.9522148,59.4935227 33.6315231,52.1472348 33.8590337,44.0343939 C33.8619539,43.9264773 33.8465564,43.8222727 33.8168234,43.7241667 C33.7902267,43.5304391 33.7497712,43.3388631 33.6957676,43.1509091 C33.3575546,41.9704545 32.53326,40.9830303 31.544372,40.5736364 C31.1514715,40.4110985 30.430446,40.112803 29.5639411,40.3342045 C29.7487106,39.57375 30.0691368,38.7149242 30.4166414,37.7850379 L30.5623862,37.3939394 C30.7264487,36.9529924 30.932456,36.4961364 31.1501441,36.0125 C32.3269873,33.4012879 33.9386757,29.8246591 32.1894721,21.744697 C31.534284,18.7182576 29.346253,17.240303 26.0294296,17.5836742 C24.0410346,17.7891667 22.2217461,18.5904545 21.3143583,19.0499621 C21.1192354,19.1485985 20.9408374,19.244053 20.7741201,19.3368561 C21.0273817,16.2876136 21.9841475,10.5889773 25.5632585,6.98344697 C27.8168613,4.71375 30.818037,3.59268939 34.4746663,3.65314394 C41.6796117,3.77087121 46.299909,7.46390152 48.9073877,10.5415152 C51.1543538,13.1932955 52.3710179,15.864697 52.8565686,17.3055303 C49.2049833,16.9345833 46.7214806,17.6544697 45.4626062,19.452197 C42.7237181,23.3626515 46.9609375,30.9523485 48.9973832,34.6000379 C49.3709041,35.2684848 49.6931887,35.84625 49.7945995,36.0917803 C50.4577518,37.6970076 51.3162925,38.76875 51.9430749,39.550947 C52.1352776,39.7906439 52.3216399,40.0231818 52.4634026,40.2262879 C51.3574408,40.5447348 49.3709041,41.2805303 49.5519569,44.958447 C49.4059466,46.8039015 48.3676805,55.4441288 47.8401851,58.4968182 C47.1438486,62.5297727 45.6579945,64.0318561 41.4802412,64.9267424 L41.4802412,64.9264773 Z M59.5600349,44.2616288 C58.4291186,44.7858333 56.5365595,45.179053 54.7387743,45.2636364 C52.753034,45.3564394 51.7421117,45.0414394 51.5042476,44.8476136 C51.3927488,42.5556439 52.2467764,42.3162121 53.150713,42.0627273 C53.2927412,42.0229545 53.4313183,41.9839773 53.5651168,41.9373106 C53.64821,42.0049242 53.7392673,42.0720076 53.8390853,42.1377652 C55.4351107,43.1898864 58.2817809,43.3033712 62.3007813,42.4747727 L62.3448498,42.4660227 C61.8027533,42.972197 60.8751896,43.6515152 59.5600349,44.2616288 Z" id="Shape" fill="#FFFFFF"></path>
                    </g>
                </g>
            </g>
        </g>
    </g>
</svg>