<?xml version="1.0" encoding="UTF-8"?>
<svg width="78px" height="78px" viewBox="0 0 78 78" version="1.1" xmlns="http://www.w3.org/2000/svg" xmlns:xlink="http://www.w3.org/1999/xlink">
    <!-- Generator: Sketch 44.1 (41455) - http://www.bohemiancoding.com/sketch -->
    <title>python-5</title>
    <desc>Created with Sketch.</desc>
    <defs>
        <filter x="-10.0%" y="-7.1%" width="120.0%" height="120.0%" filterUnits="objectBoundingBox" id="filter-1">
            <feOffset dx="0" dy="2" in="SourceAlpha" result="shadowOffsetOuter1"></feOffset>
            <feGaussianBlur stdDeviation="2" in="shadowOffsetOuter1" result="shadowBlurOuter1"></feGaussianBlur>
            <feColorMatrix values="0 0 0 0 0   0 0 0 0 0   0 0 0 0 0  0 0 0 0.5 0" type="matrix" in="shadowBlurOuter1" result="shadowMatrixOuter1"></feColorMatrix>
            <feMerge>
                <feMergeNode in="shadowMatrixOuter1"></feMergeNode>
                <feMergeNode in="SourceGraphic"></feMergeNode>
            </feMerge>
        </filter>
        <linearGradient x1="12.959%" y1="12.2077494%" x2="79.639%" y2="78.0756371%" id="linearGradient-2">
            <stop stop-color="#387EB8" offset="0%"></stop>
            <stop stop-color="#366994" offset="100%"></stop>
        </linearGradient>
        <linearGradient x1="19.128%" y1="20.7098007%" x2="90.742%" y2="88.2581512%" id="linearGradient-3">
            <stop stop-color="#FFE052" offset="0%"></stop>
            <stop stop-color="#FFC331" offset="100%"></stop>
        </linearGradient>
    </defs>
    <g id="Page-1" stroke="none" stroke-width="1" fill="none" fill-rule="evenodd">
        <g id="tech" transform="translate(-422.000000, -403.000000)" fill-rule="nonzero">
            <g transform="translate(112.000000, 191.000000)" id="tech-logos">
                <g transform="translate(312.000000, 16.000000)">
                    <g id="python-5" filter="url(#filter-1)" transform="translate(2.000000, 198.000000)">
                        <path d="M34.7035938,0.0197647059 C16.9760938,0.0197647059 18.0829688,7.73760784 18.0829688,7.73760784 L18.1026563,15.7335294 L35.0196875,15.7335294 L35.0196875,18.1341176 L11.3834766,18.1341176 C11.3834766,18.1341176 0.0396484375,16.842549 0.0396484375,34.7996078 C0.0396484375,52.7572157 9.94082031,52.1203529 9.94082031,52.1203529 L15.8498047,52.1203529 L15.8498047,43.7873333 C15.8498047,43.7873333 15.53125,33.8473333 25.5929297,33.8473333 L42.3716016,33.8473333 C42.3716016,33.8473333 51.7983594,34.0002353 51.7983594,24.7009412 L51.7983594,9.32509804 C51.7983594,9.32509804 53.2300781,0.0197647059 34.7035938,0.0197647059 Z M25.3755469,5.39686275 C26.1829184,5.39613352 26.9574309,5.71779547 27.528329,6.29093242 C28.0992272,6.86406936 28.4196326,7.64161915 28.4189063,8.45215686 C28.4196326,9.26269458 28.0992272,10.0402444 27.528329,10.6133813 C26.9574309,11.1865183 26.1829184,11.5081802 25.3755469,11.507451 C24.5681753,11.5081802 23.7936628,11.1865183 23.2227647,10.6133813 C22.6518666,10.0402444 22.3314611,9.26269458 22.3321875,8.45215686 C22.3314611,7.64161915 22.6518666,6.86406936 23.2227647,6.29093242 C23.7936628,5.71779547 24.5681753,5.39613352 25.3755469,5.39686275 L25.3755469,5.39686275 Z" id="Shape" fill="url(#linearGradient-2)"></path>
                        <path d="M35.2069922,69.7600784 C52.9344922,69.7600784 51.8276172,62.0422353 51.8276172,62.0422353 L51.8079297,54.0465882 L34.890625,54.0465882 L34.890625,51.646 L58.5268359,51.646 C58.5268359,51.646 69.8706641,52.9375686 69.8706641,34.9799608 C69.8706641,17.0226275 59.9694922,17.6594902 59.9694922,17.6594902 L54.0605078,17.6594902 L54.0605078,25.9922353 C54.0605078,25.9922353 54.3790625,35.9322353 44.3173828,35.9322353 L27.5387109,35.9322353 C27.5387109,35.9322353 18.1119531,35.7793333 18.1119531,45.078902 L18.1119531,60.4550196 C18.1119531,60.4550196 16.6805078,69.7600784 35.2067187,69.7600784 L35.2069922,69.7600784 Z M44.5350391,64.3835294 C43.7276675,64.3842586 42.953155,64.0625967 42.3822569,63.4894597 C41.8113588,62.9163228 41.4909533,62.138773 41.4916797,61.3282353 C41.4908807,60.51765 41.811254,59.7400297 42.3821601,59.1668333 C42.9530661,58.5936369 43.7276201,58.2719373 44.5350391,58.2726667 C45.3424106,58.2719374 46.1169231,58.5935994 46.6878212,59.1667363 C47.2587194,59.7398733 47.5791248,60.5174231 47.5783984,61.3279608 C47.5791248,62.1384985 47.2587194,62.9160483 46.6878212,63.4891852 C46.1169231,64.0623222 45.3424106,64.3839841 44.5350391,64.3832549 L44.5350391,64.3835294 Z" id="Shape" fill="url(#linearGradient-3)"></path>
                    </g>
                </g>
            </g>
        </g>
    </g>
</svg>