<?xml version="1.0" encoding="UTF-8"?>
<svg width="84px" height="76px" viewBox="0 0 84 76" version="1.1" xmlns="http://www.w3.org/2000/svg" xmlns:xlink="http://www.w3.org/1999/xlink">
    <!-- Generator: Sketch 44.1 (41455) - http://www.bohemiancoding.com/sketch -->
    <title>react</title>
    <desc>Created with Sketch.</desc>
    <defs>
        <filter x="-9.2%" y="-7.1%" width="119.5%" height="120.0%" filterUnits="objectBoundingBox" id="filter-1">
            <feOffset dx="0" dy="2" in="SourceAlpha" result="shadowOffsetOuter1"></feOffset>
            <feGaussianBlur stdDeviation="2" in="shadowOffsetOuter1" result="shadowBlurOuter1"></feGaussianBlur>
            <feColorMatrix values="0 0 0 0 0   0 0 0 0 0   0 0 0 0 0  0 0 0 0.5 0" type="matrix" in="shadowBlurOuter1" result="shadowMatrixOuter1"></feColorMatrix>
            <feMerge>
                <feMergeNode in="shadowMatrixOuter1"></feMergeNode>
                <feMergeNode in="SourceGraphic"></feMergeNode>
            </feMerge>
        </filter>
    </defs>
    <g id="Page-1" stroke="none" stroke-width="1" fill="none" fill-rule="evenodd">
        <g id="tech" transform="translate(-422.000000, -206.000000)" fill-rule="nonzero" fill="#75DBCD">
            <g transform="translate(112.000000, 191.000000)" id="tech-logos">
                <g transform="translate(312.000000, 16.000000)">
                    <g id="react" filter="url(#filter-1)" transform="translate(2.000000, 0.000000)">
                        <path d="M62.5920025,23.1996027 C70.7868764,26.0342905 76.0824493,30.4747728 76.0824493,35.0660829 C76.0824493,39.8544479 70.4232045,44.5361874 61.7246299,47.4319487 C61.2649191,47.5851386 60.7937911,47.7322549 60.3135965,47.8746472 C60.4848547,48.5670385 60.6376439,49.2469452 60.7686061,49.9126801 C62.4858895,58.6286449 61.1635074,65.7924655 57.0936061,68.1598229 C53.1529879,70.451935 46.7841968,68.2003136 40.3354852,62.6244041 C39.6345397,62.016857 38.9505844,61.3897946 38.2844161,60.7439476 C37.7555304,61.2578423 37.2273163,61.7481174 36.7011171,62.2103865 C30.0435376,68.0579212 23.2066406,70.4839902 19.1330455,68.1237186 C15.1890694,65.8376801 13.9496299,59.169196 15.5366228,50.7707459 C15.7100316,49.8580143 15.9087911,48.9503305 16.1326686,48.0487573 C15.4435326,47.8510934 14.7594066,47.6362009 14.0809279,47.40428 C5.71345258,44.5307886 0.206325384,39.7913499 0.206325384,35.0660829 C0.206325384,30.4913065 5.33668448,26.0805174 13.3697026,23.2664124 C14.2676329,22.9519345 15.2061952,22.6563522 16.1780016,22.3789908 C15.9698165,21.5421425 15.7828273,20.7001136 15.6172149,19.8537196 C13.9526521,11.3068035 15.1239241,4.47635658 19.07831,2.17614628 C23.2022752,-0.222591427 30.0704016,2.35329318 36.9224095,8.46671699 C37.3486229,8.8478186 37.7677737,9.2368212 38.1796464,9.63352456 C38.7946821,9.03692499 39.4246208,8.45603523 40.0688596,7.89141135 C46.6068942,2.17445917 53.080455,-0.217192665 57.0385348,2.0766066 C61.1668654,4.46825843 62.375747,11.7336432 60.5268298,20.7522761 C60.4112997,21.3125517 60.285465,21.8706317 60.1493901,22.42623 C60.9699292,22.6633656 61.7843918,22.9212383 62.5920025,23.1996027 Z M60.7051398,44.3404822 L60.7054756,44.3404822 C68.2156524,41.8398429 72.8413035,38.0134699 72.8413035,35.0660829 C72.8413035,32.2992171 68.5585047,28.7080277 61.5369175,26.2795968 C60.8109169,26.0282169 60.0573808,25.7903339 59.2813459,25.5642607 C58.3478207,28.5993776 57.1020011,31.8059052 55.5885485,35.0822792 C57.1741982,38.4379476 58.4703879,41.6863156 59.4307771,44.7410029 C59.8646313,44.6117701 60.2904263,44.4784881 60.7051398,44.3404822 Z M57.5889117,50.5453476 L57.5889117,50.5453476 C57.4703742,49.943723 57.332696,49.3286015 57.1782278,48.7009953 C54.0354715,49.4308405 50.570011,49.9656555 46.901727,50.292618 C44.8164062,53.3260478 42.6797081,56.0578216 40.5416667,58.4076331 C41.1803591,59.0251165 41.8173725,59.6088577 42.4496848,60.1554825 C47.9641996,64.9239395 53.0781044,66.7318502 55.4693394,65.3409939 C56.5929276,64.6874062 57.5016036,63.0556302 57.953591,60.6079662 C58.4566201,57.8839531 58.3481565,54.3993892 57.5889117,50.5453476 Z M26.0740406,65.100749 L26.0743764,65.100749 C28.6741434,64.177898 31.6241502,62.3436684 34.5681127,59.7576611 C35.0608375,59.3238022 35.5428571,58.8778192 36.0137336,58.4201177 C33.7981223,56.0308278 31.5996368,53.3024282 29.5005482,50.334121 C25.8235334,50.0344897 22.3832579,49.5374661 19.2754249,48.8467619 C19.067481,49.6852343 18.8827197,50.5293404 18.7213542,51.3781067 C17.3643846,58.5601481 18.3590255,63.9150458 20.752611,65.3018529 C21.8772067,65.9534161 23.7378769,65.9297965 26.0740406,65.100749 Z M15.1292969,44.3222614 L15.1292969,44.3222614 C15.7487635,44.5340334 16.3733171,44.7304727 17.0023917,44.9114014 C17.9607662,41.7716835 19.2240474,38.4754015 20.7465666,35.1453773 C19.2435238,31.8642793 17.99804,28.619623 17.0483964,25.5163467 C16.1700577,25.7659049 15.299178,26.0412473 14.4368764,26.34202 C7.5667352,28.7488558 3.44747122,32.2901067 3.44747122,35.0660829 C3.44747122,36.3708964 4.39778646,37.9787154 6.27961212,39.5983441 C8.37399945,41.4001812 11.4294476,43.0515277 15.1292969,44.3222614 Z M18.7982525,19.228138 L18.7982525,19.2278006 C18.9524159,20.0151243 19.1263038,20.7984186 19.3197505,21.5769371 C22.4601563,20.8619385 25.8762541,20.3281359 29.4448054,19.9957745 C31.5257607,17.0446759 33.7040981,14.3368591 35.9082922,11.9583667 C35.5278303,11.592938 35.14804,11.2396564 34.7699287,10.9022338 C28.8537966,5.62393105 23.2408923,3.51841364 20.702241,4.99497521 C18.3190652,6.38110751 17.372108,11.9050539 18.7982525,19.228138 Z M51.5277138,27.3488892 L51.5277138,27.3488892 C52.2814912,28.6566298 53.0092039,29.9793654 53.7104167,31.3163049 C54.6701343,29.0589473 55.485122,26.856927 56.1389254,24.7510721 C53.9609238,24.2513492 51.6415502,23.8430677 49.220429,23.5360131 C50.0166831,24.7901758 50.7859566,26.0614294 51.5277138,27.3488892 Z M38.1806538,14.2859082 L38.1806538,14.2859082 C36.6621642,15.9321934 35.1520696,17.7468525 33.6779057,19.7001923 C36.6655817,19.559682 39.6581793,19.5603576 42.6457922,19.7022168 C41.1729715,17.7306562 39.6756373,15.9132977 38.1806538,14.2859082 Z M24.7479646,27.3711591 L24.7479646,27.3711591 C25.4932995,26.0726343 26.2688765,24.7918748 27.0740543,23.5299395 C24.6687157,23.8319328 22.3600877,24.2297541 20.1951823,24.716655 C20.8546944,26.8525405 21.6622944,29.064346 22.6062294,31.3139429 C23.2895186,29.9831185 24.0036247,28.6684993 24.7479646,27.3711591 Z M27.1432292,46.8347106 L27.1432292,46.8347106 C26.3183186,45.5487682 25.5240368,44.2432464 24.7610609,42.919258 C24.0133371,41.6213353 23.2960929,40.3059231 22.6099232,38.9741122 C21.6458402,41.2719605 20.8204427,43.5313427 20.1505208,45.7050195 C22.3147547,46.1784235 24.6583059,46.5559994 27.1432292,46.8347106 Z M38.2703125,56.0763799 C39.755222,54.4334689 41.2471834,52.5884418 42.7247053,50.5706543 C41.2199836,50.6381388 39.6910842,50.6728934 38.1443873,50.6728934 C36.638994,50.6728934 35.1577782,50.643875 33.7051055,50.5865132 C35.2017681,52.5681965 36.7340255,54.4105242 38.2703125,56.0763799 Z M53.7413103,38.8570265 L53.7413103,38.8570265 C53.0377278,40.219806 52.304046,41.5666809 51.54081,42.8966507 C50.790008,44.2052732 50.0133718,45.4987577 49.2113624,46.7763364 C51.7140831,46.4746806 54.0891996,46.0684237 56.289364,45.5639768 C55.6103755,43.4270791 54.7554276,41.1798442 53.7413103,38.8570265 Z M48.7328468,41.2695986 L48.7331826,41.2695986 C49.8925122,39.2519888 50.9799636,37.1935307 51.993469,35.0981381 C50.9694298,33.0238789 49.8785088,30.9836423 48.722437,28.9806652 C47.5728596,26.982923 46.353481,25.0265663 45.0665776,23.1152471 C42.8106702,22.9424867 40.493983,22.8520574 38.1447231,22.8520574 C35.8058731,22.8520574 33.4922081,22.9418118 31.2356291,23.1132225 C29.9355759,25.0274874 28.7083481,26.9906778 27.5565995,28.9985486 L27.5565995,28.9978738 C26.4044894,31.0053171 25.3279356,33.055597 24.3292215,35.144365 C25.3304823,37.2325074 26.4102991,39.2816896 27.5663377,41.287482 C28.7278051,43.3039731 29.964771,45.2755937 31.274582,47.1981148 C33.4864995,47.3421943 35.7833745,47.4160898 38.1443873,47.4160898 C40.5151384,47.4160898 42.8415639,47.3327464 45.09277,47.171121 C46.3694686,45.2441131 47.583469,43.2758989 48.7328468,41.2695986 Z M55.4196409,4.89813491 L55.4196409,4.89813491 C53.0341146,3.51571426 47.7986499,5.44982096 42.196827,10.3485232 C41.6020565,10.8699731 41.0202707,11.4061907 40.4520079,11.9566796 C42.6206072,14.3044665 44.7808114,17.0170073 46.8657963,20.000161 C50.4447574,20.3375837 53.8632059,20.8808342 57.0109992,21.6106794 C57.1337943,21.10755 57.2475372,20.6022334 57.3521724,20.0949768 C58.9485677,12.308274 57.960307,6.37064741 55.4196409,4.89813491 Z" id="Combined-Shape"></path>
                        <path d="M38.1443873,28.2579059 C41.8865474,28.2579059 44.9198328,31.3061822 44.9198328,35.0660829 C44.9198328,38.8263211 41.8865474,41.8745974 38.1443873,41.8745974 C34.402563,41.8745974 31.3689419,38.8263211 31.3689419,35.0660829 C31.3689419,31.3061822 34.402563,28.2579059 38.1443873,28.2579059" id="Shape"></path>
                    </g>
                </g>
            </g>
        </g>
    </g>
</svg>