<?xml version="1.0" encoding="UTF-8"?>
<svg width="82px" height="78px" viewBox="0 0 82 78" version="1.1" xmlns="http://www.w3.org/2000/svg" xmlns:xlink="http://www.w3.org/1999/xlink">
    <!-- Generator: Sketch 44.1 (41455) - http://www.bohemiancoding.com/sketch -->
    <title>redux</title>
    <desc>Created with Sketch.</desc>
    <defs>
        <path d="M51.1243803,48.6938934 C53.8471748,48.4133197 55.9128326,46.0769262 55.8188735,43.2729098 C55.7252027,40.4691803 53.3776679,38.2260246 50.5609143,38.2260246 L50.3732844,38.2260246 C47.4622836,38.3195492 45.208996,40.7494672 45.302955,43.6467213 C45.3969141,45.0487295 45.9600918,46.2636885 46.8051467,47.1048361 C43.6128452,53.3669672 38.7304339,57.9465164 31.4068169,61.7784426 C26.4304466,64.3954098 21.2664464,65.330082 16.1024462,64.6759836 C11.8771717,64.115123 8.59091111,62.2460656 6.52496516,59.1614754 C3.52058171,54.5819262 3.23899282,49.6282787 5.77415752,44.674918 C7.55822635,41.1232787 10.3746917,38.5063115 12.1587606,37.1978279 C11.7832126,35.9828689 11.2197466,33.9267623 10.9381577,32.4315164 C-2.67639147,42.245 -1.26787057,55.5165984 2.86344489,61.7784426 C5.96178737,66.4518033 12.2527196,69.3490574 19.2007886,69.3490574 C21.0785283,69.3490574 22.9562679,69.1620082 24.8342958,68.694959 C36.8526943,66.3582787 45.9603801,59.255 51.1243803,48.6938934 Z M67.6496421,37.1045902 C60.513655,28.7863525 49.9977365,24.2068033 37.979338,24.2068033 L36.4771463,24.2068033 C35.6320914,22.5245082 33.8480226,21.4027869 31.8763239,21.4027869 L31.6884058,21.4027869 C28.7779814,21.4963115 26.5246938,23.9262295 26.6183647,26.8237705 C26.7123237,29.6275 29.0595703,31.8706557 31.8763239,31.8706557 L32.0639538,31.8706557 C34.1296115,31.7771311 35.9136803,30.4686475 36.6647762,28.6928279 L38.354886,28.6928279 C45.4908731,28.6928279 52.2510241,30.7489344 58.3543264,34.7679098 C63.0488197,37.8522131 66.4290393,41.8711885 68.3067789,46.7310246 C69.9029297,50.6564754 69.8089707,54.4884016 68.1188609,57.7597541 C65.4900253,62.7131148 61.077121,65.4236066 55.2556957,65.4236066 C51.4999282,65.4236066 47.9320788,64.3018852 46.0540509,63.4607377 C45.0213661,64.3954098 43.1433383,65.8906557 41.8287764,66.8256148 C45.866421,68.6946721 49.9977365,69.7228689 53.9411339,69.7228689 C62.9548606,69.7228689 69.6213408,64.7692213 72.1565055,59.8158607 C74.8793,54.394877 74.691382,45.0487295 67.6496421,37.1045902 L67.6496421,37.1045902 Z M19.9518845,50.282377 C20.0458435,53.0863934 22.3930902,55.3292623 25.2098437,55.3292623 L25.3977618,55.3292623 C28.3084745,55.2360246 30.561762,52.8058197 30.467803,49.9085656 C30.3741322,47.1045492 28.0265973,44.8616803 25.2098437,44.8616803 L25.0222139,44.8616803 C24.8342958,44.8616803 24.5524187,44.8616803 24.3650771,44.954918 C20.5153505,38.5995492 18.9191997,31.6836066 19.4826658,24.2065164 C19.8579255,18.5987705 21.7359533,13.7386475 25.0222139,9.71967213 C27.7450084,6.26155738 33.0029677,4.5792623 36.5711054,4.48602459 C46.5235579,4.29897541 50.7485441,16.6359016 51.0304212,21.5895492 C52.2510241,21.8698361 54.3166818,22.5242213 55.7252027,22.9915574 C54.5982707,7.85090164 45.208996,0 36.1955574,0 C27.7450084,0 19.9518845,6.07508197 16.8532538,15.047418 C12.5343085,27.0105328 15.3510621,38.5063115 20.6090213,47.5721721 C20.1398026,48.2262705 19.8579255,49.2544672 19.9518845,50.2826639 L19.9518845,50.282377 Z" id="path-1"></path>
        <filter x="-9.5%" y="-7.2%" width="119.0%" height="120.1%" filterUnits="objectBoundingBox" id="filter-2">
            <feOffset dx="0" dy="2" in="SourceAlpha" result="shadowOffsetOuter1"></feOffset>
            <feGaussianBlur stdDeviation="2" in="shadowOffsetOuter1" result="shadowBlurOuter1"></feGaussianBlur>
            <feColorMatrix values="0 0 0 0 0   0 0 0 0 0   0 0 0 0 0  0 0 0 0.5 0" type="matrix" in="shadowBlurOuter1"></feColorMatrix>
        </filter>
    </defs>
    <g id="Page-1" stroke="none" stroke-width="1" fill="none" fill-rule="evenodd">
        <g id="tech" transform="translate(-420.000000, -301.000000)" fill-rule="nonzero">
            <g transform="translate(112.000000, 191.000000)" id="tech-logos">
                <g transform="translate(312.000000, 16.000000)">
                    <g id="redux" transform="translate(0.000000, 96.000000)">
                        <g id="Shape">
                            <use fill="black" fill-opacity="1" filter="url(#filter-2)" xlink:href="#path-1"></use>
                            <use fill="#C04CFD" fill-rule="evenodd" xlink:href="#path-1"></use>
                        </g>
                    </g>
                </g>
            </g>
        </g>
    </g>
</svg>