<?xml version="1.0" encoding="UTF-8" standalone="no"?>
<svg
   xmlns:dc="http://purl.org/dc/elements/1.1/"
   xmlns:cc="http://creativecommons.org/ns#"
   xmlns:rdf="http://www.w3.org/1999/02/22-rdf-syntax-ns#"
   xmlns:svg="http://www.w3.org/2000/svg"
   xmlns="http://www.w3.org/2000/svg"
   id="svg4"
   version="1.1"
   viewBox="0 0 17.408002 13.048605"
   height="63.71389"
   width="85.000008">
  <metadata
     id="metadata10">
    <rdf:RDF>
      <cc:Work
         rdf:about="">
        <dc:format>image/svg+xml</dc:format>
        <dc:type
           rdf:resource="http://purl.org/dc/dcmitype/StillImage" />
        <dc:title></dc:title>
      </cc:Work>
    </rdf:RDF>
  </metadata>
  <defs
     id="defs8" />
  <path
     style="fill:#cf649a;stroke-width:0.03400297"
     id="path2"
     d="m 14.985639,7.493353 c -0.608653,0.003 -1.135699,0.14961 -1.577738,0.36727 -0.163214,-0.32303 -0.326428,-0.60529 -0.353596,-0.81607 -0.0306,-0.24483 -0.06801,-0.39447 -0.0306,-0.68686 0.03737,-0.29246 0.207384,-0.7073 0.207384,-0.7413 -0.0034,-0.0306 -0.03744,-0.18022 -0.387634,-0.18362 -0.350196,-0.003 -0.652857,0.068 -0.68686,0.15981 -0.034,0.0918 -0.102009,0.30263 -0.146213,0.52025 -0.06121,0.31963 -0.700461,1.45193 -1.064292,2.04698 -0.119011,-0.23122 -0.22102,-0.43524 -0.241456,-0.59849 -0.03057,-0.24478 -0.068,-0.39443 -0.03057,-0.68682 0.0374,-0.29246 0.207418,-0.70726 0.207418,-0.74127 -0.0034,-0.0306 -0.0374,-0.18021 -0.3876,-0.18361 -0.350265,-0.003 -0.6528564,0.068 -0.6868594,0.15981 -0.034003,0.0918 -0.071406,0.30943 -0.1462128,0.52025 -0.07144,0.21081 -0.9215144,2.10138 -1.1425337,2.59442 -0.1122098,0.25162 -0.2107844,0.45224 -0.2822247,0.58825 -0.071406,0.13602 -0.0034,0.0102 -0.010201,0.0238 -0.061205,0.11561 -0.095208,0.18021 -0.095208,0.18021 v 0.003 c -0.047604,0.085 -0.098609,0.16658 -0.1224447,0.16658 -0.017001,0 -0.051004,-0.22782 0.0068,-0.54062 0.125811,-0.65629 0.4318377,-1.67974 0.4284714,-1.71715 0,-0.017 0.057771,-0.19725 -0.1972512,-0.28902 -0.2482216,-0.0918 -0.3365954,0.0612 -0.3570311,0.0612 -0.020402,0 -0.037403,0.0544 -0.037403,0.0544 0,0 0.275424,-1.15267 -0.527046,-1.15267 -0.503244,0 -1.1969045,0.54745 -1.5403345,1.04729 -0.217619,0.11901 -0.6800594,0.3706 -1.1697021,0.63926 -0.1870163,0.10201 -0.3808333,0.21082 -0.5644493,0.30943 l -0.037369,-0.0409 C 3.040398,7.520073 1.241641,6.785613 1.3164475,5.391493 1.3436495,4.884843 1.5204653,3.548533 4.7711831,1.929993 7.4336156,0.60387303 9.5656017,0.96770303 9.9362001,1.776973 10.463245,2.933073 8.7971006,5.082063 6.029293,5.391493 4.975201,5.510503 4.4209186,5.102463 4.2815404,4.949453 4.1353276,4.789633 4.1149258,4.782833 4.0605211,4.813443 c -0.088408,0.0476 -0.034003,0.19041 0,0.27542 0.081607,0.21422 0.4216368,0.59505 0.9996873,0.78547 0.5066102,0.16661 1.7443523,0.25842 3.2404829,-0.31963 C 9.9770376,4.905243 11.286151,3.103093 10.901918,1.596763 10.510884,0.06322303 7.9674622,-0.44001697 5.5634523,0.41345303 4.1318933,0.92350303 2.581358,1.719173 1.4660606,2.763063 c -1.32611578,1.23771 -1.53693418,2.319 -1.44852647,2.76784 0.30946102,1.60154 2.51621967,2.64543 3.40029687,3.4173 -0.044204,0.0238 -0.085007,0.0476 -0.1224107,0.068 -0.4420386,0.21759 -2.1251855,1.0983 -2.54682234,2.02995 -0.47604156,1.05409 0.0748065,1.81239 0.44203854,1.9144 1.1356992,0.31623 2.2986007,-0.25162 2.9276556,-1.18671 0.6256207,-0.93508 0.5508481,-2.14898 0.2618229,-2.70323 L 4.36988,9.050213 4.7167103,8.846193 c 0.2244536,-0.13261 0.4454729,-0.25502 0.6392558,-0.36047 -0.1087755,0.29583 -0.1870163,0.64606 -0.2277859,1.1561 -0.047604,0.59849 0.1972172,1.37372 0.5202454,1.67975 0.1428125,0.13258 0.3128273,0.13601 0.4182365,0.13601 0.3740327,0 0.5440475,-0.30946 0.7310639,-0.68006 0.2312202,-0.45224 0.435238,-0.97588 0.435238,-0.97588 0,0 -0.2550223,1.41792 0.4420386,1.41792 0.2550222,0 0.5100445,-0.32983 0.6256546,-0.49984 v 0.003 c 0,0 0.0068,-0.0102 0.020402,-0.034 a 1.2285273,1.2285273 0 0 0 0.040804,-0.0646 v -0.007 c 0.1020089,-0.17681 0.3298288,-0.58145 0.6698585,-1.25131 0.4386043,-0.86367 0.8602751,-1.94497 0.8602751,-1.94497 0,0 0.040804,0.26523 0.1666142,0.70047 0.07477,0.25845 0.237987,0.54064 0.363798,0.81607 -0.102009,0.14281 -0.163214,0.22445 -0.163214,0.22445 l 0.0034,0.003 c -0.08157,0.10881 -0.173415,0.22445 -0.2685893,0.34003 -0.3468303,0.41484 -0.7616665,0.88751 -0.8160712,1.02352 -0.064606,0.15978 -0.051004,0.27879 0.074807,0.37404 0.091808,0.068 0.2550223,0.0816 0.4284374,0.068 0.3128273,-0.0204 0.5304451,-0.0986 0.6392551,-0.14624 0.170015,-0.0612 0.363832,-0.15302 0.550848,-0.28903 0.34003,-0.25159 0.547448,-0.60862 0.527046,-1.08466 -0.0102,-0.26182 -0.09521,-0.52025 -0.200618,-0.76507 0.0306,-0.0442 0.06124,-0.0884 0.09181,-0.13601 0.537246,-0.7855 0.952083,-1.64914 0.952083,-1.64914 0,0 0.0408,0.26522 0.166614,0.70046 0.06457,0.22102 0.193817,0.46247 0.309427,0.70049 -0.503244,0.41144 -0.819471,0.88748 -0.928281,1.20031 -0.200617,0.57805 -0.0442,0.83987 0.251622,0.90108 0.132578,0.0272 0.323028,-0.034 0.465807,-0.0952 0.176815,-0.0578 0.391034,-0.15645 0.588285,-0.30263 0.34003,-0.25162 0.666458,-0.60185 0.649457,-1.07449 -0.0102,-0.21762 -0.06801,-0.43184 -0.146213,-0.63586 0.428437,-0.17681 0.982652,-0.27882 1.686547,-0.19381 1.513132,0.17681 1.812359,1.12209 1.754588,1.51653 -0.05781,0.39447 -0.374033,0.61205 -0.479476,0.68006 -0.10541,0.0646 -0.139413,0.0884 -0.129212,0.13601 0.0136,0.0714 0.06121,0.068 0.153014,0.0544 0.125811,-0.0204 0.795669,-0.32303 0.822872,-1.05066 0.0408,-0.93522 -0.846674,-1.95531 -2.421012,-1.94514 z m -11.6698181,3.93414 c -0.4998437,0.54745 -1.2037051,0.75487 -1.5029312,0.57805 -0.3230282,-0.18701 -0.1972512,-0.99288 0.4182365,-1.57433 0.3740326,-0.35363 0.8602751,-0.68006 1.179903,-0.88068 0.071406,-0.0442 0.1802157,-0.10877 0.309427,-0.18702 0.020402,-0.0136 0.034003,-0.0204 0.034003,-0.0204 0.023802,-0.0136 0.051004,-0.0306 0.078207,-0.0476 0.2278199,0.82967 0.010201,1.55733 -0.5168453,2.13198 z M 6.97114,8.941883 c -0.1734151,0.42503 -0.5406472,1.51653 -0.7616665,1.45532 -0.1904506,-0.051 -0.3060267,-0.87727 -0.037437,-1.69334 0.1360119,-0.41147 0.4250371,-0.90108 0.595052,-1.09153 0.275458,-0.30603 0.5746502,-0.40804 0.6494907,-0.28223 0.088408,0.16325 -0.3366294,1.34655 -0.4454392,1.61178 z m 3.0160633,1.44172 c -0.074807,0.0374 -0.1428125,0.0646 -0.1734151,0.0442 -0.023802,-0.0136 0.030569,-0.0646 0.030569,-0.0646 0,0 0.3774318,-0.40464 0.5270448,-0.59166 0.08501,-0.10877 0.187017,-0.23458 0.295826,-0.37743 v 0.0408 c 3.4e-5,0.48961 -0.469207,0.81604 -0.6800243,0.94865 z m 2.3257687,-0.53044 c -0.05441,-0.0408 -0.04757,-0.16662 0.136012,-0.56105 0.07144,-0.15642 0.23462,-0.41824 0.516845,-0.66646 0.034,0.10201 0.05444,0.20058 0.051,0.29243 -0.0034,0.61205 -0.438604,0.83987 -0.703861,0.93508 z" />
</svg>
