<?xml version="1.0" encoding="UTF-8"?>
<svg width="84px" height="65px" viewBox="0 0 84 65" version="1.1" xmlns="http://www.w3.org/2000/svg" xmlns:xlink="http://www.w3.org/1999/xlink">
    <!-- Generator: Sketch 44.1 (41455) - http://www.bohemiancoding.com/sketch -->
    <title>Sass</title>
    <desc>Created with Sketch.</desc>
    <defs>
        <path d="M491.424429,250.714544 C488.767167,250.727641 486.466185,251.367712 484.536327,252.317974 C483.823766,250.907687 483.111205,249.675394 482.992595,248.755169 C482.859001,247.686288 482.695676,247.032988 482.859001,245.75647 C483.022151,244.479645 483.7644,242.668533 483.7644,242.520096 C483.749556,242.386502 483.600944,241.73329 482.072064,241.718446 C480.543176,241.705349 479.221816,242.015321 479.073365,242.416146 C478.924928,242.816927 478.628013,243.737371 478.435027,244.687458 C478.167796,246.082901 475.376949,251.026306 473.788532,253.62418 C473.268953,252.614718 472.823601,251.724006 472.734381,251.011288 C472.600919,249.942625 472.437507,249.289282 472.600919,248.012763 C472.7642,246.735939 473.506466,244.925002 473.506466,244.77652 C473.491622,244.642927 473.343185,243.989758 471.814279,243.974914 C470.285089,243.961817 468.964033,244.271789 468.815582,244.672614 C468.667131,245.073395 468.503837,246.023526 468.177245,246.943926 C467.865352,247.864282 464.15409,256.118149 463.189162,258.270667 C462.699275,259.369191 462.268917,260.24506 461.957023,260.838854 C461.645278,261.432691 461.942179,260.883385 461.912487,260.94276 C461.645278,261.447491 461.496827,261.729522 461.496827,261.729522 L461.496827,261.74262 C461.288997,262.113713 461.066319,262.469876 460.962257,262.469876 C460.888034,262.469876 460.739583,261.475257 460.991945,260.109633 C461.541211,257.244396 462.877265,252.776209 462.862569,252.612885 C462.862569,252.538666 463.114786,251.751729 462.001408,251.351079 C460.91772,250.950297 460.531897,251.618266 460.442678,251.618266 C460.353607,251.618266 460.279384,251.855766 460.279384,251.855766 C460.279384,251.855766 461.481832,246.82343 457.978402,246.82343 C455.781335,246.82343 452.752946,249.213492 451.253597,251.395697 C450.303514,251.915272 448.284588,253.013666 446.146901,254.186584 C445.330424,254.63194 444.484256,255.106984 443.682624,255.537496 L443.519478,255.358934 C439.273795,250.831198 431.420767,247.624687 431.747358,241.538226 C431.866116,239.326289 432.63806,233.492215 446.830071,226.42598 C458.453742,220.636394 467.761585,222.224806 469.379546,225.757924 C471.680523,230.805235 464.406456,240.187314 452.322738,241.538226 C447.720775,242.057801 445.300884,240.276376 444.692385,239.608364 C444.054048,238.91062 443.964978,238.880933 443.727457,239.01457 C443.341485,239.222383 443.579007,239.845864 443.727457,240.217001 C444.083738,241.152245 445.568243,242.814875 448.091901,243.646213 C450.303664,244.3736 455.707409,244.774425 462.239228,242.250769 C469.557835,239.415351 475.273173,231.54751 473.595686,224.971161 C471.888506,218.27602 460.784414,216.07897 450.288967,219.805057 C444.039055,222.031837 437.269715,225.50558 432.40054,230.063004 C426.610972,235.466609 425.69058,240.187314 426.076551,242.146863 C427.427598,249.13888 437.061884,253.696304 440.921595,257.06614 C440.728609,257.170046 440.550471,257.273953 440.387174,257.363015 C438.457318,258.312971 431.109021,262.157983 429.268235,266.225388 C427.189929,270.827343 429.594826,274.137936 431.198091,274.583292 C436.156336,275.963891 441.233341,273.484767 443.979674,269.402343 C446.711015,265.319963 446.384572,260.020308 445.122743,257.600559 L445.078059,257.511496 L446.592254,256.620784 C447.572175,256.041834 448.537103,255.507416 449.383122,255.047041 C448.908229,256.338578 448.566645,257.867615 448.388652,260.094352 C448.180822,262.707245 449.249665,266.091751 450.659944,267.427819 C451.283436,268.006638 452.025688,268.021613 452.485885,268.021613 C454.11884,268.021613 454.861092,266.670569 455.67757,265.052601 C456.687033,263.078208 457.577735,260.792096 457.577735,260.792096 C457.577735,260.792096 456.464357,266.982463 459.507591,266.982463 C460.620969,266.982463 461.734348,265.542488 462.239079,264.800257 L462.239079,264.813355 C462.239079,264.813355 462.268767,264.768823 462.32815,264.664917 C462.390441,264.572776 462.449851,264.478721 462.506293,264.382886 L462.506293,264.352325 C462.951644,263.580407 463.946262,261.813826 465.430767,258.889345 C467.345629,255.118728 469.186563,250.397979 469.186563,250.397979 C469.186563,250.397979 469.364706,251.555922 469.913969,253.456097 C470.2404,254.58444 470.952974,255.816428 471.502241,257.018902 C471.056889,257.642383 470.78968,257.998808 470.78968,257.998808 L470.804524,258.011905 C470.448405,258.486949 470.047427,258.991811 469.631914,259.496411 C468.11772,261.307523 466.306624,263.37111 466.069104,263.964903 C465.787046,264.662472 465.84643,265.182047 466.395697,265.59789 C466.796513,265.894765 467.509075,265.95414 468.266173,265.894765 C469.631917,265.805703 470.581994,265.464297 471.057038,265.25631 C471.799291,264.989122 472.645459,264.588254 473.461935,263.99446 C474.946441,262.896066 475.851988,261.337342 475.762917,259.259042 C475.718385,258.115986 475.347248,256.98773 474.887057,255.918893 C475.020651,255.725924 475.154419,255.532956 475.287882,255.325099 C477.633395,251.895757 479.444494,248.12527 479.444494,248.12527 C479.444494,248.12527 479.622619,249.28317 480.171899,251.183344 C480.453799,252.148275 481.018066,253.2024 481.522798,254.241549 C479.325731,256.037818 477.945144,258.116117 477.470101,259.481873 C476.594245,262.005529 477.277132,263.148585 478.568634,263.415816 C479.147444,263.534566 479.978912,263.267378 480.602258,263.000191 C481.374199,262.747847 482.309438,262.31716 483.170598,261.678966 C484.655104,260.580441 486.080226,259.051404 486.006003,256.987949 C485.961471,256.037861 485.709084,255.102618 485.367665,254.211906 C487.238138,253.439987 489.657735,252.994631 492.730806,253.365768 C499.33685,254.137687 500.643218,258.264598 500.391001,259.986648 C500.138613,261.708828 498.758044,262.658741 498.2977,262.955659 C497.837501,263.237691 497.68905,263.341597 497.733586,263.549453 C497.792961,263.861172 498.000817,263.846328 498.401615,263.786953 C498.950882,263.697891 501.875354,262.376666 501.994117,259.199973 C502.172242,255.116981 498.2977,250.663464 491.424442,250.707864 L491.424429,250.714544 Z M440.476239,267.890245 C438.294017,270.280307 435.221093,271.185863 433.914729,270.413901 C432.50445,269.597451 433.053568,266.079177 435.74067,263.540678 C437.373624,261.996797 439.496466,260.571666 440.8919,259.695798 C441.203645,259.502829 441.678687,259.220929 442.242799,258.879304 C442.33187,258.819929 442.39125,258.790242 442.39125,258.790242 C442.495165,258.730867 442.613923,258.656648 442.732686,258.582429 C443.727304,262.204609 442.777222,265.381434 440.476239,267.890245 L440.476239,267.890245 Z M456.434662,257.038548 C455.677565,258.894148 454.0743,263.659428 453.109372,263.392197 C452.277901,263.16954 451.773318,259.562204 452.945929,255.999399 C453.539731,254.202999 454.80156,252.065456 455.543812,251.233988 C456.746409,249.897919 458.052625,249.452563 458.379364,250.001826 C458.765336,250.714544 456.909705,255.880605 456.434662,257.038548 L456.434662,257.038548 Z M469.602216,263.332822 C469.275623,263.496103 468.978724,263.614853 468.845119,263.52579 C468.741204,263.466415 468.978578,263.243759 468.978578,263.243759 C468.978578,263.243759 470.626373,261.477178 471.279554,260.660685 C471.650692,260.185816 472.096035,259.636554 472.571074,259.012898 L472.571074,259.191023 C472.571222,261.328566 470.522606,262.753697 469.602218,263.332647 L469.602216,263.332822 Z M479.756077,261.017022 C479.518533,260.838897 479.548396,260.289591 480.349879,258.567585 C480.661773,257.884686 481.374185,256.74163 482.606326,255.657949 C482.754763,256.103305 482.844,256.533643 482.828982,256.934642 C482.814138,259.606735 480.914121,260.601354 479.75606,261.017022 L479.756077,261.017022 Z" id="path-1"></path>
        <filter x="-9.2%" y="-8.8%" width="118.4%" height="124.6%" filterUnits="objectBoundingBox" id="filter-2">
            <feOffset dx="0" dy="2" in="SourceAlpha" result="shadowOffsetOuter1"></feOffset>
            <feGaussianBlur stdDeviation="2" in="shadowOffsetOuter1" result="shadowBlurOuter1"></feGaussianBlur>
            <feColorMatrix values="0 0 0 0 0   0 0 0 0 0   0 0 0 0 0  0 0 0 0.5 0" type="matrix" in="shadowBlurOuter1"></feColorMatrix>
        </filter>
    </defs>
    <g id="Page-1" stroke="none" stroke-width="1" fill="none" fill-rule="evenodd">
        <g id="tech" transform="translate(-422.000000, -216.000000)" fill-rule="nonzero">
            <g id="Sass">
                <use fill="black" fill-opacity="1" filter="url(#filter-2)" xlink:href="#path-1"></use>
                <use fill="#CF649A" fill-rule="evenodd" xlink:href="#path-1"></use>
            </g>
        </g>
    </g>
</svg>