<?xml version="1.0" encoding="UTF-8"?>
<svg width="85px" height="61px" viewBox="0 0 85 61" version="1.1" xmlns="http://www.w3.org/2000/svg" xmlns:xlink="http://www.w3.org/1999/xlink">
    <!-- Generator: Sketch 44.1 (41455) - http://www.bohemiancoding.com/sketch -->
    <title>zeplin</title>
    <desc>Created with Sketch.</desc>
    <defs>
        <filter x="-9.1%" y="-12.9%" width="118.6%" height="136.9%" filterUnits="objectBoundingBox" id="filter-1">
            <feOffset dx="0" dy="2" in="SourceAlpha" result="shadowOffsetOuter1"></feOffset>
            <feGaussianBlur stdDeviation="2" in="shadowOffsetOuter1" result="shadowBlurOuter1"></feGaussianBlur>
            <feColorMatrix values="0 0 0 0 0   0 0 0 0 0   0 0 0 0 0  0 0 0 0.5 0" type="matrix" in="shadowBlurOuter1" result="shadowMatrixOuter1"></feColorMatrix>
            <feMerge>
                <feMergeNode in="shadowMatrixOuter1"></feMergeNode>
                <feMergeNode in="SourceGraphic"></feMergeNode>
            </feMerge>
        </filter>
    </defs>
    <g id="Page-1" stroke="none" stroke-width="1" fill="none" fill-rule="evenodd">
        <g id="tech" transform="translate(-725.000000, -309.000000)">
            <g transform="translate(112.000000, 191.000000)" id="tech-logos">
                <g transform="translate(312.000000, 16.000000)">
                    <g id="zeplin" transform="translate(302.000000, 102.000000)">
                        <g id="Group" filter="url(#filter-1)" transform="translate(42.814999, 31.340579) rotate(-20.000000) translate(-42.814999, -31.340579) translate(4.452760, 11.988200)">
                            <polygon id="Rectangle-74" fill="#F89920" points="4.45275986 19.3523794 0 8.22047974 26.0315192 8.22047974 26.0315192 19.3523794"></polygon>
                            <polygon id="Rectangle-74-Copy" fill="#FFBE22" transform="translate(13.015760, 24.747069) scale(1, -1) translate(-13.015760, -24.747069) " points="4.45275986 30.313019 0 19.1811194 26.0315192 19.1811194 26.0315192 30.313019"></polygon>
                            <path d="M76.722876,19.3695054 C76.544161,30.0656635 61.4315478,38.7047588 42.8149986,38.7047588 C24.1984494,38.7047588 9.0858363,30.0656635 8.9071213,19.3695054 L76.722876,19.3695054 L76.722876,19.3695054 Z" id="Path" fill="#F0670A"></path>
                            <path d="M76.7234056,19.3695054 C76.5769949,8.6576012 61.4517737,0 42.8149986,0 C24.1782235,0 9.05300232,8.6576012 8.9065917,19.3695054 L76.7234056,19.3695054 L76.7234056,19.3695054 Z" id="Path" fill="#FFD00E"></path>
                            <path d="M76.7208073,19.3695054 C76.4513081,26.4715247 61.3743775,32.196879 42.8149986,32.196879 C24.2556197,32.196879 9.17868917,26.4715247 8.90918994,19.3695054 L76.7208073,19.3695054 L76.7208073,19.3695054 Z" id="Path" fill="#F89920"></path>
                            <path d="M76.7220211,19.3695054 C76.5010885,12.2517374 61.4050227,6.50787979 42.8149986,6.50787979 C24.2249746,6.50787979 9.12890876,12.2517374 8.90797612,19.3695054 L76.7220211,19.3695054 L76.7220211,19.3695054 Z" id="Path" fill="#FFBE22"></path>
                        </g>
                        <path d="M49.4696928,9.05891907 C47.8051234,3.30354805 45.9107003,0.110752728 43.7584776,0.172128773 C39.5950609,0.290859076 38.1953094,13.4905918 39.5426448,30.404954 C40.9042386,47.4983157 44.4361744,60.3392067 48.8397354,60.2234231 C51.4658484,60.1543742 52.9445765,55.9535512 53.463288,48.6598163 C53.4738878,48.5107686 53.3079815,48.6140716 53.3177812,48.4624496 C53.3177812,48.4624496 53.2963694,48.1960412 53.1976108,48.1896582 C53.0115304,48.1776314 52.6393695,48.1535777 52.6393695,48.1535777 C52.1816907,55.2348356 50.7959255,59.3153927 48.8172283,59.3674189 C45.1983142,59.4625717 41.7044459,46.7600809 40.396241,30.3369597 C39.1095972,14.1845163 40.4948138,1.12184845 43.7828872,1.02808077 C45.3391464,0.983700119 47.0825323,3.92352937 48.6259312,9.22422333 C48.6259312,9.22422333 49.4705414,9.06185329 49.4696928,9.05891907 Z" id="Shape" fill="#F0670A" fill-rule="nonzero"></path>
                        <path d="M28.839811,4.95200744 C25.2935515,7.13653925 30.6811975,19.2677189 40.3052053,33.2423185 C50.031061,47.364807 59.5102526,56.719377 63.2659565,54.4173249 C65.3649641,53.1307419 64.7757345,49.2252118 62.073068,43.3290611 C61.9745376,43.1141066 61.7204079,43.0197263 61.5054534,43.1182567 C61.290499,43.2167871 61.1961186,43.4709168 61.2946491,43.6858713 C63.8073059,49.167496 64.34778,52.7498648 62.8184627,53.6872571 C59.7319675,55.5791189 50.3549434,46.3253733 41.0104441,32.7566356 C31.8199562,19.4115312 26.488255,7.40632071 29.2889263,5.6810788 C30.7763321,4.76482172 34.3134389,6.975338 38.9873975,11.750673 C39.0393984,11.8038017 39.3388118,12.1136212 39.4052468,12.1338487 C39.5501224,12.1779592 39.4769998,11.8705674 39.5928582,11.7571686 C39.7618453,11.591769 39.7647535,11.320695 39.5993539,11.1517079 C34.6061722,6.0502262 30.8587882,3.70829701 28.839811,4.95200744 Z" id="Shape" fill="#F0670A" fill-rule="nonzero"></path>
                    </g>
                </g>
            </g>
        </g>
    </g>
</svg>