<?xml version="1.0" encoding="UTF-8"?>
<svg width="15px" height="15px" viewBox="0 0 15 15" version="1.1" xmlns="http://www.w3.org/2000/svg" xmlns:xlink="http://www.w3.org/1999/xlink">
    <!-- Generator: Sketch 44.1 (41455) - http://www.bohemiancoding.com/sketch -->
    <title>Github</title>
    <desc>Created with Sketch.</desc>
    <defs></defs>
    <g id="Page-1" stroke="none" stroke-width="1" fill="none" fill-rule="evenodd">
        <g id="skills" transform="translate(-517.000000, -663.000000)" fill="#2E0444">
            <g id="footer" transform="translate(0.000000, 644.000000)">
                <g id="Group" transform="translate(492.000000, 18.000000)">
                    <path d="M32.4995312,1 C28.358125,1 25,4.37096628 25,8.53020124 C25,11.8564597 27.14875,14.6786969 30.1295312,15.6745038 C30.5045312,15.7436832 30.6414062,15.5112027 30.6414062,15.3116649 C30.6414062,15.1328338 30.6348437,14.659402 30.6310938,14.0311401 C28.5446875,14.4862182 28.1045312,13.0216856 28.1045312,13.0216856 C27.76375,12.1520017 27.2720312,11.9204625 27.2720312,11.9204625 C26.5909375,11.4531485 27.3235937,11.4625607 27.3235937,11.4625607 C28.0759375,11.5157394 28.4720312,12.2385936 28.4720312,12.2385936 C29.1414063,13.3892305 30.2275,13.0569812 30.655,12.8640318 C30.7229687,12.377423 30.9170312,12.0456442 31.13125,11.857401 C29.4657812,11.6672753 27.715,11.0216009 27.715,8.13630221 C27.715,7.31414974 28.0070312,6.64212128 28.4870312,6.11551075 C28.4096875,5.92491444 28.1523437,5.15970557 28.5601562,4.12295578 C28.5601562,4.12295578 29.1901562,3.92059427 30.6226563,4.89475317 C31.22125,4.72768727 31.8625,4.64438963 32.5004688,4.64109537 C33.1375,4.64438963 33.7792187,4.72768727 34.3782813,4.89475317 C35.8098437,3.92059427 36.4384375,4.12295578 36.4384375,4.12295578 C36.8476562,5.15970557 36.5903125,5.92491444 36.5129687,6.11551075 C36.9939062,6.64212128 37.2840625,7.31414974 37.2840625,8.13630221 C37.2840625,11.02866 35.5304687,11.6653928 33.8598437,11.8517537 C34.1289062,12.0842341 34.3689062,12.5435477 34.3689062,13.2461657 C34.3689062,14.2527965 34.3595312,15.0645956 34.3595312,15.3116649 C34.3595312,15.5130852 34.4945312,15.747448 34.8751563,15.6735626 C37.853125,14.6758733 40,11.8555185 40,8.53020124 C40,4.37096628 36.641875,1 32.4995312,1" id="Github"></path>
                </g>
            </g>
        </g>
    </g>
</svg>