<?xml version="1.0" encoding="UTF-8"?>
<svg width="800px" height="500px" viewBox="0 0 800 500" version="1.1" xmlns="http://www.w3.org/2000/svg" xmlns:xlink="http://www.w3.org/1999/xlink">
    <!-- Generator: Sketch 44.1 (41455) - http://www.bohemiancoding.com/sketch -->
    <title>Grid</title>
    <desc>Created with Sketch.</desc>
    <defs></defs>
    <g id="Page-1" stroke="none" stroke-width="1" fill="none" fill-rule="evenodd">
        <g id="Home" transform="translate(-115.000000, -117.000000)">
            <g id="homeBody" transform="translate(115.000000, 117.000000)">
                <g id="Grid">
                    <g id="lines" stroke="#2E0444" stroke-width="5">
                        <path d="M800,400.5 L0,400.5" id="Line"></path>
                        <path d="M800,300.5 L0,300.5" id="Line-Copy"></path>
                        <path d="M800,200.5 L0,200.5" id="Line-Copy-2"></path>
                        <path d="M800,100.5 L0,100.5" id="Line-Copy-3"></path>
                        <path d="M100.5,0.495992138 L100.5,499.517204" id="Line-Copy-3"></path>
                        <path d="M200.5,0.495992138 L200.5,499.517204" id="Line-Copy-4"></path>
                        <path d="M300.5,0.495992138 L300.5,499.517204" id="Line-Copy-5"></path>
                        <path d="M400.5,0.495992138 L400.5,499.517204" id="Line-Copy-6"></path>
                        <path d="M500.5,0.495992138 L500.5,499.517204" id="Line-Copy-7"></path>
                        <path d="M600.5,0.495992138 L600.5,499.517204" id="Line-Copy-8"></path>
                        <path d="M700.5,0.495992138 L700.5,499.517204" id="Line-Copy-9"></path>
                    </g>
                    <g id="Blocked-out" fill="#2E0444">
                        <rect id="Rectangle-2" x="0" y="0" width="102" height="103"></rect>
                        <rect id="Rectangle-2-Copy-4" x="398" y="398" width="106" height="102"></rect>
                        <rect id="Rectangle-2-Copy-5" x="699" y="0" width="97" height="103"></rect>
                        <rect id="Rectangle-2-Copy-8" x="500" y="0" width="102" height="103"></rect>
                        <rect id="Rectangle-2-Copy-2" x="100" y="0" width="102" height="103"></rect>
                        <rect id="Rectangle-2-Copy" x="0" y="102" width="102" height="103"></rect>
                    </g>
                    <rect id="Frame" stroke="#2E0444" stroke-width="5" x="2.5" y="2.5" width="795" height="495"></rect>
                </g>
            </g>
        </g>
    </g>
</svg>