<?xml version="1.0" encoding="UTF-8"?>
<svg width="260px" height="164px" viewBox="0 0 260 164" version="1.1" xmlns="http://www.w3.org/2000/svg" xmlns:xlink="http://www.w3.org/1999/xlink">
    <!-- Generator: Sketch 44.1 (41455) - http://www.bohemiancoding.com/sketch -->
    <title>skill-develop</title>
    <desc>Created with Sketch.</desc>
    <defs>
        <radialGradient cx="52.9341936%" cy="-14.85%" fx="52.9341936%" fy="-14.85%" r="100%" gradientTransform="translate(0.529342,-0.148500),scale(0.630769,1.000000),rotate(90.000000),translate(-0.529342,0.148500)" id="radialGradient-1">
            <stop stop-color="#75DBCD" offset="0%"></stop>
            <stop stop-color="#C04CFD" offset="100%"></stop>
        </radialGradient>
        <rect id="path-2" x="0" y="0" width="260" height="164"></rect>
    </defs>
    <g id="Page-1" stroke="none" stroke-width="1" fill="none" fill-rule="evenodd">
        <g id="skills" transform="translate(-382.000000, -184.000000)">
            <g id="main" transform="translate(112.000000, 184.000000)">
                <g id="Develop" transform="translate(270.000000, 0.000000)">
                    <g id="skill-develop">
                        <g id="skill-gradient">
                            <use fill="url(#radialGradient-1)" fill-rule="evenodd" xlink:href="#path-2"></use>
                            <rect stroke="#2E0444" stroke-width="5" x="2.5" y="2.5" width="255" height="159"></rect>
                        </g>
                        <g id="icon-develop" transform="translate(33.000000, 15.000000)" fill="#FFFFFF">
                            <path d="M0.65312283,125.472 C0.30112107,125.119998 0.12512283,124.672003 0.12512283,124.128 L0.12512283,90.384 C0.12512283,89.8399973 0.30112107,89.3920018 0.65312283,89.04 C1.00512459,88.6879982 1.45312011,88.512 1.99712283,88.512 L10.6371228,88.512 C14.2531409,88.512 17.4851086,89.311992 20.3331228,90.912 C23.1811371,92.512008 25.3971149,94.7279858 26.9811228,97.56 C28.5651308,100.392014 29.3571228,103.615982 29.3571228,107.232 C29.3571228,110.848018 28.5651308,114.079986 26.9811228,116.928 C25.3971149,119.776014 23.1811371,121.999992 20.3331228,123.6 C17.4851086,125.200008 14.2531409,126 10.6371228,126 L1.99712283,126 C1.45312011,126 1.00512459,125.824002 0.65312283,125.472 Z M10.6371228,122.64 C13.5491374,122.64 16.1411115,121.976007 18.4131228,120.648 C20.6851342,119.319993 22.4611164,117.488012 23.7411228,115.152 C25.0211292,112.815988 25.6611228,110.176015 25.6611228,107.232 C25.6611228,104.287985 25.0211292,101.648012 23.7411228,99.312 C22.4611164,96.9759883 20.6851342,95.1520066 18.4131228,93.84 C16.1411115,92.5279934 13.5491374,91.872 10.6371228,91.872 L3.86912283,91.872 L3.86912283,122.64 L10.6371228,122.64 Z M54.8333735,101.16 C56.6573826,102.264006 58.0733684,103.79199 59.0813735,105.744 C60.0893785,107.69601 60.5933735,109.919988 60.5933735,112.416 C60.5933735,112.928003 60.4333751,113.335998 60.1133735,113.64 C59.7933719,113.944002 59.377376,114.096 58.8653735,114.096 L39.4733735,114.096 C39.7293747,116.720013 40.7533645,118.847992 42.5453735,120.48 C44.3373824,122.112008 46.57736,122.928 49.2653735,122.928 C50.4173792,122.928 51.5773676,122.728002 52.7453735,122.328 C53.9133793,121.927998 54.8493699,121.424003 55.5533735,120.816 C55.9693755,120.495998 56.4013712,120.336 56.8493735,120.336 C57.2013752,120.336 57.5533717,120.463999 57.9053735,120.72 C58.3213755,121.104002 58.5293735,121.535998 58.5293735,122.016 C58.5293735,122.432002 58.3533752,122.799998 58.0013735,123.12 C56.9453682,124.016004 55.6013816,124.759997 53.9693735,125.352 C52.3373653,125.944003 50.769381,126.24 49.2653735,126.24 C46.7053607,126.24 44.4173835,125.672006 42.4013735,124.536 C40.3853634,123.399994 38.8093791,121.81601 37.6733735,119.784 C36.5373678,117.75199 35.9693735,115.456013 35.9693735,112.896 C35.9693735,110.303987 36.5053681,107.99201 37.5773735,105.96 C38.6493788,103.92799 40.1373639,102.344006 42.0413735,101.208 C43.945383,100.071994 46.1133613,99.504 48.5453735,99.504 C50.9133853,99.504 53.0093643,100.055994 54.8333735,101.16 Z M42.4973735,105.072 C40.8973655,106.576008 39.9213752,108.559988 39.5693735,111.024 L57.1373735,111.024 C56.8813722,108.559988 55.9853811,106.576008 54.4493735,105.072 C52.9133658,103.567992 50.9453855,102.816 48.5453735,102.816 C46.1133613,102.816 44.0973815,103.567992 42.4973735,105.072 Z M88.0856241,101.424 C88.0856241,101.616001 88.0376246,101.839999 87.9416241,102.096 L77.4296241,124.752 C77.013622,125.584004 76.4056281,126 75.6056241,126 C74.8376202,126 74.261626,125.584004 73.8776241,124.752 L63.2216241,102.144 C63.1256236,101.951999 63.0776241,101.728001 63.0776241,101.472 C63.0776241,100.799997 63.4296206,100.288002 64.1336241,99.936 C64.3576252,99.8079994 64.6136226,99.744 64.9016241,99.744 C65.2216257,99.744 65.5176227,99.8239992 65.7896241,99.984 C66.0616254,100.144001 66.2616234,100.383998 66.3896241,100.704 L75.6056241,120.672 L84.7256241,100.704 C84.8536247,100.383998 85.0616226,100.136001 85.3496241,99.96 C85.6376255,99.7839991 85.9576223,99.696 86.3096241,99.696 C86.5976255,99.696 86.853623,99.7599994 87.0776241,99.888 C87.7496274,100.208002 88.0856241,100.719996 88.0856241,101.424 Z M110.441875,101.16 C112.265884,102.264006 113.68187,103.79199 114.689875,105.744 C115.69788,107.69601 116.201875,109.919988 116.201875,112.416 C116.201875,112.928003 116.041876,113.335998 115.721875,113.64 C115.401873,113.944002 114.985877,114.096 114.473875,114.096 L95.0818747,114.096 C95.337876,116.720013 96.3618657,118.847992 98.1538747,120.48 C99.9458837,122.112008 102.185861,122.928 104.873875,122.928 C106.02588,122.928 107.185869,122.728002 108.353875,122.328 C109.521881,121.927998 110.457871,121.424003 111.161875,120.816 C111.577877,120.495998 112.009872,120.336 112.457875,120.336 C112.809876,120.336 113.161873,120.463999 113.513875,120.72 C113.929877,121.104002 114.137875,121.535998 114.137875,122.016 C114.137875,122.432002 113.961876,122.799998 113.609875,123.12 C112.553869,124.016004 111.209883,124.759997 109.577875,125.352 C107.945867,125.944003 106.377882,126.24 104.873875,126.24 C102.313862,126.24 100.025885,125.672006 98.0098747,124.536 C95.9938646,123.399994 94.4178804,121.81601 93.2818747,119.784 C92.145869,117.75199 91.5778747,115.456013 91.5778747,112.896 C91.5778747,110.303987 92.1138693,107.99201 93.1858747,105.96 C94.2578801,103.92799 95.7458652,102.344006 97.6498747,101.208 C99.5538842,100.071994 101.721863,99.504 104.153875,99.504 C106.521887,99.504 108.617866,100.055994 110.441875,101.16 Z M98.1058747,105.072 C96.5058667,106.576008 95.5298765,108.559988 95.1778747,111.024 L112.745875,111.024 C112.489873,108.559988 111.593882,106.576008 110.057875,105.072 C108.521867,103.567992 106.553887,102.816 104.153875,102.816 C101.721863,102.816 99.7058827,103.567992 98.1058747,105.072 Z M124.086125,123.672 C122.854119,122.119992 122.238125,120.128012 122.238125,117.696 L122.238125,90.336 C122.238125,89.7919973 122.414124,89.3520017 122.766125,89.016 C123.118127,88.6799983 123.550123,88.512 124.062125,88.512 C124.606128,88.512 125.046124,88.6799983 125.382125,89.016 C125.718127,89.3520017 125.886125,89.7919973 125.886125,90.336 L125.886125,117.696 C125.886125,119.072007 126.166123,120.191996 126.726125,121.056 C127.286128,121.920004 127.998121,122.352 128.862125,122.352 L130.062125,122.352 C130.542128,122.352 130.926124,122.519998 131.214125,122.856 C131.502127,123.192002 131.646125,123.631997 131.646125,124.176 C131.646125,124.720003 131.446127,125.159998 131.046125,125.496 C130.646123,125.832002 130.126129,126 129.486125,126 L128.862125,126 C126.910116,126 125.318131,125.224008 124.086125,123.672 Z M141.162376,124.512 C139.130366,123.359994 137.538382,121.76801 136.386376,119.736 C135.23437,117.70399 134.658376,115.424013 134.658376,112.896 C134.658376,110.367987 135.23437,108.08001 136.386376,106.032 C137.538382,103.98399 139.130366,102.384006 141.162376,101.232 C143.194386,100.079994 145.474363,99.504 148.002376,99.504 C150.530389,99.504 152.802366,100.079994 154.818376,101.232 C156.834386,102.384006 158.42637,103.98399 159.594376,106.032 C160.762382,108.08001 161.346376,110.367987 161.346376,112.896 C161.346376,115.424013 160.770382,117.70399 159.618376,119.736 C158.46637,121.76801 156.874386,123.359994 154.842376,124.512 C152.810366,125.664006 150.530389,126.24 148.002376,126.24 C145.474363,126.24 143.194386,125.664006 141.162376,124.512 Z M152.994376,121.584 C154.466383,120.719996 155.618372,119.528008 156.450376,118.008 C157.28238,116.487992 157.698376,114.784009 157.698376,112.896 C157.698376,110.97599 157.28238,109.256008 156.450376,107.736 C155.618372,106.215992 154.466383,105.024004 152.994376,104.16 C151.522369,103.295996 149.858385,102.864 148.002376,102.864 C146.178367,102.864 144.522383,103.295996 143.034376,104.16 C141.546368,105.024004 140.37838,106.215992 139.530376,107.736 C138.682372,109.256008 138.258376,110.97599 138.258376,112.896 C138.258376,114.784009 138.682372,116.487992 139.530376,118.008 C140.37838,119.528008 141.546368,120.719996 143.034376,121.584 C144.522383,122.448004 146.178367,122.88 148.002376,122.88 C149.858385,122.88 151.522369,122.448004 152.994376,121.584 Z M189.438627,101.256 C191.470637,102.424006 193.070621,104.03199 194.238627,106.08 C195.406632,108.12801 195.990627,110.399988 195.990627,112.896 C195.990627,115.392012 195.422632,117.65599 194.286627,119.688 C193.150621,121.72001 191.598636,123.319994 189.630627,124.488 C187.662617,125.656006 185.462639,126.24 183.030627,126.24 C180.950616,126.24 179.046635,125.800004 177.318627,124.92 C175.590618,124.039996 174.166632,122.832008 173.046627,121.296 L173.046627,135.36 C173.046627,135.904003 172.870628,136.351998 172.518627,136.704 C172.166625,137.056002 171.718629,137.232 171.174627,137.232 C170.630624,137.232 170.190628,137.056002 169.854627,136.704 C169.518625,136.351998 169.350627,135.904003 169.350627,135.36 L169.350627,124.608 C169.318626,124.512 169.302627,124.368001 169.302627,124.176 L169.302627,112.896 C169.302627,110.399988 169.886621,108.12801 171.054627,106.08 C172.222632,104.03199 173.822616,102.424006 175.854627,101.256 C177.886637,100.087994 180.150614,99.504 182.646627,99.504 C185.142639,99.504 187.406616,100.087994 189.438627,101.256 Z M187.614627,121.584 C189.102634,120.719996 190.270622,119.528008 191.118627,118.008 C191.966631,116.487992 192.390627,114.784009 192.390627,112.896 C192.390627,111.007991 191.966631,109.304008 191.118627,107.784 C190.270622,106.263992 189.102634,105.064004 187.614627,104.184 C186.126619,103.303996 184.470636,102.864 182.646627,102.864 C180.822617,102.864 179.174634,103.303996 177.702627,104.184 C176.230619,105.064004 175.070631,106.263992 174.222627,107.784 C173.374622,109.304008 172.950627,111.007991 172.950627,112.896 C172.950627,113.440003 172.966626,113.839999 172.998627,114.096 C173.030627,114.16 173.046627,114.24 173.046627,114.336 C173.366628,116.832012 174.414618,118.879992 176.190627,120.48 C177.966635,122.080008 180.118614,122.88 182.646627,122.88 C184.470636,122.88 186.126619,122.448004 187.614627,121.584 Z" id="Develop"></path>
                            <g id="STARS" transform="translate(55.000000, 0.000000)">
                                <path d="M3.80498361,58.32625 C1.92865574,58.32625 0.407409836,56.8 0.407409836,54.91875 C0.407409836,53.03625 1.92865574,51.51 3.80498361,51.51 C13.7323279,51.51 21.8095082,43.4075 21.8095082,33.445 C21.8095082,31.5625 23.3307541,30.03625 25.207082,30.03625 C27.0834098,30.03625 28.6034098,31.5625 28.6034098,33.445 C28.6034098,47.16375 17.4787541,58.32625 3.80498361,58.32625" id="Fill-1"></path>
                                <path d="M46.6104262,58.32625 C32.9354098,58.32625 21.8095082,47.16375 21.8095082,33.445 C21.8095082,31.5625 23.3307541,30.03625 25.207082,30.03625 C27.0834098,30.03625 28.6034098,31.5625 28.6034098,33.445 C28.6034098,43.4075 36.6818361,51.51 46.6104262,51.51 C48.4867541,51.51 50.0067541,53.03625 50.0067541,54.91875 C50.0067541,56.8 48.4867541,58.32625 46.6104262,58.32625" id="Fill-2"></path>
                                <path d="M25.207082,79.7975 C23.3307541,79.7975 21.8095082,78.27125 21.8095082,76.39 C21.8095082,62.67125 32.9354098,51.51 46.6104262,51.51 C48.4867541,51.51 50.0067541,53.03625 50.0067541,54.91875 C50.0067541,56.8 48.4867541,58.32625 46.6104262,58.32625 C36.6818361,58.32625 28.6034098,66.42875 28.6034098,76.39 C28.6034098,78.27125 27.0834098,79.7975 25.207082,79.7975" id="Fill-3"></path>
                                <path d="M25.207082,79.7975 C23.3307541,79.7975 21.8095082,78.27125 21.8095082,76.39 C21.8095082,66.42875 13.7323279,58.32625 3.80498361,58.32625 C1.92865574,58.32625 0.407409836,56.8 0.407409836,54.91875 C0.407409836,53.03625 1.92865574,51.51 3.80498361,51.51 C17.4787541,51.51 28.6034098,62.67125 28.6034098,76.39 C28.6034098,78.27125 27.0834098,79.7975 25.207082,79.7975" id="Fill-4"></path>
                                <path d="M40.6313443,20.99875 C39.380459,20.99875 38.3662951,19.9825 38.3662951,18.7275 C38.3662951,17.47125 39.380459,16.455 40.6313443,16.455 C48.3434754,16.455 54.6178361,10.16 54.6178361,2.42125 C54.6178361,1.165 55.632,0.14875 56.8828852,0.14875 C58.1337705,0.14875 59.1479344,1.165 59.1479344,2.42125 C59.1479344,12.665 50.8415082,20.99875 40.6313443,20.99875" id="Fill-5"></path>
                                <path d="M73.1356721,20.99875 C62.9242623,20.99875 54.6178361,12.665 54.6178361,2.42125 C54.6178361,1.165 55.632,0.14875 56.8828852,0.14875 C58.1337705,0.14875 59.1479344,1.165 59.1479344,2.42125 C59.1479344,10.16 65.4222951,16.455 73.1356721,16.455 C74.3865574,16.455 75.3994754,17.47125 75.3994754,18.7275 C75.3994754,19.9825 74.3865574,20.99875 73.1356721,20.99875" id="Fill-6"></path>
                                <path d="M56.8828852,37.305 C55.632,37.305 54.6178361,36.28875 54.6178361,35.03375 C54.6178361,24.78875 62.9242623,16.455 73.1356721,16.455 C74.3865574,16.455 75.3994754,17.47125 75.3994754,18.7275 C75.3994754,19.9825 74.3865574,20.99875 73.1356721,20.99875 C65.4222951,20.99875 59.1479344,27.29375 59.1479344,35.03375 C59.1479344,36.28875 58.1337705,37.305 56.8828852,37.305" id="Fill-7"></path>
                                <path d="M56.8828852,37.305 C55.632,37.305 54.6178361,36.28875 54.6178361,35.03375 C54.6178361,27.29375 48.3434754,20.99875 40.6313443,20.99875 C39.380459,20.99875 38.3662951,19.9825 38.3662951,18.7275 C38.3662951,17.47125 39.380459,16.455 40.6313443,16.455 C50.8415082,16.455 59.1479344,24.78875 59.1479344,35.03375 C59.1479344,36.28875 58.1337705,37.305 56.8828852,37.305" id="Fill-8"></path>
                            </g>
                        </g>
                    </g>
                </g>
            </g>
        </g>
    </g>
</svg>