<?xml version="1.0" encoding="UTF-8"?>
<svg width="260px" height="165px" viewBox="0 0 260 165" version="1.1" xmlns="http://www.w3.org/2000/svg" xmlns:xlink="http://www.w3.org/1999/xlink">
    <!-- Generator: Sketch 44.1 (41455) - http://www.bohemiancoding.com/sketch -->
    <title>skill-design</title>
    <desc>Created with Sketch.</desc>
    <defs>
        <radialGradient cx="24.8137012%" cy="21.040625%" fx="24.8137012%" fy="21.040625%" r="100%" gradientTransform="translate(0.248137,0.210406),scale(0.631109,1.000000),rotate(90.000000),translate(-0.248137,-0.210406)" id="radialGradient-1">
            <stop stop-color="#75DBCD" offset="0%"></stop>
            <stop stop-color="#C04CFD" offset="100%"></stop>
        </radialGradient>
        <rect id="path-2" x="0" y="0" width="260" height="164.088398"></rect>
    </defs>
    <g id="Page-1" stroke="none" stroke-width="1" fill="none" fill-rule="evenodd">
        <g id="skills" transform="translate(-112.000000, -204.000000)">
            <g id="main" transform="translate(112.000000, 184.000000)">
                <g id="Design" transform="translate(0.000000, 20.000000)">
                    <g id="skill-design">
                        <g id="skill-gradient">
                            <use fill="url(#radialGradient-1)" fill-rule="evenodd" xlink:href="#path-2"></use>
                            <rect stroke="#2E0444" stroke-width="5" x="2.5" y="2.5" width="255" height="159.088398"></rect>
                        </g>
                        <g id="icon-design" transform="translate(42.000000, 11.933702)" fill="#FFFFFF">
                            <text id="Design" font-family="Comfortaa-Regular, Comfortaa" font-size="48" font-weight="normal" letter-spacing="0.75625062">
                                <tspan x="0.64724814" y="128.226519">Design</tspan>
                            </text>
                            <g id="ECHO" transform="translate(55.000000, 0.000000)">
                                <path d="M39.3253333,66.5109634 C29.0466667,66.5109634 19.36,62.5248273 12.0506667,55.2829506 C-2.98933333,40.3857907 -2.98933333,16.1440608 12.0506667,1.24822169 C13.4706667,-0.158416782 15.772,-0.158416782 17.192,1.24822169 L66.6,50.1913156 C68.02,51.5979541 68.02,53.8763122 66.6,55.2829506 C59.2906667,62.5248273 49.6066667,66.5109634 39.3253333,66.5109634 L39.3253333,66.5109634 Z M14.7706667,9.03426278 C5.05066667,21.1947514 5.85733333,38.9633028 17.192,50.1913156 C23.128,56.0701398 30.9893333,59.3087103 39.3253333,59.3087103 C46.4466667,59.3087103 53.22,56.9471426 58.744,52.5938277 L14.7706667,9.03426278 L14.7706667,9.03426278 Z" id="Fill-1"></path>
                                <path d="M39.3253333,30.6661171 C38.7053333,30.6661171 38.0853333,30.4310169 37.612,29.9634582 C36.6653333,29.0243785 36.6653333,27.5054731 37.612,26.5677141 L43.4666667,20.7707787 C44.4133333,19.8316989 45.948,19.8316989 46.8946667,20.7707787 C47.8413333,21.7085376 47.8413333,23.227443 46.8946667,24.165202 L41.0386667,29.9634582 C40.5653333,30.4310169 39.9453333,30.6661171 39.3253333,30.6661171" id="Fill-2"></path>
                                <path d="M51.5546667,26.0684565 C46.0346667,26.0684565 41.5453333,21.6187241 41.5453333,16.1519855 C41.5453333,10.6839261 46.0346667,6.23419372 51.5546667,6.23419372 C57.0733333,6.23419372 61.5653333,10.6839261 61.5653333,16.1519855 C61.5653333,21.6187241 57.0733333,26.0684565 51.5546667,26.0684565 L51.5546667,26.0684565 Z M51.5546667,13.4364468 C50.044,13.4364468 48.816,14.6542127 48.816,16.1519855 C48.816,17.6497583 50.044,18.8662034 51.5546667,18.8662034 C53.0666667,18.8662034 54.2946667,17.6497583 54.2946667,16.1519855 C54.2946667,14.6542127 53.0666667,13.4364468 51.5546667,13.4364468 L51.5546667,13.4364468 Z" id="Fill-3"></path>
                                <path d="M49.6866667,40.9299551 C48.348,40.9299551 47.264,39.856155 47.264,38.5300846 L47.264,24.3197341 C47.264,22.9923429 48.348,21.9185428 49.6866667,21.9185428 C51.0266667,21.9185428 52.1106667,22.9923429 52.1106667,24.3197341 L52.1106667,38.5300846 C52.1106667,39.856155 51.0266667,40.9299551 49.6866667,40.9299551" id="Fill-4"></path>
                                <path d="M43.3106667,20.4049206 L28.9666667,20.4049206 C27.6266667,20.4049206 26.5426667,19.3311205 26.5426667,18.0037293 C26.5426667,16.6763381 27.6266667,15.602538 28.9666667,15.602538 L43.3106667,15.602538 C44.6506667,15.602538 45.7346667,16.6763381 45.7346667,18.0037293 C45.7346667,19.3311205 44.6506667,20.4049206 43.3106667,20.4049206" id="Fill-5"></path>
                                <path d="M20.3506667,81.4173688 C18.344,81.4173688 16.716,79.8033667 16.716,77.8155818 L16.716,57.3367749 C16.716,55.34899 18.344,53.7349879 20.3506667,53.7349879 C22.3586667,53.7349879 23.9866667,55.34899 23.9866667,57.3367749 L23.9866667,77.8155818 C23.9866667,79.8033667 22.3586667,81.4173688 20.3506667,81.4173688" id="Fill-6"></path>
                                <path d="M31.2546667,81.4173688 C29.248,81.4173688 27.62,79.8033667 27.62,77.8155818 L27.62,62.911818 C27.62,60.9240331 29.248,59.3113519 31.2546667,59.3113519 C33.2613333,59.3113519 34.8906667,60.9240331 34.8906667,62.911818 L34.8906667,77.8155818 C34.8906667,79.8033667 33.2613333,81.4173688 31.2546667,81.4173688" id="Fill-7"></path>
                                <path d="M42.3173333,82.7381561 L9.344,82.7381561 C7.336,82.7381561 5.708,81.124154 5.708,79.1363691 C5.708,77.1485843 7.336,75.535903 9.344,75.535903 L42.3173333,75.535903 C44.324,75.535903 45.952,77.1485843 45.952,79.1363691 C45.952,81.124154 44.324,82.7381561 42.3173333,82.7381561" id="Fill-8"></path>
                            </g>
                        </g>
                    </g>
                </g>
            </g>
        </g>
    </g>
</svg>