<?xml version="1.0" encoding="UTF-8"?>
<svg width="260px" height="164px" viewBox="0 0 260 164" version="1.1" xmlns="http://www.w3.org/2000/svg" xmlns:xlink="http://www.w3.org/1999/xlink">
    <!-- Generator: Sketch 44.1 (41455) - http://www.bohemiancoding.com/sketch -->
    <title>skill-develop</title>
    <desc>Created with Sketch.</desc>
    <defs>
        <radialGradient cx="52.9341936%" cy="-14.85%" fx="52.9341936%" fy="-14.85%" r="100%" gradientTransform="translate(0.529342,-0.148500),scale(0.630769,1.000000),rotate(90.000000),translate(-0.529342,0.148500)" id="radialGradient-1">
            <stop stop-color="#75DBCD" offset="0%"></stop>
            <stop stop-color="#C04CFD" offset="100%"></stop>
        </radialGradient>
        <rect id="path-2" x="0" y="0" width="260" height="164"></rect>
    </defs>
    <g id="Page-1" stroke="none" stroke-width="1" fill="none" fill-rule="evenodd">
        <g id="skills" transform="translate(-382.000000, -184.000000)">
            <g id="main" transform="translate(112.000000, 184.000000)">
                <g id="Develop" transform="translate(270.000000, 0.000000)">
                    <g id="skill-develop">
                        <g id="skill-gradient">
                            <use fill="url(#radialGradient-1)" fill-rule="evenodd" xlink:href="#path-2"></use>
                            <rect stroke="#2E0444" stroke-width="5" x="2.5" y="2.5" width="255" height="159"></rect>
                        </g>
                        <g id="icon-develop" transform="translate(28.000000, 15.000000)" fill="#FFFFFF">
                            <text id="Develop" font-family="Comfortaa-Regular, Comfortaa" font-size="48" font-weight="normal" letter-spacing="0.75625062">
                                <tspan x="0.32512283" y="126">Develop</tspan>
                            </text>
                            <g id="STARS" transform="translate(60.000000, 0.000000)">
                                <path d="M3.80498361,58.32625 C1.92865574,58.32625 0.407409836,56.8 0.407409836,54.91875 C0.407409836,53.03625 1.92865574,51.51 3.80498361,51.51 C13.7323279,51.51 21.8095082,43.4075 21.8095082,33.445 C21.8095082,31.5625 23.3307541,30.03625 25.207082,30.03625 C27.0834098,30.03625 28.6034098,31.5625 28.6034098,33.445 C28.6034098,47.16375 17.4787541,58.32625 3.80498361,58.32625" id="Fill-1"></path>
                                <path d="M46.6104262,58.32625 C32.9354098,58.32625 21.8095082,47.16375 21.8095082,33.445 C21.8095082,31.5625 23.3307541,30.03625 25.207082,30.03625 C27.0834098,30.03625 28.6034098,31.5625 28.6034098,33.445 C28.6034098,43.4075 36.6818361,51.51 46.6104262,51.51 C48.4867541,51.51 50.0067541,53.03625 50.0067541,54.91875 C50.0067541,56.8 48.4867541,58.32625 46.6104262,58.32625" id="Fill-2"></path>
                                <path d="M25.207082,79.7975 C23.3307541,79.7975 21.8095082,78.27125 21.8095082,76.39 C21.8095082,62.67125 32.9354098,51.51 46.6104262,51.51 C48.4867541,51.51 50.0067541,53.03625 50.0067541,54.91875 C50.0067541,56.8 48.4867541,58.32625 46.6104262,58.32625 C36.6818361,58.32625 28.6034098,66.42875 28.6034098,76.39 C28.6034098,78.27125 27.0834098,79.7975 25.207082,79.7975" id="Fill-3"></path>
                                <path d="M25.207082,79.7975 C23.3307541,79.7975 21.8095082,78.27125 21.8095082,76.39 C21.8095082,66.42875 13.7323279,58.32625 3.80498361,58.32625 C1.92865574,58.32625 0.407409836,56.8 0.407409836,54.91875 C0.407409836,53.03625 1.92865574,51.51 3.80498361,51.51 C17.4787541,51.51 28.6034098,62.67125 28.6034098,76.39 C28.6034098,78.27125 27.0834098,79.7975 25.207082,79.7975" id="Fill-4"></path>
                                <path d="M40.6313443,20.99875 C39.380459,20.99875 38.3662951,19.9825 38.3662951,18.7275 C38.3662951,17.47125 39.380459,16.455 40.6313443,16.455 C48.3434754,16.455 54.6178361,10.16 54.6178361,2.42125 C54.6178361,1.165 55.632,0.14875 56.8828852,0.14875 C58.1337705,0.14875 59.1479344,1.165 59.1479344,2.42125 C59.1479344,12.665 50.8415082,20.99875 40.6313443,20.99875" id="Fill-5"></path>
                                <path d="M73.1356721,20.99875 C62.9242623,20.99875 54.6178361,12.665 54.6178361,2.42125 C54.6178361,1.165 55.632,0.14875 56.8828852,0.14875 C58.1337705,0.14875 59.1479344,1.165 59.1479344,2.42125 C59.1479344,10.16 65.4222951,16.455 73.1356721,16.455 C74.3865574,16.455 75.3994754,17.47125 75.3994754,18.7275 C75.3994754,19.9825 74.3865574,20.99875 73.1356721,20.99875" id="Fill-6"></path>
                                <path d="M56.8828852,37.305 C55.632,37.305 54.6178361,36.28875 54.6178361,35.03375 C54.6178361,24.78875 62.9242623,16.455 73.1356721,16.455 C74.3865574,16.455 75.3994754,17.47125 75.3994754,18.7275 C75.3994754,19.9825 74.3865574,20.99875 73.1356721,20.99875 C65.4222951,20.99875 59.1479344,27.29375 59.1479344,35.03375 C59.1479344,36.28875 58.1337705,37.305 56.8828852,37.305" id="Fill-7"></path>
                                <path d="M56.8828852,37.305 C55.632,37.305 54.6178361,36.28875 54.6178361,35.03375 C54.6178361,27.29375 48.3434754,20.99875 40.6313443,20.99875 C39.380459,20.99875 38.3662951,19.9825 38.3662951,18.7275 C38.3662951,17.47125 39.380459,16.455 40.6313443,16.455 C50.8415082,16.455 59.1479344,24.78875 59.1479344,35.03375 C59.1479344,36.28875 58.1337705,37.305 56.8828852,37.305" id="Fill-8"></path>
                            </g>
                        </g>
                    </g>
                </g>
            </g>
        </g>
    </g>
</svg>