<?xml version="1.0" encoding="UTF-8"?>
<svg width="260px" height="166px" viewBox="0 0 260 166" version="1.1" xmlns="http://www.w3.org/2000/svg" xmlns:xlink="http://www.w3.org/1999/xlink">
    <!-- Generator: Sketch 44.1 (41455) - http://www.bohemiancoding.com/sketch -->
    <title>skill-deploy</title>
    <desc>Created with Sketch.</desc>
    <defs>
        <radialGradient cx="81.6054702%" cy="70.26875%" fx="81.6054702%" fy="70.26875%" r="100%" gradientTransform="translate(0.816055,0.702688),scale(0.638462,1.000000),rotate(90.000000),translate(-0.816055,-0.702688)" id="radialGradient-1">
            <stop stop-color="#75DBCD" offset="0%"></stop>
            <stop stop-color="#C04CFD" offset="100%"></stop>
        </radialGradient>
        <rect id="path-2" x="0" y="0" width="260" height="166"></rect>
    </defs>
    <g id="Page-1" stroke="none" stroke-width="1" fill="none" fill-rule="evenodd">
        <g id="skills" transform="translate(-652.000000, -204.000000)">
            <g id="main" transform="translate(112.000000, 184.000000)">
                <g id="Deploy" transform="translate(540.000000, 20.000000)">
                    <g id="skill-deploy">
                        <g id="skill-gradient">
                            <use fill="url(#radialGradient-1)" fill-rule="evenodd" xlink:href="#path-2"></use>
                            <rect stroke="#2E0444" stroke-width="5" x="2.5" y="2.5" width="255" height="161"></rect>
                        </g>
                        <g id="icon-deploy" transform="translate(43.000000, 14.000000)">
                            <text id="Deploy" font-family="Comfortaa-Regular, Comfortaa" font-size="48" font-weight="normal" letter-spacing="0.75625062" fill="#FFFFFF">
                                <tspan x="0.31924814" y="127">Deploy</tspan>
                            </text>
                            <g id="ROCKET" transform="translate(57.000000, 0.000000)">
                                <path d="M38.1811228,26.542622 C38.1811228,30.3500854 35.0876491,33.4379512 31.2708421,33.4379512 C27.4540351,33.4379512 24.3605614,30.3500854 24.3605614,26.542622 C24.3605614,22.7340732 27.4540351,19.6462073 31.2708421,19.6462073 C35.0876491,19.6462073 38.1811228,22.7340732 38.1811228,26.542622 L38.1811228,26.542622 Z" id="Stroke-1" stroke="#FFFFFF" stroke-width="3"></path>
                                <path d="M30.9608421,77.219439 C20.3936491,77.219439 12.4261053,60.787 12.4261053,38.9950244 C12.4261053,17.2041341 20.3936491,0.771695122 30.9608421,0.771695122 C41.5280351,0.771695122 49.4966667,17.2041341 49.4966667,38.9950244 C49.4966667,60.787 41.5280351,77.219439 30.9608421,77.219439 L30.9608421,77.219439 Z M30.9608421,6.69019512 C25.0110175,6.69019512 18.3574386,20.5058171 18.3574386,38.9950244 C18.3574386,57.4853171 25.0110175,71.300939 30.9608421,71.300939 C36.9226316,71.300939 43.5653333,58.0345122 43.5653333,38.9950244 C43.5653333,19.956622 36.9226316,6.69019512 30.9608421,6.69019512 L30.9608421,6.69019512 Z" id="Fill-2" fill="#FFFFFF"></path>
                                <path d="M6.55242105,74.0404024 C6.24785965,74.0404024 5.93677193,74.0089268 5.61807018,73.9459756 C3.17722807,73.4586463 1.39010526,71.1804634 0.586280702,67.5379756 C-0.0968070175,64.4435976 -0.0358947368,60.5655854 0.758140351,56.6213659 C2.13519298,49.7824756 5.92480702,42.4226098 11.001193,42.4226098 C11.3177193,42.4226098 11.6320702,42.4540854 11.9453333,42.5159512 C13.7846667,42.8838902 15.5087018,44.4088293 16.6790877,46.7000366 C18.2638947,49.8052683 19.0905614,55.002 16.6616842,60.2747073 C16.2102807,61.2569634 15.7817193,62.2066585 15.3738246,63.1107683 C12.4119649,69.6913415 10.4540702,74.0404024 6.55242105,74.0404024 L6.55242105,74.0404024 Z M11.1556491,46.3841951 C9.25540351,46.3841951 6.00747368,50.5780488 4.63477193,57.3995732 C3.95494737,60.7696341 3.88750877,64.1548902 4.44768421,66.6881341 C4.96,69.0043049 5.81712281,69.9615976 6.39578947,70.0766463 L6.55242105,70.0940122 C7.89575439,70.0940122 9.95263158,65.524622 11.7669474,61.4935732 C12.1802807,60.5786098 12.6110175,59.6213171 13.0711228,58.6249512 C14.9082807,54.634061 14.3198246,50.7723293 13.1559649,48.4898049 C12.4859298,47.1754268 11.6723158,46.4862195 11.1665263,46.3841951 L11.1556491,46.3841951 L11.1556491,46.3841951 Z" id="Fill-3" fill="#FFFFFF"></path>
                                <path d="M54.4120702,74.1326585 C50.2069474,74.1326585 48.139193,68.7394756 45.5210526,61.9136098 L44.729193,59.864439 C42.6037895,54.3985366 43.7132632,49.237622 45.4634035,46.2300732 C46.7447368,44.0235244 48.4752982,42.6559634 50.3287719,42.3791951 C50.5637193,42.343378 50.8019298,42.3260122 51.0390526,42.3260122 C56.0012281,42.3260122 59.706,49.7173537 60.8024211,57.0186098 C61.4017544,60.997561 61.2701404,64.8712317 60.4336842,67.9287073 C59.4514737,71.5299512 57.5534035,73.7147927 55.0918947,74.0827317 C54.862386,74.1174634 54.6361404,74.1326585 54.4120702,74.1326585 L54.4120702,74.1326585 Z M51.0390526,46.2724024 C50.4190526,46.3548902 49.5989123,46.9811463 48.8821053,48.2097805 C47.5942456,50.4239268 46.7969474,54.2737195 48.4165614,58.4350122 L49.2127719,60.5037195 C50.7801754,64.590122 52.9273333,70.1873537 54.4120702,70.1873537 L54.5045263,70.1786707 C55.0897193,70.0929268 55.9947018,69.1790488 56.6190526,66.8900122 C57.3043158,64.3882439 57.4032982,61.0029878 56.8909825,57.6047073 C55.8369825,50.5834756 52.7728772,46.2724024 51.0390526,46.2724024 L51.0390526,46.2724024 Z" id="Fill-4" fill="#FFFFFF"></path>
                                <polygon id="Fill-5" fill="#FFFFFF" points="17.0717544 50.8417927 46.2335088 50.8417927 46.2335088 54.7870976 17.0717544 54.7870976"></polygon>
                                <path d="M29.5022105,79.844939 C29.5022105,80.5873293 30.104807,81.188622 30.848807,81.188622 C31.5917193,81.188622 32.1954035,80.5873293 32.1954035,79.844939 C32.1954035,79.1036341 31.592807,78.5023415 30.848807,78.5023415 C30.104807,78.5023415 29.5022105,79.1036341 29.5022105,79.844939" id="Fill-6" fill="#FFFFFF"></path>
                                <path d="M31.5221053,83.5395244 C31.5221053,84.2819146 32.1247018,84.8832073 32.867614,84.8832073 C33.611614,84.8832073 34.2142105,84.2819146 34.2142105,83.5395244 C34.2142105,82.7982195 33.611614,82.1969268 32.867614,82.1969268 C32.1247018,82.1969268 31.5221053,82.7982195 31.5221053,83.5395244" id="Fill-7" fill="#FFFFFF"></path>
                                <path d="M29.1661053,87.2341098 C29.1661053,87.9765 29.7687018,88.5777927 30.511614,88.5777927 C31.255614,88.5777927 31.8582105,87.9765 31.8582105,87.2341098 C31.8582105,86.4928049 31.255614,85.8904268 30.511614,85.8904268 C29.7687018,85.8904268 29.1661053,86.4928049 29.1661053,87.2341098" id="Fill-8" fill="#FFFFFF"></path>
                                <path d="M33.5409123,87.2341098 C33.5409123,87.9765 34.1435088,88.5777927 34.8875088,88.5777927 C35.6315088,88.5777927 36.2341053,87.9765 36.2341053,87.2341098 C36.2341053,86.4928049 35.6304211,85.8904268 34.8875088,85.8904268 C34.1435088,85.8904268 33.5409123,86.4928049 33.5409123,87.2341098" id="Fill-9" fill="#FFFFFF"></path>
                                <path d="M25.1263158,87.2341098 C25.1263158,87.9765 25.7289123,88.5777927 26.4729123,88.5777927 C27.2169123,88.5777927 27.8195088,87.9765 27.8195088,87.2341098 C27.8195088,86.4928049 27.2158246,85.8904268 26.4729123,85.8904268 C25.7289123,85.8904268 25.1263158,86.4928049 25.1263158,87.2341098" id="Fill-10" fill="#FFFFFF"></path>
                                <path d="M29.8383158,83.5395244 C29.8383158,82.7982195 29.2357193,82.1958415 28.492807,82.1969268 C27.748807,82.1969268 27.1462105,82.7971341 27.1462105,83.5395244 C27.1462105,84.2819146 27.748807,84.8832073 28.492807,84.8832073 C29.2357193,84.8832073 29.8383158,84.2819146 29.8383158,83.5395244" id="Fill-11" fill="#FFFFFF"></path>
                            </g>
                        </g>
                    </g>
                </g>
            </g>
        </g>
    </g>
</svg>