<?xml version="1.0" encoding="UTF-8"?>
<svg width="260px" height="166px" viewBox="0 0 260 166" version="1.1" xmlns="http://www.w3.org/2000/svg" xmlns:xlink="http://www.w3.org/1999/xlink">
    <!-- Generator: Sketch 44.1 (41455) - http://www.bohemiancoding.com/sketch -->
    <title>skill-deploy</title>
    <desc>Created with Sketch.</desc>
    <defs>
        <radialGradient cx="81.6054702%" cy="70.26875%" fx="81.6054702%" fy="70.26875%" r="100%" gradientTransform="translate(0.816055,0.702688),scale(0.638462,1.000000),rotate(90.000000),translate(-0.816055,-0.702688)" id="radialGradient-1">
            <stop stop-color="#75DBCD" offset="0%"></stop>
            <stop stop-color="#C04CFD" offset="100%"></stop>
        </radialGradient>
        <rect id="path-2" x="0" y="0" width="260" height="166"></rect>
    </defs>
    <g id="Page-1" stroke="none" stroke-width="1" fill="none" fill-rule="evenodd">
        <g id="skills" transform="translate(-652.000000, -204.000000)">
            <g id="main" transform="translate(112.000000, 184.000000)">
                <g id="Deploy" transform="translate(540.000000, 20.000000)">
                    <g id="skill-deploy">
                        <g id="skill-gradient">
                            <use fill="url(#radialGradient-1)" fill-rule="evenodd" xlink:href="#path-2"></use>
                            <rect stroke="#2E0444" stroke-width="5" x="2.5" y="2.5" width="255" height="161"></rect>
                        </g>
                        <g id="icon-deploy" transform="translate(43.000000, 14.000000)">
                            <path d="M5.64724814,126.472 C5.29524638,126.119998 5.11924814,125.672003 5.11924814,125.128 L5.11924814,91.384 C5.11924814,90.8399973 5.29524638,90.3920018 5.64724814,90.04 C5.9992499,89.6879982 6.44724542,89.512 6.99124814,89.512 L15.6312481,89.512 C19.2472662,89.512 22.4792339,90.311992 25.3272481,91.912 C28.1752624,93.512008 30.3912402,95.7279858 31.9752481,98.56 C33.5592561,101.392014 34.3512481,104.615982 34.3512481,108.232 C34.3512481,111.848018 33.5592561,115.079986 31.9752481,117.928 C30.3912402,120.776014 28.1752624,122.999992 25.3272481,124.6 C22.4792339,126.200008 19.2472662,127 15.6312481,127 L6.99124814,127 C6.44724542,127 5.9992499,126.824002 5.64724814,126.472 Z M15.6312481,123.64 C18.5432627,123.64 21.1352368,122.976007 23.4072481,121.648 C25.6792595,120.319993 27.4552417,118.488012 28.7352481,116.152 C30.0152545,113.815988 30.6552481,111.176015 30.6552481,108.232 C30.6552481,105.287985 30.0152545,102.648012 28.7352481,100.312 C27.4552417,97.9759883 25.6792595,96.1520066 23.4072481,94.84 C21.1352368,93.5279934 18.5432627,92.872 15.6312481,92.872 L8.86324814,92.872 L8.86324814,123.64 L15.6312481,123.64 Z M59.8274988,102.16 C61.6515079,103.264006 63.0674937,104.79199 64.0754988,106.744 C65.0835038,108.69601 65.5874988,110.919988 65.5874988,113.416 C65.5874988,113.928003 65.4275004,114.335998 65.1074988,114.64 C64.7874972,114.944002 64.3715013,115.096 63.8594988,115.096 L44.4674988,115.096 C44.7235,117.720013 45.7474898,119.847992 47.5394988,121.48 C49.3315077,123.112008 51.5714853,123.928 54.2594988,123.928 C55.4115045,123.928 56.5714929,123.728002 57.7394988,123.328 C58.9075046,122.927998 59.8434952,122.424003 60.5474988,121.816 C60.9635008,121.495998 61.3954965,121.336 61.8434988,121.336 C62.1955005,121.336 62.547497,121.463999 62.8994988,121.72 C63.3155008,122.104002 63.5234988,122.535998 63.5234988,123.016 C63.5234988,123.432002 63.3475005,123.799998 62.9954988,124.12 C61.9394935,125.016004 60.5955069,125.759997 58.9634988,126.352 C57.3314906,126.944003 55.7635063,127.24 54.2594988,127.24 C51.699486,127.24 49.4115088,126.672006 47.3954988,125.536 C45.3794887,124.399994 43.8035044,122.81601 42.6674988,120.784 C41.5314931,118.75199 40.9634988,116.456013 40.9634988,113.896 C40.9634988,111.303987 41.4994934,108.99201 42.5714988,106.96 C43.6435041,104.92799 45.1314892,103.344006 47.0354988,102.208 C48.9395083,101.071994 51.1074866,100.504 53.5394988,100.504 C55.9075106,100.504 58.0034896,101.055994 59.8274988,102.16 Z M47.4914988,106.072 C45.8914908,107.576008 44.9155005,109.559988 44.5634988,112.024 L62.1314988,112.024 C61.8754975,109.559988 60.9795064,107.576008 59.4434988,106.072 C57.9074911,104.567992 55.9395108,103.816 53.5394988,103.816 C51.1074866,103.816 49.0915068,104.567992 47.4914988,106.072 Z M92.7197494,102.256 C94.7517595,103.424006 96.3517435,105.03199 97.5197494,107.08 C98.6877552,109.12801 99.2717494,111.399988 99.2717494,113.896 C99.2717494,116.392012 98.7037551,118.65599 97.5677494,120.688 C96.4317437,122.72001 94.8797592,124.319994 92.9117494,125.488 C90.9437395,126.656006 88.7437615,127.24 86.3117494,127.24 C84.231739,127.24 82.327758,126.800004 80.5997494,125.92 C78.8717407,125.039996 77.447755,123.832008 76.3277494,122.296 L76.3277494,136.36 C76.3277494,136.904003 76.1517511,137.351998 75.7997494,137.704 C75.4477476,138.056002 74.9997521,138.232 74.4557494,138.232 C73.9117467,138.232 73.4717511,138.056002 73.1357494,137.704 C72.7997477,137.351998 72.6317494,136.904003 72.6317494,136.36 L72.6317494,125.608 C72.5997492,125.512 72.5837494,125.368001 72.5837494,125.176 L72.5837494,113.896 C72.5837494,111.399988 73.1677435,109.12801 74.3357494,107.08 C75.5037552,105.03199 77.1037392,103.424006 79.1357494,102.256 C81.1677595,101.087994 83.4317369,100.504 85.9277494,100.504 C88.4237619,100.504 90.6877392,101.087994 92.7197494,102.256 Z M90.8957494,122.584 C92.3837568,121.719996 93.5517451,120.528008 94.3997494,119.008 C95.2477536,117.487992 95.6717494,115.784009 95.6717494,113.896 C95.6717494,112.007991 95.2477536,110.304008 94.3997494,108.784 C93.5517451,107.263992 92.3837568,106.064004 90.8957494,105.184 C89.4077419,104.303996 87.7517585,103.864 85.9277494,103.864 C84.1037403,103.864 82.4557567,104.303996 80.9837494,105.184 C79.511742,106.064004 78.3517536,107.263992 77.5037494,108.784 C76.6557451,110.304008 76.2317494,112.007991 76.2317494,113.896 C76.2317494,114.440003 76.2477492,114.839999 76.2797494,115.096 C76.3117495,115.16 76.3277494,115.24 76.3277494,115.336 C76.647751,117.832012 77.6957405,119.879992 79.4717494,121.48 C81.2477583,123.080008 83.3997367,123.88 85.9277494,123.88 C87.7517585,123.88 89.4077419,123.448004 90.8957494,122.584 Z M108.164,124.672 C106.931994,123.119992 106.316,121.128012 106.316,118.696 L106.316,91.336 C106.316,90.7919973 106.491998,90.3520017 106.844,90.016 C107.196002,89.6799983 107.627997,89.512 108.14,89.512 C108.684003,89.512 109.123998,89.6799983 109.46,90.016 C109.796002,90.3520017 109.964,90.7919973 109.964,91.336 L109.964,118.696 C109.964,120.072007 110.243997,121.191996 110.804,122.056 C111.364003,122.920004 112.075996,123.352 112.94,123.352 L114.14,123.352 C114.620002,123.352 115.003999,123.519998 115.292,123.856 C115.580001,124.192002 115.724,124.631997 115.724,125.176 C115.724,125.720003 115.524002,126.159998 115.124,126.496 C114.723998,126.832002 114.204003,127 113.564,127 L112.94,127 C110.98799,127 109.396006,126.224008 108.164,124.672 Z M125.240251,125.512 C123.20824,124.359994 121.616256,122.76801 120.464251,120.736 C119.312245,118.70399 118.736251,116.424013 118.736251,113.896 C118.736251,111.367987 119.312245,109.08001 120.464251,107.032 C121.616256,104.98399 123.20824,103.384006 125.240251,102.232 C127.272261,101.079994 129.552238,100.504 132.080251,100.504 C134.608263,100.504 136.880241,101.079994 138.896251,102.232 C140.912261,103.384006 142.504245,104.98399 143.672251,107.032 C144.840256,109.08001 145.424251,111.367987 145.424251,113.896 C145.424251,116.424013 144.848256,118.70399 143.696251,120.736 C142.544245,122.76801 140.952261,124.359994 138.920251,125.512 C136.88824,126.664006 134.608263,127.24 132.080251,127.24 C129.552238,127.24 127.272261,126.664006 125.240251,125.512 Z M137.072251,122.584 C138.544258,121.719996 139.696246,120.528008 140.528251,119.008 C141.360255,117.487992 141.776251,115.784009 141.776251,113.896 C141.776251,111.97599 141.360255,110.256008 140.528251,108.736 C139.696246,107.215992 138.544258,106.024004 137.072251,105.16 C135.600243,104.295996 133.93626,103.864 132.080251,103.864 C130.256241,103.864 128.600258,104.295996 127.112251,105.16 C125.624243,106.024004 124.456255,107.215992 123.608251,108.736 C122.760246,110.256008 122.336251,111.97599 122.336251,113.896 C122.336251,115.784009 122.760246,117.487992 123.608251,119.008 C124.456255,120.528008 125.624243,121.719996 127.112251,122.584 C128.600258,123.448004 130.256241,123.88 132.080251,123.88 C133.93626,123.88 135.600243,123.448004 137.072251,122.584 Z M173.588501,102.28 C173.588501,102.568001 173.524502,102.855999 173.396501,103.144 L157.844501,137.32 C157.5565,138.056004 157.092504,138.424 156.452501,138.424 C156.1325,138.424 155.844503,138.360001 155.588501,138.232 C154.852498,137.943999 154.484501,137.464003 154.484501,136.792 C154.484501,136.503999 154.548501,136.216001 154.676501,135.928 L159.428501,125.416 L159.428501,125.368 L148.724501,103.192 C148.596501,102.935999 148.532501,102.648002 148.532501,102.328 C148.532501,101.655997 148.884498,101.176001 149.588501,100.888 C149.844503,100.759999 150.1325,100.696 150.452501,100.696 C151.124505,100.696 151.6045,101.031997 151.892501,101.704 L161.252501,121.432 L170.180501,101.752 C170.500503,101.047996 170.980498,100.696 171.620501,100.696 C171.908503,100.696 172.1965,100.759999 172.484501,100.888 C173.220505,101.176001 173.588501,101.639997 173.588501,102.28 Z" id="Deploy" fill="#FFFFFF"></path>
                            <g id="ROCKET" transform="translate(57.000000, 0.000000)">
                                <path d="M38.1811228,26.542622 C38.1811228,30.3500854 35.0876491,33.4379512 31.2708421,33.4379512 C27.4540351,33.4379512 24.3605614,30.3500854 24.3605614,26.542622 C24.3605614,22.7340732 27.4540351,19.6462073 31.2708421,19.6462073 C35.0876491,19.6462073 38.1811228,22.7340732 38.1811228,26.542622 L38.1811228,26.542622 Z" id="Stroke-1" stroke="#FFFFFF" stroke-width="3"></path>
                                <path d="M30.9608421,77.219439 C20.3936491,77.219439 12.4261053,60.787 12.4261053,38.9950244 C12.4261053,17.2041341 20.3936491,0.771695122 30.9608421,0.771695122 C41.5280351,0.771695122 49.4966667,17.2041341 49.4966667,38.9950244 C49.4966667,60.787 41.5280351,77.219439 30.9608421,77.219439 L30.9608421,77.219439 Z M30.9608421,6.69019512 C25.0110175,6.69019512 18.3574386,20.5058171 18.3574386,38.9950244 C18.3574386,57.4853171 25.0110175,71.300939 30.9608421,71.300939 C36.9226316,71.300939 43.5653333,58.0345122 43.5653333,38.9950244 C43.5653333,19.956622 36.9226316,6.69019512 30.9608421,6.69019512 L30.9608421,6.69019512 Z" id="Fill-2" fill="#FFFFFF"></path>
                                <path d="M6.55242105,74.0404024 C6.24785965,74.0404024 5.93677193,74.0089268 5.61807018,73.9459756 C3.17722807,73.4586463 1.39010526,71.1804634 0.586280702,67.5379756 C-0.0968070175,64.4435976 -0.0358947368,60.5655854 0.758140351,56.6213659 C2.13519298,49.7824756 5.92480702,42.4226098 11.001193,42.4226098 C11.3177193,42.4226098 11.6320702,42.4540854 11.9453333,42.5159512 C13.7846667,42.8838902 15.5087018,44.4088293 16.6790877,46.7000366 C18.2638947,49.8052683 19.0905614,55.002 16.6616842,60.2747073 C16.2102807,61.2569634 15.7817193,62.2066585 15.3738246,63.1107683 C12.4119649,69.6913415 10.4540702,74.0404024 6.55242105,74.0404024 L6.55242105,74.0404024 Z M11.1556491,46.3841951 C9.25540351,46.3841951 6.00747368,50.5780488 4.63477193,57.3995732 C3.95494737,60.7696341 3.88750877,64.1548902 4.44768421,66.6881341 C4.96,69.0043049 5.81712281,69.9615976 6.39578947,70.0766463 L6.55242105,70.0940122 C7.89575439,70.0940122 9.95263158,65.524622 11.7669474,61.4935732 C12.1802807,60.5786098 12.6110175,59.6213171 13.0711228,58.6249512 C14.9082807,54.634061 14.3198246,50.7723293 13.1559649,48.4898049 C12.4859298,47.1754268 11.6723158,46.4862195 11.1665263,46.3841951 L11.1556491,46.3841951 L11.1556491,46.3841951 Z" id="Fill-3" fill="#FFFFFF"></path>
                                <path d="M54.4120702,74.1326585 C50.2069474,74.1326585 48.139193,68.7394756 45.5210526,61.9136098 L44.729193,59.864439 C42.6037895,54.3985366 43.7132632,49.237622 45.4634035,46.2300732 C46.7447368,44.0235244 48.4752982,42.6559634 50.3287719,42.3791951 C50.5637193,42.343378 50.8019298,42.3260122 51.0390526,42.3260122 C56.0012281,42.3260122 59.706,49.7173537 60.8024211,57.0186098 C61.4017544,60.997561 61.2701404,64.8712317 60.4336842,67.9287073 C59.4514737,71.5299512 57.5534035,73.7147927 55.0918947,74.0827317 C54.862386,74.1174634 54.6361404,74.1326585 54.4120702,74.1326585 L54.4120702,74.1326585 Z M51.0390526,46.2724024 C50.4190526,46.3548902 49.5989123,46.9811463 48.8821053,48.2097805 C47.5942456,50.4239268 46.7969474,54.2737195 48.4165614,58.4350122 L49.2127719,60.5037195 C50.7801754,64.590122 52.9273333,70.1873537 54.4120702,70.1873537 L54.5045263,70.1786707 C55.0897193,70.0929268 55.9947018,69.1790488 56.6190526,66.8900122 C57.3043158,64.3882439 57.4032982,61.0029878 56.8909825,57.6047073 C55.8369825,50.5834756 52.7728772,46.2724024 51.0390526,46.2724024 L51.0390526,46.2724024 Z" id="Fill-4" fill="#FFFFFF"></path>
                                <polygon id="Fill-5" fill="#FFFFFF" points="17.0717544 50.8417927 46.2335088 50.8417927 46.2335088 54.7870976 17.0717544 54.7870976"></polygon>
                                <path d="M29.5022105,79.844939 C29.5022105,80.5873293 30.104807,81.188622 30.848807,81.188622 C31.5917193,81.188622 32.1954035,80.5873293 32.1954035,79.844939 C32.1954035,79.1036341 31.592807,78.5023415 30.848807,78.5023415 C30.104807,78.5023415 29.5022105,79.1036341 29.5022105,79.844939" id="Fill-6" fill="#FFFFFF"></path>
                                <path d="M31.5221053,83.5395244 C31.5221053,84.2819146 32.1247018,84.8832073 32.867614,84.8832073 C33.611614,84.8832073 34.2142105,84.2819146 34.2142105,83.5395244 C34.2142105,82.7982195 33.611614,82.1969268 32.867614,82.1969268 C32.1247018,82.1969268 31.5221053,82.7982195 31.5221053,83.5395244" id="Fill-7" fill="#FFFFFF"></path>
                                <path d="M29.1661053,87.2341098 C29.1661053,87.9765 29.7687018,88.5777927 30.511614,88.5777927 C31.255614,88.5777927 31.8582105,87.9765 31.8582105,87.2341098 C31.8582105,86.4928049 31.255614,85.8904268 30.511614,85.8904268 C29.7687018,85.8904268 29.1661053,86.4928049 29.1661053,87.2341098" id="Fill-8" fill="#FFFFFF"></path>
                                <path d="M33.5409123,87.2341098 C33.5409123,87.9765 34.1435088,88.5777927 34.8875088,88.5777927 C35.6315088,88.5777927 36.2341053,87.9765 36.2341053,87.2341098 C36.2341053,86.4928049 35.6304211,85.8904268 34.8875088,85.8904268 C34.1435088,85.8904268 33.5409123,86.4928049 33.5409123,87.2341098" id="Fill-9" fill="#FFFFFF"></path>
                                <path d="M25.1263158,87.2341098 C25.1263158,87.9765 25.7289123,88.5777927 26.4729123,88.5777927 C27.2169123,88.5777927 27.8195088,87.9765 27.8195088,87.2341098 C27.8195088,86.4928049 27.2158246,85.8904268 26.4729123,85.8904268 C25.7289123,85.8904268 25.1263158,86.4928049 25.1263158,87.2341098" id="Fill-10" fill="#FFFFFF"></path>
                                <path d="M29.8383158,83.5395244 C29.8383158,82.7982195 29.2357193,82.1958415 28.492807,82.1969268 C27.748807,82.1969268 27.1462105,82.7971341 27.1462105,83.5395244 C27.1462105,84.2819146 27.748807,84.8832073 28.492807,84.8832073 C29.2357193,84.8832073 29.8383158,84.2819146 29.8383158,83.5395244" id="Fill-11" fill="#FFFFFF"></path>
                            </g>
                        </g>
                    </g>
                </g>
            </g>
        </g>
    </g>
</svg>