<?xml version="1.0" encoding="UTF-8"?>
<svg width="260px" height="165px" viewBox="0 0 260 165" version="1.1" xmlns="http://www.w3.org/2000/svg" xmlns:xlink="http://www.w3.org/1999/xlink">
    <!-- Generator: Sketch 44.1 (41455) - http://www.bohemiancoding.com/sketch -->
    <title>skill-design</title>
    <desc>Created with Sketch.</desc>
    <defs>
        <radialGradient cx="24.8137012%" cy="21.040625%" fx="24.8137012%" fy="21.040625%" r="100%" gradientTransform="translate(0.248137,0.210406),scale(0.631109,1.000000),rotate(90.000000),translate(-0.248137,-0.210406)" id="radialGradient-1">
            <stop stop-color="#75DBCD" offset="0%"></stop>
            <stop stop-color="#C04CFD" offset="100%"></stop>
        </radialGradient>
        <rect id="path-2" x="0" y="0" width="260" height="164.088398"></rect>
    </defs>
    <g id="Page-1" stroke="none" stroke-width="1" fill="none" fill-rule="evenodd">
        <g id="skills" transform="translate(-112.000000, -204.000000)">
            <g id="main" transform="translate(112.000000, 184.000000)">
                <g id="Design" transform="translate(0.000000, 20.000000)">
                    <g id="skill-design">
                        <g id="skill-gradient">
                            <use fill="url(#radialGradient-1)" fill-rule="evenodd" xlink:href="#path-2"></use>
                            <rect stroke="#2E0444" stroke-width="5" x="2.5" y="2.5" width="255" height="159.088398"></rect>
                        </g>
                        <g id="icon-design" transform="translate(42.000000, 11.933702)" fill="#FFFFFF">
                            <path d="M5.97524814,127.698519 C5.62324638,127.346518 5.44724814,126.898522 5.44724814,126.354519 L5.44724814,92.6105193 C5.44724814,92.0665166 5.62324638,91.6185211 5.97524814,91.2665193 C6.3272499,90.9145176 6.77524542,90.7385193 7.31924814,90.7385193 L15.9592481,90.7385193 C19.5752662,90.7385193 22.8072339,91.5385113 25.6552481,93.1385193 C28.5032624,94.7385273 30.7192402,96.9545052 32.3032481,99.7865193 C33.8872561,102.618533 34.6792481,105.842501 34.6792481,109.458519 C34.6792481,113.074537 33.8872561,116.306505 32.3032481,119.154519 C30.7192402,122.002534 28.5032624,124.226511 25.6552481,125.826519 C22.8072339,127.426527 19.5752662,128.226519 15.9592481,128.226519 L7.31924814,128.226519 C6.77524542,128.226519 6.3272499,128.050521 5.97524814,127.698519 Z M15.9592481,124.866519 C18.8712627,124.866519 21.4632368,124.202526 23.7352481,122.874519 C26.0072595,121.546513 27.7832417,119.714531 29.0632481,117.378519 C30.3432545,115.042508 30.9832481,112.402534 30.9832481,109.458519 C30.9832481,106.514505 30.3432545,103.874531 29.0632481,101.538519 C27.7832417,99.2025077 26.0072595,97.3785259 23.7352481,96.0665193 C21.4632368,94.7545128 18.8712627,94.0985193 15.9592481,94.0985193 L9.19124814,94.0985193 L9.19124814,124.866519 L15.9592481,124.866519 Z M60.1554988,103.386519 C61.9795079,104.490525 63.3954937,106.01851 64.4034988,107.970519 C65.4115038,109.922529 65.9154988,112.146507 65.9154988,114.642519 C65.9154988,115.154522 65.7555004,115.562518 65.4354988,115.866519 C65.1154972,116.170521 64.6995013,116.322519 64.1874988,116.322519 L44.7954988,116.322519 C45.0515,118.946532 46.0754898,121.074511 47.8674988,122.706519 C49.6595077,124.338527 51.8994853,125.154519 54.5874988,125.154519 C55.7395045,125.154519 56.8994929,124.954521 58.0674988,124.554519 C59.2355046,124.154517 60.1714952,123.650522 60.8754988,123.042519 C61.2915008,122.722518 61.7234965,122.562519 62.1714988,122.562519 C62.5235005,122.562519 62.875497,122.690518 63.2274988,122.946519 C63.6435008,123.330521 63.8514988,123.762517 63.8514988,124.242519 C63.8514988,124.658521 63.6755005,125.026518 63.3234988,125.346519 C62.2674935,126.242524 60.9235069,126.986516 59.2914988,127.578519 C57.6594906,128.170522 56.0915063,128.466519 54.5874988,128.466519 C52.027486,128.466519 49.7395088,127.898525 47.7234988,126.762519 C45.7074887,125.626514 44.1315044,124.042529 42.9954988,122.010519 C41.8594931,119.978509 41.2914988,117.682532 41.2914988,115.122519 C41.2914988,112.530506 41.8274934,110.218529 42.8994988,108.186519 C43.9715041,106.154509 45.4594892,104.570525 47.3634988,103.434519 C49.2675083,102.298514 51.4354866,101.730519 53.8674988,101.730519 C56.2355106,101.730519 58.3314896,102.282514 60.1554988,103.386519 Z M47.8194988,107.298519 C46.2194908,108.802527 45.2435005,110.786507 44.8914988,113.250519 L62.4594988,113.250519 C62.2034975,110.786507 61.3075064,108.802527 59.7714988,107.298519 C58.2354911,105.794512 56.2675108,105.042519 53.8674988,105.042519 C51.4354866,105.042519 49.4195068,105.794512 47.8194988,107.298519 Z M76.3677494,127.458519 C74.5437403,126.786516 73.071755,125.842525 71.9517494,124.626519 C71.6317478,124.242517 71.4717494,123.874521 71.4717494,123.522519 C71.4717494,122.978517 71.7277468,122.498521 72.2397494,122.082519 C72.6237513,121.794518 73.0237473,121.650519 73.4397494,121.650519 C73.9837521,121.650519 74.4477475,121.874517 74.8317494,122.322519 C75.5997532,123.218524 76.6157431,123.906517 77.8797494,124.386519 C79.1437557,124.866522 80.5437417,125.106519 82.0797494,125.106519 C84.3197606,125.106519 85.9997438,124.722523 87.1197494,123.954519 C88.239755,123.186515 88.8157492,122.178526 88.8477494,120.930519 C88.8477494,119.778514 88.287755,118.818523 87.1677494,118.050519 C86.0477438,117.282515 84.2717615,116.706521 81.8397494,116.322519 C78.7037337,115.810517 76.3597571,114.922526 74.8077494,113.658519 C73.2557416,112.394513 72.4797494,110.866528 72.4797494,109.074519 C72.4797494,106.738508 73.3837403,104.930526 75.1917494,103.650519 C76.9997584,102.370513 79.2637358,101.730519 81.9837494,101.730519 C84.0957599,101.730519 85.9357415,102.090516 87.5037494,102.810519 C89.0717572,103.530523 90.3357446,104.530513 91.2957494,105.810519 C91.5517507,106.226521 91.6797494,106.594518 91.6797494,106.914519 C91.6797494,107.458522 91.4237519,107.890518 90.9117494,108.210519 C90.6877483,108.37052 90.3837513,108.450519 89.9997494,108.450519 C89.327746,108.450519 88.7677516,108.210522 88.3197494,107.730519 C86.7517415,105.93851 84.607763,105.042519 81.8877494,105.042519 C80.1277406,105.042519 78.7197547,105.402516 77.6637494,106.122519 C76.6077441,106.842523 76.0797494,107.746514 76.0797494,108.834519 C76.0797494,109.986525 76.5757444,110.906516 77.5677494,111.594519 C78.5597543,112.282523 80.3197367,112.834517 82.8477494,113.250519 C86.2717665,113.826522 88.719742,114.762513 90.1917494,116.058519 C91.6637567,117.354526 92.3997494,118.96251 92.3997494,120.882519 C92.3997494,122.354527 91.9597538,123.666514 91.0797494,124.818519 C90.199745,125.970525 88.9757572,126.866516 87.4077494,127.506519 C85.8397415,128.146523 84.0637593,128.466519 82.0797494,128.466519 C80.0957395,128.466519 78.1917585,128.130523 76.3677494,127.458519 Z M100.836,127.698519 C100.483998,127.346518 100.308,126.898522 100.308,126.354519 L100.308,103.842519 C100.308,103.298517 100.483998,102.850521 100.836,102.498519 C101.188002,102.146518 101.635997,101.970519 102.18,101.970519 C102.724003,101.970519 103.163998,102.146518 103.5,102.498519 C103.836002,102.850521 104.004,103.298517 104.004,103.842519 L104.004,126.354519 C104.004,126.898522 103.836002,127.346518 103.5,127.698519 C103.163998,128.050521 102.724003,128.226519 102.18,128.226519 C101.635997,128.226519 101.188002,128.050521 100.836,127.698519 Z M100.284,96.2105193 C99.7879975,95.6985168 99.54,95.074523 99.54,94.3385193 C99.54,93.5705155 99.7959974,92.9465217 100.308,92.4665193 C100.820003,91.9865169 101.443996,91.7465193 102.18,91.7465193 C102.884004,91.7465193 103.491997,91.9865169 104.004,92.4665193 C104.516003,92.9465217 104.772,93.5705155 104.772,94.3385193 C104.772,95.074523 104.516003,95.6985168 104.004,96.2105193 C103.491997,96.7225219 102.868004,96.9785193 102.132,96.9785193 C101.395996,96.9785193 100.780002,96.7225219 100.284,96.2105193 Z M132.984251,103.434519 C135.000261,104.570525 136.584245,106.154509 137.736251,108.186519 C138.888256,110.218529 139.464251,112.530506 139.464251,115.122519 L139.464251,124.914519 C139.464251,127.474532 138.896256,129.794509 137.760251,131.874519 C136.624245,133.95453 135.048261,135.594513 133.032251,136.794519 C131.016241,137.994525 128.744263,138.594519 126.216251,138.594519 C123.752238,138.594519 121.56026,138.130524 119.640251,137.202519 C117.720241,136.274515 116.104257,134.978528 114.792251,133.314519 C114.504249,132.994518 114.360251,132.626521 114.360251,132.210519 C114.360251,131.730517 114.584248,131.314521 115.032251,130.962519 C115.352252,130.738518 115.704249,130.626519 116.088251,130.626519 C116.376252,130.626519 116.664249,130.698519 116.952251,130.842519 C117.240252,130.98652 117.46425,131.170518 117.624251,131.394519 C118.584255,132.610525 119.800243,133.554516 121.272251,134.226519 C122.744258,134.898523 124.408241,135.234519 126.264251,135.234519 C128.05626,135.234519 129.680243,134.794524 131.136251,133.914519 C132.592258,133.034515 133.736246,131.802527 134.568251,130.218519 C135.400255,128.634511 135.816251,126.81853 135.816251,124.770519 L135.816251,122.610519 C134.856246,124.434528 133.496259,125.866514 131.736251,126.906519 C129.976242,127.946525 127.976262,128.466519 125.736251,128.466519 C123.240238,128.466519 121.00826,127.898525 119.040251,126.762519 C117.072241,125.626514 115.536256,124.042529 114.432251,122.010519 C113.328245,119.978509 112.776251,117.682532 112.776251,115.122519 C112.776251,112.530506 113.352245,110.218529 114.504251,108.186519 C115.656256,106.154509 117.24824,104.570525 119.280251,103.434519 C121.312261,102.298514 123.592238,101.730519 126.120251,101.730519 C128.680263,101.730519 130.968241,102.298514 132.984251,103.434519 Z M131.112251,123.834519 C132.584258,122.986515 133.736246,121.802527 134.568251,120.282519 C135.400255,118.762512 135.816251,117.042529 135.816251,115.122519 C135.816251,113.20251 135.400255,111.482527 134.568251,109.962519 C133.736246,108.442512 132.584258,107.250524 131.112251,106.386519 C129.640243,105.522515 127.97626,105.090519 126.120251,105.090519 C124.232241,105.090519 122.552258,105.522515 121.080251,106.386519 C119.608243,107.250524 118.456255,108.442512 117.624251,109.962519 C116.792246,111.482527 116.376251,113.20251 116.376251,115.122519 C116.376251,117.042529 116.792246,118.762512 117.624251,120.282519 C118.456255,121.802527 119.608243,122.986515 121.080251,123.834519 C122.552258,124.682524 124.232241,125.106519 126.120251,125.106519 C127.97626,125.106519 129.640243,124.682524 131.112251,123.834519 Z M165.972501,103.122519 C167.78051,104.082524 169.196496,105.48251 170.220501,107.322519 C171.244506,109.162529 171.756501,111.362507 171.756501,113.922519 L171.756501,126.402519 C171.756501,126.914522 171.580503,127.346518 171.228501,127.698519 C170.876499,128.050521 170.444504,128.226519 169.932501,128.226519 C169.388499,128.226519 168.940503,128.050521 168.588501,127.698519 C168.236499,127.346518 168.060501,126.914522 168.060501,126.402519 L168.060501,113.922519 C168.060501,111.074505 167.268509,108.906527 165.684501,107.418519 C164.100493,105.930512 162.028514,105.186519 159.468501,105.186519 C157.900493,105.186519 156.484508,105.490516 155.220501,106.098519 C153.956495,106.706522 152.956505,107.546514 152.220501,108.618519 C151.484498,109.690525 151.116501,110.882513 151.116501,112.194519 L151.116501,126.402519 C151.116501,126.946522 150.948503,127.386518 150.612501,127.722519 C150.2765,128.058521 149.836504,128.226519 149.292501,128.226519 C148.748499,128.226519 148.300503,128.058521 147.948501,127.722519 C147.596499,127.386518 147.420501,126.946522 147.420501,126.402519 L147.420501,103.842519 C147.420501,103.298517 147.596499,102.850521 147.948501,102.498519 C148.300503,102.146518 148.748499,101.970519 149.292501,101.970519 C149.836504,101.970519 150.2765,102.146518 150.612501,102.498519 C150.948503,102.850521 151.116501,103.298517 151.116501,103.842519 L151.116501,105.474519 C152.172507,104.290513 153.452494,103.362523 154.956501,102.690519 C156.460509,102.018516 158.092492,101.682519 159.852501,101.682519 C162.124513,101.682519 164.164492,102.162515 165.972501,103.122519 Z" id="Design"></path>
                            <g id="ECHO" transform="translate(55.000000, 0.000000)">
                                <path d="M39.3253333,66.5109634 C29.0466667,66.5109634 19.36,62.5248273 12.0506667,55.2829506 C-2.98933333,40.3857907 -2.98933333,16.1440608 12.0506667,1.24822169 C13.4706667,-0.158416782 15.772,-0.158416782 17.192,1.24822169 L66.6,50.1913156 C68.02,51.5979541 68.02,53.8763122 66.6,55.2829506 C59.2906667,62.5248273 49.6066667,66.5109634 39.3253333,66.5109634 L39.3253333,66.5109634 Z M14.7706667,9.03426278 C5.05066667,21.1947514 5.85733333,38.9633028 17.192,50.1913156 C23.128,56.0701398 30.9893333,59.3087103 39.3253333,59.3087103 C46.4466667,59.3087103 53.22,56.9471426 58.744,52.5938277 L14.7706667,9.03426278 L14.7706667,9.03426278 Z" id="Fill-1"></path>
                                <path d="M39.3253333,30.6661171 C38.7053333,30.6661171 38.0853333,30.4310169 37.612,29.9634582 C36.6653333,29.0243785 36.6653333,27.5054731 37.612,26.5677141 L43.4666667,20.7707787 C44.4133333,19.8316989 45.948,19.8316989 46.8946667,20.7707787 C47.8413333,21.7085376 47.8413333,23.227443 46.8946667,24.165202 L41.0386667,29.9634582 C40.5653333,30.4310169 39.9453333,30.6661171 39.3253333,30.6661171" id="Fill-2"></path>
                                <path d="M51.5546667,26.0684565 C46.0346667,26.0684565 41.5453333,21.6187241 41.5453333,16.1519855 C41.5453333,10.6839261 46.0346667,6.23419372 51.5546667,6.23419372 C57.0733333,6.23419372 61.5653333,10.6839261 61.5653333,16.1519855 C61.5653333,21.6187241 57.0733333,26.0684565 51.5546667,26.0684565 L51.5546667,26.0684565 Z M51.5546667,13.4364468 C50.044,13.4364468 48.816,14.6542127 48.816,16.1519855 C48.816,17.6497583 50.044,18.8662034 51.5546667,18.8662034 C53.0666667,18.8662034 54.2946667,17.6497583 54.2946667,16.1519855 C54.2946667,14.6542127 53.0666667,13.4364468 51.5546667,13.4364468 L51.5546667,13.4364468 Z" id="Fill-3"></path>
                                <path d="M49.6866667,40.9299551 C48.348,40.9299551 47.264,39.856155 47.264,38.5300846 L47.264,24.3197341 C47.264,22.9923429 48.348,21.9185428 49.6866667,21.9185428 C51.0266667,21.9185428 52.1106667,22.9923429 52.1106667,24.3197341 L52.1106667,38.5300846 C52.1106667,39.856155 51.0266667,40.9299551 49.6866667,40.9299551" id="Fill-4"></path>
                                <path d="M43.3106667,20.4049206 L28.9666667,20.4049206 C27.6266667,20.4049206 26.5426667,19.3311205 26.5426667,18.0037293 C26.5426667,16.6763381 27.6266667,15.602538 28.9666667,15.602538 L43.3106667,15.602538 C44.6506667,15.602538 45.7346667,16.6763381 45.7346667,18.0037293 C45.7346667,19.3311205 44.6506667,20.4049206 43.3106667,20.4049206" id="Fill-5"></path>
                                <path d="M20.3506667,81.4173688 C18.344,81.4173688 16.716,79.8033667 16.716,77.8155818 L16.716,57.3367749 C16.716,55.34899 18.344,53.7349879 20.3506667,53.7349879 C22.3586667,53.7349879 23.9866667,55.34899 23.9866667,57.3367749 L23.9866667,77.8155818 C23.9866667,79.8033667 22.3586667,81.4173688 20.3506667,81.4173688" id="Fill-6"></path>
                                <path d="M31.2546667,81.4173688 C29.248,81.4173688 27.62,79.8033667 27.62,77.8155818 L27.62,62.911818 C27.62,60.9240331 29.248,59.3113519 31.2546667,59.3113519 C33.2613333,59.3113519 34.8906667,60.9240331 34.8906667,62.911818 L34.8906667,77.8155818 C34.8906667,79.8033667 33.2613333,81.4173688 31.2546667,81.4173688" id="Fill-7"></path>
                                <path d="M42.3173333,82.7381561 L9.344,82.7381561 C7.336,82.7381561 5.708,81.124154 5.708,79.1363691 C5.708,77.1485843 7.336,75.535903 9.344,75.535903 L42.3173333,75.535903 C44.324,75.535903 45.952,77.1485843 45.952,79.1363691 C45.952,81.124154 44.324,82.7381561 42.3173333,82.7381561" id="Fill-8"></path>
                            </g>
                        </g>
                    </g>
                </g>
            </g>
        </g>
    </g>
</svg>