<?xml version="1.0" encoding="UTF-8"?>
<svg width="808px" height="308px" viewBox="0 0 808 308" version="1.1" xmlns="http://www.w3.org/2000/svg" xmlns:xlink="http://www.w3.org/1999/xlink">
    <!-- Generator: Sketch 44.1 (41455) - http://www.bohemiancoding.com/sketch -->
    <title>techGrid</title>
    <desc>Created with Sketch.</desc>
    <defs>
        <radialGradient cx="30.0463855%" cy="17.6653646%" fx="30.0463855%" fy="17.6653646%" r="100%" gradientTransform="translate(0.300464,0.176654),scale(0.375000,1.000000),rotate(90.000000),translate(-0.300464,-0.176654)" id="radialGradient-1">
            <stop stop-color="#75DBCD" offset="0%"></stop>
            <stop stop-color="#C04CFD" offset="100%"></stop>
        </radialGradient>
        <rect id="path-2" x="1" y="0" width="800" height="300"></rect>
        <filter x="-0.9%" y="-1.7%" width="101.8%" height="104.7%" filterUnits="objectBoundingBox" id="filter-3">
            <feOffset dx="0" dy="2" in="SourceAlpha" result="shadowOffsetOuter1"></feOffset>
            <feGaussianBlur stdDeviation="2" in="shadowOffsetOuter1" result="shadowBlurOuter1"></feGaussianBlur>
            <feColorMatrix values="0 0 0 0 0   0 0 0 0 0   0 0 0 0 0  0 0 0 0.5 0" type="matrix" in="shadowBlurOuter1"></feColorMatrix>
        </filter>
        <radialGradient cx="81.6054702%" cy="70.26875%" fx="81.6054702%" fy="70.26875%" r="100%" gradientTransform="translate(0.816055,0.702688),scale(0.785012,1.000000),rotate(90.000000),translate(-0.816055,-0.702688)" id="radialGradient-4">
            <stop stop-color="#75DBCD" offset="0%"></stop>
            <stop stop-color="#C04CFD" offset="100%"></stop>
        </radialGradient>
    </defs>
    <g id="Page-1" stroke="none" stroke-width="1" fill="none" fill-rule="evenodd">
        <g id="tech" transform="translate(-109.000000, -189.000000)">
            <g transform="translate(112.000000, 191.000000)" id="techGrid">
                <g>
                    <g id="Gradient">
                        <use fill="black" fill-opacity="1" filter="url(#filter-3)" xlink:href="#path-2"></use>
                        <use fill="url(#radialGradient-1)" fill-rule="evenodd" xlink:href="#path-2"></use>
                    </g>
                    <rect id="Rectangle-6" fill="#2E0444" x="1" y="1" width="296" height="299"></rect>
                    <rect id="Frame" stroke="#2E0444" stroke-width="5" x="2.5" y="2.5" width="796" height="295"></rect>
                    <path d="M16.9,98.1 C16.299997,97.499997 16,96.7600044 16,95.88 L16,55.26 C16,54.3399954 16.299997,53.5900029 16.9,53.01 C17.500003,52.4299971 18.2399956,52.14 19.12,52.14 C20.0400046,52.14 20.7899971,52.4299971 21.37,53.01 C21.9500029,53.5900029 22.24,54.3399954 22.24,55.26 L22.24,95.88 C22.24,96.7600044 21.9500029,97.499997 21.37,98.1 C20.7899971,98.700003 20.0400046,99 19.12,99 C18.2399956,99 17.500003,98.700003 16.9,98.1 Z M36.4153132,52.83 C37.1153167,53.8500051 37.4653132,55.159992 37.4653132,56.76 C37.4653132,58.1200068 37.0953169,59.7699903 36.3553132,61.71 C35.6153095,63.6500097 34.7353183,65.3299929 33.7153132,66.75 C32.6953081,68.1700071 31.7653174,68.88 30.9253132,68.88 C30.4053106,68.88 29.9853148,68.7000018 29.6653132,68.34 C29.3453116,67.9799982 29.1853132,67.5400026 29.1853132,67.02 C29.1853132,66.7399986 29.2453126,66.4600014 29.3653132,66.18 C30.325318,63.979989 30.8053132,62.1400074 30.8053132,60.66 C30.8053132,59.8999962 30.6453148,58.920006 30.3253132,57.72 C30.0453118,56.3999934 29.9053132,55.4600028 29.9053132,54.9 C29.9053132,53.899995 30.2653096,53.0500035 30.9853132,52.35 C31.7053168,51.6499965 32.5653082,51.3 33.5653132,51.3 C34.7653192,51.3 35.7153097,51.8099949 36.4153132,52.83 Z M49.9606263,97.59 C48.5806194,96.6499953 47.5106301,95.3300085 46.7506263,93.63 C45.9906225,91.9299915 45.6106263,90.0200106 45.6106263,87.9 L45.6106263,55.14 C45.6106263,54.2599956 45.8906235,53.5400028 46.4506263,52.98 C47.0106291,52.4199972 47.7306219,52.14 48.6106263,52.14 C49.4906307,52.14 50.2106235,52.4199972 50.7706263,52.98 C51.3306291,53.5400028 51.6106263,54.2599956 51.6106263,55.14 L51.6106263,87.9 C51.6106263,89.3800074 51.8906235,90.5999952 52.4506263,91.56 C53.0106291,92.5200048 53.7306219,93 54.6106263,93 L56.1106263,93 C56.9106303,93 57.5606238,93.2799972 58.0606263,93.84 C58.5606288,94.4000028 58.8106263,95.1199956 58.8106263,96 C58.8106263,96.8800044 58.4306301,97.5999972 57.6706263,98.16 C56.9106225,98.7200028 55.9306323,99 54.7306263,99 L54.6106263,99 C52.8906177,99 51.3406332,98.5300047 49.9606263,97.59 Z M68.9059395,97.59 C67.5259326,96.6499953 66.4559433,95.3300085 65.6959395,93.63 C64.9359357,91.9299915 64.5559395,90.0200106 64.5559395,87.9 L64.5559395,55.14 C64.5559395,54.2599956 64.8359367,53.5400028 65.3959395,52.98 C65.9559423,52.4199972 66.6759351,52.14 67.5559395,52.14 C68.4359439,52.14 69.1559367,52.4199972 69.7159395,52.98 C70.2759423,53.5400028 70.5559395,54.2599956 70.5559395,55.14 L70.5559395,87.9 C70.5559395,89.3800074 70.8359367,90.5999952 71.3959395,91.56 C71.9559423,92.5200048 72.6759351,93 73.5559395,93 L75.0559395,93 C75.8559435,93 76.505937,93.2799972 77.0059395,93.84 C77.505942,94.4000028 77.7559395,95.1199956 77.7559395,96 C77.7559395,96.8800044 77.3759433,97.5999972 76.6159395,98.16 C75.8559357,98.7200028 74.8759455,99 73.6759395,99 L73.5559395,99 C71.8359309,99 70.2859464,98.5300047 68.9059395,97.59 Z M126.986566,67.68 C129.186577,68.880006 130.90656,70.6299885 132.146566,72.93 C133.386572,75.2300115 134.006566,77.9999838 134.006566,81.24 L134.006566,96 C134.006566,96.8800044 133.716569,97.6099971 133.136566,98.19 C132.556563,98.7700029 131.82657,99.06 130.946566,99.06 C130.066561,99.06 129.336569,98.7700029 128.756566,98.19 C128.176563,97.6099971 127.886566,96.8800044 127.886566,96 L127.886566,81.24 C127.886566,77.9999838 127.016574,75.5500083 125.276566,73.89 C123.536557,72.2299917 121.22658,71.4 118.346566,71.4 C116.666557,71.4 115.136573,71.7399966 113.756566,72.42 C112.376559,73.1000034 111.29657,74.0199942 110.516566,75.18 C109.736562,76.3400058 109.346566,77.6399928 109.346566,79.08 L109.346566,96 C109.346566,96.8800044 109.066569,97.6099971 108.506566,98.19 C107.946563,98.7700029 107.20657,99.06 106.286566,99.06 C105.406561,99.06 104.676569,98.7700029 104.096566,98.19 C103.516563,97.6099971 103.226566,96.8800044 103.226566,96 L103.226566,69.24 C103.226566,68.3199954 103.516563,67.5800028 104.096566,67.02 C104.676569,66.4599972 105.406561,66.18 106.286566,66.18 C107.20657,66.18 107.946563,66.4599972 108.506566,67.02 C109.066569,67.5800028 109.346566,68.3199954 109.346566,69.24 L109.346566,69.9 C110.626572,68.6199936 112.146557,67.6300035 113.906566,66.93 C115.666575,66.2299965 117.546556,65.88 119.546566,65.88 C122.30658,65.88 124.786555,66.479994 126.986566,67.68 Z M173.771879,83.97 C173.251876,84.4700025 172.591883,84.72 171.791879,84.72 L148.991879,84.72 C149.431881,87.520014 150.701868,89.7799914 152.801879,91.5 C154.901889,93.2200086 157.471864,94.08 160.511879,94.08 C161.711885,94.08 162.961872,93.8600022 164.261879,93.42 C165.561885,92.9799978 166.631875,92.4400032 167.471879,91.8 C168.031882,91.3599978 168.691875,91.14 169.451879,91.14 C170.211883,91.14 170.811877,91.339998 171.251879,91.74 C171.971883,92.340003 172.331879,93.0199962 172.331879,93.78 C172.331879,94.5000036 172.011882,95.0999976 171.371879,95.58 C170.011872,96.6600054 168.321889,97.5399966 166.301879,98.22 C164.281869,98.9000034 162.351888,99.24 160.511879,99.24 C157.231863,99.24 154.291892,98.5300071 151.691879,97.11 C149.091866,95.6899929 147.061886,93.7200126 145.601879,91.2 C144.141872,88.6799874 143.411879,85.820016 143.411879,82.62 C143.411879,79.419984 144.101872,76.5500127 145.481879,74.01 C146.861886,71.4699873 148.781867,69.4900071 151.241879,68.07 C153.701891,66.6499929 156.491863,65.94 159.611879,65.94 C162.691894,65.94 165.351868,66.6199932 167.591879,67.98 C169.83189,69.3400068 171.551873,71.2399878 172.751879,73.68 C173.951885,76.1200122 174.551879,78.9199842 174.551879,82.08 C174.551879,82.8400038 174.291882,83.4699975 173.771879,83.97 Z M152.501879,73.5 C150.68187,75.100008 149.531881,77.2399866 149.051879,79.92 L169.031879,79.92 C168.671877,77.2399866 167.671887,75.100008 166.031879,73.5 C164.391871,71.899992 162.251892,71.1 159.611879,71.1 C156.691864,71.1 154.321888,71.899992 152.501879,73.5 Z M208.557192,67.59 C208.837193,68.0100021 208.977192,68.4799974 208.977192,69 C208.977192,69.3600018 208.877193,69.739998 208.677192,70.14 L195.957192,96.96 C195.357189,98.2800066 194.437198,98.94 193.197192,98.94 C192.517189,98.94 191.957194,98.7900015 191.517192,98.49 C191.07719,98.1899985 190.677194,97.6800036 190.317192,96.96 L177.597192,70.14 C177.437191,69.8199984 177.357192,69.460002 177.357192,69.06 C177.357192,67.9799946 177.917186,67.1600028 179.037192,66.6 C179.397194,66.399999 179.81719,66.3 180.297192,66.3 C180.777194,66.3 181.23719,66.4299987 181.677192,66.69 C182.117194,66.9500013 182.457191,67.3199976 182.697192,67.8 L193.137192,90.3 L203.457192,67.8 C203.697193,67.3199976 204.04719,66.9500013 204.507192,66.69 C204.967194,66.4299987 205.457189,66.3 205.977192,66.3 C206.497195,66.3 206.95719,66.399999 207.357192,66.6 C207.877195,66.8400012 208.277191,67.1699979 208.557192,67.59 Z M243.402505,83.97 C242.882503,84.4700025 242.222509,84.72 241.422505,84.72 L218.622505,84.72 C219.062507,87.520014 220.332495,89.7799914 222.432505,91.5 C224.532516,93.2200086 227.10249,94.08 230.142505,94.08 C231.342511,94.08 232.592499,93.8600022 233.892505,93.42 C235.192512,92.9799978 236.262501,92.4400032 237.102505,91.8 C237.662508,91.3599978 238.322501,91.14 239.082505,91.14 C239.842509,91.14 240.442503,91.339998 240.882505,91.74 C241.602509,92.340003 241.962505,93.0199962 241.962505,93.78 C241.962505,94.5000036 241.642508,95.0999976 241.002505,95.58 C239.642498,96.6600054 237.952515,97.5399966 235.932505,98.22 C233.912495,98.9000034 231.982514,99.24 230.142505,99.24 C226.862489,99.24 223.922518,98.5300071 221.322505,97.11 C218.722492,95.6899929 216.692513,93.7200126 215.232505,91.2 C213.772498,88.6799874 213.042505,85.820016 213.042505,82.62 C213.042505,79.419984 213.732498,76.5500127 215.112505,74.01 C216.492512,71.4699873 218.412493,69.4900071 220.872505,68.07 C223.332518,66.6499929 226.12249,65.94 229.242505,65.94 C232.322521,65.94 234.982494,66.6199932 237.222505,67.98 C239.462516,69.3400068 241.182499,71.2399878 242.382505,73.68 C243.582511,76.1200122 244.182505,78.9199842 244.182505,82.08 C244.182505,82.8400038 243.922508,83.4699975 243.402505,83.97 Z M222.132505,73.5 C220.312496,75.100008 219.162508,77.2399866 218.682505,79.92 L238.662505,79.92 C238.302503,77.2399866 237.302513,75.100008 235.662505,73.5 C234.022497,71.899992 231.882518,71.1 229.242505,71.1 C226.322491,71.1 223.952514,71.899992 222.132505,73.5 Z M273.987818,66.78 C275.187824,67.4200032 275.787818,68.2199952 275.787818,69.18 C275.787818,69.4600014 275.767819,69.6599994 275.727818,69.78 C275.367817,71.0600064 274.567825,71.7 273.327818,71.7 C273.127817,71.7 272.82782,71.6600004 272.427818,71.58 C270.82781,71.2999986 269.527823,71.16 268.527818,71.16 C265.647804,71.16 263.327827,71.8199934 261.567818,73.14 C259.80781,74.4600066 258.927818,76.2399888 258.927818,78.48 L258.927818,96 C258.927818,96.9600048 258.677821,97.6999974 258.177818,98.22 C257.677816,98.7400026 256.927823,99 255.927818,99 C254.967814,99 254.227821,98.7500025 253.707818,98.25 C253.187816,97.7499975 252.927818,97.000005 252.927818,96 L252.927818,69.18 C252.927818,68.2199952 253.187816,67.4800026 253.707818,66.96 C254.227821,66.4399974 254.967814,66.18 255.927818,66.18 C257.927828,66.18 258.927818,67.17999 258.927818,69.18 L258.927818,70.32 C260.127824,68.919993 261.60781,67.820004 263.367818,67.02 C265.127827,66.219996 267.007808,65.82 269.007818,65.82 C271.127829,65.82 272.787812,66.1399968 273.987818,66.78 Z M40.93,145.1 C43.2700117,146.540007 45.1099933,148.529987 46.45,151.07 C47.7900067,153.610013 48.46,156.439984 48.46,159.56 C48.46,162.680016 47.7400072,165.509987 46.3,168.05 C44.8599928,170.590013 42.8700127,172.589993 40.33,174.05 C37.7899873,175.510007 34.9800154,176.24 31.9,176.24 C28.8199846,176.24 26.0300125,175.510007 23.53,174.05 C21.0299875,172.589993 19.0500073,170.590013 17.59,168.05 C16.1299927,165.509987 15.4,162.680016 15.4,159.56 L15.4,132.2 C15.4,131.279995 15.6899971,130.540003 16.27,129.98 C16.8500029,129.419997 17.5799956,129.14 18.46,129.14 C19.3800046,129.14 20.1199972,129.419997 20.68,129.98 C21.2400028,130.540003 21.52,131.279995 21.52,132.2 L21.52,148.4 C22.920007,146.679991 24.61999,145.340005 26.62,144.38 C28.62001,143.419995 30.7799884,142.94 33.1,142.94 C35.9800144,142.94 38.5899883,143.659993 40.93,145.1 Z M37.33,169.37 C38.9500081,168.389995 40.2299953,167.040009 41.17,165.32 C42.1100047,163.599991 42.58,161.680011 42.58,159.56 C42.58,157.439989 42.1100047,155.530009 41.17,153.83 C40.2299953,152.129991 38.9500081,150.790005 37.33,149.81 C35.7099919,148.829995 33.90001,148.34 31.9,148.34 C29.89999,148.34 28.0900081,148.829995 26.47,149.81 C24.8499919,150.790005 23.5800046,152.129991 22.66,153.83 C21.7399954,155.530009 21.28,157.439989 21.28,159.56 C21.28,161.680011 21.7399954,163.599991 22.66,165.32 C23.5800046,167.040009 24.8499919,168.389995 26.47,169.37 C28.0900081,170.350005 29.89999,170.84 31.9,170.84 C33.90001,170.84 35.7099919,170.350005 37.33,169.37 Z M61.6753132,174.59 C60.2953063,173.649995 59.225317,172.330009 58.4653132,170.63 C57.7053094,168.929991 57.3253132,167.020011 57.3253132,164.9 L57.3253132,132.14 C57.3253132,131.259996 57.6053104,130.540003 58.1653132,129.98 C58.725316,129.419997 59.4453088,129.14 60.3253132,129.14 C61.2053176,129.14 61.9253104,129.419997 62.4853132,129.98 C63.045316,130.540003 63.3253132,131.259996 63.3253132,132.14 L63.3253132,164.9 C63.3253132,166.380007 63.6053104,167.599995 64.1653132,168.56 C64.725316,169.520005 65.4453088,170 66.3253132,170 L67.8253132,170 C68.6253172,170 69.2753107,170.279997 69.7753132,170.84 C70.2753157,171.400003 70.5253132,172.119996 70.5253132,173 C70.5253132,173.880004 70.145317,174.599997 69.3853132,175.16 C68.6253094,175.720003 67.6453192,176 66.4453132,176 L66.3253132,176 C64.6053046,176 63.0553201,175.530005 61.6753132,174.59 Z M98.9206263,145.13 C101.420639,146.590007 103.400619,148.589987 104.860626,151.13 C106.320634,153.670013 107.050626,156.499984 107.050626,159.62 L107.050626,173 C107.050626,173.880004 106.760629,174.609997 106.180626,175.19 C105.600623,175.770003 104.870631,176.06 103.990626,176.06 C103.110622,176.06 102.380629,175.770003 101.800626,175.19 C101.220623,174.609997 100.930626,173.880004 100.930626,173 L100.930626,170.78 C99.5306193,172.500009 97.8306363,173.839995 95.8306263,174.8 C93.8306163,175.760005 91.6706379,176.24 89.3506263,176.24 C86.4706119,176.24 83.860638,175.520007 81.5206263,174.08 C79.1806146,172.639993 77.340633,170.650013 76.0006263,168.11 C74.6606196,165.569987 73.9906263,162.740016 73.9906263,159.62 C73.9906263,156.499984 74.7106191,153.670013 76.1506263,151.13 C77.5906335,148.589987 79.5806136,146.590007 82.1206263,145.13 C84.660639,143.669993 87.4706109,142.94 90.5506263,142.94 C93.6306417,142.94 96.4206138,143.669993 98.9206263,145.13 Z M95.9806263,169.37 C97.6006344,168.389995 98.8706217,167.050008 99.7906263,165.35 C100.710631,163.649991 101.170626,161.740011 101.170626,159.62 C101.170626,157.499989 100.710631,155.580009 99.7906263,153.86 C98.8706217,152.139991 97.6006344,150.790005 95.9806263,149.81 C94.3606182,148.829995 92.5506363,148.34 90.5506263,148.34 C88.5506163,148.34 86.7406344,148.829995 85.1206263,149.81 C83.5006182,150.790005 82.220631,152.139991 81.2806263,153.86 C80.3406216,155.580009 79.8706263,157.499989 79.8706263,159.62 C79.8706263,161.740011 80.3406216,163.649991 81.2806263,165.35 C82.220631,167.050008 83.5006182,168.389995 85.1206263,169.37 C86.7406344,170.350005 88.5506163,170.84 90.5506263,170.84 C92.5506363,170.84 94.3606182,170.350005 95.9806263,169.37 Z M160.045939,146.3 C162.18595,148.580011 163.255939,151.75998 163.255939,155.84 L163.255939,173 C163.255939,173.880004 162.975942,174.609997 162.415939,175.19 C161.855937,175.770003 161.115944,176.06 160.195939,176.06 C159.315935,176.06 158.585942,175.770003 158.005939,175.19 C157.425937,174.609997 157.135939,173.880004 157.135939,173 L157.135939,155.84 C157.135939,153.399988 156.525946,151.550006 155.305939,150.29 C154.085933,149.029994 152.45595,148.4 150.415939,148.4 C148.335929,148.4 146.625946,149.119993 145.285939,150.56 C143.945933,152.000007 143.275939,153.839989 143.275939,156.08 L143.275939,173 C143.275939,173.880004 142.995942,174.609997 142.435939,175.19 C141.875937,175.770003 141.135944,176.06 140.215939,176.06 C139.335935,176.06 138.605942,175.770003 138.025939,175.19 C137.445937,174.609997 137.155939,173.880004 137.155939,173 L137.155939,155.84 C137.155939,153.399988 136.545946,151.550006 135.325939,150.29 C134.105933,149.029994 132.47595,148.4 130.435939,148.4 C128.315929,148.4 126.585946,149.119993 125.245939,150.56 C123.905933,152.000007 123.235939,153.839989 123.235939,156.08 L123.235939,173 C123.235939,173.880004 122.955942,174.609997 122.395939,175.19 C121.835937,175.770003 121.095944,176.06 120.175939,176.06 C119.295935,176.06 118.565942,175.770003 117.985939,175.19 C117.405937,174.609997 117.115939,173.880004 117.115939,173 L117.115939,146.3 C117.115939,145.379995 117.405937,144.640003 117.985939,144.08 C118.565942,143.519997 119.295935,143.24 120.175939,143.24 C121.055944,143.24 121.775937,143.509997 122.335939,144.05 C122.895942,144.590003 123.195939,145.299996 123.235939,146.18 C124.275945,145.139995 125.515932,144.330003 126.955939,143.75 C128.395947,143.169997 129.955931,142.88 131.635939,142.88 C133.67595,142.88 135.505931,143.289996 137.125939,144.11 C138.745948,144.930004 140.075934,146.099992 141.115939,147.62 C142.315945,146.139993 143.81593,144.980004 145.615939,144.14 C147.415948,143.299996 149.415928,142.88 151.615939,142.88 C155.095957,142.88 157.905929,144.019989 160.045939,146.3 Z M203.021253,160.97 C202.50125,161.470002 201.841257,161.72 201.041253,161.72 L178.241253,161.72 C178.681255,164.520014 179.951242,166.779991 182.051253,168.5 C184.151263,170.220009 186.721237,171.08 189.761253,171.08 C190.961259,171.08 192.211246,170.860002 193.511253,170.42 C194.811259,169.979998 195.881248,169.440003 196.721253,168.8 C197.281255,168.359998 197.941249,168.14 198.701253,168.14 C199.461256,168.14 200.06125,168.339998 200.501253,168.74 C201.221256,169.340003 201.581253,170.019996 201.581253,170.78 C201.581253,171.500004 201.261256,172.099998 200.621253,172.58 C199.261246,173.660005 197.571263,174.539997 195.551253,175.22 C193.531243,175.900003 191.601262,176.24 189.761253,176.24 C186.481236,176.24 183.541266,175.530007 180.941253,174.11 C178.34124,172.689993 176.31126,170.720013 174.851253,168.2 C173.391245,165.679987 172.661253,162.820016 172.661253,159.62 C172.661253,156.419984 173.351246,153.550013 174.731253,151.01 C176.11126,148.469987 178.03124,146.490007 180.491253,145.07 C182.951265,143.649993 185.741237,142.94 188.861253,142.94 C191.941268,142.94 194.601241,143.619993 196.841253,144.98 C199.081264,146.340007 200.801247,148.239988 202.001253,150.68 C203.201259,153.120012 203.801253,155.919984 203.801253,159.08 C203.801253,159.840004 203.541255,160.469998 203.021253,160.97 Z M181.751253,150.5 C179.931244,152.100008 178.781255,154.239987 178.301253,156.92 L198.281253,156.92 C197.921251,154.239987 196.921261,152.100008 195.281253,150.5 C193.641244,148.899992 191.501266,148.1 188.861253,148.1 C185.941238,148.1 183.571262,148.899992 181.751253,150.5 Z M58.33,223.3 C60.4700107,225.580011 61.54,228.75998 61.54,232.84 L61.54,250 C61.54,250.880004 61.2600028,251.609997 60.7,252.19 C60.1399972,252.770003 59.4000046,253.06 58.48,253.06 C57.5999956,253.06 56.8700029,252.770003 56.29,252.19 C55.7099971,251.609997 55.42,250.880004 55.42,250 L55.42,232.84 C55.42,230.399988 54.8100061,228.550006 53.59,227.29 C52.3699939,226.029994 50.7400102,225.4 48.7,225.4 C46.6199896,225.4 44.9100067,226.119993 43.57,227.56 C42.2299933,229.000007 41.56,230.839989 41.56,233.08 L41.56,250 C41.56,250.880004 41.2800028,251.609997 40.72,252.19 C40.1599972,252.770003 39.4200046,253.06 38.5,253.06 C37.6199956,253.06 36.8900029,252.770003 36.31,252.19 C35.7299971,251.609997 35.44,250.880004 35.44,250 L35.44,232.84 C35.44,230.399988 34.8300061,228.550006 33.61,227.29 C32.3899939,226.029994 30.7600102,225.4 28.72,225.4 C26.5999894,225.4 24.8700067,226.119993 23.53,227.56 C22.1899933,229.000007 21.52,230.839989 21.52,233.08 L21.52,250 C21.52,250.880004 21.2400028,251.609997 20.68,252.19 C20.1199972,252.770003 19.3800046,253.06 18.46,253.06 C17.5799956,253.06 16.8500029,252.770003 16.27,252.19 C15.6899971,251.609997 15.4,250.880004 15.4,250 L15.4,223.3 C15.4,222.379995 15.6899971,221.640003 16.27,221.08 C16.8500029,220.519997 17.5799956,220.24 18.46,220.24 C19.3400044,220.24 20.0599972,220.509997 20.62,221.05 C21.1800028,221.590003 21.4799998,222.299996 21.52,223.18 C22.5600052,222.139995 23.7999928,221.330003 25.24,220.75 C26.6800072,220.169997 28.2399916,219.88 29.92,219.88 C31.9600102,219.88 33.7899919,220.289996 35.41,221.11 C37.0300081,221.930004 38.3599948,223.099992 39.4,224.62 C40.600006,223.139993 42.099991,221.980004 43.9,221.14 C45.700009,220.299996 47.699989,219.88 49.9,219.88 C53.3800174,219.88 56.1899893,221.019989 58.33,223.3 Z M99.5653132,222.82 C99.5653132,223.220002 99.4453144,223.699997 99.2053132,224.26 L80.8453132,265.54 C80.3653108,266.780006 79.5853186,267.4 78.5053132,267.4 C78.1053112,267.4 77.625316,267.280001 77.0653132,267.04 C75.8653072,266.519997 75.2653132,265.740005 75.2653132,264.7 C75.2653132,264.219998 75.385312,263.740002 75.6253132,263.26 L81.6253132,249.76 L68.1253132,224.14 C67.9253122,223.779998 67.8253132,223.360002 67.8253132,222.88 C67.8253132,222.359997 67.9853116,221.880002 68.3053132,221.44 C68.6253148,220.999998 69.0453106,220.660001 69.5653132,220.42 C69.925315,220.259999 70.325311,220.18 70.7653132,220.18 C71.8853188,220.18 72.7253104,220.739994 73.2853132,221.86 L84.2653132,243.7 L93.9253132,221.92 C94.4453158,220.759994 95.225308,220.18 96.2653132,220.18 C96.7853158,220.18 97.265311,220.279999 97.7053132,220.48 C98.9453194,220.960002 99.5653132,221.739995 99.5653132,222.82 Z M140.245939,247.84 C140.745942,248.400003 140.995939,249.119996 140.995939,250 C140.995939,250.880004 140.665943,251.599997 140.005939,252.16 C139.345936,252.720003 138.495945,253 137.455939,253 L136.375939,253 C134.41593,253 132.625948,252.490005 131.005939,251.47 C129.385931,250.449995 128.115944,249.060009 127.195939,247.3 C126.275935,245.539991 125.815939,243.560011 125.815939,241.36 L125.815939,226.54 L123.055939,226.54 C122.215935,226.54 121.535942,226.300002 121.015939,225.82 C120.495937,225.339998 120.235939,224.740004 120.235939,224.02 C120.235939,223.219996 120.495937,222.580002 121.015939,222.1 C121.535942,221.619998 122.215935,221.38 123.055939,221.38 L125.815939,221.38 L125.815939,212.74 C125.815939,211.859996 126.095937,211.140003 126.655939,210.58 C127.215942,210.019997 127.935935,209.74 128.815939,209.74 C129.695944,209.74 130.415937,210.019997 130.975939,210.58 C131.535942,211.140003 131.815939,211.859996 131.815939,212.74 L131.815939,221.38 L136.915939,221.38 C137.755944,221.38 138.435937,221.619998 138.955939,222.1 C139.475942,222.580002 139.735939,223.219996 139.735939,224.02 C139.735939,224.740004 139.475942,225.339998 138.955939,225.82 C138.435937,226.300002 137.755944,226.54 136.915939,226.54 L131.815939,226.54 L131.815939,241.36 C131.815939,242.960008 132.255935,244.299995 133.135939,245.38 C134.015944,246.460005 135.095933,247 136.375939,247 L138.415939,247 C139.135943,247 139.745937,247.279997 140.245939,247.84 Z M155.741253,251.11 C153.22124,249.689993 151.26126,247.720013 149.861253,245.2 C148.461246,242.679987 147.761253,239.820016 147.761253,236.62 C147.761253,233.379984 148.461246,230.500013 149.861253,227.98 C151.26126,225.459987 153.22124,223.490007 155.741253,222.07 C158.261265,220.649993 161.121237,219.94 164.321253,219.94 C167.481268,219.94 170.31124,220.649993 172.811253,222.07 C175.311265,223.490007 177.271246,225.459987 178.691253,227.98 C180.11126,230.500013 180.821253,233.379984 180.821253,236.62 C180.821253,239.820016 180.12126,242.679987 178.721253,245.2 C177.321246,247.720013 175.371265,249.689993 172.871253,251.11 C170.37124,252.530007 167.521269,253.24 164.321253,253.24 C161.121237,253.24 158.261265,252.530007 155.741253,251.11 Z M169.811253,246.4 C171.431261,245.439995 172.691248,244.110008 173.591253,242.41 C174.491257,240.709992 174.941253,238.780011 174.941253,236.62 C174.941253,234.459989 174.491257,232.520009 173.591253,230.8 C172.691248,229.079991 171.431261,227.740005 169.811253,226.78 C168.191245,225.819995 166.361263,225.34 164.321253,225.34 C162.281242,225.34 160.451261,225.819995 158.831253,226.78 C157.211245,227.740005 155.941257,229.079991 155.021253,230.8 C154.101248,232.520009 153.641253,234.459989 153.641253,236.62 C153.641253,238.780011 154.101248,240.709992 155.021253,242.41 C155.941257,244.110008 157.211245,245.439995 158.831253,246.4 C160.451261,247.360005 162.281242,247.84 164.321253,247.84 C166.361263,247.84 168.191245,247.360005 169.811253,246.4 Z M197.186566,251.11 C194.666553,249.689993 192.706573,247.720013 191.306566,245.2 C189.906559,242.679987 189.206566,239.820016 189.206566,236.62 C189.206566,233.379984 189.906559,230.500013 191.306566,227.98 C192.706573,225.459987 194.666553,223.490007 197.186566,222.07 C199.706578,220.649993 202.56655,219.94 205.766566,219.94 C208.926582,219.94 211.756553,220.649993 214.256566,222.07 C216.756578,223.490007 218.716559,225.459987 220.136566,227.98 C221.556573,230.500013 222.266566,233.379984 222.266566,236.62 C222.266566,239.820016 221.566573,242.679987 220.166566,245.2 C218.766559,247.720013 216.816578,249.689993 214.316566,251.11 C211.816553,252.530007 208.966582,253.24 205.766566,253.24 C202.56655,253.24 199.706578,252.530007 197.186566,251.11 Z M211.256566,246.4 C212.876574,245.439995 214.136561,244.110008 215.036566,242.41 C215.93657,240.709992 216.386566,238.780011 216.386566,236.62 C216.386566,234.459989 215.93657,232.520009 215.036566,230.8 C214.136561,229.079991 212.876574,227.740005 211.256566,226.78 C209.636558,225.819995 207.806576,225.34 205.766566,225.34 C203.726556,225.34 201.896574,225.819995 200.276566,226.78 C198.656558,227.740005 197.38657,229.079991 196.466566,230.8 C195.546561,232.520009 195.086566,234.459989 195.086566,236.62 C195.086566,238.780011 195.546561,240.709992 196.466566,242.41 C197.38657,244.110008 198.656558,245.439995 200.276566,246.4 C201.896574,247.360005 203.726556,247.84 205.766566,247.84 C207.806576,247.84 209.636558,247.360005 211.256566,246.4 Z M235.481879,251.59 C234.101872,250.649995 233.031883,249.330008 232.271879,247.63 C231.511875,245.929991 231.131879,244.020011 231.131879,241.9 L231.131879,209.14 C231.131879,208.259996 231.411876,207.540003 231.971879,206.98 C232.531882,206.419997 233.251875,206.14 234.131879,206.14 C235.011883,206.14 235.731876,206.419997 236.291879,206.98 C236.851882,207.540003 237.131879,208.259996 237.131879,209.14 L237.131879,241.9 C237.131879,243.380007 237.411876,244.599995 237.971879,245.56 C238.531882,246.520005 239.251875,247 240.131879,247 L241.631879,247 C242.431883,247 243.081876,247.279997 243.581879,247.84 C244.081881,248.400003 244.331879,249.119996 244.331879,250 C244.331879,250.880004 243.951883,251.599997 243.191879,252.16 C242.431875,252.720003 241.451885,253 240.251879,253 L240.131879,253 C238.41187,253 236.861886,252.530005 235.481879,251.59 Z M255.537192,251.98 C253.13718,251.139996 251.257199,250.040007 249.897192,248.68 C249.377189,248.159997 249.117192,247.540004 249.117192,246.82 C249.117192,245.859995 249.517188,245.080003 250.317192,244.48 C251.077196,243.919997 251.777189,243.64 252.417192,243.64 C253.217196,243.64 253.977188,243.999996 254.697192,244.72 C255.457196,245.560004 256.597184,246.289997 258.117192,246.91 C259.6372,247.530003 261.257183,247.84 262.977192,247.84 C265.257203,247.84 267.027186,247.460004 268.287192,246.7 C269.547198,245.939996 270.177192,244.920006 270.177192,243.64 C270.177192,242.399994 269.557198,241.370004 268.317192,240.55 C267.077186,239.729996 264.977207,239.040003 262.017192,238.48 C254.337154,236.999993 250.497192,233.840024 250.497192,229 C250.497192,227.03999 251.077186,225.380007 252.237192,224.02 C253.397198,222.659993 254.917183,221.640003 256.797192,220.96 C258.677201,220.279997 260.677181,219.94 262.797192,219.94 C265.397205,219.94 267.727182,220.359996 269.787192,221.2 C271.847202,222.040004 273.477186,223.199993 274.677192,224.68 C275.197195,225.320003 275.457192,225.959997 275.457192,226.6 C275.457192,227.280003 275.117195,227.899997 274.437192,228.46 C273.99719,228.780002 273.437195,228.94 272.757192,228.94 C271.717187,228.94 270.777196,228.560004 269.937192,227.8 C268.937187,226.879995 267.877198,226.230002 266.757192,225.85 C265.637186,225.469998 264.2772,225.28 262.677192,225.28 C260.837183,225.28 259.327198,225.589997 258.147192,226.21 C256.967186,226.830003 256.377192,227.699994 256.377192,228.82 C256.377192,229.620004 256.57719,230.289997 256.977192,230.83 C257.377194,231.370003 258.137186,231.869998 259.257192,232.33 C260.377198,232.790002 261.997181,233.239998 264.117192,233.68 C268.477214,234.560004 271.567183,235.779992 273.387192,237.34 C275.207201,238.900008 276.117192,240.919988 276.117192,243.4 C276.117192,245.240009 275.617197,246.909992 274.617192,248.41 C273.617187,249.910008 272.147202,251.089996 270.207192,251.95 C268.267182,252.810004 265.937206,253.24 263.217192,253.24 C260.497178,253.24 257.937204,252.820004 255.537192,251.98 Z M283.632505,252.73 C282.812501,251.909996 282.402505,250.940006 282.402505,249.82 C282.402505,248.659994 282.812501,247.670004 283.632505,246.85 C284.452509,246.029996 285.4225,245.62 286.542505,245.62 C287.662511,245.62 288.632501,246.029996 289.452505,246.85 C290.272509,247.670004 290.682505,248.659994 290.682505,249.82 C290.682505,250.940006 290.282509,251.909996 289.482505,252.73 C288.682501,253.550004 287.702511,253.96 286.542505,253.96 C285.4225,253.96 284.452509,253.550004 283.632505,252.73 Z" id="I’ll-never-blame-my" fill="url(#radialGradient-4)"></path>
                </g>
            </g>
        </g>
    </g>
</svg>