<?xml version="1.0" encoding="UTF-8"?>
<svg width="105px" height="76px" viewBox="0 0 105 76" version="1.1" xmlns="http://www.w3.org/2000/svg" xmlns:xlink="http://www.w3.org/1999/xlink">
    <!-- Generator: Sketch 44.1 (41455) - http://www.bohemiancoding.com/sketch -->
    <title>ufo</title>
    <desc>Created with Sketch.</desc>
    <defs>
        <radialGradient cx="48.350811%" cy="50%" fx="48.350811%" fy="50%" r="200.304341%" gradientTransform="translate(0.483508,0.500000),scale(0.164843,1.000000),rotate(61.329547),translate(-0.483508,-0.500000)" id="radialGradient-1">
            <stop stop-color="#75DBCD" offset="0%"></stop>
            <stop stop-color="#C04CFD" offset="100%"></stop>
        </radialGradient>
        <radialGradient cx="81.6054702%" cy="70.26875%" fx="81.6054702%" fy="70.26875%" r="64.0290742%" gradientTransform="translate(0.816055,0.702688),scale(0.218283,1.000000),rotate(13.932382),translate(-0.816055,-0.702688)" id="radialGradient-2">
            <stop stop-color="#75DBCD" offset="0%"></stop>
            <stop stop-color="#C04CFD" offset="100%"></stop>
        </radialGradient>
        <radialGradient cx="50%" cy="100%" fx="50%" fy="100%" r="100%" gradientTransform="translate(0.500000,1.000000),scale(1.000000,0.985975),rotate(90.000000),translate(-0.500000,-1.000000)" id="radialGradient-3">
            <stop stop-color="#303030" offset="0%"></stop>
            <stop stop-color="#000000" offset="100%"></stop>
        </radialGradient>
    </defs>
    <g id="Page-1" stroke="none" stroke-width="1" fill="none" fill-rule="evenodd">
        <g id="Home" transform="translate(-125.000000, -31.000000)">
            <g id="ufo" transform="translate(125.000000, 31.000000)">
                <polygon id="Path-4" fill="url(#radialGradient-1)" points="51.8507314 61.9576358 16.1933178 61.8127325 20.6387134 69.2699498 29.2877743 73.7080543 75.3971908 73.898019 89.5074385 63.8996931"></polygon>
                <polygon id="Path-3" fill="url(#radialGradient-2)" points="52.8630319 41.8505394 25.4872839 41.35133 15.0099734 48.8483073 5.18018617 60.3186384 41.5645362 62.0769159 102.431724 61.1209077 89.6461935 47.5724516 81.7415226 40.8485863"></polygon>
                <polygon id="Path-2" fill-opacity="0.530768795" fill="#FFFFFF" points="53.196393 2.88039435 30.1883727 10.2907831 22.130984 27.2100074 22.7985788 40.5605469 48.138381 41.406994 83.9266955 40.944894 84.3106715 23.4416388 72.4719914 7.52260045"></polygon>
                <ellipse id="Oval" fill="url(#radialGradient-3)" fill-rule="nonzero" cx="28.4451472" cy="51.5550966" rx="3.64611779" ry="3.69798295"></ellipse>
                <ellipse id="Oval" fill="url(#radialGradient-3)" fill-rule="nonzero" cx="52.5909516" cy="51.5550966" rx="3.64611779" ry="3.69798295"></ellipse>
                <ellipse id="Oval" fill="url(#radialGradient-3)" fill-rule="nonzero" cx="76.736756" cy="51.5550966" rx="3.64611779" ry="3.69798295"></ellipse>
                <path d="M57.7027545,10.5102386 C56.2044986,10.5102386 54.9885229,11.7416761 54.9885229,13.2630795 C54.9885229,14.784483 56.2044986,16.0159205 57.7027545,16.0159205 C60.212514,16.0159205 64.3254796,17.5116307 67.4341795,20.7948523 C69.2780475,22.7420284 71.4331474,26.0601193 71.2413417,30.8151932 C71.1798191,32.3347614 72.3433198,33.61575 73.8433851,33.6781477 C73.8795749,33.6818182 73.9175741,33.6818182 73.9555733,33.6818182 C75.4031635,33.6818182 76.6064729,32.5219545 76.6643765,31.0409261 C76.877896,25.742625 75.041266,20.881108 71.3481015,16.9830852 C67.6277947,13.0501932 62.271711,10.5102386 57.7027545,10.5102386 Z" id="Shape" fill-opacity="0.754500679" fill="#FFFFFF" fill-rule="nonzero"></path>
                <path d="M103.78136,58.349108 C103.78136,58.349108 86.3704687,40.8759091 86.1605681,40.7125739 L86.1605681,27.865983 C86.1605681,12.6886534 71.1020112,0.341244318 52.5927611,0.341244318 C34.083511,0.341244318 19.0267636,12.6886534 19.0267636,27.865983 L19.0267636,40.7107386 C18.8150535,40.8740739 1.40597197,58.349108 1.40597197,58.349108 C0.267804185,59.496125 -0.0959028501,60.9588011 0.434277057,62.2636477 C0.964456964,63.5684943 2.24014582,64.3484659 3.84335196,64.3484659 L11.5553887,64.3484659 C11.7110046,64.559517 21.4985238,73.9595511 21.4985238,73.9595511 C22.7362134,75.1396023 24.786363,75.9636193 26.485472,75.9636193 L74.6775589,75.9636193 C76.2228615,75.9636193 78.2639636,75.3084432 79.5306051,74.4036761 C79.5306051,74.4036761 93.2085229,64.5723636 93.412995,64.3484659 L101.34398,64.3484659 C102.948995,64.3484659 104.222875,63.5684943 104.753055,62.2636477 C105.283235,60.9588011 104.917718,59.496125 103.78136,58.349108 Z M76.4020008,69.9018636 C76.0455317,70.1569602 75.111836,70.4579375 74.6775589,70.4579375 L26.4836625,70.4579375 C26.1760496,70.4561023 25.4413976,70.1606307 25.2152116,69.9495795 L19.4538027,64.4585795 L84.0199441,64.4585795 L76.4020008,69.9018636 Z M24.4534173,27.8678182 C24.4534173,15.7259545 37.0764037,5.84876136 52.5909516,5.84876136 C68.1054995,5.84876136 80.7302954,15.7259545 80.7302954,27.8678182 L80.7302954,39.1140909 L24.4534173,39.1140909 L24.4534173,27.8678182 Z M8.61497112,58.8427841 L22.2331758,45.1152841 C22.4466954,44.9079034 23.1198248,44.6252784 23.4129618,44.6197727 L81.7689414,44.6197727 C82.0638879,44.6252784 82.7370173,44.9079034 82.9487274,45.1134489 L96.5669321,58.8409489 L8.61497112,58.8409489 L8.61497112,58.8427841 Z" id="Shape" fill="#2E0444" fill-rule="nonzero"></path>
            </g>
        </g>
    </g>
</svg>