<?xml version="1.0" encoding="UTF-8"?>
<svg width="105px" height="63px" viewBox="0 0 105 63" version="1.1" xmlns="http://www.w3.org/2000/svg" xmlns:xlink="http://www.w3.org/1999/xlink">
    <!-- Generator: Sketch 44.1 (41455) - http://www.bohemiancoding.com/sketch -->
    <title>cow</title>
    <desc>Created with Sketch.</desc>
    <defs></defs>
    <g id="Page-1" stroke="none" stroke-width="1" fill="none" fill-rule="evenodd">
        <g id="contact" transform="translate(-662.000000, -580.000000)">
            <g id="cow" transform="translate(663.000000, 580.000000)">
                <g id="body" transform="translate(25.122699, 10.285714)">
                    <rect id="body-base" fill="#FFFFFF" x="0" y="0" width="68.9263804" height="34.7142857" rx="8"></rect>
                    <path d="M31.9144033,0 L50.4754421,0 C48.3524307,4.65115217 58.076518,6.03486592 54.6669366,9.89632673 C51.1360727,13.8951439 58.968213,19.6994819 53.0398857,23.6029772 C49.0876675,26.2053074 45.0589729,25.2831277 40.9538017,20.8364382 C39.7696842,19.6523207 38.3422089,18.6208173 36.6713757,17.7419279 C34.165126,16.4235939 40.6605765,15.672581 46.0733963,12.1644911 C51.4862161,8.65640127 40.6556163,6.90119345 33.5967853,2.07347773 C32.5999772,1.39173503 32.0733492,0.697667922 31.9144033,3.3696379e-12 Z" id="Combined-Shape" fill="#000000"></path>
                    <path d="M66.4219346,2.1862922 C67.9641474,3.64461776 68.9263804,5.7099381 68.9263804,8 L68.9263804,11.8869874 C67.8248662,11.5839652 66.6399388,11.0945115 64.7424092,11.2785674 C61.1820059,11.6239182 59.6443935,12.1838409 57.8257405,13.0131517 C56.6133052,13.5660256 55.804316,12.5992287 55.398773,10.1127611 C56.9018405,5.95051218 58.6169059,4.41012434 60.5439693,5.49159756 C63.1466318,6.95221888 65.4279997,4.85374779 66.4219346,2.1862922 Z" id="Combined-Shape" fill="#000000"></path>
                    <path d="M12.4247945,0 L31.0804958,0 C31.0125673,0.091708269 30.9393878,0.184913502 30.860781,0.279639393 C26.6805843,5.31702779 26.8894369,4.1139214 28.5363526,9.39326942 C30.1832683,14.6726174 20.6590879,15.593953 18.4573289,12.1568018 C16.2555699,8.71965055 19.5658504,7.6298068 18.3069802,5.13622421 C17.1406492,2.825944 13.3744391,4.65753604 12.4248004,1.38517608e-06 Z" id="Combined-Shape" fill="#000000"></path>
                    <path d="M20.2600081,34.7142857 L12.1304568,34.7142857 C11.0394997,33.5944392 10.166663,32.2048341 9.79678319,30.6638547 C8.55764545,25.5014053 1.70737207,30.1558289 0.0291923968,27.4025363 C0.00986302737,27.1756875 2.83937708e-17,26.9461384 0,26.7142857 L0,8.64092748 C0.52071722,8.62089894 1.06367933,8.62217044 1.62888634,8.64474197 C3.30348133,8.64474197 5.04224188,8.36474755 6.84516797,7.80475871 C9.54955711,6.96477545 5.48762627,12.0887989 4.14077883,18.3968346 C2.79393139,24.7048703 11.6934413,18.2875991 20.0984991,16.7099624 C28.1438209,15.1998484 21.3139867,29.3656991 20.2600081,34.7142857 Z" id="Combined-Shape" fill="#000000"></path>
                    <path d="M66.4845348,19.4519932 C63.0056823,17.2806763 61.4329973,19.4794067 61.7664797,26.0481846 C62.2667034,35.9013515 59.5187983,17.1103358 56.7376622,21.0453247 C53.956526,24.9803135 52.8311126,34.1517002 56.1406709,34.0864101 C59.4502293,34.0211199 62.6094389,35.1862985 66.4845348,29.6724173 C69.067932,25.9964966 69.067932,22.5896885 66.4845348,19.4519932 Z" id="Path-9-Copy" fill="#000000"></path>
                    <path d="M37.8478357,22.7791805 C36.8828841,21.5005869 36.1386416,25.0721841 32.2025256,24.3078495 C28.2664095,23.543515 28.1135446,26.9269902 28.4708586,27.7230281 C28.8281726,28.5190661 35.1088475,34.3920432 36.8916432,30.5210889 C38.6744389,26.6501347 39.2274429,24.6072066 37.8478357,22.7791805 Z" id="Path-12" fill="#000000"></path>
                </g>
                <g id="head-facing" transform="translate(0.000000, 1.928571)">
                    <path d="M10.2710421,0.45765904 C10.6211186,4.74337333 12.5459977,6.88623047 16.0456794,6.88623047 C19.545361,6.88623047 21.4855126,4.74337333 21.8661342,0.45765904" id="horns" stroke="#000000" stroke-width="3" stroke-linecap="round"></path>
                    <path d="M8.49326992,3.85714286 L23.9533926,3.85714286 C26.7995226,3.85714286 28.858099,6.15967843 28.5513517,9 L26.6073987,27 C26.3006513,29.8403216 24.2918085,32.1428571 22.1205226,32.1428571 L10.3261399,32.1428571 C8.15485404,32.1428571 6.14601121,29.8403216 5.83926389,27 L3.89531084,9 C3.58856352,6.15967843 5.64713992,3.85714286 8.49326992,3.85714286 Z" id="head" fill="#FFFFFF"></path>
                    <path d="M4.65024416,15.9902921 L3.89531084,9 C3.87393245,8.80204709 3.86404297,8.60670634 3.86510832,8.41457514 C5.15408893,7.66696944 5.67486217,6.54425131 6.2834185,7.35060902 C7.66302569,9.1786352 7.11002174,11.2215633 5.32722601,15.0925175 C5.1448955,15.4884087 4.91551891,15.7823821 4.65024416,15.9902921 Z" id="Combined-Shape" fill="#000000"></path>
                    <path d="M28.1857012,6.37126315 C28.6871063,7.20849365 28.924411,8.22995408 28.8053454,9.33243976 L28.2772514,14.2223172 C26.1942254,15.3616441 24.3354509,17.6488567 22.700928,21.0839551 C17.9069725,24.0817276 15.3101809,24.1269165 14.9105534,21.219522 C14.5109259,18.3121275 15.424316,16.9038265 17.6507237,16.9946189 C19.4528959,15.9339753 20.4256462,13.3490648 20.5689745,9.23988739 C20.7208612,4.88534424 25.4326981,5.58522303 28.1857012,6.37126315 Z" id="Combined-Shape" fill="#000000"></path>
                    <path d="M7.08588957,15.7663421 C7.25161825,17.0268778 8.33220746,18 9.64054632,18 C11.0636113,18 12.2172334,16.8487322 12.2172334,15.4285714 C12.2172334,14.0084106 11.0636113,12.8571429 9.64054632,12.8571429 C9.32256094,12.8571429 9.01802894,12.9146261 8.73681511,13.0197479 C9.27198077,13.2809843 9.64054632,13.8296813 9.64054632,14.4642857 C9.64054632,15.3518862 8.9195325,16.0714286 8.03011687,16.0714286 C7.67740207,16.0714286 7.35117134,15.9582682 7.08588957,15.7663421 Z" id="eye" fill="#000000"></path>
                    <g id="eye" transform="translate(17.392638, 12.214286)">
                        <ellipse id="Oval" fill="#FFFFFF" cx="3.2208589" cy="3.21428571" rx="3.2208589" ry="3.21428571"></ellipse>
                        <path d="M0.662442664,2.90647113 C0.650378381,3.00739718 0.644171779,3.11011811 0.644171779,3.21428571 C0.644171779,4.6344465 1.7977939,5.78571429 3.2208589,5.78571429 C4.6439239,5.78571429 5.79754601,4.6344465 5.79754601,3.21428571 C5.79754601,1.79412493 4.6439239,0.642857143 3.2208589,0.642857143 C3.11647827,0.642857143 3.01354728,0.649051078 2.91241483,0.66109074 C3.10639215,0.926504306 3.2208589,1.25348329 3.2208589,1.60714286 C3.2208589,2.49474335 2.49984507,3.21428571 1.61042945,3.21428571 C1.25604665,3.21428571 0.928398998,3.10005257 0.662442664,2.90647113 Z" id="Combined-Shape" fill="#000000"></path>
                    </g>
                    <g id="snout-closed" transform="translate(3.220859, 27.000000)">
                        <rect id="snout-base" fill="#FF9899" x="0" y="0" width="25.1226994" height="7.07142857" rx="3.53571429"></rect>
                        <rect id="nostril" fill="#000000" x="8.37423313" y="1.92857143" width="1.28834356" height="3.21428571" rx="0.644171779"></rect>
                        <rect id="nostril" fill="#000000" x="14.1717791" y="1.92857143" width="1.28834356" height="3.21428571" rx="0.644171779"></rect>
                    </g>
                    <g id="ears" transform="translate(0.000000, 1.285714)" stroke="#FFFFFF" fill="#FF9899">
                        <path d="M0.0202477974,0.420838506 C-0.109336123,2.60686863 0.383073255,3.97847835 1.49747593,4.53566767 C2.61187861,5.09285699 4.33406672,4.82852214 6.66404025,3.7426631 C5.60480566,2.08923138 4.51405825,0.981956513 3.39179804,0.420838506 C2.26953782,-0.140279502 1.14568774,-0.140279502 0.0202477974,0.420838506 Z" id="ear"></path>
                        <path d="M25.787119,0.420838506 C25.657535,2.60686863 26.1499444,3.97847835 27.2643471,4.53566767 C28.3787498,5.09285699 30.1009379,4.82852214 32.4309114,3.7426631 C31.3716768,2.08923138 30.2809294,0.981956513 29.1586692,0.420838506 C28.036409,-0.140279502 26.9125589,-0.140279502 25.787119,0.420838506 Z" id="ear" transform="translate(29.098891, 2.409549) scale(-1, 1) translate(-29.098891, -2.409549) "></path>
                    </g>
                </g>
                <g id="tail" transform="translate(90.184049, 0.000000)">
                    <path d="M1.37614298,9.76003201 C3.23309284,9.76003201 5.09004269,9.76003201 6.94699255,9.76003201 C8.83684572,9.76003201 10.7266989,8.85230323 12.6165521,7.03684566 L12.6165308,7.03682347 C12.8822377,6.78157625 13.3045546,6.79005557 13.5598018,7.05576256 C13.6144877,7.11268941 13.6586364,7.17886997 13.6901941,7.25122551 L13.6901941,7.25122551 L13.6901941,7.25122551 C13.9316296,7.80478958 13.7856714,8.45101203 13.329751,8.84706867 C11.1490623,10.741425 9.06310004,11.6886034 7.07186374,11.6886034 C5.17329015,11.6886034 3.27471657,11.6886034 1.37614298,11.6886034 L1.37614298,11.6886034 C0.843582688,11.6886034 0.411857268,11.256878 0.411857268,10.7243177 L0.411857268,10.7243177 L0.411857268,10.7243177 C0.411857268,10.1917574 0.843582688,9.76003201 1.37614298,9.76003201 Z" id="Rectangle-11" fill="#FFFFFF" transform="translate(7.108682, 9.269702) rotate(-31.000000) translate(-7.108682, -9.269702) "></path>
                    <path d="M7.29353219,9.73001874 C7.90925414,9.34816836 8.45627728,8.85198398 8.93460162,8.24146557 C9.45792897,8.0983393 10.1178963,8.07583766 10.9448569,8.23642097 C11.0095188,8.24897735 11.0733194,8.26036358 11.1362737,8.27062037 C10.3703772,9.66485949 9.43262,10.695342 8.32300184,11.3620679 C8.01408354,11.5476847 7.70516524,11.7333015 7.39624694,11.9189184 C7.30329828,11.8042357 7.2406948,11.7128761 7.21318987,11.6515995 C7.05988417,11.3100592 7.00049435,10.4922125 7.29353219,9.73001874 Z" id="Combined-Shape" fill="#000000"></path>
                    <path d="M13.4778755,3.62009904 C13.0462924,4.52849295 11.4238034,5.03145417 10.5332697,3.62009904 C9.93958059,2.67919562 10.5128905,1.47249594 12.2531994,0 C13.3573722,1.80780342 13.7655976,3.0145031 13.4778755,3.62009904 Z" id="Path-14" fill="#000000"></path>
                </g>
                <g id="leg" transform="translate(30.920245, 42.428571)">
                    <path d="M3.44123591,0 L4.28505099,0 C6.38216889,0 7.9144828,1.29517626 7.7075699,2.89285714 L5.95920813,16.3928571 C5.75229522,17.990538 4.89092551,19.2857143 4.03528503,19.2857143 L3.69100188,19.2857143 C2.83536139,19.2857143 1.97399168,17.990538 1.76707878,16.3928571 L0.0187170104,2.89285714 C-0.188195892,1.29517626 1.34411802,0 3.44123591,0 Z" id="Rectangle-12" fill="#FFFFFF"></path>
                    <path d="M5.74966402,0.232761776 C5.31032309,0.0829503935 4.81577366,0 4.28505099,0 L3.44123591,0 C1.34411802,0 -0.188195892,1.29517626 0.0187170104,2.89285714 L0.559781004,7.07069038 C1.99019459,7.62915517 3.35016523,7.58791759 4.03888245,6.09251751 C5.24884995,3.46533552 5.89234887,1.68018176 5.74966402,0.232761776 Z" id="Combined-Shape" fill="#000000"></path>
                    <rect id="Rectangle-13" fill="#000000" x="1.28834356" y="17.3571429" width="4.21907539" height="3.21428571" rx="1.60714286"></rect>
                </g>
                <g id="leg" transform="translate(79.233129, 42.428571)">
                    <path d="M3.44123591,0 L4.28505099,0 C6.38216889,0 7.9144828,1.29517626 7.7075699,2.89285714 L5.95920813,16.3928571 C5.75229522,17.990538 4.89092551,19.2857143 4.03528503,19.2857143 L3.69100188,19.2857143 C2.83536139,19.2857143 1.97399168,17.990538 1.76707878,16.3928571 L0.0187170104,2.89285714 C-0.188195892,1.29517626 1.34411802,0 3.44123591,0 Z" id="Rectangle-12-Copy" fill="#FFFFFF"></path>
                    <path d="M7.52003336,4.34092313 L6.74266916,10.3433518 C6.51053887,10.2092464 6.34872557,10.004564 6.29325633,9.72115541 C6.06705628,8.56543319 3.31935965,10.3509084 1.060951,10.9404816 L0.220906011,4.45406236 C1.26961005,3.90632333 2.7013488,3.73554222 4.51612227,3.94171903 C5.65659815,3.94171903 6.65790185,4.07478706 7.52003336,4.34092313 Z" id="Combined-Shape" fill="#000000"></path>
                    <rect id="Rectangle-13-Copy" fill="#000000" x="1.93251534" y="17.3571429" width="4.21907539" height="3.21428571" rx="1.60714286"></rect>
                </g>
            </g>
        </g>
    </g>
</svg>