<?xml version="1.0" encoding="UTF-8"?>
<svg width="32px" height="20px" viewBox="0 0 32 20" version="1.1" xmlns="http://www.w3.org/2000/svg" xmlns:xlink="http://www.w3.org/1999/xlink">
    <!-- Generator: Sketch 44.1 (41455) - http://www.bohemiancoding.com/sketch -->
    <title>grass</title>
    <desc>Created with Sketch.</desc>
    <defs></defs>
    <g id="Page-1" stroke="none" stroke-width="1" fill="none" fill-rule="evenodd">
        <g id="contact" transform="translate(-658.000000, -624.000000)" fill="#1C7C54">
            <g id="grass" transform="translate(652.000000, 623.000000)">
                <path d="M15.6425934,2 C15.6776079,8.43336039 16.4295671,13.8262914 17.898471,18.178793 C18.8190858,20.9066619 20.528992,21.41562 21.8905349,20.5132426 C23.2520778,19.6108652 24.2612147,17.0633479 23.4058214,14.5287366 C21.8934364,10.0473966 19.3056938,5.87115107 15.6425934,2 Z" id="Path-8"></path>
                <path d="M17.1416297,1.82502955 C17.1766441,8.25838994 17.9286033,13.6513209 19.3975073,18.0038225 C20.3181221,20.7316914 22.0280283,21.2406495 23.3895712,20.3382722 C24.751114,19.4358948 25.7602509,16.8883775 24.9048577,14.3537661 C23.3924727,9.87242615 20.80473,5.69618062 17.1416297,1.82502955 Z" id="Path-8" transform="translate(21.181109, 11.286355) rotate(24.000000) translate(-21.181109, -11.286355) "></path>
                <path d="M19.081261,2.15064045 C19.1162755,8.58400084 19.8682347,13.9769318 21.3371387,18.3294334 C22.2577535,21.0573023 23.9676597,21.5662604 25.3292025,20.6638831 C26.6907454,19.7615057 27.6998823,17.2139884 26.844489,14.679377 C25.3321041,10.198037 22.7443614,6.02179152 19.081261,2.15064045 Z" id="Path-8" transform="translate(23.120740, 11.611965) rotate(44.000000) translate(-23.120740, -11.611965) "></path>
                <g id="Group" transform="translate(29.500000, 14.078638) rotate(36.000000) translate(-29.500000, -14.078638) translate(20.000000, 3.578638)">
                    <path d="M2,1 C2.03501446,7.43336039 2.78697367,12.8262914 4.25587762,17.178793 C5.17649244,19.9066619 6.88639862,20.41562 8.24794149,19.5132426 C9.60948437,18.6108652 10.6186213,16.0633479 9.76322799,13.5287366 C8.25084302,9.0473966 5.66310035,4.87115107 2,1 Z" id="Path-8"></path>
                    <path d="M3.49903626,0.825029552 C3.53405072,7.25838994 4.28600993,12.6513209 5.75491388,17.0038225 C6.6755287,19.7316914 8.38543488,20.2406495 9.74697776,19.3382722 C11.1085206,18.4358948 12.1176575,15.8883775 11.2622643,13.3537661 C9.74987928,8.87242615 7.16213661,4.69618062 3.49903626,0.825029552 Z" id="Path-8" transform="translate(7.538515, 10.286355) rotate(24.000000) translate(-7.538515, -10.286355) "></path>
                    <path d="M5.43866764,1.15064045 C5.4736821,7.58400084 6.22564131,12.9769318 7.69454527,17.3294334 C8.61516008,20.0573023 10.3250663,20.5662604 11.6866091,19.6638831 C13.048152,18.7615057 14.0572889,16.2139884 13.2018956,13.679377 C11.6895107,9.19803704 9.101768,5.02179152 5.43866764,1.15064045 Z" id="Path-8" transform="translate(9.478147, 10.611965) rotate(44.000000) translate(-9.478147, -10.611965) "></path>
                </g>
                <g id="Group" transform="translate(14.500000, 14.078638) scale(-1, 1) rotate(36.000000) translate(-14.500000, -14.078638) translate(5.000000, 3.578638)">
                    <path d="M2,1 C2.03501446,7.43336039 2.78697367,12.8262914 4.25587762,17.178793 C5.17649244,19.9066619 6.88639862,20.41562 8.24794149,19.5132426 C9.60948437,18.6108652 10.6186213,16.0633479 9.76322799,13.5287366 C8.25084302,9.0473966 5.66310035,4.87115107 2,1 Z" id="Path-8"></path>
                    <path d="M3.49903626,0.825029552 C3.53405072,7.25838994 4.28600993,12.6513209 5.75491388,17.0038225 C6.6755287,19.7316914 8.38543488,20.2406495 9.74697776,19.3382722 C11.1085206,18.4358948 12.1176575,15.8883775 11.2622643,13.3537661 C9.74987928,8.87242615 7.16213661,4.69618062 3.49903626,0.825029552 Z" id="Path-8" transform="translate(7.538515, 10.286355) rotate(24.000000) translate(-7.538515, -10.286355) "></path>
                    <path d="M5.43866764,1.15064045 C5.4736821,7.58400084 6.22564131,12.9769318 7.69454527,17.3294334 C8.61516008,20.0573023 10.3250663,20.5662604 11.6866091,19.6638831 C13.048152,18.7615057 14.0572889,16.2139884 13.2018956,13.679377 C11.6895107,9.19803704 9.101768,5.02179152 5.43866764,1.15064045 Z" id="Path-8" transform="translate(9.478147, 10.611965) rotate(44.000000) translate(-9.478147, -10.611965) "></path>
                </g>
            </g>
        </g>
    </g>
</svg>