<?xml version="1.0" encoding="UTF-8"?>
<svg width="183px" height="133px" viewBox="0 0 183 133" version="1.1" xmlns="http://www.w3.org/2000/svg" xmlns:xlink="http://www.w3.org/1999/xlink">
    <!-- Generator: Sketch 44.1 (41455) - http://www.bohemiancoding.com/sketch -->
    <title>contact-ufo</title>
    <desc>Created with Sketch.</desc>
    <defs>
        <radialGradient cx="48.350811%" cy="50%" fx="48.350811%" fy="50%" r="200.304341%" gradientTransform="translate(0.483508,0.500000),scale(0.165518,1.000000),rotate(61.428083),translate(-0.483508,-0.500000)" id="radialGradient-1">
            <stop stop-color="#75DBCD" offset="0%"></stop>
            <stop stop-color="#C04CFD" offset="100%"></stop>
        </radialGradient>
        <radialGradient cx="81.6054702%" cy="70.26875%" fx="81.6054702%" fy="70.26875%" r="64.0290742%" gradientTransform="translate(0.816055,0.702688),scale(0.219177,1.000000),rotate(13.987245),translate(-0.816055,-0.702688)" id="radialGradient-2">
            <stop stop-color="#75DBCD" offset="0%"></stop>
            <stop stop-color="#C04CFD" offset="100%"></stop>
        </radialGradient>
        <radialGradient cx="50%" cy="100%" fx="50%" fy="100%" r="100%" gradientTransform="translate(0.500000,1.000000),scale(1.000000,0.981950),rotate(90.000000),translate(-0.500000,-1.000000)" id="radialGradient-3">
            <stop stop-color="#303030" offset="0%"></stop>
            <stop stop-color="#000000" offset="100%"></stop>
        </radialGradient>
    </defs>
    <g id="Page-1" stroke="none" stroke-width="1" fill="none" fill-rule="evenodd">
        <g id="contact" transform="translate(-622.000000, -341.000000)">
            <g id="contact-ufo" transform="translate(622.000000, 340.500000)">
                <polygon id="Path-4" fill="url(#radialGradient-1)" points="90.3684176 108.425863 28.2226396 108.172282 35.9703291 121.222412 51.0444066 128.989095 131.406533 129.321533 155.998679 111.824463"></polygon>
                <polygon id="Path-3" fill="url(#radialGradient-2)" points="92.1327128 73.238444 44.4206948 72.3648275 26.1602394 85.4845378 9.02832447 105.557617 72.4410489 108.634603 178.523861 106.961589 156.240509 83.2517904 142.463797 71.485026"></polygon>
                <polygon id="Path-2" fill-opacity="0.530768795" fill="#FFFFFF" points="92.7137134 5.0406901 52.6140209 18.0088704 38.5711436 47.617513 39.7346659 70.980957 83.8983211 72.4622396 146.272241 71.6535645 146.941456 41.0228678 126.308328 13.1645508"></polygon>
                <ellipse id="Oval" fill="url(#radialGradient-3)" fill-rule="nonzero" cx="49.575828" cy="90.221419" rx="6.35466244" ry="6.47147017"></ellipse>
                <ellipse id="Oval" fill="url(#radialGradient-3)" fill-rule="nonzero" cx="91.6585157" cy="90.221419" rx="6.35466244" ry="6.47147017"></ellipse>
                <ellipse id="Oval" fill="url(#radialGradient-3)" fill-rule="nonzero" cx="133.741203" cy="90.221419" rx="6.35466244" ry="6.47147017"></ellipse>
                <path d="M100.567658,18.3929176 C97.9564119,18.3929176 95.8371399,20.5479332 95.8371399,23.2103892 C95.8371399,25.8728452 97.9564119,28.0278608 100.567658,28.0278608 C104.94181,28.0278608 112.110122,30.6453537 117.528141,36.3909915 C120.74174,39.7985497 124.497771,45.6052088 124.163481,53.9265881 C124.056256,56.5858324 126.084072,58.8275625 128.698471,58.9367585 C128.761545,58.9431818 128.827772,58.9431818 128.893999,58.9431818 C131.416942,58.9431818 133.514138,56.9134205 133.615056,54.3216207 C133.98719,45.0495938 130.786206,36.5419389 124.349548,29.7203991 C117.865585,22.8378381 108.530696,18.3929176 100.567658,18.3929176 Z" id="Shape" fill-opacity="0.754500679" fill="#FFFFFF" fill-rule="nonzero"></path>
                <path d="M180.876084,102.110939 C180.876084,102.110939 150.531388,71.5328409 150.165562,71.2470043 L150.165562,48.7654702 C150.165562,22.2051435 123.920648,0.597177557 91.6616693,0.597177557 C59.4026907,0.597177557 33.1609308,22.2051435 33.1609308,48.7654702 L33.1609308,71.2437926 C32.7919504,71.5296293 2.45040829,102.110939 2.45040829,102.110939 C0.466744437,104.118219 -0.167144967,106.677902 0.756882871,108.961384 C1.68091071,111.244865 3.90425414,112.609815 6.69841341,112.609815 L20.1393917,112.609815 C20.4106081,112.979155 37.4688558,129.429214 37.4688558,129.429214 C39.625972,131.494304 43.1990899,132.936334 46.1603941,132.936334 L130.152317,132.936334 C132.845559,132.936334 136.402908,131.789776 138.610483,130.206433 C138.610483,130.206433 162.44914,113.001636 162.805506,112.609815 L176.628079,112.609815 C179.425392,112.609815 181.645582,111.244865 182.56961,108.961384 C183.493637,106.677902 182.856594,104.118219 180.876084,102.110939 Z M133.157773,122.328261 C132.536498,122.77468 130.9092,123.301391 130.152317,123.301391 L46.1572404,123.301391 C45.621115,123.298179 44.3407215,122.781104 43.9465117,122.411764 L33.9051989,112.802514 L146.43476,112.802514 L133.157773,122.328261 Z M42.618813,48.7686818 C42.618813,27.5204205 64.6188751,10.2353324 91.6585157,10.2353324 C118.698156,10.2353324 140.701372,27.5204205 140.701372,48.7686818 L140.701372,68.4496591 L42.618813,68.4496591 L42.618813,48.7686818 Z M15.014664,102.974872 L38.7492493,78.9517472 C39.1213834,78.588831 40.2945518,78.0942372 40.8054478,78.0846023 L142.511584,78.0846023 C143.025633,78.0942372 144.198802,78.588831 144.567782,78.9485355 L168.302367,102.971661 L15.014664,102.971661 L15.014664,102.974872 Z" id="Shape" fill="#2E0444" fill-rule="nonzero"></path>
            </g>
        </g>
    </g>
</svg>