<?xml version="1.0" encoding="UTF-8"?>
<svg width="78px" height="77px" viewBox="0 0 78 77" version="1.1" xmlns="http://www.w3.org/2000/svg" xmlns:xlink="http://www.w3.org/1999/xlink">
    <!-- Generator: Sketch 44.1 (41455) - http://www.bohemiancoding.com/sketch -->
    <title>Github</title>
    <desc>Created with Sketch.</desc>
    <defs>
        <path d="M713.997813,238 C694.67125,238 679,253.731176 679,273.140939 C679,288.663479 689.0275,301.833919 702.937812,306.481018 C704.687812,306.803855 705.326563,305.718946 705.326563,304.787769 C705.326563,303.953224 705.295937,301.743876 705.278437,298.811987 C695.541875,300.935685 693.487813,294.101199 693.487813,294.101199 C691.8975,290.042674 689.602812,288.962158 689.602812,288.962158 C686.424375,286.78136 689.843437,286.825283 689.843437,286.825283 C693.354375,287.073451 695.202812,290.44677 695.202812,290.44677 C698.326563,295.816409 703.395,294.265912 705.39,293.365482 C705.707188,291.094641 706.612813,289.54634 707.6125,288.667871 C699.840312,287.780618 691.67,284.767471 691.67,271.302744 C691.67,267.466032 693.032812,264.329899 695.272812,261.872383 C694.911875,260.982934 693.710938,257.411959 695.614063,252.573794 C695.614063,252.573794 698.554062,251.62944 705.239063,256.175515 C708.0325,255.395874 711.025,255.007152 714.002187,254.991778 C716.975,255.007152 719.969687,255.395874 722.765313,256.175515 C729.445938,251.62944 732.379375,252.573794 732.379375,252.573794 C734.289062,257.411959 733.088125,260.982934 732.727188,261.872383 C734.971563,264.329899 736.325625,267.466032 736.325625,271.302744 C736.325625,284.800413 728.142187,287.771833 720.345937,288.641517 C721.601562,289.726426 722.721563,291.869889 722.721563,295.148773 C722.721563,299.846384 722.677812,303.634779 722.677812,304.787769 C722.677812,305.727731 723.307812,306.821424 725.084063,306.476625 C738.98125,301.820742 749,288.659086 749,273.140939 C749,253.731176 733.32875,238 713.997813,238" id="path-1"></path>
        <filter x="-10.0%" y="-7.3%" width="120.0%" height="120.4%" filterUnits="objectBoundingBox" id="filter-2">
            <feOffset dx="0" dy="2" in="SourceAlpha" result="shadowOffsetOuter1"></feOffset>
            <feGaussianBlur stdDeviation="2" in="shadowOffsetOuter1" result="shadowBlurOuter1"></feGaussianBlur>
            <feColorMatrix values="0 0 0 0 0   0 0 0 0 0   0 0 0 0 0  0 0 0 0.5 0" type="matrix" in="shadowBlurOuter1"></feColorMatrix>
        </filter>
    </defs>
    <g id="Page-1" stroke="none" stroke-width="1" fill="none" fill-rule="evenodd">
        <g id="contact" transform="translate(-675.000000, -236.000000)">
            <g id="Github">
                <use fill="black" fill-opacity="1" filter="url(#filter-2)" xlink:href="#path-1"></use>
                <use fill="#2E0444" fill-rule="evenodd" xlink:href="#path-1"></use>
            </g>
        </g>
    </g>
</svg>