<?xml version="1.0" encoding="UTF-8"?>
<svg width="239px" height="50px" viewBox="0 0 239 50" version="1.1" xmlns="http://www.w3.org/2000/svg" xmlns:xlink="http://www.w3.org/1999/xlink">
    <!-- Generator: Sketch 44.1 (41455) - http://www.bohemiancoding.com/sketch -->
    <title>devCupid</title>
    <desc>Created with Sketch.</desc>
    <defs>
        <radialGradient cx="81.6054702%" cy="70.26875%" fx="81.6054702%" fy="70.26875%" r="100%" gradientTransform="translate(0.816055,0.702688),scale(0.205936,1.000000),rotate(90.000000),translate(-0.816055,-0.702688)" id="radialGradient-1">
            <stop stop-color="#75DBCD" offset="0%"></stop>
            <stop stop-color="#C04CFD" offset="100%"></stop>
        </radialGradient>
    </defs>
    <g id="Page-1" stroke="none" stroke-width="1" fill="none" fill-rule="evenodd">
        <g id="work" transform="translate(-192.000000, -366.000000)" fill="url(#radialGradient-1)">
            <g id="devCupid" transform="translate(122.000000, 186.000000)">
                <path d="M95.7709999,181.184 C96.2190021,181.632002 96.4429999,182.223996 96.4429999,182.96 L96.4429999,204.848 C96.4429999,207.344012 95.8590057,209.60799 94.6909999,211.64 C93.5229941,213.67201 91.9390099,215.271994 89.9389999,216.44 C87.9389899,217.608006 85.7070122,218.192 83.2429999,218.192 C80.7789876,218.192 78.5310101,217.608006 76.4989999,216.44 C74.4669897,215.271994 72.8750057,213.67201 71.7229999,211.64 C70.5709941,209.60799 69.9949999,207.344012 69.9949999,204.848 C69.9949999,202.351988 70.5309945,200.08801 71.6029999,198.056 C72.6750053,196.02399 74.1469905,194.432006 76.0189999,193.28 C77.8910093,192.127994 79.9789884,191.552 82.2829999,191.552 C84.1390092,191.552 85.8669919,191.935996 87.4669999,192.704 C89.0670079,193.472004 90.4269943,194.543993 91.5469999,195.92 L91.5469999,182.96 C91.5469999,182.223996 91.7789976,181.632002 92.2429999,181.184 C92.7070022,180.735998 93.2909964,180.512 93.9949999,180.512 C94.7310036,180.512 95.3229977,180.735998 95.7709999,181.184 Z M87.5869999,212.696 C88.8830064,211.911996 89.8989962,210.832007 90.6349999,209.456 C91.3710036,208.079993 91.7389999,206.544008 91.7389999,204.848 C91.7389999,203.151992 91.3710036,201.624007 90.6349999,200.264 C89.8989962,198.903993 88.8830064,197.832004 87.5869999,197.048 C86.2909934,196.263996 84.8430079,195.872 83.2429999,195.872 C81.6429919,195.872 80.1950064,196.263996 78.8989999,197.048 C77.6029934,197.832004 76.5790037,198.903993 75.8269999,200.264 C75.0749961,201.624007 74.6989999,203.151992 74.6989999,204.848 C74.6989999,206.544008 75.0749961,208.079993 75.8269999,209.456 C76.5790037,210.832007 77.6029934,211.911996 78.8989999,212.696 C80.1950064,213.480004 81.6429919,213.872 83.2429999,213.872 C84.8430079,213.872 86.2909934,213.480004 87.5869999,212.696 Z M128.78325,205.976 C128.367248,206.376002 127.839253,206.576 127.19925,206.576 L108.95925,206.576 C109.311252,208.816011 110.327242,210.623993 112.00725,212 C113.687258,213.376007 115.743238,214.064 118.17525,214.064 C119.135255,214.064 120.135245,213.888002 121.17525,213.536 C122.215255,213.183998 123.071247,212.752003 123.74325,212.24 C124.191252,211.887998 124.719247,211.712 125.32725,211.712 C125.935253,211.712 126.415248,211.871998 126.76725,212.192 C127.343253,212.672002 127.63125,213.215997 127.63125,213.824 C127.63125,214.400003 127.375252,214.879998 126.86325,215.264 C125.775244,216.128004 124.423258,216.831997 122.80725,217.376 C121.191242,217.920003 119.647257,218.192 118.17525,218.192 C115.551237,218.192 113.19926,217.624006 111.11925,216.488 C109.03924,215.351994 107.415256,213.77601 106.24725,211.76 C105.079244,209.74399 104.49525,207.456013 104.49525,204.896 C104.49525,202.335987 105.047244,200.04001 106.15125,198.008 C107.255255,195.97599 108.79124,194.392006 110.75925,193.256 C112.72726,192.119994 114.959237,191.552 117.45525,191.552 C119.919262,191.552 122.047241,192.095995 123.83925,193.184 C125.631259,194.272005 127.007245,195.79199 127.96725,197.744 C128.927255,199.69601 129.40725,201.935987 129.40725,204.464 C129.40725,205.072003 129.199252,205.575998 128.78325,205.976 Z M111.76725,197.6 C110.311243,198.880006 109.391252,200.591989 109.00725,202.736 L124.99125,202.736 C124.703248,200.591989 123.903256,198.880006 122.59125,197.6 C121.279243,196.319994 119.56726,195.68 117.45525,195.68 C115.119238,195.68 113.223257,196.319994 111.76725,197.6 Z M156.6115,192.872 C156.835501,193.208002 156.9475,193.583998 156.9475,194 C156.9475,194.288001 156.867501,194.591998 156.7075,194.912 L146.5315,216.368 C146.051498,217.424005 145.315505,217.952 144.3235,217.952 C143.779497,217.952 143.331502,217.832001 142.9795,217.592 C142.627498,217.351999 142.307501,216.944003 142.0195,216.368 L131.8435,194.912 C131.715499,194.655999 131.6515,194.368002 131.6515,194.048 C131.6515,193.183996 132.099495,192.528002 132.9955,192.08 C133.283501,191.919999 133.619498,191.84 134.0035,191.84 C134.387502,191.84 134.755498,191.943999 135.1075,192.152 C135.459502,192.360001 135.731499,192.655998 135.9235,193.04 L144.2755,211.04 L152.5315,193.04 C152.723501,192.655998 153.003498,192.360001 153.3715,192.152 C153.739502,191.943999 154.131498,191.84 154.5475,191.84 C154.963502,191.84 155.331498,191.919999 155.6515,192.08 C156.067502,192.272001 156.387499,192.535998 156.6115,192.872 Z M170.39975,215.936 C167.567736,214.239992 165.335758,211.920015 163.70375,208.976 C162.071742,206.031985 161.25575,202.784018 161.25575,199.232 C161.25575,195.711982 162.071742,192.488015 163.70375,189.56 C165.335758,186.631985 167.567736,184.312009 170.39975,182.6 C173.231764,180.887991 176.359733,180.032 179.78375,180.032 C182.215762,180.032 184.319741,180.351997 186.09575,180.992 C187.871759,181.632003 189.671741,182.687993 191.49575,184.16 C191.879752,184.448001 192.135749,184.743998 192.26375,185.048 C192.391751,185.352002 192.45575,185.711998 192.45575,186.128 C192.45575,186.768003 192.223752,187.295998 191.75975,187.712 C191.295748,188.128002 190.759753,188.336 190.15175,188.336 C189.543747,188.336 188.983753,188.128002 188.47175,187.712 C187.159743,186.591994 185.879756,185.784002 184.63175,185.288 C183.383744,184.791998 181.76776,184.544 179.78375,184.544 C177.287737,184.544 174.99176,185.199993 172.89575,186.512 C170.799739,187.824007 169.135756,189.607989 167.90375,191.864 C166.671744,194.120011 166.05575,196.575987 166.05575,199.232 C166.05575,201.920013 166.671744,204.383989 167.90375,206.624 C169.135756,208.864011 170.799739,210.639993 172.89575,211.952 C174.99176,213.264007 177.287737,213.92 179.78375,213.92 C182.855765,213.92 185.799736,212.864011 188.61575,210.752 C189.159753,210.367998 189.687747,210.176 190.19975,210.176 C190.807753,210.176 191.311748,210.391998 191.71175,210.824 C192.111752,211.256002 192.31175,211.823996 192.31175,212.528 C192.31175,213.200003 192.055753,213.791997 191.54375,214.304 C188.087733,217.088014 184.167772,218.48 179.78375,218.48 C176.359733,218.48 173.231764,217.632008 170.39975,215.936 Z M223.98,192.368 C224.428002,192.816002 224.652,193.407996 224.652,194.144 L224.652,215.552 C224.652,216.256004 224.428002,216.839998 223.98,217.304 C223.531998,217.768002 222.940004,218 222.204,218 C221.499996,218 220.916002,217.768002 220.452,217.304 C219.987998,216.839998 219.756,216.256004 219.756,215.552 L219.756,215.024 C218.731995,216.048005 217.516007,216.839997 216.108,217.4 C214.699993,217.960003 213.196008,218.24 211.596,218.24 C209.387989,218.24 207.404009,217.760005 205.644,216.8 C203.883991,215.839995 202.508005,214.440009 201.516,212.6 C200.523995,210.759991 200.028,208.544013 200.028,205.952 L200.028,194.144 C200.028,193.439996 200.259998,192.856002 200.724,192.392 C201.188002,191.927998 201.771996,191.696 202.476,191.696 C203.180004,191.696 203.763998,191.927998 204.228,192.392 C204.692002,192.856002 204.924,193.439996 204.924,194.144 L204.924,205.952 C204.924,208.544013 205.619993,210.503993 207.012,211.832 C208.404007,213.160007 210.251988,213.824 212.556,213.824 C213.900007,213.824 215.123994,213.552003 216.228,213.008 C217.332006,212.463997 218.195997,211.728005 218.82,210.8 C219.444003,209.871995 219.756,208.832006 219.756,207.68 L219.756,194.144 C219.756,193.407996 219.987998,192.816002 220.452,192.368 C220.916002,191.919998 221.499996,191.696 222.204,191.696 C222.940004,191.696 223.531998,191.919998 223.98,192.368 Z M253.99225,193.304 C256.02426,194.472006 257.616244,196.07199 258.76825,198.104 C259.920256,200.13601 260.49625,202.399988 260.49625,204.896 C260.49625,207.392012 259.960255,209.65599 258.88825,211.688 C257.816245,213.72001 256.344259,215.311994 254.47225,216.464 C252.600241,217.616006 250.512262,218.192 248.20825,218.192 C246.352241,218.192 244.624258,217.808004 243.02425,217.04 C241.424242,216.271996 240.064256,215.200007 238.94425,213.824 L238.94425,226.784 C238.94425,227.520004 238.720252,228.111998 238.27225,228.56 C237.824248,229.008002 237.232254,229.232 236.49625,229.232 C235.792247,229.232 235.208252,229.008002 234.74425,228.56 C234.280248,228.111998 234.04825,227.520004 234.04825,226.784 L234.04825,204.896 C234.04825,202.399988 234.632244,200.13601 235.80025,198.104 C236.968256,196.07199 238.55224,194.472006 240.55225,193.304 C242.55226,192.135994 244.784238,191.552 247.24825,191.552 C249.712262,191.552 251.96024,192.135994 253.99225,193.304 Z M251.59225,212.696 C252.888257,211.911996 253.912246,210.840007 254.66425,209.48 C255.416254,208.119993 255.79225,206.592008 255.79225,204.896 C255.79225,203.199992 255.416254,201.664007 254.66425,200.288 C253.912246,198.911993 252.888257,197.832004 251.59225,197.048 C250.296244,196.263996 248.848258,195.872 247.24825,195.872 C245.648242,195.872 244.200257,196.263996 242.90425,197.048 C241.608244,197.832004 240.592254,198.911993 239.85625,200.288 C239.120246,201.664007 238.75225,203.199992 238.75225,204.896 C238.75225,206.592008 239.120246,208.119993 239.85625,209.48 C240.592254,210.840007 241.608244,211.911996 242.90425,212.696 C244.200257,213.480004 245.648242,213.872 247.24825,213.872 C248.848258,213.872 250.296244,213.480004 251.59225,212.696 Z M269.7245,217.304 C269.260498,216.839998 269.0285,216.256004 269.0285,215.552 L269.0285,194.192 C269.0285,193.455996 269.260498,192.864002 269.7245,192.416 C270.188502,191.967998 270.772497,191.744 271.4765,191.744 C272.212504,191.744 272.804498,191.967998 273.2525,192.416 C273.700502,192.864002 273.9245,193.455996 273.9245,194.192 L273.9245,215.552 C273.9245,216.256004 273.700502,216.839998 273.2525,217.304 C272.804498,217.768002 272.212504,218 271.4765,218 C270.772497,218 270.188502,217.768002 269.7245,217.304 Z M269.2445,186.536 C268.620497,185.911997 268.3085,185.168004 268.3085,184.304 C268.3085,183.439996 268.620497,182.696003 269.2445,182.072 C269.868503,181.447997 270.612496,181.136 271.4765,181.136 C272.340504,181.136 273.084497,181.447997 273.7085,182.072 C274.332503,182.696003 274.6445,183.439996 274.6445,184.304 C274.6445,185.168004 274.332503,185.911997 273.7085,186.536 C273.084497,187.160003 272.340504,187.472 271.4765,187.472 C270.612496,187.472 269.868503,187.160003 269.2445,186.536 Z M308.23275,181.184 C308.680752,181.632002 308.90475,182.223996 308.90475,182.96 L308.90475,204.848 C308.90475,207.344012 308.320756,209.60799 307.15275,211.64 C305.984744,213.67201 304.40076,215.271994 302.40075,216.44 C300.40074,217.608006 298.168762,218.192 295.70475,218.192 C293.240738,218.192 290.99276,217.608006 288.96075,216.44 C286.92874,215.271994 285.336756,213.67201 284.18475,211.64 C283.032744,209.60799 282.45675,207.344012 282.45675,204.848 C282.45675,202.351988 282.992745,200.08801 284.06475,198.056 C285.136755,196.02399 286.608741,194.432006 288.48075,193.28 C290.352759,192.127994 292.440739,191.552 294.74475,191.552 C296.600759,191.552 298.328742,191.935996 299.92875,192.704 C301.528758,193.472004 302.888744,194.543993 304.00875,195.92 L304.00875,182.96 C304.00875,182.223996 304.240748,181.632002 304.70475,181.184 C305.168752,180.735998 305.752747,180.512 306.45675,180.512 C307.192754,180.512 307.784748,180.735998 308.23275,181.184 Z M300.04875,212.696 C301.344757,211.911996 302.360746,210.832007 303.09675,209.456 C303.832754,208.079993 304.20075,206.544008 304.20075,204.848 C304.20075,203.151992 303.832754,201.624007 303.09675,200.264 C302.360746,198.903993 301.344757,197.832004 300.04875,197.048 C298.752744,196.263996 297.304758,195.872 295.70475,195.872 C294.104742,195.872 292.656757,196.263996 291.36075,197.048 C290.064744,197.832004 289.040754,198.903993 288.28875,200.264 C287.536746,201.624007 287.16075,203.151992 287.16075,204.848 C287.16075,206.544008 287.536746,208.079993 288.28875,209.456 C289.040754,210.832007 290.064744,211.911996 291.36075,212.696 C292.656757,213.480004 294.104742,213.872 295.70475,213.872 C297.304758,213.872 298.752744,213.480004 300.04875,212.696 Z"></path>
            </g>
        </g>
    </g>
</svg>