<?xml version="1.0" encoding="UTF-8"?>
<svg width="243px" height="39px" viewBox="0 0 243 39" version="1.1" xmlns="http://www.w3.org/2000/svg" xmlns:xlink="http://www.w3.org/1999/xlink">
    <!-- Generator: Sketch 44.1 (41455) - http://www.bohemiancoding.com/sketch -->
    <title>seekhana</title>
    <desc>Created with Sketch.</desc>
    <defs>
        <radialGradient cx="81.6054702%" cy="70.26875%" fx="81.6054702%" fy="70.26875%" r="100%" gradientTransform="translate(0.816055,0.702688),scale(0.156247,1.000000),rotate(90.000000),translate(-0.816055,-0.702688)" id="radialGradient-1">
            <stop stop-color="#75DBCD" offset="0%"></stop>
            <stop stop-color="#C04CFD" offset="100%"></stop>
        </radialGradient>
    </defs>
    <g id="Page-1" stroke="none" stroke-width="1" fill="none" fill-rule="evenodd">
        <g id="work" transform="translate(-590.000000, -632.000000)" fill="url(#radialGradient-1)">
            <g id="portfolio" transform="translate(522.000000, 453.000000)">
                <path d="M74.0269999,216.184 C72.1069903,215.511997 70.6030053,214.632005 69.5149999,213.544 C69.0989978,213.127998 68.8909999,212.632003 68.8909999,212.056 C68.8909999,211.287996 69.2109967,210.664002 69.8509999,210.184 C70.4590029,209.735998 71.0189973,209.512 71.5309999,209.512 C72.1710031,209.512 72.778997,209.799997 73.3549999,210.376 C73.9630029,211.048003 74.8749938,211.631998 76.0909999,212.128 C77.307006,212.624002 78.602993,212.872 79.9789999,212.872 C81.803009,212.872 83.2189949,212.568003 84.2269999,211.96 C85.2350049,211.351997 85.7389999,210.536005 85.7389999,209.512 C85.7389999,208.519995 85.2430049,207.696003 84.2509999,207.04 C83.2589949,206.383997 81.5790117,205.832002 79.2109999,205.384 C73.0669692,204.199994 69.9949999,201.672019 69.9949999,197.8 C69.9949999,196.231992 70.4589953,194.904005 71.3869999,193.816 C72.3150045,192.727995 73.5309924,191.912003 75.0349999,191.368 C76.5390074,190.823997 78.1389914,190.552 79.8349999,190.552 C81.9150103,190.552 83.7789917,190.887997 85.4269999,191.56 C87.0750081,192.232003 88.3789951,193.159994 89.3389999,194.344 C89.755002,194.856003 89.9629999,195.367997 89.9629999,195.88 C89.9629999,196.424003 89.6910026,196.919998 89.1469999,197.368 C88.7949981,197.624001 88.3470026,197.752 87.8029999,197.752 C86.9709957,197.752 86.2190033,197.448003 85.5469999,196.84 C84.7469959,196.103996 83.8990044,195.584002 83.0029999,195.28 C82.1069954,194.975998 81.0190063,194.824 79.7389999,194.824 C78.2669925,194.824 77.0590046,195.071998 76.1149999,195.568 C75.1709952,196.064002 74.6989999,196.759996 74.6989999,197.656 C74.6989999,198.296003 74.8589983,198.831998 75.1789999,199.264 C75.4990015,199.696002 76.1069954,200.095998 77.0029999,200.464 C77.8990044,200.832002 79.1949914,201.191998 80.8909999,201.544 C84.3790173,202.248004 86.8509926,203.223994 88.3069999,204.472 C89.7630072,205.720006 90.4909999,207.33599 90.4909999,209.32 C90.4909999,210.792007 90.0910039,212.127994 89.2909999,213.328 C88.4909959,214.528006 87.3150077,215.471997 85.7629999,216.16 C84.2109921,216.848003 82.3470108,217.192 80.1709999,217.192 C77.994989,217.192 75.9470095,216.856003 74.0269999,216.184 Z M120.38325,204.976 C119.967248,205.376002 119.439253,205.576 118.79925,205.576 L100.55925,205.576 C100.911252,207.816011 101.927242,209.623993 103.60725,211 C105.287258,212.376007 107.343238,213.064 109.77525,213.064 C110.735255,213.064 111.735245,212.888002 112.77525,212.536 C113.815255,212.183998 114.671247,211.752003 115.34325,211.24 C115.791252,210.887998 116.319247,210.712 116.92725,210.712 C117.535253,210.712 118.015248,210.871998 118.36725,211.192 C118.943253,211.672002 119.23125,212.215997 119.23125,212.824 C119.23125,213.400003 118.975252,213.879998 118.46325,214.264 C117.375244,215.128004 116.023258,215.831997 114.40725,216.376 C112.791242,216.920003 111.247257,217.192 109.77525,217.192 C107.151237,217.192 104.79926,216.624006 102.71925,215.488 C100.63924,214.351994 99.0152558,212.77601 97.8472499,210.76 C96.6792441,208.74399 96.0952499,206.456013 96.0952499,203.896 C96.0952499,201.335987 96.6472444,199.04001 97.7512499,197.008 C98.8552554,194.97599 100.39124,193.392006 102.35925,192.256 C104.32726,191.119994 106.559237,190.552 109.05525,190.552 C111.519262,190.552 113.647241,191.095995 115.43925,192.184 C117.231259,193.272005 118.607245,194.79199 119.56725,196.744 C120.527255,198.69601 121.00725,200.935987 121.00725,203.464 C121.00725,204.072003 120.799252,204.575998 120.38325,204.976 Z M103.36725,196.6 C101.911243,197.880006 100.991252,199.591989 100.60725,201.736 L116.59125,201.736 C116.303248,199.591989 115.503256,197.880006 114.19125,196.6 C112.879243,195.319994 111.16726,194.68 109.05525,194.68 C106.719238,194.68 104.823257,195.319994 103.36725,196.6 Z M149.9875,204.976 C149.571498,205.376002 149.043503,205.576 148.4035,205.576 L130.1635,205.576 C130.515502,207.816011 131.531492,209.623993 133.2115,211 C134.891508,212.376007 136.947488,213.064 139.3795,213.064 C140.339505,213.064 141.339495,212.888002 142.3795,212.536 C143.419505,212.183998 144.275497,211.752003 144.9475,211.24 C145.395502,210.887998 145.923497,210.712 146.5315,210.712 C147.139503,210.712 147.619498,210.871998 147.9715,211.192 C148.547503,211.672002 148.8355,212.215997 148.8355,212.824 C148.8355,213.400003 148.579503,213.879998 148.0675,214.264 C146.979495,215.128004 145.627508,215.831997 144.0115,216.376 C142.395492,216.920003 140.851507,217.192 139.3795,217.192 C136.755487,217.192 134.40351,216.624006 132.3235,215.488 C130.24349,214.351994 128.619506,212.77601 127.4515,210.76 C126.283494,208.74399 125.6995,206.456013 125.6995,203.896 C125.6995,201.335987 126.251494,199.04001 127.3555,197.008 C128.459505,194.97599 129.99549,193.392006 131.9635,192.256 C133.93151,191.119994 136.163487,190.552 138.6595,190.552 C141.123512,190.552 143.251491,191.095995 145.0435,192.184 C146.835509,193.272005 148.211495,194.79199 149.1715,196.744 C150.131505,198.69601 150.6115,200.935987 150.6115,203.464 C150.6115,204.072003 150.403502,204.575998 149.9875,204.976 Z M132.9715,196.6 C131.515493,197.880006 130.595502,199.591989 130.2115,201.736 L146.1955,201.736 C145.907499,199.591989 145.107507,197.880006 143.7955,196.6 C142.483493,195.319994 140.771511,194.68 138.6595,194.68 C136.323488,194.68 134.427507,195.319994 132.9715,196.6 Z M177.95975,214.984 C177.95975,215.688004 177.671753,216.279998 177.09575,216.76 C176.615748,217.144002 176.103753,217.336 175.55975,217.336 C174.855746,217.336 174.279752,217.048003 173.83175,216.472 L164.71175,205.192 L162.31175,207.304 L162.31175,214.648 C162.31175,215.352004 162.095752,215.919998 161.66375,216.352 C161.231748,216.784002 160.663753,217 159.95975,217 C159.255746,217 158.687752,216.784002 158.25575,216.352 C157.823748,215.919998 157.60775,215.352004 157.60775,214.648 L157.60775,181.864 C157.60775,181.159996 157.823748,180.592002 158.25575,180.16 C158.687752,179.727998 159.255746,179.512 159.95975,179.512 C160.663753,179.512 161.231748,179.727998 161.66375,180.16 C162.095752,180.592002 162.31175,181.159996 162.31175,181.864 L162.31175,201.4 L173.97575,190.984 C174.391752,190.567998 174.887747,190.36 175.46375,190.36 C176.135753,190.36 176.679748,190.615997 177.09575,191.128 C177.511752,191.544002 177.71975,192.039997 177.71975,192.616 C177.71975,193.288003 177.463753,193.831998 176.95175,194.248 L168.11975,202.12 L177.43175,213.544 C177.783752,213.928002 177.95975,214.407997 177.95975,214.984 Z M204.684,191.944 C206.444009,192.904005 207.819995,194.303991 208.812,196.144 C209.804005,197.984009 210.3,200.199987 210.3,202.792 L210.3,214.6 C210.3,215.304004 210.068002,215.887998 209.604,216.352 C209.139998,216.816002 208.556004,217.048 207.852,217.048 C207.147996,217.048 206.564002,216.816002 206.1,216.352 C205.635998,215.887998 205.404,215.304004 205.404,214.6 L205.404,202.792 C205.404,200.199987 204.708007,198.240007 203.316,196.912 C201.923993,195.583993 200.076012,194.92 197.772,194.92 C196.427993,194.92 195.204006,195.191997 194.1,195.736 C192.995994,196.280003 192.132003,197.015995 191.508,197.944 C190.883997,198.872005 190.572,199.911994 190.572,201.064 L190.572,214.6 C190.572,215.304004 190.348002,215.887998 189.9,216.352 C189.451998,216.816002 188.860004,217.048 188.124,217.048 C187.419996,217.048 186.836002,216.816002 186.372,216.352 C185.907998,215.887998 185.676,215.304004 185.676,214.6 L185.676,181.96 C185.676,181.223996 185.907998,180.632002 186.372,180.184 C186.836002,179.735998 187.419996,179.512 188.124,179.512 C188.860004,179.512 189.451998,179.735998 189.9,180.184 C190.348002,180.632002 190.572,181.223996 190.572,181.96 L190.572,193.72 C191.596005,192.695995 192.811993,191.904003 194.22,191.344 C195.628007,190.783997 197.131992,190.504 198.732,190.504 C200.940011,190.504 202.923991,190.983995 204.684,191.944 Z M237.81625,192.304 C239.81626,193.472006 241.400244,195.07199 242.56825,197.104 C243.736256,199.13601 244.32025,201.399988 244.32025,203.896 L244.32025,214.6 C244.32025,215.304004 244.088252,215.887998 243.62425,216.352 C243.160248,216.816002 242.576254,217.048 241.87225,217.048 C241.168247,217.048 240.584252,216.816002 240.12025,216.352 C239.656248,215.887998 239.42425,215.304004 239.42425,214.6 L239.42425,212.824 C238.304244,214.200007 236.944258,215.271996 235.34425,216.04 C233.744242,216.808004 232.016259,217.192 230.16025,217.192 C227.856239,217.192 225.768259,216.616006 223.89625,215.464 C222.024241,214.311994 220.552255,212.72001 219.48025,210.688 C218.408245,208.65599 217.87225,206.392012 217.87225,203.896 C217.87225,201.399988 218.448244,199.13601 219.60025,197.104 C220.752256,195.07199 222.34424,193.472006 224.37625,192.304 C226.40826,191.135994 228.656238,190.552 231.12025,190.552 C233.584262,190.552 235.81624,191.135994 237.81625,192.304 Z M235.46425,211.696 C236.760257,210.911996 237.776246,209.840007 238.51225,208.48 C239.248254,207.119993 239.61625,205.592008 239.61625,203.896 C239.61625,202.199992 239.248254,200.664007 238.51225,199.288 C237.776246,197.911993 236.760257,196.832004 235.46425,196.048 C234.168244,195.263996 232.720258,194.872 231.12025,194.872 C229.520242,194.872 228.072257,195.263996 226.77625,196.048 C225.480244,196.832004 224.456254,197.911993 223.70425,199.288 C222.952246,200.664007 222.57625,202.199992 222.57625,203.896 C222.57625,205.592008 222.952246,207.119993 223.70425,208.48 C224.456254,209.840007 225.480244,210.911996 226.77625,211.696 C228.072257,212.480004 229.520242,212.872 231.12025,212.872 C232.720258,212.872 234.168244,212.480004 235.46425,211.696 Z M271.3805,191.944 C273.140509,192.904005 274.516495,194.303991 275.5085,196.144 C276.500505,197.984009 276.9965,200.199987 276.9965,202.792 L276.9965,214.6 C276.9965,215.304004 276.764502,215.887998 276.3005,216.352 C275.836498,216.816002 275.252504,217.048 274.5485,217.048 C273.844497,217.048 273.260502,216.816002 272.7965,216.352 C272.332498,215.887998 272.1005,215.304004 272.1005,214.6 L272.1005,202.792 C272.1005,200.199987 271.404507,198.240007 270.0125,196.912 C268.620493,195.583993 266.772512,194.92 264.4685,194.92 C263.124493,194.92 261.900506,195.191997 260.7965,195.736 C259.692495,196.280003 258.828503,197.015995 258.2045,197.944 C257.580497,198.872005 257.2685,199.911994 257.2685,201.064 L257.2685,214.6 C257.2685,215.304004 257.044502,215.887998 256.5965,216.352 C256.148498,216.816002 255.556504,217.048 254.8205,217.048 C254.116497,217.048 253.532502,216.816002 253.0685,216.352 C252.604498,215.887998 252.3725,215.304004 252.3725,214.6 L252.3725,193.192 C252.3725,192.455996 252.604498,191.864002 253.0685,191.416 C253.532502,190.967998 254.116497,190.744 254.8205,190.744 C255.556504,190.744 256.148498,190.967998 256.5965,191.416 C257.044502,191.864002 257.2685,192.455996 257.2685,193.192 L257.2685,193.72 C258.292505,192.695995 259.508493,191.904003 260.9165,191.344 C262.324507,190.783997 263.828492,190.504 265.4285,190.504 C267.636511,190.504 269.620491,190.983995 271.3805,191.944 Z M304.46475,192.304 C306.46476,193.472006 308.048744,195.07199 309.21675,197.104 C310.384756,199.13601 310.96875,201.399988 310.96875,203.896 L310.96875,214.6 C310.96875,215.304004 310.736752,215.887998 310.27275,216.352 C309.808748,216.816002 309.224754,217.048 308.52075,217.048 C307.816747,217.048 307.232752,216.816002 306.76875,216.352 C306.304748,215.887998 306.07275,215.304004 306.07275,214.6 L306.07275,212.824 C304.952744,214.200007 303.592758,215.271996 301.99275,216.04 C300.392742,216.808004 298.664759,217.192 296.80875,217.192 C294.504739,217.192 292.416759,216.616006 290.54475,215.464 C288.672741,214.311994 287.200755,212.72001 286.12875,210.688 C285.056745,208.65599 284.52075,206.392012 284.52075,203.896 C284.52075,201.399988 285.096744,199.13601 286.24875,197.104 C287.400756,195.07199 288.99274,193.472006 291.02475,192.304 C293.05676,191.135994 295.304738,190.552 297.76875,190.552 C300.232762,190.552 302.46474,191.135994 304.46475,192.304 Z M302.11275,211.696 C303.408757,210.911996 304.424746,209.840007 305.16075,208.48 C305.896754,207.119993 306.26475,205.592008 306.26475,203.896 C306.26475,202.199992 305.896754,200.664007 305.16075,199.288 C304.424746,197.911993 303.408757,196.832004 302.11275,196.048 C300.816744,195.263996 299.368758,194.872 297.76875,194.872 C296.168742,194.872 294.720757,195.263996 293.42475,196.048 C292.128744,196.832004 291.104754,197.911993 290.35275,199.288 C289.600746,200.664007 289.22475,202.199992 289.22475,203.896 C289.22475,205.592008 289.600746,207.119993 290.35275,208.48 C291.104754,209.840007 292.128744,210.911996 293.42475,211.696 C294.720757,212.480004 296.168742,212.872 297.76875,212.872 C299.368758,212.872 300.816744,212.480004 302.11275,211.696 Z" id="seekhana"></path>
            </g>
        </g>
    </g>
</svg>