<?xml version="1.0" encoding="UTF-8"?>
<svg width="328px" height="56px" viewBox="0 0 328 56" version="1.1" xmlns="http://www.w3.org/2000/svg" xmlns:xlink="http://www.w3.org/1999/xlink">
    <!-- Generator: Sketch 44.1 (41455) - http://www.bohemiancoding.com/sketch -->
    <title>devCupid</title>
    <desc>Created with Sketch.</desc>
    <defs>
        <filter x="-2.2%" y="-10.4%" width="104.4%" height="131.2%" filterUnits="objectBoundingBox" id="filter-1">
            <feOffset dx="0" dy="2" in="SourceAlpha" result="shadowOffsetOuter1"></feOffset>
            <feGaussianBlur stdDeviation="2" in="shadowOffsetOuter1" result="shadowBlurOuter1"></feGaussianBlur>
            <feColorMatrix values="0 0 0 0 0   0 0 0 0 0   0 0 0 0 0  0 0 0 0.5 0" type="matrix" in="shadowBlurOuter1" result="shadowMatrixOuter1"></feColorMatrix>
            <feMerge>
                <feMergeNode in="shadowMatrixOuter1"></feMergeNode>
                <feMergeNode in="SourceGraphic"></feMergeNode>
            </feMerge>
        </filter>
    </defs>
    <g id="Page-1" stroke="none" stroke-width="1" fill="none" fill-rule="evenodd">
        <g id="work" transform="translate(-148.000000, -241.000000)">
            <g id="devCupid" transform="translate(122.000000, 186.000000)">
                <g filter="url(#filter-1)" transform="translate(30.000000, 57.000000)">
                    <g id="innerText" transform="translate(32.544166, 3.601881)">
                        <path d="M89.5282226,31.3996776 C87.1361094,30.1123984 85.2555454,28.2628871 83.8864743,25.8510882 C82.5174032,23.4392893 81.8328779,20.6206341 81.8328779,17.3950381 C81.8328779,14.169442 82.5174032,11.3507868 83.8864743,8.93898791 C85.2555454,6.52718902 87.1361094,4.67767773 89.5282226,3.39039857 C91.9203358,2.1031194 94.6208257,1.45948948 97.6297731,1.45948948 C99.6758574,1.45948948 101.503766,1.69622692 103.113552,2.16970891 C104.723339,2.6431909 106.32558,3.32381106 107.920322,4.21158979 C108.58229,4.56670128 108.91327,5.12895271 108.91327,5.89836095 C108.91327,6.34225032 108.74778,6.73434671 108.416796,7.07466189 C108.085812,7.41497707 107.649521,7.58513211 107.10791,7.58513211 C106.807015,7.58513211 106.536214,7.52594775 106.295498,7.40757725 C104.971562,6.72694689 103.677734,6.20908373 102.413976,5.85397223 C101.150218,5.49886074 99.6909001,5.32130766 98.035979,5.32130766 C95.4482842,5.32130766 93.2442632,5.84656886 91.42385,6.89710703 C89.6034368,7.9476452 88.2343862,9.38286596 87.3166573,11.2028124 C86.3989283,13.0227588 85.9400707,15.0868134 85.9400707,17.3950381 C85.9400707,19.7032628 86.3989283,21.7673174 87.3166573,23.5872638 C88.2343862,25.4072102 89.6034368,26.8424309 91.42385,27.8929691 C93.2442632,28.9435073 95.4482842,29.4687685 98.035979,29.4687685 C99.6909001,29.4687685 101.150218,29.2912154 102.413976,28.9361039 C103.677734,28.5809924 104.971562,28.0631292 106.295498,27.3824989 C106.536214,27.2641284 106.807015,27.204944 107.10791,27.204944 C107.649521,27.204944 108.085812,27.367701 108.416796,27.6932199 C108.74778,28.0187388 108.91327,28.4182332 108.91327,28.8917152 C108.91327,29.6611234 108.58229,30.2233748 107.920322,30.5784863 C106.32558,31.4662651 104.723339,32.1468852 103.113552,32.6203672 C101.503766,33.0938492 99.6758574,33.3305867 97.6297731,33.3305867 C94.6208257,33.3305867 91.9203358,32.6869567 89.5282226,31.3996776 Z M118.041853,32.1764801 C116.82323,31.4070718 115.89047,30.3565494 115.243546,29.0248813 C114.596623,27.6932132 114.273166,26.2284003 114.273166,24.6303986 L114.273166,12.0240036 C114.273166,11.4617437 114.476267,10.9882688 114.882474,10.6035647 C115.288682,10.2188606 115.777629,10.0265114 116.349329,10.0265114 C116.921029,10.0265114 117.402453,10.2188606 117.793617,10.6035647 C118.18478,10.9882688 118.380358,11.4617437 118.380358,12.0240036 L118.380358,24.1865114 C118.380358,27.7968116 120.035255,29.6019346 123.345097,29.6019346 C124.849571,29.6019346 126.196054,29.2172363 127.384589,28.447828 C128.573123,27.6784198 129.693939,26.6426935 130.747071,25.340618 L130.747071,12.0240036 C130.747071,11.4617437 130.950172,10.9882688 131.356379,10.6035647 C131.762587,10.2188606 132.251534,10.0265114 132.823234,10.0265114 C133.394934,10.0265114 133.876358,10.2188606 134.267522,10.6035647 C134.658685,10.9882688 134.854263,11.4617437 134.854263,12.0240036 L134.854263,31.0667622 C134.854263,31.6290221 134.658685,32.109895 134.267522,32.5093954 C133.876358,32.9088959 133.394934,33.1086431 132.823234,33.1086431 C132.251534,33.1086431 131.762587,32.9088959 131.356379,32.5093954 C130.950172,32.109895 130.747071,31.6290221 130.747071,31.0667622 L130.747071,29.2468249 C129.603671,30.4897151 128.370021,31.4810532 127.046084,32.2208688 C125.722147,32.9606844 124.157518,33.3305867 122.352149,33.3305867 C120.697228,33.3305867 119.260477,32.9458883 118.041853,32.1764801 Z M143.28327,42.7187998 C142.892107,42.3192994 142.696529,41.8384265 142.696529,41.2761666 L142.696529,12.0240036 C142.696529,11.4617437 142.892107,10.9882688 143.28327,10.6035647 C143.674434,10.2188606 144.155858,10.0265114 144.727558,10.0265114 C145.299258,10.0265114 145.788205,10.2188606 146.194412,10.6035647 C146.60062,10.9882688 146.803721,11.4617437 146.803721,12.0240036 L146.803721,13.1781102 C149.000253,10.9290707 151.572864,9.80456785 154.521633,9.80456785 C156.38718,9.80456785 158.15491,10.2706447 159.824876,11.2028124 C161.494842,12.13498 162.848848,13.4962203 163.886935,15.2865741 C164.925022,17.0769279 165.444058,19.1705747 165.444058,21.5675773 C165.444058,23.9645798 164.925022,26.0582266 163.886935,27.8485804 C162.848848,29.6389342 161.494842,31.0001745 159.824876,31.9323421 C158.15491,32.8645098 156.38718,33.3305867 154.521633,33.3305867 C151.572864,33.3305867 149.000253,32.2060838 146.803721,29.9570443 L146.803721,41.2761666 C146.803721,41.8680191 146.608143,42.3562901 146.216979,42.7409942 C145.825816,43.1256983 145.329347,43.3180475 144.727558,43.3180475 C144.155858,43.3180475 143.674434,43.1183003 143.28327,42.7187998 Z M159.305835,27.4712763 C160.659862,26.080423 161.336865,24.112543 161.336865,21.5675773 C161.336865,19.0226115 160.659862,17.0547315 159.305835,15.6638782 C157.951809,14.2730248 156.161512,13.5776086 153.934891,13.5776086 C152.550775,13.5776086 151.249425,13.8809284 150.030801,14.4875773 C148.812178,15.0942261 147.736495,15.900613 146.803721,16.9067622 L146.803721,26.2283923 C147.736495,27.2345415 148.812178,28.0409284 150.030801,28.6475773 C151.249425,29.2542261 152.550775,29.5575459 153.934891,29.5575459 C156.161512,29.5575459 157.951809,28.8621297 159.305835,27.4712763 Z M172.203107,4.96619794 C171.751765,4.52230857 171.526097,3.98964932 171.526097,3.36820421 L171.526097,3.19064935 C171.526097,2.56920424 171.751765,2.03654499 172.203107,1.59265562 C172.654449,1.14876625 173.196052,0.926824899 173.827931,0.926824899 L174.098735,0.926824899 C174.730614,0.926824899 175.272216,1.14876625 175.723558,1.59265562 C176.1749,2.03654499 176.400568,2.56920424 176.400568,3.19064935 L176.400568,3.36820421 C176.400568,3.98964932 176.1749,4.52230857 175.723558,4.96619794 C175.272216,5.41008731 174.730614,5.63202866 174.098735,5.63202866 L173.827931,5.63202866 C173.196052,5.63202866 172.654449,5.41008731 172.203107,4.96619794 Z M172.473911,32.5315898 C172.082748,32.1468857 171.887169,31.6734108 171.887169,31.1111509 L171.887169,12.0683923 C171.887169,11.5061324 172.082748,11.0252595 172.473911,10.6257591 C172.865074,10.2262586 173.346499,10.0265114 173.918199,10.0265114 C174.519988,10.0265114 175.016457,10.2188606 175.40762,10.6035647 C175.798783,10.9882688 175.994362,11.4765398 175.994362,12.0683923 L175.994362,31.1111509 C175.994362,31.6734108 175.791261,32.1468857 175.385053,32.5315898 C174.978845,32.9162939 174.489899,33.1086431 173.918199,33.1086431 C173.346499,33.1086431 172.865074,32.9162939 172.473911,32.5315898 Z M188.056655,31.9323421 C186.386689,31.0001745 185.032683,29.6389342 183.994596,27.8485804 C182.956509,26.0582266 182.437474,23.9645798 182.437474,21.5675773 C182.437474,19.1705747 182.956509,17.0769279 183.994596,15.2865741 C185.032683,13.4962203 186.386689,12.13498 188.056655,11.2028124 C189.726621,10.2706447 191.494351,9.80456785 193.359898,9.80456785 C196.308667,9.80456785 198.881278,10.9290707 201.07781,13.1781102 L201.07781,2.30287506 C201.07781,1.71102257 201.280911,1.22275159 201.687119,0.83804747 C202.093327,0.453343352 202.582273,0.260994178 203.153973,0.260994178 C203.725673,0.260994178 204.207098,0.460741397 204.598261,0.860241827 C204.989424,1.25974226 205.185003,1.74061519 205.185003,2.30287506 L205.185003,31.1111509 C205.185003,31.6734108 204.989424,32.1468857 204.598261,32.5315898 C204.207098,32.9162939 203.725673,33.1086431 203.153973,33.1086431 C202.582273,33.1086431 202.093327,32.9162939 201.687119,32.5315898 C201.280911,32.1468857 201.07781,31.6734108 201.07781,31.1111509 L201.07781,29.9570443 C198.881278,32.2060838 196.308667,33.3305867 193.359898,33.3305867 C191.494351,33.3305867 189.726621,32.8645098 188.056655,31.9323421 Z M197.85073,28.6475773 C199.069354,28.0409284 200.145036,27.2345415 201.07781,26.2283923 L201.07781,16.9067622 C200.145036,15.900613 199.069354,15.0942261 197.85073,14.4875773 C196.632106,13.8809284 195.330756,13.5776086 193.94664,13.5776086 C191.720019,13.5776086 189.929722,14.2730248 188.575696,15.6638782 C187.221669,17.0547315 186.544666,19.0226115 186.544666,21.5675773 C186.544666,24.112543 187.221669,26.080423 188.575696,27.4712763 C189.929722,28.8621297 191.720019,29.5575459 193.94664,29.5575459 C195.330756,29.5575459 196.632106,29.2542261 197.85073,28.6475773 Z" id="Cupid" stroke="#3B3561" stroke-width="2" fill="#3B3561"></path>
                        <path d="M0.629314349,32.3096462 C0.238151179,31.9249421 0.0425725274,31.4514672 0.0425725274,30.8892073 L0.0425725274,3.9452575 C0.0425725274,3.38299764 0.238151179,2.9021247 0.629314349,2.50262427 C1.02047752,2.10312384 1.50190189,1.90337662 2.07360191,1.90337662 L11.1455331,1.90337662 C14.5757333,1.90337662 17.4868463,2.65057918 19.8789595,4.14500672 C22.2710727,5.63943425 24.0688919,7.57032403 25.2724708,9.93773399 C26.4760498,12.3051439 27.0778303,14.7908871 27.0778303,17.3950381 C27.0778303,19.999189 26.4760498,22.4849322 25.2724708,24.8523421 C24.0688919,27.2197521 22.2710727,29.1506419 19.8789595,30.6450694 C17.4868463,32.1394969 14.5757333,32.8866995 11.1455331,32.8866995 L2.07360191,32.8866995 C1.50190189,32.8866995 1.02047752,32.6943503 0.629314349,32.3096462 Z M10.6490593,29.1136588 C13.1163962,29.1136588 15.2828059,28.6179897 17.1483533,27.6266368 C19.0139007,26.6352839 20.4581739,25.2592475 21.481216,23.4984863 C22.5042581,21.7377252 23.0157715,19.7032628 23.0157715,17.3950381 C23.0157715,15.0868134 22.5042581,13.0523509 21.481216,11.2915898 C20.4581739,9.53082863 19.0139007,8.15479224 17.1483533,7.16343932 C15.2828059,6.1720864 13.1163962,5.67641738 10.6490593,5.67641738 L4.14976528,5.67641738 L4.14976528,29.1136588 L10.6490593,29.1136588 Z M34.6718585,30.245571 C32.6107295,28.1888836 31.5801805,25.2962479 31.5801805,21.5675773 C31.5801805,19.4665009 31.9713378,17.5282131 32.7536641,15.7526556 C33.5359905,13.9770982 34.7395514,12.5418774 36.364383,11.4469503 C37.9892147,10.3520232 39.9901347,9.80456785 42.3672032,9.80456785 C44.5938243,9.80456785 46.5195218,10.315033 48.1443534,11.3359785 C49.7691851,12.356924 51.002835,13.7181644 51.8453403,15.4197403 C52.6878456,17.1213162 53.1090919,18.9782255 53.1090919,20.990524 C53.1090919,21.5527838 52.9210355,22.0262587 52.5449171,22.4109628 C52.1687987,22.7956669 51.6648075,22.9880161 51.0329286,22.9880161 L35.7325072,22.9880161 C35.973223,25.0594998 36.7555376,26.6722737 38.0794745,27.826386 C39.4034114,28.9804984 41.2538863,29.5575459 43.6309548,29.5575459 C44.8947128,29.5575459 46.0004844,29.4391772 46.9483028,29.2024362 C47.8961213,28.9656952 48.8213587,28.6253851 49.724043,28.1814957 C49.9647588,28.0631252 50.23556,28.0039409 50.5364547,28.0039409 C51.0178863,28.0039409 51.4391326,28.1666979 51.8002063,28.4922167 C52.16128,28.8177356 52.3418142,29.2320261 52.3418142,29.7351008 C52.3418142,30.3861385 51.9506569,30.9335938 51.1683305,31.3774832 C49.994841,32.0285209 48.8364136,32.5167919 47.6930136,32.8423108 C46.5496135,33.1678297 45.0752514,33.3305867 43.2698829,33.3305867 C39.598967,33.3305867 36.7329876,32.3022584 34.6718585,30.245571 Z M49.0470332,19.7032512 C48.9567647,18.2532126 48.5731297,17.0399332 47.8961165,16.0633766 C47.2191033,15.08682 46.3841329,14.3692096 45.3911803,13.910524 C44.3982276,13.4518383 43.3902453,13.2224989 42.3672032,13.2224989 C41.3441611,13.2224989 40.3361788,13.4518383 39.3432261,13.910524 C38.3502735,14.3692096 37.5228253,15.08682 36.8608569,16.0633766 C36.1988884,17.0399332 35.8227756,18.2532126 35.7325072,19.7032512 L49.0470332,19.7032512 Z M65.6904257,32.6425616 C65.2390836,32.331839 64.9081043,31.9397426 64.697478,31.4662606 L56.8441644,13.0005553 C56.693717,12.6454438 56.6184944,12.3347259 56.6184944,12.0683923 C56.6184944,11.5061324 56.8140731,11.0252595 57.2052363,10.6257591 C57.5963994,10.2262586 58.0778238,10.0265114 58.6495238,10.0265114 C59.040687,10.0265114 59.4092775,10.1374821 59.7553065,10.3594268 C60.1013354,10.5813715 60.3495699,10.8550991 60.5000173,11.180618 L67.4055171,28.4034393 L74.311017,11.180618 C74.4614644,10.8550991 74.7096989,10.5813715 75.0557278,10.3594268 C75.4017568,10.1374821 75.7703473,10.0265114 76.1615105,10.0265114 C76.7332105,10.0265114 77.2146349,10.2262586 77.605798,10.6257591 C77.9969612,11.0252595 78.1925399,11.5061324 78.1925399,12.0683923 C78.1925399,12.3347259 78.1173173,12.6454438 77.9668699,13.0005553 L70.1135563,31.4662606 C69.90293,31.9397426 69.5719507,32.331839 69.1206086,32.6425616 C68.6692665,32.9532841 68.1727976,33.1086431 67.6311871,33.1086431 L67.1798472,33.1086431 C66.6382367,33.1086431 66.1417678,32.9532841 65.6904257,32.6425616 Z" id="Dev" fill="#A34170"></path>
                        <g id="&lt;3" transform="translate(211.931593, 2.765786)" fill="#A34170">
                            <path d="M16.2713808,30.1503817 L1.34659703,19.9902774 C0.922666217,19.687554 0.592254509,19.2807755 0.355351995,18.7699297 C0.11844948,18.2590839 0,17.682026 0,17.0387387 L0,16.5846558 C0,15.9413685 0.11844948,15.3643107 0.355351995,14.8534649 C0.592254509,14.3426191 0.922666217,13.9358406 1.34659703,13.6331171 L16.2713808,3.47301283 C16.4708777,3.35949154 16.6703715,3.30273175 16.8698684,3.30273175 C17.2937992,3.30273175 17.6491476,3.52031095 17.9359244,3.95547588 C18.2227011,4.39064081 18.3660873,4.92985883 18.3660873,5.57314612 C18.3660873,6.02723127 18.2725746,6.45292971 18.0855463,6.85025421 C17.898518,7.24757871 17.6553848,7.54083763 17.3561395,7.73003978 L3.8901692,16.8116973 L17.3561395,25.8933548 C17.6553848,26.0825569 17.898518,26.3758158 18.0855463,26.7731403 C18.2725746,27.1704648 18.3660873,27.5961633 18.3660873,28.0502484 C18.3660873,28.6935357 18.2227011,29.2327537 17.9359244,29.6679187 C17.6491476,30.1030836 17.2937992,30.3206628 16.8698684,30.3206628 C16.6703715,30.3206628 16.4708777,30.263903 16.2713808,30.1503817 Z" id="&lt;"></path>
                            <path d="M22.6422164,30.6387819 C22.2811427,30.4908188 21.995297,30.2762755 21.7846707,29.9951455 C21.5740444,29.7140156 21.4687328,29.3663075 21.4687328,28.9520107 C21.4687328,28.4489361 21.6417447,28.0124515 21.9877736,27.6425437 C22.3338026,27.2726359 22.7625712,27.0876847 23.2740922,27.0876847 C23.5448975,27.0876847 23.8307432,27.1468691 24.131638,27.2652396 C26.2980802,28.1234257 28.6901575,28.5525123 31.3079418,28.5525123 C33.6549208,28.5525123 35.6332741,28.175212 37.243061,27.4206001 C38.8528479,26.6659882 39.6577293,25.4009224 39.6577293,23.625365 C39.6577293,19.8966943 36.3328922,18.0323869 29.6831183,18.0323869 L28.9609745,18.0323869 C28.4494534,18.0323869 28.0056403,17.8474358 27.6295219,17.477528 C27.2534035,17.1076202 27.0653471,16.6711355 27.0653471,16.1680609 C27.0653471,15.6649863 27.2534035,15.2285016 27.6295219,14.8585938 C28.0056403,14.488686 28.4494534,14.3037349 28.9609745,14.3037349 L29.2317784,14.3037349 C32.2407259,14.3037349 34.5425362,13.8524541 36.1372783,12.9498791 C37.7320205,12.047304 38.5293796,10.7082579 38.5293796,8.9327004 C38.5293796,7.51225443 37.9275991,6.38775157 36.7240201,5.55915808 C35.5204412,4.7305646 33.7451888,4.31627407 31.3982098,4.31627407 C28.8706939,4.31627407 26.5387946,4.80454505 24.4024419,5.78110166 C24.1015472,5.89947215 23.8307459,5.95865652 23.5900301,5.95865652 C23.138688,5.95865652 22.7475307,5.80329757 22.4165465,5.49257501 C22.0855623,5.18185245 21.9200727,4.78975606 21.9200727,4.31627407 C21.9200727,3.63564371 22.2209629,3.13257664 22.8227524,2.80705777 C25.7113419,1.29783392 28.6901552,0.543233318 31.7592817,0.543233318 C35.2195712,0.543233318 37.8974943,1.23864956 39.7931312,2.62950291 C41.6887681,4.02035626 42.6365723,5.98823627 42.6365723,8.53320197 C42.6365723,10.5750931 42.1175367,12.1804689 41.0794498,13.3493775 C40.0413629,14.5182862 38.7400127,15.3838575 37.17536,15.9461173 C38.8904601,16.3308214 40.417478,17.1372084 41.7564596,18.3653023 C43.0954412,19.5933962 43.764922,21.4207133 43.764922,23.8473086 C43.764922,26.56983 42.6741949,28.6782729 40.492708,30.1727004 C38.3112211,31.6671279 35.5054197,32.4143305 32.0752196,32.4143305 C28.7352879,32.4143305 25.5909849,31.8224869 22.6422164,30.6387819 Z" id="3"></path>
                        </g>
                    </g>
                    <path d="M8.55900229,45.3154613 C7.3005727,44.4338477 6.67136734,42.8401854 6.67136734,40.5344268 L6.67136734,29.8025302 C6.67136734,29.0904577 6.58517483,28.4970728 6.41278721,28.0223578 C6.2403996,27.5476428 5.80943702,27.0983657 5.11988657,26.674513 C4.43033611,26.2506603 3.36154892,25.9200602 1.91349296,25.6827026 C1.32737507,25.580978 0.887793243,25.352101 0.594734298,24.9960647 C0.301675353,24.6400284 0.155148078,24.1907513 0.155148078,23.6482199 C0.155148078,23.1056884 0.301675353,22.6564113 0.594734298,22.3003751 C0.887793243,21.9443388 1.32737507,21.7154618 1.91349296,21.6137371 C3.36154892,21.3763796 4.43033611,21.0457795 5.11988657,20.6219268 C5.80943702,20.1980741 6.2403996,19.748797 6.41278721,19.274082 C6.58517483,18.7993669 6.67136734,18.2059821 6.67136734,17.4939095 L6.67136734,6.76201299 C6.67136734,4.45625433 7.3005727,2.86259211 8.55900229,1.9809785 C9.81743188,1.0993649 11.6016169,0.658564711 13.911611,0.658564711 L14.5322033,0.658564711 C15.0148886,0.658564711 15.4372319,0.836580172 15.7992459,1.19261644 C16.1612599,1.5486527 16.3422642,1.96402211 16.3422642,2.43873712 C16.3422642,2.91345214 16.1612599,3.32882155 15.7992459,3.68485781 C15.4372319,4.04089408 15.0148886,4.21890954 14.5322033,4.21890954 L13.7564629,4.21890954 C12.446317,4.21890954 11.6102496,4.42235578 11.2482356,4.82925437 C10.8862216,5.23615295 10.7052174,5.74476856 10.7052174,6.35511644 L10.7052174,17.6464957 C10.7052174,20.5286941 9.1537521,22.5292488 6.05077503,23.6482199 C9.1537521,24.767191 10.7052174,26.7677457 10.7052174,29.649944 L10.7052174,40.9413233 C10.7052174,41.5516712 10.8862216,42.0602868 11.2482356,42.4671854 C11.6102496,42.874084 12.446317,43.0775302 13.7564629,43.0775302 L14.5322033,43.0775302 C15.0148886,43.0775302 15.4372319,43.2555457 15.7992459,43.611582 C16.1612599,43.9676182 16.3422642,44.3829876 16.3422642,44.8577026 C16.3422642,45.3324177 16.1612599,45.7477871 15.7992459,46.1038233 C15.4372319,46.4598596 15.0148886,46.6378751 14.5322033,46.6378751 L13.911611,46.6378751 C11.6016169,46.6378751 9.81743188,46.1970749 8.55900229,45.3154613 Z M303.637718,46.1038233 C303.275704,45.7477871 303.094699,45.3324177 303.094699,44.8577026 C303.094699,44.3829876 303.275704,43.9676182 303.637718,43.611582 C303.999732,43.2555457 304.422075,43.0775302 304.90476,43.0775302 L305.680501,43.0775302 C306.990646,43.0775302 307.826714,42.874084 308.188728,42.4671854 C308.550742,42.0602868 308.731746,41.5516712 308.731746,40.9413233 L308.731746,29.649944 C308.731746,26.7677457 310.283211,24.767191 313.386188,23.6482199 C310.283211,22.5292488 308.731746,20.5286941 308.731746,17.6464957 L308.731746,6.35511644 C308.731746,5.74476856 308.550742,5.23615295 308.188728,4.82925437 C307.826714,4.42235578 306.990646,4.21890954 305.680501,4.21890954 L304.90476,4.21890954 C304.422075,4.21890954 303.999732,4.04089408 303.637718,3.68485781 C303.275704,3.32882155 303.094699,2.91345214 303.094699,2.43873712 C303.094699,1.96402211 303.275704,1.5486527 303.637718,1.19261644 C303.999732,0.836580172 304.422075,0.658564711 304.90476,0.658564711 L305.525353,0.658564711 C307.835347,0.658564711 309.619532,1.0993649 310.877961,1.9809785 C312.136391,2.86259211 312.765596,4.45625433 312.765596,6.76201299 L312.765596,17.4939095 C312.765596,18.2059821 312.851789,18.7993669 313.024176,19.274082 C313.196564,19.748797 313.627526,20.1980741 314.317077,20.6219268 C315.006627,21.0457795 316.075415,21.3763796 317.523471,21.6137371 C318.109588,21.7154618 318.54917,21.9443388 318.842229,22.3003751 C319.135288,22.6564113 319.281815,23.1056884 319.281815,23.6482199 C319.281815,24.1907513 319.135288,24.6400284 318.842229,24.9960647 C318.54917,25.352101 318.109588,25.580978 317.523471,25.6827026 C316.075415,25.9200602 315.006627,26.2506603 314.317077,26.674513 C313.627526,27.0983657 313.196564,27.5476428 313.024176,28.0223578 C312.851789,28.4970728 312.765596,29.0904577 312.765596,29.8025302 L312.765596,40.5344268 C312.765596,42.8401854 312.136391,44.4338477 310.877961,45.3154613 C309.619532,46.1970749 307.835347,46.6378751 305.525353,46.6378751 L304.90476,46.6378751 C304.422075,46.6378751 303.999732,46.4598596 303.637718,46.1038233 Z" id="{-}" fill="#3B3561"></path>
                </g>
            </g>
        </g>
    </g>
</svg>