<?xml version="1.0" encoding="UTF-8"?>
<svg width="146px" height="142px" viewBox="0 0 146 142" version="1.1" xmlns="http://www.w3.org/2000/svg" xmlns:xlink="http://www.w3.org/1999/xlink">
    <!-- Generator: Sketch 44.1 (41455) - http://www.bohemiancoding.com/sketch -->
    <title>mandala-logo</title>
    <desc>Created with Sketch.</desc>
    <defs></defs>
    <g id="Page-1" stroke="none" stroke-width="1" fill="none" fill-rule="evenodd">
        <g id="work" transform="translate(-639.000000, -460.000000)" fill-rule="nonzero">
            <g id="mandala-logo" transform="translate(639.000000, 460.000000)">
                <polygon id="Path" fill="#FC5E21" points="59.5759504 17.1097019 46.754928 18.8126404 37.942635 25.6538743 20.5046621 48.54184 14.8104891 55.8488519 11.5768465 64.5944682 13.806332 73.7498512 20.2301727 99.1652018 21.726041 109.105725 26.4575265 116.640712 34.0435038 119.142548 61.8745521 132.475191 67.9014691 137.226321 76.046299 135.884999 86.3396498 132.950795 110.179741 120.229363 119.980393 116.975797 124.217206 109.960633 127.203018 102.171139 125.977689 95.2935468 134.69322 63.8329118 132.082609 55.4086231 125.862167 48.9859995 109.603116 28.3817204 102.570067 20.5843647 95.2654906 17.1539213 87.8463793 17.6501613 81.6565453 17.7523573"></polygon>
                <ellipse id="svg_39" fill-opacity="0" fill="#FC5E21" cx="72.5555547" cy="74.0502293" rx="57.8812132" ry="57.6046225"></ellipse>
                <ellipse id="svg_47" fill-opacity="0" fill="#FC5E21" cx="29.2032286" cy="65.1879773" rx="18.0439409" ry="17.9577163"></ellipse>
                <ellipse id="svg_54" fill-opacity="0" fill="#FC5E21" cx="38.3423674" cy="101.803062" rx="18.0439409" ry="17.9577163"></ellipse>
                <ellipse id="svg_53" fill-opacity="0" fill="#FC5E21" cx="71.8525443" cy="118.361476" rx="18.0439409" ry="17.9577163"></ellipse>
                <ellipse id="svg_52" fill-opacity="0" fill="#FC5E21" cx="107.003078" cy="102.502714" rx="18.0439409" ry="17.9577163"></ellipse>
                <ellipse id="svg_51" fill-opacity="0" fill="#FC5E21" cx="116.142217" cy="64.2551118" rx="18.0439409" ry="17.9577163"></ellipse>
                <ellipse id="svg_50" fill-opacity="0" fill="#FC5E21" cx="92.7085272" cy="35.1029746" rx="18.0439409" ry="17.9577163"></ellipse>
                <ellipse id="svg_49" fill-opacity="0" fill="#FC5E21" cx="53.8086034" cy="34.6365405" rx="18.0439409" ry="17.9577163"></ellipse>
                <path d="M47.0430084,53.5089136 C67.0622634,77.3346776 27.2998029,78.6128568 16.1425284,29.4386767 C66.7862139,28.4049709 75.091167,67.1257409 47.0430084,53.5089136 Z" id="svg_40" fill="#C1F7DC"></path>
                <path d="M40.0996267,81.8587381 C71.2816378,80.606091 48.0430672,112.742213 2.08511227,91.5431074 C32.1561862,50.9752628 68.0513049,68.0468109 40.0996267,81.8587381 Z" id="svg_41" fill="#C1F7DC"></path>
                <path d="M58.0314202,105.234748 C76.7179573,80.3598795 87.1245439,118.574382 41.6116463,140.704084 C28.9382969,91.8951151 64.8867539,74.935095 58.0314202,105.234748 L58.0314202,105.234748 Z" id="svg_42" fill="#C1F7DC"></path>
                <path d="M87.2773353,105.966272 C79.0509643,76.0064893 115.733938,91.3297371 105.293466,140.659583 C58.8207322,120.602806 67.4786123,81.9586797 87.2773353,105.966272 Z" id="svg_43" fill="#C1F7DC"></path>
                <path d="M106.417179,82.0194198 C78.2953731,68.5538835 113.974787,51.0401875 144.54956,91.2333955 C98.8595707,112.998652 75.2219456,81.1521046 106.417179,82.0194198 Z" id="svg_44" fill="#C1F7DC"></path>
                <path d="M99.5688359,53.3448772 C71.6116324,67.1457242 79.6595037,28.3712226 130.308943,29.0721044 C119.478168,78.3185319 79.7080942,77.3016774 99.5688359,53.3448772 Z" id="svg_45" fill="#C1F7DC"></path>
                <path d="M72.5182474,41.1486524 C65.4397029,71.4294816 39.7578056,40.7028687 73.0547178,2.09961766 C105.278689,41.5944367 78.762283,71.610767 72.5182474,41.1486524 Z" id="svg_46" fill="#C1F7DC"></path>
                <ellipse id="svg_56" fill="#C45AB3" cx="72.9070487" cy="74.6332667" rx="38.0797432" ry="37.8977757"></ellipse>
                <ellipse id="svg_57" fill="#FC5E21" cx="72.9070663" cy="74.4000645" rx="32.2213259" ry="32.0673533"></ellipse>
                <ellipse id="svg_55" fill="#70146A" cx="73.0242189" cy="74.5166583" rx="22.027667" ry="21.9224058"></ellipse>
                <path d="M73.0243289,51.45147 C60.2295217,51.45147 49.8249536,61.8063194 49.8249536,74.539985 C49.8249536,87.2736505 60.2295222,97.6285 73.0243289,97.6285 C85.8191356,97.6285 96.2237043,87.2736505 96.2237043,74.539985 C96.2237043,61.8063194 85.8191356,51.45147 73.0243289,51.45147 Z M73.0243289,96.0892662 C61.0731353,96.0892662 51.3715785,86.4340692 51.3715785,74.5399855 C51.3715785,62.6459018 61.0731353,52.9907047 73.0243289,52.9907047 C84.9755225,52.9907047 94.6770793,62.6459018 94.6770793,74.5399855 C94.6770793,86.4340692 84.9755225,96.0892662 73.0243289,96.0892662 Z" id="svg_2" fill="#70146A"></path>
                <ellipse id="svg_3" fill="#C1F7DC" cx="72.7899923" cy="47.5800627" rx="1.96842983" ry="1.95902351"></ellipse>
                <ellipse id="svg_4" fill="#C1F7DC" transform="translate(67.324548, 48.380331) rotate(-78.001279) translate(-67.324548, -48.380331) " cx="67.3245477" cy="48.3803313" rx="1.96852797" ry="1.95912118"></ellipse>
                <ellipse id="svg_5" fill="#C1F7DC" transform="translate(62.000806, 49.916084) rotate(-23.999141) translate(-62.000806, -49.916084) " cx="62.0008056" cy="49.9160844" rx="1.96832078" ry="1.95891498"></ellipse>
                <ellipse id="svg_6" fill="#C1F7DC" transform="translate(57.145730, 52.737813) rotate(-36.001256) translate(-57.145730, -52.737813) " cx="57.1457296" cy="52.7378131" rx="1.96842186" ry="1.95901558"></ellipse>
                <ellipse id="svg_7" fill="#C1F7DC" transform="translate(52.898997, 56.486773) rotate(-47.999585) translate(-52.898997, -56.486773) " cx="52.8989968" cy="56.4867725" rx="1.96832598" ry="1.95892015"></ellipse>
                <ellipse id="svg_8" fill="#C1F7DC" transform="translate(49.586679, 61.057319) rotate(-59.999272) translate(-49.586679, -61.057319) " cx="49.5866792" cy="61.0573185" rx="1.96838856" ry="1.95898243"></ellipse>
                <ellipse id="svg_9" fill="#C1F7DC" transform="translate(47.276345, 66.180912) rotate(-72.001696) translate(-47.276345, -66.180912) " cx="47.2763448" cy="66.1809122" rx="1.96850293" ry="1.95909626"></ellipse>
                <ellipse id="svg_10" fill="#C1F7DC" transform="translate(46.086972, 71.692798) rotate(-84.001491) translate(-46.086972, -71.692798) " cx="46.0869715" cy="71.692798" rx="1.96838314" ry="1.95897704"></ellipse>
                <ellipse id="svg_11" fill="#C1F7DC" transform="translate(46.117928, 77.336028) rotate(-5.998509) translate(-46.117928, -77.336028) " cx="46.1179276" cy="77.3360282" rx="1.96838314" ry="1.95897704"></ellipse>
                <ellipse id="svg_12" fill="#C1F7DC" transform="translate(47.292477, 82.845069) rotate(-17.998304) translate(-47.292477, -82.845069) " cx="47.2924765" cy="82.8450691" rx="1.96850293" ry="1.95909626"></ellipse>
                <ellipse id="svg_13" fill="#C1F7DC" transform="translate(49.575900, 87.970785) rotate(-30.000728) translate(-49.575900, -87.970785) " cx="49.5758998" cy="87.9707847" rx="1.96838856" ry="1.95898243"></ellipse>
                <ellipse id="svg_14" fill="#C1F7DC" transform="translate(52.912045, 92.548407) rotate(-41.996582) translate(-52.912045, -92.548407) " cx="52.9120449" cy="92.5484071" rx="1.96847227" ry="1.95906574"></ellipse>
                <ellipse id="svg_15" fill="#C1F7DC" transform="translate(57.128482, 96.306718) rotate(-53.998744) translate(-57.128482, -96.306718) " cx="57.1284822" cy="96.3067182" rx="1.96842186" ry="1.95901558"></ellipse>
                <ellipse id="svg_16" fill="#C1F7DC" transform="translate(61.990143, 99.131400) rotate(-66.000859) translate(-61.990143, -99.131400) " cx="61.9901433" cy="99.1313997" rx="1.96832078" ry="1.95891498"></ellipse>
                <ellipse id="svg_17" fill="#C1F7DC" transform="translate(67.406720, 100.878136) rotate(-78.000088) translate(-67.406720, -100.878136) " cx="67.4067196" cy="100.878136" rx="1.96833543" ry="1.95892956"></ellipse>
                <ellipse id="svg_18" fill="#C1F7DC" cx="73.0243289" cy="101.453265" rx="1.96842983" ry="1.95902351"></ellipse>
                <ellipse id="svg_19" fill="#C1F7DC" transform="translate(78.657451, 100.900474) rotate(-11.998721) translate(-78.657451, -100.900474) " cx="78.6574512" cy="100.900474" rx="1.96852797" ry="1.95912118"></ellipse>
                <ellipse id="svg_20" fill="#C1F7DC" transform="translate(84.022239, 99.117967) rotate(-23.999141) translate(-84.022239, -99.117967) " cx="84.0222387" cy="99.1179668" rx="1.96832078" ry="1.95891498"></ellipse>
                <ellipse id="svg_21" fill="#C1F7DC" transform="translate(88.917541, 96.331803) rotate(-36.001256) translate(-88.917541, -96.331803) " cx="88.9175414" cy="96.3318027" rx="1.96842186" ry="1.95901558"></ellipse>
                <ellipse id="svg_22" fill="#C1F7DC" transform="translate(93.118376, 92.554088) rotate(-47.999585) translate(-93.118376, -92.554088) " cx="93.1183762" cy="92.554088" rx="1.96832598" ry="1.95892015"></ellipse>
                <ellipse id="svg_23" fill="#C1F7DC" transform="translate(96.438451, 87.992754) rotate(-59.999272) translate(-96.438451, -87.992754) " cx="96.4384508" cy="87.9927536" rx="1.96838856" ry="1.95898243"></ellipse>
                <ellipse id="svg_24" fill="#C1F7DC" transform="translate(98.759026, 82.855774) rotate(-72.001696) translate(-98.759026, -82.855774) " cx="98.7590255" cy="82.8557739" rx="1.96850293" ry="1.95909626"></ellipse>
                <ellipse id="svg_25" fill="#C1F7DC" transform="translate(99.929371, 77.357297) rotate(-84.001491) translate(-99.929371, -77.357297) " cx="99.929371" cy="77.3572971" rx="1.96838314" ry="1.95897704"></ellipse>
                <ellipse id="svg_26" fill="#C1F7DC" transform="translate(99.917631, 71.699935) rotate(-5.998509) translate(-99.917631, -71.699935) " cx="99.9176308" cy="71.699935" rx="1.96838314" ry="1.95897704"></ellipse>
                <ellipse id="svg_27" fill="#C1F7DC" transform="translate(98.754728, 66.202835) rotate(-17.998304) translate(-98.754728, -66.202835) " cx="98.754728" cy="66.2028348" rx="1.96850293" ry="1.95909626"></ellipse>
                <ellipse id="svg_28" fill="#C1F7DC" transform="translate(96.456870, 61.058951) rotate(-30.000728) translate(-96.456870, -61.058951) " cx="96.4568696" cy="61.0589513" rx="1.96838856" ry="1.95898243"></ellipse>
                <ellipse id="svg_29" fill="#C1F7DC" transform="translate(93.115504, 56.497696) rotate(-42.000415) translate(-93.115504, -56.497696) " cx="93.1155036" cy="56.4976962" rx="1.96832598" ry="1.95892015"></ellipse>
                <ellipse id="svg_30" fill="#C1F7DC" transform="translate(88.940563, 52.768579) rotate(-53.998744) translate(-88.940563, -52.768579) " cx="88.9405625" cy="52.768579" rx="1.96842186" ry="1.95901558"></ellipse>
                <ellipse id="svg_31" fill="#C1F7DC" transform="translate(84.022309, 49.914498) rotate(-66.000859) translate(-84.022309, -49.914498) " cx="84.0223089" cy="49.9144983" rx="1.96832078" ry="1.95891498"></ellipse>
                <ellipse id="svg_32" fill="#C1F7DC" transform="translate(78.428827, 48.178065) rotate(-78.001279) translate(-78.428827, -48.178065) " cx="78.428827" cy="48.1780648" rx="1.96852797" ry="1.95912118"></ellipse>
                <path d="M145.668838,91.0051284 L145.106429,90.258833 C140.841493,84.6616171 136.623425,80.3237752 132.639694,77.0120889 C135.545474,76.7788716 137.092099,75.9859328 137.513906,74.6332724 C138.076315,72.8141774 136.154751,70.808508 134.795595,69.6424215 C138.029448,68.383048 139.529206,67.0770311 139.529206,65.4911529 C139.482338,63.3455537 136.435956,61.8529624 134.654993,61.1533105 C137.326436,58.1214855 138.17005,56.0225292 137.326436,54.483295 C136.248486,52.5709131 132.874031,52.7574869 130.905599,52.9907042 C131.79608,49.4458007 131.561743,47.3468449 130.202588,46.4139756 C128.8903,45.5277499 126.968736,46.2274018 125.375243,47.0669841 C127.624879,42.2160636 129.687046,36.338987 131.093069,29.1092499 L131.280538,28.2230241 L130.34319,28.1763807 C123.266209,27.9898068 117.267178,28.5961718 112.158629,29.622328 C113.752121,27.2435114 114.12706,25.5177029 113.330314,24.3516163 C112.252364,22.7657386 109.487185,22.9989559 107.706223,23.3721036 C108.737306,20.1070613 108.643572,18.101392 107.378151,17.1218793 C105.690924,15.8158623 102.597674,17.2618097 100.957314,18.2413224 C100.254303,14.2766276 99.082617,12.3176022 97.3953893,12.0377415 C95.2394879,11.7112372 93.2241883,14.416558 92.2399724,16.0957231 C89.9903362,13.157185 88.2093737,12.0377415 86.6627487,12.5508195 C85.1629912,13.0172542 84.4599799,14.9296361 84.1787754,16.7020881 C81.7885368,11.9444545 78.414082,6.67374336 73.6804719,1.02988401 L73.0711954,0.330232086 L72.4619189,1.02988401 C67.8689111,6.44052605 64.5881915,11.5246639 62.197953,16.0957231 C61.307472,13.3437589 60.1826538,11.991098 58.7766312,11.8978111 C56.8550669,11.7578807 55.3084415,14.0434103 54.4648279,15.675932 C52.5432636,12.8306808 50.9029033,11.6645938 49.3562784,12.0377415 C47.2472444,12.5508195 46.4973656,15.8158623 46.2161611,17.7282443 C42.6542366,15.8158623 40.4046003,15.4893581 39.0923125,16.6554447 C37.4519527,18.101392 38.3893011,21.3664348 39.0923125,23.2321732 C35.3897857,23.1388863 33.4213539,23.8385382 32.8120774,25.3777725 C32.2496684,26.8237198 33.3276191,28.5961713 34.5461721,29.9021888 C29.2970203,28.7827457 23.0636527,28.1297372 15.6585995,28.316311 L14.7212511,28.3629545 L14.9087208,29.2491803 C16.267876,36.1524131 18.2363078,41.8895594 20.3453422,46.6005495 C17.6270317,45.5743933 15.8929367,45.5743933 14.9087208,46.647193 C13.596433,48.0464968 14.4400466,50.6585311 15.1899253,52.3376958 C11.7217356,52.057835 9.80017131,52.6175565 9.1440274,54.0635038 C8.25354638,56.0225292 10.315713,58.681207 11.6748682,60.0805109 C7.97234138,61.6663886 6.28511418,63.2056228 6.37884903,64.9314314 C6.51945129,67.1236741 9.65956857,68.4296915 11.5342659,69.0360565 C9.19089482,71.8346642 8.44101607,73.8403335 9.28462967,75.2396374 C9.987641,76.4523674 11.6280008,76.7788716 13.268361,76.7788716 C13.5026981,76.7788716 13.6901678,76.7788716 13.9245049,76.7788716 C9.80017131,80.1372009 5.34776621,84.6149737 0.942228065,90.4920503 L0.379819,91.2383457 L1.17656518,91.6581369 C7.45680021,94.8765357 13.1746262,96.9288485 18.1894403,98.2348655 C15.705467,99.7274562 14.6275158,101.080117 14.8149859,102.479421 C15.0961905,104.345159 17.7207661,105.371316 19.4548612,105.791107 C17.0646227,108.309854 16.3147439,110.175593 17.0177553,111.574896 C17.9551037,113.487278 21.376426,113.533922 23.2979903,113.347348 C22.2200396,117.218756 22.3606419,119.504285 23.8135319,120.483798 C25.594494,121.743172 28.5940095,120.11065 30.2343692,119.037851 C30.984248,122.629398 32.1090661,124.401849 33.7025589,124.635067 C33.7962938,124.635067 33.9368961,124.635067 34.0306309,124.635067 C35.483521,124.635067 36.7958088,123.282406 37.7800251,121.929746 C37.87376,127.247101 38.5767713,133.450682 40.4514682,140.587132 L40.6858053,141.473358 L41.5294189,141.10021 C47.9971236,138.254959 53.1525405,135.083203 57.2768737,131.958091 C56.9019343,134.803342 57.2768737,136.482507 58.5422941,137.228803 C60.1826538,138.208316 62.5728928,136.762368 64.0257829,135.689569 C64.5413246,139.094541 65.478673,140.866993 67.0252979,141.193498 C69.1343319,141.659932 71.2433664,139.001255 72.3213171,137.415377 C74.3834837,140.213984 76.0707113,141.566645 77.5704689,141.566645 C77.804806,141.566645 78.0391431,141.520002 78.2734802,141.473358 C80.3825142,140.866993 80.9917907,137.508664 81.1323929,135.596282 C84.4131125,137.275446 86.5221469,137.508664 87.6938325,136.389221 C88.8186506,135.316421 88.6311809,133.264109 88.1156393,131.584943 C92.3337078,134.849986 97.6765939,138.161672 104.425503,141.146854 L105.269117,141.520001 L105.503454,140.633776 C107.284416,133.82383 108.034295,127.853466 108.128029,122.676041 C109.721522,124.355206 111.03381,125.148145 112.205496,125.148145 C112.4867,125.148145 112.767905,125.101501 113.049109,125.008214 C114.830071,124.308562 115.205011,121.556598 115.298746,119.784146 C118.298261,121.509954 120.266693,121.883102 121.485246,120.856946 C123.172473,119.504285 122.422594,116.192599 121.813318,114.373504 C125.843916,114.560078 128.046685,113.90707 128.702829,112.274548 C129.546443,110.26888 127.296807,107.703489 125.843916,106.350828 C129.218371,104.811594 130.718129,103.365647 130.577527,101.733125 C130.436924,100.193891 128.70283,99.0744478 127.062469,98.3747959 C132.264754,97.1154224 138.170049,95.0164666 144.731489,91.6581369 L145.668837,91.0051284 L145.668838,91.0051284 Z M124.15669,98.8412305 C124.15669,98.8412305 124.203557,98.8412305 124.203557,98.8412305 C124.391027,100.007317 125.937652,114.000356 108.174898,118.664703 C108.12803,117.125469 107.987428,115.679522 107.846826,114.326861 C114.923807,111.341679 119.61055,105.884394 120.782235,99.400952 C121.907053,99.2143782 122.985004,99.0278043 124.15669,98.8412305 Z M106.393935,106.444115 C105.878394,104.531733 105.269117,102.945855 104.753576,101.686482 C105.644057,100.940186 106.440803,100.147247 107.143814,99.3543086 C108.596704,99.5875259 110.471401,99.7740997 112.721038,99.8673866 C111.315015,102.432777 109.159113,104.718307 106.393935,106.444115 L106.393935,106.444115 Z M85.8191356,129.485987 C85.8191356,129.485987 85.8191356,129.485987 85.8191356,129.485987 C85.0223894,130.372213 75.086495,140.353914 60.2763887,129.439343 C61.4480742,128.459831 62.5260249,127.433674 63.5102408,126.500805 C67.1190328,128.459831 70.915294,129.439343 74.4772185,129.439343 C77.5704684,129.439343 80.5699839,128.693048 83.2882943,127.247101 C84.0850405,127.946753 84.9286541,128.693048 85.8191351,129.485987 L85.8191356,129.485987 Z M68.759393,120.390511 C69.9310786,118.75799 70.8215596,117.312043 71.4777035,116.145956 C72.6025216,116.379173 73.7273398,116.519103 74.8052905,116.565747 C75.5551692,117.871764 76.5393851,119.457642 77.8985403,121.18345 C74.9927602,121.743172 71.8526424,121.463311 68.7593926,120.390511 L68.759393,120.390511 Z M47.481582,104.671664 L52.4963966,114.233574 C51.6059156,114.047 50.6216997,114.093643 49.7312187,114.420148 C48.4657983,114.886582 47.434715,115.772808 46.8254385,116.985538 C45.8880901,118.944563 46.3098969,121.230094 47.762787,122.722684 L44.5289349,123.60891 C43.7321887,113.953713 46.2161621,107.283698 47.4815825,104.671663 L47.481582,104.671664 Z M26.2975058,99.4942389 C27.656661,107.003837 31.9215969,112.787626 38.0612297,115.353017 C37.9674948,116.425817 37.87376,117.54526 37.87376,118.75799 C37.87376,118.75799 37.87376,118.804633 37.87376,118.804633 C36.7020744,118.711346 22.6418469,117.125468 22.0325704,98.84123 C23.4854605,99.1210908 24.9383505,99.3543081 26.2975063,99.4942385 L26.2975058,99.4942389 Z M39.3735175,107.423628 C37.1238812,105.464603 35.3897861,102.899212 34.3118354,99.8207432 C36.3271346,99.7274562 38.0143622,99.5408824 39.3266501,99.3076651 C39.8421917,100.333821 40.4514682,101.26669 41.1076121,102.152916 C40.545203,103.505577 39.9359266,105.278028 39.3735175,107.423628 L39.3735175,107.423628 Z M41.8574909,100.473752 C41.5294189,100.007317 41.2482144,99.4942389 40.9670098,98.9811609 C41.5762863,98.8412305 41.9980931,98.7013001 42.3261651,98.6080132 C42.4198999,98.7479435 42.5136348,98.8878739 42.654237,98.9811609 C42.4198999,99.3076651 42.1855628,99.7740997 41.8574909,100.473752 Z M16.3616114,74.7265588 C16.3147439,74.7265588 16.3147439,74.7265588 16.3616114,74.7265588 C15.6586,73.7470461 8.15981201,61.8529624 22.0794373,49.9588787 C22.7824486,51.3115391 23.5323274,52.5709126 24.2353387,53.7369996 C19.1736567,59.4741459 17.2989598,66.4240222 19.1267893,72.7675334 C18.2363082,73.3738984 17.2989598,74.0269069 16.3616114,74.7265588 L16.3616114,74.7265588 Z M29.0158163,60.1737978 C30.3281041,61.6663886 31.5466571,62.8791186 32.5777408,63.7653448 C32.1090666,64.791501 31.7341272,65.8643006 31.4529227,66.9371002 C30.0000326,67.3568914 28.265938,67.9632564 26.2037709,68.8961256 C26.3443732,65.9109441 27.3285891,62.9724055 29.0158163,60.1737978 L29.0158163,60.1737978 Z M33.7962938,64.791501 C34.264968,65.1646487 34.6399074,65.4445095 34.9211119,65.6310833 C34.8742445,65.8176572 34.8273771,65.9575875 34.8273771,66.1441614 C34.4524377,66.1908049 33.8900286,66.2840918 33.1870173,66.4706656 C33.374487,65.8643006 33.5619567,65.3045791 33.7962938,64.791501 L33.7962938,64.791501 Z M37.545688,30.5551977 C37.545688,30.5551977 37.4988206,30.5085542 37.545688,30.5551977 C37.87376,29.3891111 42.5605027,16.142367 60.5575937,19.5939832 C59.9483172,20.9932871 59.3859081,22.3459475 58.9641013,23.6519649 C51.2778436,23.2788172 44.6695367,26.1707118 40.8264076,31.5347104 C39.7953243,31.1615627 38.6705062,30.8350585 37.545688,30.5551977 Z M85.4441967,19.4540528 C86.5221474,19.0342617 99.8793637,14.369915 108.409235,30.5551977 C106.909477,30.9283454 105.503455,31.39478 104.238034,31.8145712 C99.7387609,25.6109903 93.364791,22.2993045 86.7096166,22.6258087 C86.3346773,21.5996526 85.9128705,20.5734964 85.4441962,19.4540533 C85.4441962,19.4540533 85.4441962,19.4540533 85.4441962,19.4540533 L85.4441967,19.4540528 Z M96.8798486,35.03297 C95.0988866,35.9658393 93.6928639,36.8987085 92.5680453,37.6916473 C91.6775643,36.9919954 90.6933485,36.3856304 89.7091326,35.8725523 C89.6153977,34.3799616 89.3810606,32.5142231 88.9592538,30.3686234 C91.8181666,31.1615622 94.5364775,32.7474399 96.8798486,35.03297 Z M89.8028674,37.6916473 C90.3184091,37.9715081 90.7870833,38.2980123 91.3026249,38.67116 C90.8339507,39.0443077 90.4590113,39.370812 90.2246742,39.6040293 C90.084072,39.5107424 89.8966023,39.4640989 89.756,39.370812 C89.8028674,38.9510208 89.8028674,38.3912993 89.8028674,37.6916473 Z M100.394906,99.0278038 C99.973099,99.4942385 98.3327392,99.2143777 96.692379,97.7217869 C96.5986441,97.6285 96.5049093,97.5352131 96.4111744,97.4419261 L98.4264736,95.20304 C98.5202084,95.2963269 98.6139433,95.3429704 98.7076781,95.4362573 C99.5044243,96.1359092 100.113701,96.9754915 100.394905,97.7217869 C100.535508,98.3281519 100.582375,98.84123 100.394905,99.0278038 L100.394906,99.0278038 Z M92.0056367,113.767139 L83.2414283,112.087974 C87.9750384,110.828601 92.3337087,108.683001 96.1768378,105.884393 L92.0056367,113.767139 Z M73.0243294,111.155105 C72.4150529,111.155105 71.5245719,109.755801 71.5245719,107.516914 C71.5245719,107.376984 71.5245719,107.283697 71.5245719,107.143767 L74.5240869,107.143767 C74.5240869,107.283697 74.5240869,107.376984 74.5240869,107.516914 C74.5240869,109.755801 73.6336059,111.155105 73.0243294,111.155105 Z M73.0243294,105.557889 C55.8239841,105.557889 41.8574913,91.6581364 41.8574913,74.5399845 C41.8574913,57.4218326 55.8239841,43.5220801 73.0243294,43.5220801 C90.2246747,43.5220801 104.191167,57.4218326 104.191167,74.5399845 C104.191167,91.6581364 90.2246747,105.557889 73.0243294,105.557889 L73.0243294,105.557889 Z M49.8718215,105.884393 C53.7149505,108.683001 58.0736208,110.828601 62.8072309,112.087974 L54.0430225,113.767139 L49.8718215,105.884393 Z M45.653753,99.0278038 C45.2319462,98.5613692 45.7006204,96.9754915 47.3409802,95.4829003 C47.434715,95.3896134 47.5284499,95.2963264 47.6221847,95.249683 L49.6374839,97.4885691 C49.543749,97.5818561 49.4500142,97.675143 49.3562793,97.7684299 C47.762787,99.2143772 46.0755598,99.494238 45.6537525,99.0278034 L45.653753,99.0278038 Z M36.3271355,73.0007503 C37.2176165,73.5604718 38.4361695,73.980263 39.7015899,74.1201934 C39.8890596,74.1201934 40.0765293,74.1201934 40.263999,74.1668368 C40.263999,74.3067672 40.263999,74.4000541 40.263999,74.5399845 C40.263999,74.6799149 40.263999,74.7732018 40.263999,74.9131322 C40.0765293,74.9131322 39.8890596,74.9131322 39.7015899,74.9597757 C38.3893021,75.0997061 37.2176165,75.4728538 36.3271355,76.0792188 C35.9990636,76.2657926 35.7647265,76.4990099 35.5303894,76.7788707 C35.4835219,76.0325753 35.4366545,75.3329234 35.4366545,74.586628 C35.4366545,73.8403326 35.4835219,73.0940372 35.5303894,72.3943853 C35.7647265,72.5809591 35.9990636,72.767533 36.3271355,73.0007503 Z M42.326166,86.0142771 C42.1855638,86.0609205 42.0918289,86.107564 41.9512266,86.1542074 C40.9670108,86.4807117 39.9359275,86.5739986 39.1391813,86.4340682 C38.5299048,86.3407813 38.108098,86.107564 38.0143632,85.8277032 C37.8268935,85.2679817 38.9048442,83.9619647 41.0138782,83.2623128 C41.1544805,83.2156694 41.2482153,83.1690259 41.3888176,83.1690259 L42.326166,86.0142771 L42.326166,86.0142771 Z M40.545204,81.816365 C38.7642419,82.3760866 37.4519541,83.3555993 36.8426772,84.4283989 C36.4677378,83.029095 36.1396658,81.5831477 35.9053287,80.1371999 C36.7020749,80.7435649 37.9674953,81.0700692 39.3735184,81.0700692 C39.7015904,81.0700692 40.0296623,81.0700692 40.3577343,81.0234257 C40.545204,81.0234257 40.7326737,80.9767822 40.9201434,80.9301388 C40.9670108,81.1633561 41.0138782,81.3965734 41.0607456,81.6764342 C40.9201434,81.7230776 40.7326737,81.7697211 40.545204,81.8163646 L40.545204,81.816365 Z M41.1544805,56.2091026 C41.2950827,55.9758853 41.6700221,55.8359549 42.2324312,55.8359549 C42.2792986,55.8359549 42.326166,55.8359549 42.3730334,55.8359549 C43.1697796,55.8825984 44.1539955,56.2091026 45.0444765,56.7221807 C45.1382114,56.7688242 45.2788136,56.8621111 45.3725485,56.9087545 L43.872791,59.4741449 C43.7790561,59.4275015 43.6384538,59.380858 43.544719,59.2875711 C42.654238,58.774493 41.8574918,58.0748411 41.435685,57.4218326 C41.1076131,56.955398 41.0138782,56.4889634 41.1544805,56.2091026 L41.1544805,56.2091026 Z M45.8412232,55.3695203 C44.716405,54.7165118 43.4978521,54.3433641 42.4667688,54.2967207 C42.0918294,54.2967207 41.7637574,54.2967207 41.4356855,54.3900076 C42.2324317,53.1772776 43.0760453,51.9645476 44.0133937,50.845104 C44.153996,52.057834 44.9507421,53.5037814 46.3567648,54.7165118 C46.4973671,54.8564422 46.6848368,54.9497291 46.825439,55.0896595 C46.6848368,55.2762334 46.5442345,55.5094507 46.3567648,55.6960245 C46.1692951,55.6027376 46.0286928,55.4628072 45.8412232,55.3695203 L45.8412232,55.3695203 Z M52.543265,49.026009 C52.4495301,48.9327221 52.4026627,48.8394352 52.3089279,48.7461483 C50.9966401,46.9736967 50.9029052,45.2945316 51.3715794,44.9213839 C51.4653143,44.8747405 51.6059165,44.828097 51.7465188,44.828097 C52.4495301,44.828097 53.6680831,45.5277489 54.7460338,46.9736962 C54.8397687,47.0669832 54.8866361,47.1602701 54.9803709,47.3002005 L52.543265,49.0260086 L52.543265,49.026009 Z M51.0435075,49.632374 C51.1372423,49.7723044 51.2778446,49.9588783 51.4184469,50.0988087 C51.2309772,50.2853825 51.0435075,50.4253129 50.8560378,50.6118867 C50.7154355,50.4719563 50.5748333,50.332026 50.434231,50.1920956 C49.0750758,48.9793656 47.5284508,48.2797136 46.3098974,48.2797136 C47.3409807,47.2535575 48.4189314,46.2740448 49.5906169,45.3411755 C49.4500147,46.5539056 49.9655563,48.1397833 51.043507,49.6323745 L51.0435075,49.632374 Z M38.4830374,56.2557461 L38.8111094,47.3468444 L47.4815829,45.0613148 C43.8259235,48.2330702 40.7795411,52.0111911 38.4830374,56.2557466 L38.4830374,56.2557461 Z M39.7015904,57.3285457 C39.7953252,57.6550499 39.9359275,57.9349107 40.1702646,58.2614149 C40.7326737,59.1476407 41.6700221,59.987223 42.7948402,60.6402315 C42.9823099,60.7335184 43.1229122,60.8268053 43.3103819,60.9200923 C43.216647,61.1533096 43.0760448,61.3865269 42.9823099,61.6197442 C42.7948402,61.5264573 42.6073706,61.4798138 42.4199009,61.4331703 C41.2013479,61.0133792 39.9359275,60.9200923 38.8579763,61.0600226 C38.4830369,61.1066661 38.154965,61.2465965 37.826893,61.3398834 C38.3893021,59.987223 38.9985786,58.6345626 39.7015899,57.3285452 L39.7015904,57.3285457 Z M36.4208708,70.7152202 C36.4677383,70.2021421 37.6394238,69.5491336 39.3735184,69.5491336 C39.654723,69.5491336 39.8890601,69.5491336 40.1702646,69.5957771 C40.3108669,69.5957771 40.4046017,69.6424206 40.545204,69.6424206 L40.217132,72.6276021 C40.0765298,72.6276021 39.9827949,72.6276021 39.8421927,72.5809587 C38.8111094,72.4876717 37.8268935,72.1611675 37.1707496,71.6947329 C36.7020754,71.3682286 36.3740034,70.995081 36.4208708,70.7152202 L36.4208708,70.7152202 Z M33.9368975,76.0792188 C34.1243672,81.0234262 35.2491853,85.6877724 37.1238822,89.9789713 L30.3749729,84.241825 L33.9368975,76.0792188 Z M37.8737614,87.6934417 C38.1549659,87.8333721 38.5299053,87.926659 38.9048447,87.9733025 C39.2329166,88.0199459 39.5141212,88.0665894 39.8890606,88.0665894 C40.6858067,88.0665894 41.5762877,87.926659 42.4667688,87.6467982 C42.6542385,87.6001548 42.8417081,87.5068678 43.0291778,87.4602244 C43.1229127,87.6934417 43.2166475,87.926659 43.3572498,88.1598763 C43.1697801,88.2531632 43.0291778,88.3464502 42.8417081,88.4397371 C41.71689,89.0927455 40.7795416,89.9323279 40.2171325,90.8185536 C40.0296628,91.1450579 39.8890606,91.4249186 39.7484583,91.7514229 C38.9985795,90.3987625 38.389303,89.0461021 37.8737614,87.6934412 L37.8737614,87.6934417 Z M63.5571106,110.68867 C62.1042205,110.315522 60.6981979,109.849087 59.3390421,109.336009 C59.6202467,109.196079 59.9483186,109.009505 60.2295232,108.776288 C61.0731368,108.123279 61.8230155,107.097123 62.3385571,105.931037 C62.432292,105.744463 62.4791594,105.557889 62.5728943,105.371315 C62.8072314,105.464602 63.0415685,105.557889 63.2759056,105.604532 C63.2290382,105.791106 63.1821707,105.97768 63.1353033,106.164254 C62.7603639,107.983349 62.9478336,109.662514 63.5571101,110.68867 L63.5571106,110.68867 Z M58.1673566,104.065298 C58.214224,103.972011 58.2610914,103.83208 58.3079589,103.738793 L61.0262693,104.951523 C60.9794019,105.091454 60.9325345,105.184741 60.8856671,105.278028 C60.4638603,106.210897 59.8545838,107.050479 59.2453073,107.563557 C58.7766331,107.936705 58.3079589,108.123279 58.0267543,107.983349 C57.5112127,107.750131 57.2768756,106.070967 58.1673566,104.065297 L58.1673566,104.065298 Z M56.7613339,103.412289 C56.0114552,105.091454 55.8239855,106.723975 56.1989249,107.890062 C54.886637,107.237054 53.6212166,106.490758 52.4026632,105.697819 C52.7307351,105.651176 53.0588071,105.511246 53.3868791,105.371315 C54.3242275,104.904881 55.2615759,104.065298 56.0583221,102.992499 C56.152057,102.852568 56.2926592,102.665994 56.3863941,102.526064 C56.6207312,102.665994 56.8082009,102.759281 57.042538,102.899212 C56.9019357,103.085785 56.8082009,103.272359 56.7613334,103.41229 L56.7613339,103.412289 Z M80.1950464,36.2456996 C77.8516753,35.8259084 75.4614363,35.5926911 73.0243303,35.5926911 C70.5872244,35.5926911 68.1969854,35.8259084 65.8536143,36.2456996 L73.0243303,30.9283444 L80.1950464,36.2456996 Z M81.4135994,42.5425674 C81.3667319,42.6824978 81.3667319,42.7757847 81.3198645,42.9157151 L78.3672169,42.3093501 C78.3672169,42.1694197 78.4140843,42.0761328 78.4140843,41.9362024 C78.6484215,40.9100462 79.0702283,39.977177 79.5389025,39.370812 C79.9138419,38.9043773 80.3356486,38.67116 80.6168532,38.7178035 C81.2729971,38.8110904 81.8354062,40.3969681 81.4135994,42.5425678 L81.4135994,42.5425674 Z M78.3672169,38.3912988 C77.711073,39.2308811 77.1955314,40.3503242 76.9143268,41.6096977 C76.8674594,41.7962715 76.820592,41.9828454 76.820592,42.1694192 C76.5862549,42.1227757 76.3050504,42.1227757 76.0707132,42.0761323 C76.0707132,41.8895584 76.0707132,41.7029846 76.0707132,41.5164107 C76.0707132,39.6506723 75.5551716,38.111438 74.711558,37.1785683 C76.2113155,37.2252118 77.6642056,37.4117856 79.1170961,37.6450029 C78.882759,37.8315768 78.6484219,38.0647941 78.3672174,38.3912983 L78.3672169,38.3912988 Z M65.3849401,38.717803 C65.4318075,38.717803 65.4318075,38.717803 65.4786749,38.717803 C65.7598794,38.717803 66.1348188,38.9510203 66.4628908,39.3708115 C66.9784324,39.9771765 67.4002392,40.9100457 67.5877089,41.9362019 C67.6345763,42.0761323 67.6345763,42.1694192 67.6345763,42.3093496 L64.6819287,42.9157146 C64.6350613,42.7757842 64.6350613,42.6824973 64.5881939,42.5425669 C64.2132545,40.3969677 64.7756636,38.8110895 65.3849401,38.7178026 L65.3849401,38.717803 Z M69.1343343,41.6096977 C68.8531298,40.3503242 68.3375881,39.1842376 67.6814442,38.3912988 C67.4471071,38.111438 67.1659026,37.8782207 66.9315655,37.6450034 C68.3844555,37.4117861 69.8373456,37.2718557 71.3371036,37.1785688 C70.49349,38.0647946 69.9779484,39.6506723 69.9779484,41.5164112 C69.9779484,41.7029851 69.9779484,41.8895589 69.9779484,42.0761328 C69.7436113,42.0761328 69.4624067,42.1227762 69.2280696,42.1694197 C69.1812022,41.9828458 69.1812022,41.796272 69.1343348,41.6096981 L69.1343343,41.6096977 Z M106.300202,74.1201929 C107.61249,73.9802625 108.784176,73.6071148 109.674657,73.0007498 C110.002729,72.814176 110.237066,72.5809587 110.471403,72.3010979 C110.51827,73.0473933 110.565138,73.7470452 110.565138,74.4933406 C110.565138,75.239636 110.51827,75.9859314 110.471403,76.6855833 C109.627789,75.7993575 108.128032,75.0997056 106.300202,74.9131317 C106.112732,74.9131317 105.925263,74.8664883 105.737793,74.8664883 C105.737793,74.7265579 105.737793,74.633271 105.737793,74.4933406 C105.737793,74.3534102 105.737793,74.2134798 105.737793,74.1201929 C105.925263,74.1201929 106.112732,74.1201929 106.300202,74.1201929 L106.300202,74.1201929 Z M105.456589,69.6424201 C105.597191,69.6424201 105.690926,69.5957766 105.831528,69.5957766 C108.034297,69.3625593 109.534055,70.1088547 109.62779,70.7152197 C109.674657,70.9950805 109.346585,71.3682282 108.877911,71.7413759 C108.221767,72.161167 107.237551,72.4876713 106.206468,72.6276016 C106.065866,72.6276016 105.972131,72.6276016 105.831529,72.6742451 L105.456589,69.6424201 L105.456589,69.6424201 Z M109.25285,84.4283984 C109.112248,84.1485376 108.877911,83.8686769 108.596707,83.5888161 C107.846828,82.8425207 106.768877,82.1895123 105.503457,81.8163646 C105.315987,81.7697211 105.128517,81.7230776 104.941048,81.6764342 C104.987915,81.4432169 105.034782,81.2099996 105.08165,80.9301388 C105.26912,80.9767822 105.456589,80.9767822 105.644059,81.0234257 C105.972131,81.0700692 106.300203,81.0700692 106.628275,81.0700692 C108.081165,81.0700692 109.299718,80.7435649 110.096465,80.1371999 C109.955862,81.5831472 109.62779,83.0290946 109.252851,84.4283989 L109.25285,84.4283984 Z M102.175869,59.5207879 L100.676112,56.9087541 C100.769847,56.8621106 100.910449,56.7688237 101.004184,56.7221802 C102.925748,55.6027371 104.612976,55.6960241 104.89418,56.2091021 C105.222252,56.7221802 104.425506,58.214771 102.503942,59.3342141 C102.363339,59.3808575 102.269605,59.427501 102.17587,59.5207879 L102.175869,59.5207879 Z M100.207438,55.3695194 C100.019968,55.4628063 99.8793656,55.5560932 99.6918959,55.6960236 C99.5512936,55.5094497 99.4106913,55.2762324 99.2232216,55.0896586 C99.3638239,54.9497282 99.5512936,54.8564413 99.6918959,54.7165109 C100.676112,53.8302851 101.379123,52.804129 101.754062,51.8246163 C101.894665,51.4514686 101.941532,51.1249643 101.9884,50.7984601 C102.925748,51.9179032 103.769362,53.1306332 104.566108,54.3433637 C103.44129,54.1101464 101.80093,54.4832941 100.207437,55.3695198 L100.207438,55.3695194 Z M104.659843,83.1690245 C104.800445,83.2156679 104.89418,83.2156679 105.034782,83.2623114 C106.018998,83.5888156 106.909479,84.1018937 107.471888,84.6616153 C107.893695,85.0814064 108.128032,85.547841 108.034297,85.8277018 C107.940563,86.1075626 107.518756,86.3407799 106.909479,86.4340668 C106.112733,86.5739972 105.08165,86.4340668 104.097434,86.154206 C103.956832,86.1075626 103.863097,86.0609191 103.722495,86.0142756 L104.659843,83.1690245 L104.659843,83.1690245 Z M107.143816,61.0600222 C106.112733,60.8734483 104.847313,61.0133787 103.581892,61.4331699 C103.394422,61.4798133 103.206953,61.5731003 103.019483,61.6197437 C102.925748,61.3865264 102.832013,61.1533091 102.691411,60.9200918 C102.878881,60.8268049 103.019483,60.7335179 103.206953,60.640231 C104.800445,59.7073618 105.925263,58.4946318 106.300202,57.3285452 C106.956346,58.6345622 107.565623,59.9405791 108.128032,61.3398834 C107.893695,61.2465965 107.518755,61.1533096 107.143816,61.0600226 L107.143816,61.0600222 Z M98.5670777,45.0613138 L107.237551,47.3468435 L107.565623,56.2557451 C105.26912,52.0111896 102.222737,48.2330692 98.5670777,45.0613134 L98.5670777,45.0613138 Z M94.6770812,44.87474 C95.1926229,45.2478877 95.0520206,46.8804088 93.7397328,48.6995043 C93.6459979,48.7927912 93.5991305,48.8860782 93.5053957,48.9793651 L91.0682897,47.2069135 C91.1151571,47.1136266 91.208892,47.0203397 91.3026268,46.8804093 C92.6149147,45.1546012 94.1615396,44.5482362 94.6770812,44.8747405 L94.6770812,44.87474 Z M95.0051532,49.6323736 C96.0831039,48.1397828 96.5986455,46.6005485 96.4580433,45.3878181 C97.5828614,46.3206873 98.7076795,47.2535565 99.7387628,48.3263562 C98.5202098,48.3263562 97.0204523,48.9793646 95.6144292,50.2387381 C95.4738269,50.3786685 95.3332247,50.5185989 95.1926224,50.6585292 C95.0051527,50.4719554 94.817683,50.332025 94.6302133,50.1454512 C94.7708156,49.9588773 94.8645504,49.7723035 95.0051527,49.6323731 L95.0051532,49.6323736 Z M82.9133573,106.164253 C82.8664899,105.977679 82.8196225,105.791105 82.7727551,105.604531 C83.0070922,105.511245 83.2414293,105.464601 83.4757664,105.371314 C83.5226338,105.557888 83.6163687,105.744462 83.7101035,105.931036 C84.2256452,107.097122 84.9755239,108.123278 85.8191375,108.776287 C86.100342,109.009504 86.428414,109.196078 86.7096185,109.336008 C85.3504633,109.849087 83.9444406,110.315521 82.4915501,110.688669 C83.1008266,109.662513 83.2882962,107.983348 82.9133569,106.164253 L82.9133573,106.164253 Z M87.9750394,107.983348 C87.6938349,108.123278 87.2251606,107.936705 86.7564864,107.563557 C86.1472099,107.050479 85.5379334,106.210896 85.1161266,105.278027 C85.0692592,105.18474 85.0223918,105.04481 84.9755244,104.951523 L87.6938349,103.738793 C87.7407023,103.83208 87.7875697,103.97201 87.8344371,104.065297 C88.7717856,106.070966 88.5374485,107.750131 87.9750394,107.983349 L87.9750394,107.983348 Z M89.3341946,103.412288 C89.2404598,103.225714 89.1467249,103.039141 89.0529901,102.89921 C89.2873272,102.75928 89.5216643,102.665993 89.709134,102.526063 C89.8028689,102.712636 89.8966037,102.852567 90.037206,103.039141 C91.1151567,104.531731 92.4743119,105.511244 93.6928654,105.744461 C92.4743124,106.5374 91.208892,107.283696 89.8966037,107.936704 C90.2246757,106.770618 90.0840734,105.138096 89.3341946,103.412288 L89.3341946,103.412288 Z M103.25382,88.3930927 C103.06635,88.2998057 102.925748,88.2065188 102.738278,88.1132319 C102.832013,87.8800146 102.972615,87.6467973 103.06635,87.41358 C103.25382,87.5068669 103.44129,87.5535104 103.628759,87.6001538 C104.51924,87.8800146 105.409721,88.019945 106.206468,88.019945 C106.534539,88.019945 106.862611,87.9733015 107.190683,87.9266581 C107.565623,87.8800146 107.893695,87.7400842 108.221767,87.6467973 C107.706225,89.0461011 107.096949,90.3521181 106.393937,91.6581355 C105.97213,90.5386924 104.89418,89.3259624 103.25382,88.3930931 L103.25382,88.3930927 Z M112.111763,76.0792178 L115.720555,84.1951806 L108.924778,89.9789704 C110.799475,85.6877714 111.924293,81.0234252 112.111763,76.0792178 Z M110.143331,68.9427677 C109.159116,68.2431158 107.518756,67.8699681 105.644058,68.0565419 C105.456589,68.0565419 105.269119,68.1031854 105.081649,68.1498288 C105.034782,67.9166115 104.987915,67.6833942 104.941047,67.4035334 C105.128517,67.35689 105.315987,67.3102465 105.503456,67.2636031 C106.722009,66.8438119 107.846827,66.2374469 108.596706,65.4911515 C108.877911,65.2112907 109.06538,64.93143 109.25285,64.6515692 C109.627789,66.0042296 109.955861,67.4501769 110.143331,68.9427682 L110.143331,68.9427677 Z M108.784176,47.6267042 C109.534055,48.1864258 110.377669,48.5595735 111.361884,48.6528604 C111.549354,48.6528604 111.736824,48.6995039 111.924293,48.6995039 C113.095979,48.6995039 114.17393,48.3263562 115.111278,47.5800608 C116.845373,46.2274004 117.407782,43.9418703 116.751638,41.9828449 L120.079225,42.5892099 C116.611035,51.5913985 111.455619,56.5356059 109.159115,58.4013444 L108.784175,47.6267038 L108.784176,47.6267042 Z M120.594768,41.1432626 L116.095495,40.3036803 L116.282964,35.7326205 C117.970191,35.5460467 119.751154,35.4527598 121.625851,35.4527598 C121.813321,35.4527598 122.00079,35.4527598 122.18826,35.4527598 C121.766453,37.5050721 121.204044,39.4174545 120.594768,41.1432626 L120.594768,41.1432626 Z M114.595737,39.3241676 C112.814775,38.2513679 110.471403,38.2980114 108.737309,39.6973153 C106.862612,41.189906 106.34707,43.7552969 107.284419,45.8076092 L96.7861152,43.055645 C99.0826189,41.2831934 105.081649,37.3651422 114.689472,36.0124818 L114.595737,39.3241676 Z M90.037206,46.0408265 C89.9434711,46.1807569 89.8497363,46.3673308 89.709134,46.5539046 C89.4747969,46.4139742 89.2404598,46.2740438 89.0529901,46.1807569 C89.1467249,45.9941831 89.2404598,45.8542527 89.3341946,45.6676788 C90.0840734,43.9885142 90.2715431,42.355993 89.8966037,41.189906 C91.2088915,41.8429145 92.4743119,42.5892099 93.6928654,43.3821487 C92.4743124,43.5687226 91.1151571,44.5482353 90.037206,46.0408261 L90.037206,46.0408265 Z M83.7101035,43.1489319 C83.6163687,43.3355057 83.5695012,43.5220796 83.4757664,43.7086534 C83.2414293,43.6153665 83.0070922,43.5220796 82.7727551,43.4754361 C82.8196225,43.2888623 82.8664899,43.1022884 82.9133573,42.9157146 C83.2882967,41.0966196 83.100827,39.4640979 82.4915505,38.3912983 C83.9444406,38.764446 85.3504633,39.2308806 86.709619,39.7439587 C85.5848009,40.2103933 84.4599827,41.4697668 83.710104,43.1489314 L83.7101035,43.1489319 Z M74.2428838,29.9021878 C76.49252,29.3424663 78.1328803,27.3834409 78.1328803,24.9579804 C78.1328803,22.7657377 76.7268576,20.8999987 74.7584259,20.2003468 L77.2892667,18.0081041 C82.2103465,26.3106408 82.8664904,33.4004474 82.9133578,36.338986 L74.2428843,29.9021878 L74.2428838,29.9021878 Z M73.0243308,19.6872692 L69.5561411,16.7020876 C70.540357,15.1628534 71.7120425,13.5303322 73.0243308,11.9444541 C74.3366186,13.5769752 75.5083042,15.1628529 76.4925205,16.7020876 L73.0243308,19.6872692 Z M68.7593949,18.0081046 L71.2902357,20.2003473 C69.321804,20.8999992 67.9157813,22.7657377 67.9157813,24.9579809 C67.9157813,27.3367974 69.6030085,29.3424667 71.8057778,29.9021883 L63.0884369,36.3389865 C63.1353043,33.4470918 63.7914482,26.3572852 68.7593954,18.0081046 L68.7593949,18.0081046 Z M63.5571106,38.3446553 C62.9478341,39.417455 62.7603644,41.0499761 63.1353038,42.8690716 C63.1821712,43.0556454 63.2290386,43.2422193 63.2759061,43.4287931 C63.041569,43.5220801 62.8072318,43.5687235 62.5728947,43.6620105 C62.5260273,43.4754366 62.4322925,43.2888628 62.3385576,43.1022889 C61.5886789,41.4231243 60.4638607,40.2103943 59.3390426,39.6973162 C60.6981979,39.1842381 62.1042205,38.7178035 63.5571111,38.3446558 L63.5571106,38.3446553 Z M56.8550688,31.3481356 C56.4801294,33.307161 56.3395271,34.9863261 56.2457923,36.3389865 C55.1209741,36.6188472 54.0430234,36.9919949 53.0588076,37.4117861 L53.0588076,37.4117861 C51.8402546,36.5722038 50.2467623,35.5926911 48.2314626,34.5665349 C50.6685686,32.8407268 53.6212166,31.7212838 56.8550688,31.3481361 L56.8550688,31.3481356 Z M56.2457923,37.9248642 C56.2457923,38.5312292 56.2926597,38.9976638 56.2926597,39.324168 C56.1520574,39.417455 55.9645877,39.4640984 55.8239855,39.5573853 C55.5427809,39.2775246 55.1209741,38.9510203 54.5585651,38.4845857 C55.0741067,38.2980119 55.6365158,38.111438 56.2457923,37.9248642 Z M56.1989249,41.143263 C55.8239855,42.3093496 56.0114552,43.9418708 56.7613339,45.6210358 C56.8550688,45.8076097 56.9488036,45.9941835 57.0425385,46.1341139 C56.8082013,46.2740443 56.6207317,46.3673312 56.3863945,46.5072616 C56.2926597,46.3206878 56.1520574,46.1807574 56.0583226,46.040827 C54.9803719,44.5482362 53.6212166,43.5687235 52.4495306,43.3355062 C53.6212162,42.4959239 54.8866366,41.796272 56.1989249,41.1432635 L56.1989249,41.143263 Z M38.717375,45.8076097 C39.7015909,43.7552974 39.1391818,41.1899065 37.2644849,39.6973157 L37.2644849,39.6973157 C35.5303903,38.3446553 33.1870187,38.2513684 31.4060567,39.324168 L31.2654544,35.9658388 C40.8732764,37.3184992 46.8723069,41.2365504 49.1688111,43.009002 L38.717375,45.8076097 L38.717375,45.8076097 Z M29.7188295,35.7792649 L29.9062992,40.3503247 L25.4070262,41.189907 C24.7977497,39.4640989 24.2822081,37.5517165 23.8135338,35.5460476 C25.9225678,35.4527607 27.891,35.5926911 29.7188295,35.7792649 L29.7188295,35.7792649 Z M29.2970227,42.0294893 C29.0626856,42.7291412 28.9689507,43.4754366 29.0626856,44.221732 C29.2032878,45.5743924 29.9062992,46.7871224 30.9373825,47.6267047 C31.8278635,48.3730001 32.9526816,48.7461478 34.1243672,48.7461478 C34.3118369,48.7461478 34.4993065,48.7461478 34.6867762,48.6995043 C35.6241247,48.6062174 36.5146057,48.2330697 37.2644844,47.6733482 L36.8895451,58.4479888 C34.6399088,56.5822503 29.4376245,51.6846864 25.9694348,42.6358543 L29.2970217,42.0294893 L29.2970227,42.0294893 Z M36.7958107,64.6049262 C36.936413,64.884787 37.1707501,65.1646478 37.4519546,65.4445085 C38.2018334,66.1908039 39.2797841,66.8438124 40.5452045,67.2169601 C40.7326741,67.2636035 40.9201438,67.310247 41.1076135,67.3568905 C41.0607461,67.5901078 41.0138787,67.8233251 40.9670113,68.1031858 C40.7795416,68.0565424 40.5920719,68.0565424 40.4046022,68.0098989 C38.5299053,67.8233251 36.9364125,68.1498293 35.9053292,68.8961247 C36.0927989,67.4501774 36.4208708,66.0042301 36.7958102,64.6049257 L36.7958107,64.6049262 Z M29.0626856,83.3089558 C28.0316023,81.2566435 25.6882312,80.0905569 23.3448596,80.603635 L23.3448596,80.603635 C21.1889582,81.0700696 19.6892002,82.8891647 19.4079957,84.9414774 L16.6896852,82.982452 C23.719799,76.35908 30.5624431,74.1201938 33.4213558,73.4671854 L29.0626851,83.3089563 L29.0626856,83.3089558 Z M15.6117345,84.0552512 L19.3142613,86.760572 L17.1583599,90.7719102 C15.4242653,90.1655452 13.5964353,89.4192498 11.7217385,88.4863805 C12.9871589,86.8072159 14.2994467,85.3612686 15.611735,84.0552512 L15.6117345,84.0552512 Z M20.2047423,88.2998067 C20.6265491,88.9061717 21.1420908,89.4658932 21.7513673,89.8390409 C22.5949809,90.352119 23.4854619,90.6319798 24.4696777,90.6319798 C24.8446171,90.6319798 25.2195565,90.5853363 25.5944959,90.4920494 C26.9067837,90.2121886 28.0316018,89.3726063 28.7814806,88.2531632 C29.2970222,87.4602244 29.5313593,86.5273551 29.5782267,85.5944859 L37.8268935,92.5910056 C34.9679808,93.1973707 27.8909996,94.1768833 18.611249,91.2383453 L20.2047414,88.2998072 L20.2047423,88.2998067 Z M42.2324321,94.7366049 C43.3103828,94.7366049 44.5758032,94.3634572 45.8412241,93.6638053 C46.0286938,93.5705183 46.1692961,93.4772314 46.3567657,93.337301 C46.497368,93.5238749 46.6379703,93.7570922 46.7785725,93.943666 C46.6379703,94.0835964 46.4505006,94.1768833 46.3098983,94.3168137 C44.9507431,95.5761872 44.1071295,96.9754911 43.9665272,98.1882215 C43.0291788,97.0687785 42.1855652,95.8560484 41.388819,94.643318 C41.6700235,94.7366049 41.9512281,94.7366049 42.2324326,94.7366049 L42.2324321,94.7366049 Z M50.4342315,98.8878735 C50.5748337,98.7479431 50.715436,98.6080127 50.8560383,98.4680823 C51.043508,98.6546562 51.2309776,98.7945865 51.4184473,98.9811604 C51.2778451,99.1210908 51.1841102,99.3076646 51.043508,99.447595 C49.9655572,100.940186 49.4500156,102.47942 49.5906179,103.69215 C48.4657997,102.759281 47.3409816,101.826412 46.3098983,100.753612 C47.5284513,100.753612 49.0750762,100.100604 50.4342319,98.8878739 L50.4342315,98.8878735 Z M49.1219436,123.935414 L50.9497731,128.133326 C49.3562808,129.112839 47.6690536,130.045708 45.7474888,130.931934 C45.2788146,128.926265 44.9038752,126.967239 44.7164055,125.148144 L49.1219436,123.935414 Z M52.2620609,127.293744 L50.9497731,124.215275 C51.1372428,124.215275 51.2778451,124.261919 51.4653148,124.261919 C53.3868791,124.261919 55.214709,123.189119 56.0583226,121.370024 C56.6675991,120.157294 56.7144665,118.75799 56.2926597,117.498616 C55.9645877,116.61239 55.4490461,115.819452 54.6991674,115.25973 L65.3380731,113.207418 C63.9789179,115.819452 60.3232585,121.929745 52.2620614,127.293744 L52.2620609,127.293744 Z M66.8846976,111.388322 C67.1659021,111.201748 67.4002392,110.968531 67.6345763,110.642027 C68.2907202,109.802444 68.8062619,108.683001 69.0874664,107.423628 C69.1343338,107.237054 69.1812012,107.05048 69.1812012,106.863906 C69.4155384,106.91055 69.6967429,106.91055 69.93108,106.957193 C69.93108,107.143767 69.93108,107.330341 69.93108,107.516915 C69.93108,109.382653 70.4466216,110.921888 71.2902352,111.854757 C69.8373452,111.808114 68.3375876,111.62154 66.8846971,111.388323 L66.8846976,111.388322 Z M73.9616788,114.979869 C73.3524023,114.933226 72.7899932,114.839939 72.1807167,114.746652 C72.4619213,114.18693 72.6025235,113.767139 72.7431258,113.440635 C72.8368606,113.440635 72.9305955,113.440635 73.0243303,113.440635 C73.1180652,113.440635 73.2118,113.440635 73.3055349,113.440635 C73.4461371,113.813783 73.6336068,114.326861 73.9616788,114.979869 L73.9616788,114.979869 Z M76.0707128,106.957193 C76.3050499,106.957193 76.5862544,106.91055 76.8205915,106.863906 C76.8674589,107.05048 76.8674589,107.237054 76.9143264,107.423628 C77.2892657,109.242723 78.1328793,110.68867 79.1170952,111.388323 C77.6642051,111.62154 76.211315,111.76147 74.7115571,111.854757 C75.5551706,110.968531 76.0707123,109.382654 76.0707123,107.516915 C76.0707123,107.330341 76.0707123,107.143767 76.0707123,106.957193 L76.0707128,106.957193 Z M91.3963607,115.213087 C89.6153987,116.659034 89.0061222,119.177781 90.0372055,121.32338 C90.646482,122.53611 91.6775653,123.46898 92.9429857,123.888771 C93.5053947,124.075345 94.0678038,124.168632 94.6302129,124.168632 C94.8176825,124.168632 94.9582848,124.168632 95.1457545,124.121988 L93.8334667,127.200457 C85.7722696,121.836458 82.0697428,115.726164 80.8043224,113.11413 L91.3963607,115.213086 L91.3963607,115.213087 Z M96.926717,123.935414 L101.332255,125.148144 C101.097918,126.967239 100.769846,128.926265 100.301172,130.931934 C98.426475,130.045708 96.6923799,129.112839 95.0988876,128.133326 L96.926717,123.935414 L96.926717,123.935414 Z M101.519725,123.60891 L98.2858727,122.722684 C98.8014144,122.209606 99.2232212,121.556598 99.4575583,120.856946 C99.9262325,119.597572 99.8324977,118.198269 99.2232212,116.985538 C98.6139447,115.772808 97.5828614,114.839939 96.317441,114.420148 C95.42696,114.093643 94.4896115,114.047 93.5522631,114.233574 L98.5670777,104.671664 C99.8324981,107.283698 102.316472,113.953713 101.519725,123.608911 L101.519725,123.60891 Z M96.4580428,103.69215 C96.5986451,102.47942 96.0831034,100.940186 95.0051527,99.447595 C94.9114179,99.3076646 94.7708156,99.1210908 94.6302133,98.9811604 C94.817683,98.7945865 95.0051527,98.6546562 95.1926224,98.4680823 C95.3332247,98.6080127 95.4738269,98.7479431 95.6144292,98.8878735 C96.9735844,100.100603 98.5202094,100.800255 99.7387628,100.800255 C98.7076795,101.826412 97.6297288,102.805924 96.4580433,103.69215 L96.4580428,103.69215 Z M104.097433,100.240534 C103.816229,99.6808123 103.581891,99.2610212 103.441289,98.9811604 C103.535024,98.84123 103.628759,98.7012996 103.769361,98.6080127 C104.1443,98.7012996 104.70671,98.8878735 105.409721,99.0278038 C104.987914,99.447595 104.566107,99.8673862 104.097433,100.240534 Z M102.035266,98.234865 C101.988399,97.9083608 101.941532,97.5818565 101.800929,97.2087088 C101.42599,96.2291961 100.676111,95.20304 99.7387628,94.3168142 C99.5981605,94.1768838 99.4575583,94.0835969 99.2700886,93.9436665 C99.4106909,93.7570927 99.5512931,93.5238754 99.6918954,93.3373015 C99.8793651,93.4305884 100.019967,93.5705188 100.207437,93.6638057 C101.472857,94.4101011 102.738278,94.7366054 103.816229,94.7366054 C104.097434,94.7366054 104.378638,94.6899619 104.612975,94.6433184 C103.816229,95.9026919 102.972615,97.1154219 102.035267,98.2348655 L102.035266,98.234865 Z M116.470433,85.5944859 C116.470433,86.5273551 116.751638,87.4135809 117.26718,88.2531632 C117.970191,89.4192498 119.141876,90.2121886 120.454164,90.4920494 C120.829104,90.5853363 121.204043,90.6319798 121.578982,90.6319798 C122.516331,90.6319798 123.453679,90.352119 124.297293,89.8390409 C124.953437,89.4192498 125.468978,88.9061717 125.843918,88.2998067 L127.43741,91.2383448 C118.204528,94.1768829 111.080679,93.2440136 108.221766,92.5910052 L116.470432,85.5944854 L116.470433,85.5944859 Z M128.937169,90.7252672 L126.781267,86.713929 L130.483794,84.0086082 C131.796082,85.3146251 133.10837,86.7605725 134.373791,88.4397375 C132.499094,89.3726068 130.671264,90.1189022 128.937169,90.7252672 L128.937169,90.7252672 Z M126.593798,84.894834 C126.312593,82.8425217 124.812836,81.0700696 122.656934,80.5569916 C120.313563,80.0439135 117.970191,81.21 116.939108,83.2623123 L112.580437,73.373898 C115.43935,74.0735499 122.235126,76.2657926 129.312108,82.8891647 L126.593797,84.8948335 L126.593798,84.894834 Z M111.08068,65.6310828 C111.408752,65.3978655 111.830559,65.0713613 112.439835,64.6515701 C112.53357,65.2112917 112.580437,65.8176567 112.627305,66.4240217 C112.018028,66.2840913 111.549354,66.1908044 111.221282,66.1441609 C111.174415,65.9575871 111.127547,65.7710132 111.08068,65.6310828 L111.08068,65.6310828 Z M114.17393,66.7971694 C114.127062,65.6777263 114.033327,64.5582832 113.79899,63.4854836 C114.923809,62.5059709 116.236096,61.1533105 117.642119,59.4741454 C118.813805,62.1794662 119.235612,65.2579351 118.90754,68.5229775 C117.07971,67.6833952 115.43935,67.1236736 114.17393,66.7971694 L114.17393,66.7971694 Z M122.328862,52.8507734 C122.891271,51.9179041 123.45368,50.9383914 124.016089,49.8655918 C124.016089,49.8655918 124.016089,49.8655918 124.062956,49.8655918 C125.09404,50.4719568 137.045233,57.8882677 129.64018,74.6799154 C128.421627,73.7470461 127.203074,72.9541073 126.031388,72.2078119 C128.093555,64.8381445 126.734399,57.7949813 122.328861,52.8507738 L122.328862,52.8507734 Z M129.405843,29.8089018 C124.7191,52.104478 113.79899,61.6663886 110.70574,63.9985617 C110.330801,62.6925448 109.908994,61.4331713 109.44032,60.2204408 C111.736823,58.5879196 120.735369,51.1716087 123.969221,34.8930392 L124.156691,34.0068134 L123.219343,33.9601699 C106.534539,33.4937353 97.254789,40.583542 95.145755,42.4492804 C94.0678043,41.7029851 92.9429861,41.0033331 91.7713006,40.3503247 C94.6770808,37.8315777 106.440805,29.3891102 129.405843,29.8089014 L129.405843,29.8089018 Z M73.0243303,2.80233556 C87.6000995,20.3402786 88.3499783,34.7997527 88.209376,38.67116 C86.9908231,38.158082 85.7254027,37.6916473 84.4599818,37.3184996 C84.6005841,34.5198919 84.3662469,22.905669 73.6336063,10.2186465 L73.0243299,9.51899453 L72.4150534,10.2186465 C61.6355453,22.905669 61.4480757,34.4732485 61.5418105,37.3184996 C60.2763901,37.6916473 59.0109697,38.158082 57.7924163,38.67116 C57.6986814,34.7531088 58.4016927,20.3402781 73.0243294,2.80233556 L73.0243303,2.80233556 Z M54.3242275,40.3503251 C53.1525419,41.0033336 52.0277238,41.7029855 50.9029057,42.4492809 C48.7938717,40.6301859 39.5609886,33.4937358 22.829318,34.0068139 L21.8919695,34.0534573 L22.0794392,34.9396831 C25.3132913,51.2648957 34.3118373,58.6345631 36.608341,60.2670847 C36.1396668,61.4798147 35.6709926,62.7391882 35.3429206,64.0452056 C32.2028033,61.7130325 21.3295605,52.1977654 16.6428178,29.8555458 C39.5609886,29.3891111 51.3247125,37.8315782 54.324228,40.3503256 L54.3242275,40.3503251 Z M34.4993065,67.7766826 C34.2649694,69.0826995 34.1243672,70.3887164 34.0306323,71.7413773 C31.2654544,72.2544554 19.9235373,75.0064196 9.89390805,88.2998072 L9.33149899,89.0461026 L10.1282452,89.4658937 C18.5643816,93.8037361 25.9225674,94.9231792 31.1717191,94.9231792 C35.1554504,94.9231792 37.9206284,94.3168142 39.0923139,93.99031 C39.7484578,95.1563965 40.4983366,96.2758396 41.2482153,97.3486392 C37.4988211,98.3281519 23.2042564,100.893543 2.6763241,90.5853368 C16.6896843,72.4410287 30.7030444,68.5229779 34.4993061,67.7766826 L34.4993065,67.7766826 Z M43.6853217,100.240534 C44.5758028,101.220047 45.5131512,102.19956 46.4973671,103.085785 C45.1850792,105.511246 40.2639995,116.099312 44.4352005,132.191308 L44.6695376,133.077533 L45.5131512,132.704386 C60.7450643,125.941083 65.9942161,115.586234 67.1190342,112.9742 C68.431322,113.160774 69.7436098,113.300704 71.1027656,113.347348 C69.5092732,116.892251 62.6197617,129.579273 41.7637574,139.09454 C36.2334012,117.032182 41.9043597,103.69215 43.6853217,100.240534 L43.6853217,100.240534 Z M104.284903,139.187828 C83.5226334,129.672561 76.539387,116.985539 74.9458946,113.440635 C76.3050499,113.393991 77.6173377,113.254061 78.929626,113.020844 C80.0544441,115.632878 85.3035959,125.987727 100.535509,132.75103 L101.379123,133.124177 L101.61346,132.237951 C105.784661,116.099313 100.910448,105.557889 99.5512931,103.132429 C100.535509,102.246204 101.472857,101.266691 102.316471,100.287178 C104.1443,103.692151 109.815259,117.032182 104.284903,139.187828 L104.284903,139.187828 Z M104.753577,97.2553528 C105.550323,96.1825531 106.253334,95.0631101 106.909478,93.8970235 C108.081164,94.2235278 110.846342,94.8298928 114.830073,94.8298928 C120.079225,94.8298928 127.437411,93.7104497 135.873547,89.3726073 L136.670293,88.9528161 L136.107884,88.2065207 C126.078255,74.9131332 114.736338,72.1611689 111.97116,71.6480908 C111.877425,70.2954304 111.689955,68.9894135 111.502486,67.6833961 C115.345615,68.4296915 129.312108,72.3010993 143.2786,90.3987634 C122.844403,100.753613 108.502971,98.2348655 104.753576,97.2553528 L104.753577,97.2553528 Z" id="svg_33" fill="#70146A"></path>
            </g>
        </g>
    </g>
</svg>